<?xml version="1.0" encoding="utf-8" ?>
<svg baseProfile="full" height="300mm" version="1.1" viewBox="0,0,200,300" width="200mm" xmlns="http://www.w3.org/2000/svg" xmlns:ev="http://www.w3.org/2001/xml-events" xmlns:xlink="http://www.w3.org/1999/xlink"><defs /><rect fill="#222222" height="300" width="200" x="0" y="0" /><text fill="#FFFFFF" style="font-size:12px; font-family:Arial; font-weight:bold;" x="10" y="20">Over 18km Runs</text><text fill="#FFFFFF" style="font-size:4px; font-family:Arial" x="10" y="280">ATHLETE</text><text fill="#FFFFFF" style="font-size:9px; font-family:Arial" x="10" y="290">Jason</text><text fill="#FFFFFF" style="font-size:4px; font-family:Arial" x="120" y="280">STATISTICS</text><text fill="#FFFFFF" style="font-size:3px; font-family:Arial" x="120" y="285">Number: 3</text><text fill="#FFFFFF" style="font-size:3px; font-family:Arial" x="120" y="290">Weekly: 1.0</text><text fill="#FFFFFF" style="font-size:3px; font-family:Arial" x="141" y="285">Total: 62.3 km</text><text fill="#FFFFFF" style="font-size:3px; font-family:Arial" x="141" y="290">Avg: 20.8 km</text><text fill="#FFFFFF" style="font-size:3px; font-family:Arial" x="167" y="285">Min: 19.6 km</text><text fill="#FFFFFF" style="font-size:3px; font-family:Arial" x="167" y="290">Max: 21.8 km</text><polyline fill="none" points="85.08225517824758,48.61059284725343 82.90263231901918,51.4723992490035 79.44291349453852,49.96200396044878 76.88272156449966,50.47871877570287 75.22205652866978,50.00175127747934 74.21873806975782,48.690087744180346 72.731058975216,42.84717100378475 71.24337988067418,42.131705984211294 70.20546423329506,42.96641505009029 66.88413416186813,47.73614794528112 62.905457513872534,56.04329784293077 61.59076436061878,56.083044559607515 60.86422340734862,57.1959510356246 61.175598101573996,58.62682627083268 57.30071301816497,68.0863735251769 55.051895782351494,70.51084356059437 51.66137133445591,72.21988743767724 52.526301040663384,74.00841396124451 49.65473441639915,79.17522374683176 49.17037378100213,81.48039442155277 50.06990067532752,86.249671172729 49.8277203575708,88.03813539494877 44.811128062196076,91.01889145100722 38.0300791664049,97.7354475792381 31.006849952740595,107.82994259399129 31.110641517559998,111.72460139187751 30.48789212910924,112.83735413258546 29.138601787621155,113.83088076816057 25.99025765748229,114.30777268286329 24.986939198337495,115.5 25.748077339609154,114.46673652905156 29.000213034567423,113.79113974972279 30.626280882162973,112.63864851149265 31.041447140974924,111.48615397608955 30.868461199803278,108.78374006680679 29.138601787621155,107.82994259399129 28.377463646233082,107.98890899628168 27.789311446016654,110.65158690948738 25.713480151374824,111.6053777015768 27.99689457542263,110.45288021012675 28.273672081530094,108.26710004932829 30.107323058415204,104.21343999463716 32.49452904728241,101.74943061635713 38.20306510757655,92.44964652293129 41.24761767301243,89.19069701893022 45.43387745064683,87.20351974622463 46.748570603784174,85.733002252382 46.95615373319015,83.70606393340859 45.987432462512515,80.96371938299853 48.30544407479465,75.47897426376585 48.0286665688036,73.09427917492576 49.89691473392304,69.67619158930029 53.77179981733207,68.2851011264429 56.124408617964946,65.22468519370886 58.961378053878434,58.03062887411215 60.89882059569936,55.36760305799544 60.276071207248606,54.45342595616239 61.521569984033704,53.30076491285581 63.528206902206875,49.28629897086648 69.340534527204,41.416239693178795 70.41304736281745,38.71335556486156 69.44432609190699,38.19662565077306 69.44432609190699,37.40165525727207 68.4410076327622,37.48115236716694 68.30261887994129,36.368191398942145 69.85949235095177,34.97698586221668 70.89740799809806,35.374473648902494 70.72442205692641,37.52090091636637 72.86944772815332,38.832600835565245 75.25665371690411,42.84717100378475 75.22205652866978,43.244651020824676 73.63058586954139,43.602382700686576 73.28461398696527,44.35759298107587 74.01115494023543,48.411855536309304 75.01447339938022,49.68377263145521 77.2632906351937,50.518466041772626 79.6504966240609,49.92225663957652 82.66045200114604,51.39290490138228 79.37371911806986,49.92225663957652 76.91731875273399,50.518466041772626 74.94527902279515,49.882509314629715 73.8727661871817,47.65665286013973 72.97323929273989,43.244651020824676 71.55475457489956,41.85346924426267 70.17086704517715,42.80742298043333 67.19550885609351,47.17968201896292 63.14763783151284,55.60608369982219 62.69787438435014,56.24203138725716 61.62536154885311,55.84456420026254 61.21019528992474,56.5600048545748 60.795029030996375,57.71265656815376 61.2793896663934,58.26910793868592 58.13104553613812,66.5760405510373 55.1556873471709,70.51084356059437 51.69596852269024,71.98141663440038 51.488385393167846,72.77631876280066 52.56089822889771,73.88917910685996 52.422509475960396,74.64433258888312 49.23956815735437,79.85087858734187 49.931511922273785,86.56762094821897 49.58554003981408,88.19710960803786 45.60686339181848,90.38299867679598 38.99880043719895,96.42393950154656 30.97225276438985,107.67097612895304 30.764669634983875,112.51942509179935 29.138601787621155,113.79113974972279 25.505897022085264,114.66544124853681 25.090730763040483,115.3410365615564 25.955660469131544,114.42699557341984 28.68883834045846,113.87062178266933 30.695475258515216,112.59890737541718 30.660878070397303,108.46580782675301 29.10400459927041,107.7902009835525 28.342866457998753,107.86968420038465 27.92770019895397,110.37339750307729 25.609688586788252,111.48615397608955 27.858505822601728,110.49262155778706 28.16988051671069,108.38632472750032 30.141920246649534,104.13395605635014 35.26230410684366,97.69570497295354 38.618231366504915,91.85349919402506 41.7665754967602,88.79326234874316 45.50307182711549,87.0445451407868 46.64477903896477,85.7727460389724 47.02534810977522,83.34836787707172 46.022029650746845,80.96371938299853 48.34004126302898,75.59820864759968 48.34004126302898,72.4186129992886 49.86231754592154,69.71593696050695 53.87559138215147,68.20561009776429 55.60545079433359,65.97985492294538 56.95474113593809,63.634849555877736 58.82298930105753,57.99088234952069 59.03057243057992,57.59341688873246 59.30734993645456,58.14986842405051 59.618724630679935,57.91138928881264 60.69123746617697,56.083044559607515 61.03720934863668,54.890641350706574 60.17227964254562,54.49317282976699 62.10972218425013,52.50582434004173 63.42441533738747,49.28629897086648 65.67323257320095,46.06674785914947 69.16754858603235,41.932965475309175 70.41304736281745,38.91209766289103 68.40641044464428,37.679895073582884 68.37181325640995,36.20919672373566 69.75570078613237,34.8577394495951 70.82821362174582,35.17572980452678 70.20546423329506,36.368191398942145 70.65522768057417,37.52090091636637 73.11162804579362,39.26983319220017 75.25665371690411,42.80742298043333 75.3604452816071,43.20490303679253 73.7343774343608,43.44339088216657 73.31921117531601,44.0793577794102 74.11494650493842,48.054128129413584 75.22205652866978,49.803014653210994 76.67513843497727,50.518466041772626 79.58130224735942,49.96200396044878 82.66045200114604,51.39290490138228 79.23533036513254,50.00175127747934 76.4675553055713,50.399224231921835 74.6685015168041,49.64402528310893 73.0770308575593,43.522886799270054 71.62394895136822,41.972713584895246 70.5860333039891,42.489438652817626 67.33389760903083,46.821953517443035 62.905457513872534,55.88431093672989 61.90213905472774,55.9240576690936 60.51825152488891,57.951135821145726 61.002612160518765,58.50758686210611 57.577490524272434,67.37095334884361 54.91350702941418,70.59033413432189 51.62677414633799,71.98141663440038 52.31871791114099,74.36611831290065 49.204970969003625,80.12908907452947 49.65473441639915,88.07787895406364 44.29217023844831,91.25735098263249 38.099273542757146,97.29827869439032 30.97225276438985,107.55175123902154 31.041447140974924,111.24770641917712 30.211114623118192,113.0360596558312 26.024854845600203,114.26803171157371 24.91774482175242,115.30129569210112 26.232437975006178,114.30777268286329 30.34950337605551,112.91683635363006 30.937655576271936,111.76434261407121 30.73007244686596,108.5850324461353 29.000213034567423,107.750459369272 28.308269269648008,107.98890899628168 27.720117069547996,110.61184557739762 25.505897022085264,111.48615397608955 27.99689457542263,110.33365614357172 28.100686140242033,108.30684161261888 29.899739928892814,104.49163365497952 34.98552660085261,98.01364571347949 38.68742574297357,91.69452642396209 42.839088332257234,88.07787895406364 44.98411400336772,87.28300702531124 46.5409874743782,85.89197737543145 47.02534810977522,83.9842717575666 46.22961278015282,79.85087858734187 48.20165251009166,75.79693254214362 48.34004126302898,72.49810319635435 49.89691473392304,69.67619158930029 53.52961949969176,68.52357411853154 56.60876925336197,64.31053046890884 58.961378053878434,57.91138928881264 59.134363995166495,57.59341688873246 59.238155560102314,58.30885443580337 59.51493306597695,58.07037539459998 59.75711338350084,57.23569763847627 59.238155560102314,56.083044559607515 61.002612160518765,54.81114767794497 58.511614606832154,54.850894516304834 58.511614606832154,53.3405119003728 68.1988273152383,35.056483450869564 69.06375702121295,34.5 70.86281080998015,35.25522735415143 70.30925579799805,36.48743736409233 71.4855601984309,37.99788319945219" stroke="#ff6800" stroke-linecap="round" stroke-linejoin="round" stroke-width="0.5"><title>2022-05-22 20.9km</title></polyline><polyline fill="none" points="135.59872873104177,87.79745369734883 131.9665745443781,87.68745092781319 131.2155652200454,87.43601573858177 130.0958785910625,85.48737946028996 128.48462222248781,84.70163222891279 127.692648753291,83.02012002938136 125.54885850020219,82.0457776713447 123.65085311693838,79.95563589769881 123.02273622748908,78.24264195353317 122.98177208256675,73.60646429394546 122.76329664268997,72.78922565595713 120.1689007950481,69.56737831019564 119.55443862063112,68.23147111950675 120.00504421518417,61.97613188571995 120.68777996458812,59.807137339230394 123.00908151251497,56.49071853507485 124.03318513662089,53.7715175213234 127.36493559356313,51.27232617512345 128.78502595226746,48.17578896546911 130.31435403082287,46.47816919797333 131.42038594488986,43.99458147784753 132.3625612789765,42.84708788424905 133.0999158883933,42.46982789532922 136.24050033546519,41.636708893754985 138.72565846319776,39.13732551773137 140.896758146293,38.319908533710986 142.89034653443377,36.543583960985416 145.47108766710153,35.34887654900376 147.3008194754948,34.79867930608452 149.6903945983504,34.53143995357095 151.38357925676974,34.5 153.40447707491694,34.86155908802175 157.40530856628902,36.33922675502254 159.68564596917713,38.22559091710718 161.95232865714934,39.71894656449149 165.0519489593571,43.30294250183215 168.54755599616328,49.65333205941715 170.4455613794271,52.35688576690154 168.3154258414288,49.417554832980386 164.61499807971995,42.81564958624949 162.0206022321363,39.876141074317275 157.3916538513149,36.33922675502254 153.3362034999882,34.845839144909405 148.36588724446483,34.688639627464 145.73052725184243,35.317436758152326 143.25902383914217,36.40210592348012 140.86944871628657,38.33562813096796 138.83489618310705,39.12160600023344 136.07664375565946,41.74674373077869 132.9906781684258,42.548423800617456 131.9938839743263,43.20862786129874 130.45090118073858,46.36813765745319 128.77137123729335,48.27010063978378 127.48782802844653,51.19373461100622 124.07414928154321,53.74008139784564 122.9271532225539,56.695049668400316 120.75605353957508,59.72855002124561 120.12793665012578,61.64606941923557 119.55443862063112,67.98000497338944 119.97773478523595,69.30019777560665 122.44923819799442,72.17629390383081 122.87253436259925,73.0249680045672 123.0500456574373,78.43122935231077 123.58257954195142,79.84562767016178 125.46693021029932,81.87290985140135 127.59706574829761,82.97297456968226 128.66213351738406,84.79592210294504 130.2051163109718,85.56595396863122 130.8332332004211,86.96457368069969 131.43404065986397,87.4517304496112 135.77624002593802,87.67173624022689 137.33287753449986,88.11174690273765 137.78348312911112,88.72461685580492 137.92003027896862,89.36891347503115 137.769828414137,91.36464487350895 138.2887075835606,92.1817874670378 139.62686965242028,93.37606519789551 139.84534509223886,94.14605526679952 139.73610737227136,95.85887686764181 141.12888830108568,97.68167580268346 141.10157887107925,99.56730775759206 141.94817120034713,101.26435728871729 142.07106363517232,102.20715471290168 141.71604104549624,105.05122621674673 139.55859607749153,108.94799250656797 138.20677929377416,112.75038962402323 137.93368499394273,115.5 138.1521604337613,112.76610181911383 138.46621887851506,112.40472093681456 139.50397721753689,108.9165673560492 141.6614221855998,104.97266139264684 142.0437542052241,101.90860280347988 141.0333052961505,99.50445372147078 141.1425430160598,97.69738949520979 139.68148851243313,96.01601553465298 139.68148851243313,93.75320365942025 139.3947394976276,93.20320976896619 137.98830385389738,92.05607349680213 137.70155483915005,91.53750231282902 137.74251898413058,88.66175850843138 137.15536623966182,88.01745900674723 135.91278717579553,87.59316277875041" stroke="#4dd2ff" stroke-linecap="round" stroke-linejoin="round" stroke-width="0.5"><title>2022-02-26 19.6km</title></polyline><polyline fill="none" points="91.35320734092966,212.06277711718576 82.84266838710755,210.8827376125264 80.20146664278582,206.3311413890915 74.18539600353688,204.39249118528096 66.6286243465729,192.59191674075555 62.59345501475036,189.55745695030782 61.713054433465004,187.45018686156254 63.400488880928606,185.7643670460675 60.24572013132274,185.00574704323662 57.67788510210812,189.22029408533126 62.226621439214796,193.5191106364946 58.41155225317925,201.02091512898915 51.22161417175084,208.9440977430204 43.66484251478687,223.02020892652217 40.73017391003668,226.13883689040085 41.977408066857606,227.57171619025758 39.11610617721453,234.14607274183072 38.16233888082206,232.8817773355986 37.57540515996516,233.64035480399616 32.439735101535916,248.39033830171684 27.450798473786563,255.21738727175398 19.160359665285796,258.25161374011077 17.766392078250647,262.88721669488586 22.535228561144322,265.33143357606605 22.75532870646566,262.38151577702956 29.21159963682294,259.68443915824173 32.80656867753714,255.80737659620354 36.25480428757146,250.4131733160466 42.4909750726074,233.977500128909 41.243740915786475,232.96606375445845 41.977408066857606,230.43746757670306 43.88494266010821,228.41458524332847 46.23267754353583,228.83601945795817 56.35728422971442,208.6912313483772 63.107022020965815,199.75657067529391 65.60149033460766,199.58799127367092 67.94922521850094,202.20096826303052 69.48992623575032,210.7141604074859 72.35122812539339,216.024326384475 75.72609702078626,217.20435878372518 81.59543423028663,216.27719060733216 88.41853873617947,219.3115554402466 93.11400850350037,212.56850783445407 85.92407042253762,211.30418048024876 82.10900123603642,216.53005475533428 76.60649760207161,217.71008645551046 73.52509556757286,217.03578282665694 69.63665966596454,212.23135405621724 68.0225919331424,202.28525771020213 64.94118989864364,199.50370156008285 63.18038873607293,199.8408603637945 55.55025036353618,210.7984490141389 46.45277768932283,229.67888726340607 43.66484251478687,229.25745346478652 42.4909750726074,231.3646203779499 42.78444193303585,234.398931598349 36.841738008428365,251.1717352111591 33.39350239839405,256.73450185364345 30.60556722385809,259.9372904532356 24.075929578393698,262.12866520608077 21.434727834071964,265.16286711918656 17.252825072500855,262.4657992842258 18.646792659536004,258.25161374011077 26.643764607142657,255.30167148599867 33.02666882285848,246.36749849608168 37.94223873550072,232.62891802995 39.26283960789442,232.8817773355986 41.90404135175049,228.16172461491078 41.83067463664338,226.13883689040085 40.36334033450112,226.22312397469068 43.591475799214095,222.7673467003624 46.45277768932283,215.8557501945179 57.311051526572555,202.11667880736059 61.85978786367923,193.94056207471294 57.45778495678678,188.6302587519167 60.39245356153697,184.75287355895853 62.886921875644475,185.25862045231042 62.886921875644475,189.8103290114086 67.36229149764404,192.33904550335137 74.91906315460801,204.4767804162111 80.56830021832138,205.99398514808854 83.136135247536,210.6298717922764 92.38034135242924,211.7256231396459 92.30697463732213,214.08569818845717 88.34517202107236,219.56441868975526 81.52206751517951,216.53005475533428 77.48689818382263,217.54151059844298 73.1582619920373,217.03578282665694 70.07685995707288,213.91712161555188 67.7291250731796,202.4538365797489 66.4085242007859,200.34659832000034 64.06078931689262,199.58799127367092 54.743216497357935,211.89420014520874 46.01257739821449,230.10032085387502 43.88494266010821,229.00459308555583 42.78444193303585,232.1231991936802 41.683941206429154,231.87033966335002 41.53720777621493,233.72464114770992 42.637708503287286,234.73607662395807 36.91510472400114,251.0031659595552 33.46686911350116,256.31308140663896 30.018633503001183,260.4429928184254 22.902062136214226,263.0557836009539 22.828695421572775,265.24715035193367 17.546291932929307,262.88721669488586 16.88599149696529,261.538680248952 18.573425944894552,258.4201815612032 25.910097456537187,255.89166075194953 32.07290152600035,248.22176850115648 38.015605450607836,232.5446315780864 39.26283960789442,232.71320447372273 42.12414149707183,228.4988721027621 42.12414149707183,226.72884630493354 40.510073764715344,226.05454979778733 44.031676090322435,222.09304706484545 50.85478059621528,209.28125281917164 59.95225327089429,197.90219542378327 62.00652129389346,193.01336863613687 57.97135196253657,190.3160729088122 57.60451838700101,187.95593215723056 60.46582027664408,184.5842911945656 63.47385559603572,185.84865811601048 62.15325472410768,187.53447776514804 62.96028859028593,189.97891034383792 67.43565821275115,192.50762633653358 74.55222957907245,204.3082019459689 80.78840036364272,206.3311413890915 84.16326925903559,211.2198919231887 92.38034135242924,211.3884690286941 91.86677434667945,215.265733267006 89.1522058872506,219.48013094841735 81.22860065475106,216.53005475533428 77.04669789271429,217.71008645551046 72.93816184671596,216.78291882830672 69.930126526393,213.32710334839066 67.50902492785826,202.20096826303052 65.01455661375076,199.67228097870247 63.400488880928606,200.00943971599918 54.66984978225082,212.39993096212856 46.23267754353583,229.93174744257703 44.178409520071,229.08887988701463 43.0779087934643,230.60604088800028 42.637708503287286,234.73607662395807 35.00757013075054,254.45882897049887 30.752300654072315,259.9372904532356 23.342262427322567,262.55008278309833 22.902062136214226,265.33143357606605 17.61965864803642,262.7186497556977 18.720159374643117,258.25161374011077 26.790498037822545,255.38595569191966 31.926168095786124,248.22176850115648 37.7955053052865,232.96606375445845 38.30907231103629,232.29177217237884 38.52917245635763,233.977500128909 42.4909750726074,228.07743772189133 42.12414149707183,226.47598517726874 40.510073764715344,225.80168847041205 60.17235341621563,197.48074594099307 62.07988800900057,192.76049752376275 57.97135196253657,190.3160729088122 57.531151671893895,188.6302587519167 59.58541969535872,185.25862045231042 61.12612071214244,184.5842911945656 63.47385559603572,185.7643670460675 63.327122166287154,190.14749164308887 68.2426920789294,193.4348203240661 75.06579658482224,204.72964805847732 79.90799978235736,205.74111787998118 83.136135247536,210.8827376125264 92.30697463732213,211.7256231396459 92.82054164353758,213.15852662571706 91.35320734092966,216.10861446725903 89.1522058872506,219.64870642288588 81.22860065475106,216.53005475533428 77.04669789271429,217.7943743718788 72.86479513114318,216.95149483560817 70.07685995707288,213.7485450093518 66.99545792164281,201.35807333374396 65.08792332885787,199.67228097870247 62.886921875644475,200.34659832000034 55.03668335778639,211.47275756875752 46.67287783417851,229.3417402409832 43.66484251478687,229.08887988701463 36.76837129378691,251.7617273303331 33.54023582814261,256.8187859179452 30.092000218108296,260.6115602066857 23.63572928775102,262.55008278309833 22.902062136214226,265.24715035193367 17.17945835739374,262.63436627341434 19.01362623553723,258.16732981725363 27.744265334215015,254.37454467301723 32.51310181664303,247.29463400162058 38.015605450607836,232.37605864932993 38.60253917146474,234.14607274183072 41.09700748557225,229.51031376852188 42.4909750726074,227.99315082083922 43.0779087934643,228.75173263181932 41.977408066857606,228.2460114992573 42.05077478196472,226.56027222814737 40.36334033450112,226.05454979778733 53.349248910322785,206.3311413890915 56.79748452082276,202.79099421866704 61.93315457878634,193.8562718036119 57.45778495678678,188.96742184989853 60.75928713707253,184.5 63.47385559603572,186.18582231213804 62.666821729857475,189.8946196816978 65.08792332885787,190.48465414147358 68.8296257997863,194.02485233725747 75.4326301603578,205.23538311908487 80.27483335835859,205.57253965962445 82.98940181778744,210.7984490141389 92.82054164353758,211.9784886353882 90.03260646853596,218.13152595347492 88.41853873617947,219.73299414775101 81.52206751517951,216.53005475533428 75.87283045100048,217.7943743718788 72.4245948405005,216.86720683629392 69.78339309664443,212.65279625804396 67.65575835807249,202.5381260017748 63.76732245646417,199.75657067529391 55.696983793750405,210.6298717922764 46.0859441133216,230.10032085387502 44.178409520071,229.1731666799169 41.90404135175049,232.29177217237884 41.3904743460007,233.30320934578776 42.93117536325008,233.89321381028276 36.91510472400114,251.1717352111591 32.366368386894464,258.08304588583997 30.092000218108296,260.6115602066857 23.63572928775102,262.38151577702956 21.80156140960753,265.5 17.326191787607968,262.88721669488586 18.720159374643117,258.25161374011077 27.304065043572336,254.96453457971802 31.85280138067901,248.3060534056276 37.94223873550072,232.62891802995 38.52917245635763,234.14607274183072 40.65680719492957,230.184607547184 42.4909750726074,229.1731666799169 41.83067463664338,226.47598517726874 40.58344047982246,226.22312397469068 44.69197652628645,221.08159661339596 50.92814731132239,209.78698518354213 57.531151671893895,201.94809987168992 62.07988800900057,193.5191106364946 57.751251817215234,190.23178227990866 57.38441824167967,188.54596795683028 60.39245356153697,184.5842911945656 62.74018844496459,185.17432932415977 63.03365530539304,186.77585933497176" stroke="#ff0000" stroke-linecap="round" stroke-linejoin="round" stroke-width="0.5"><title>2022-01-27 21.8km</title></polyline></svg>