<?xml version="1.0" encoding="utf-8" ?>
<svg baseProfile="full" height="300mm" version="1.1" viewBox="0,0,200,300" width="200mm" xmlns="http://www.w3.org/2000/svg" xmlns:ev="http://www.w3.org/2001/xml-events" xmlns:xlink="http://www.w3.org/1999/xlink"><defs /><rect fill="#222222" height="300" width="200" x="0" y="0" /><text fill="#FFFFFF" style="font-size:12px; font-family:Arial; font-weight:bold;" x="10" y="20">Over 15km Runs</text><text fill="#FFFFFF" style="font-size:4px; font-family:Arial" x="10" y="280">ATHLETE</text><text fill="#FFFFFF" style="font-size:9px; font-family:Arial" x="10" y="290">Jason</text><text fill="#FFFFFF" style="font-size:4px; font-family:Arial" x="120" y="280">STATISTICS</text><text fill="#FFFFFF" style="font-size:3px; font-family:Arial" x="120" y="285">Number: 7</text><text fill="#FFFFFF" style="font-size:3px; font-family:Arial" x="120" y="290">Weekly: 1.0</text><text fill="#FFFFFF" style="font-size:3px; font-family:Arial" x="141" y="285">Total: 136.6 km</text><text fill="#FFFFFF" style="font-size:3px; font-family:Arial" x="141" y="290">Avg: 19.5 km</text><text fill="#FFFFFF" style="font-size:3px; font-family:Arial" x="167" y="285">Min: 16.0 km</text><text fill="#FFFFFF" style="font-size:3px; font-family:Arial" x="167" y="290">Max: 21.8 km</text><polyline fill="none" points="45.402588197845034,68.64753833541181 44.8533329560305,69.57230570992397 43.93475091364235,69.13712202964234 42.92146969155874,69.24591811079881 42.46691362938145,68.82161278696003 42.27751527004875,67.64660490337701 42.040767321013846,67.1678943963343 41.69038035639096,66.92853836304857 41.368403145635966,67.2114136192613 40.55399020080222,68.32114799768169 39.31343094765907,70.8452081113428 39.09562283451669,70.74729306391237 38.89675455732504,71.03015851917735 38.072871694515925,73.61943164372497 37.23951891378965,74.70734338159673 36.28305719955824,75.1642631097493 36.27358728158288,75.49063318462868 36.47245555877453,75.74084958764433 36.311466953426134,76.20864394806995 35.65804261394078,77.14422671376087 35.582283270254266,77.72080283581454 35.7622117116116,79.53754183986894 34.31331426324323,80.39694686615985 32.46668026043335,82.22452009479457 31.917425018560607,83.24707761315221 30.67686576541746,84.86792063307075 30.686335683451034,85.9339654696305 30.326478800794575,86.48873982764053 29.322667496744543,86.73893127200427 29.010160203964915,87.0 29.30372766079381,86.7062976375164 29.881392656592652,86.673663993417 30.47799748822581,86.33644910532166 30.629516175657045,85.96659933265619 30.582166585838422,85.16162789215014 29.97609183617169,84.9223109252489 29.66358454345027,85.83606382260041 27.968469228071626,86.49961772833922 27.665431853267364,85.56411434694019 27.438153822091408,85.30304221936967 26.964657923963387,85.04196947362652 26.11236530728638,84.91143286894658 25.544170229462907,84.25874752757954 24.86233613616787,83.87801262758148 24.739227202662732,84.05206303072919 24.957035315805115,84.41104111946333 25.714628752844874,84.83528644486069 26.140775061154272,85.28128618082701 27.42868390417425,85.52060236861871 27.608612345473375,85.73816208863718 26.746849810821004,85.40094433964987 26.92677825212013,85.06372555938287 27.646492017258424,85.41182234763255 27.883239966409747,86.52137352649879 28.205217177106533,86.49961772833922 29.559415445837658,85.85781975164718 29.80563331284793,85.61850429572223 29.871922738617286,85.05284751702857 30.354888554720674,83.97591601317254 31.718556741368957,82.26803337388992 32.83600706100697,80.37518985953648 33.83034844708163,79.57017759613518 34.54059229436098,79.30909127537598 34.853099587140605,78.99361114620115 35.00461827451363,78.31913335904392 34.711050817684736,77.35092416086991 35.36447515711188,76.0019443591882 35.26030605955748,75.46887520966266 35.78115154750412,74.50064097759605 36.85125227732351,74.17426797162625 37.52361645270139,73.27129761991091 38.25280013581505,71.32390264668356 38.30961964360904,71.23686743123835 38.35696923342766,71.43269656929624 38.83993504953105,70.46442688271054 38.319089561584406,70.46442688271054 38.072871694515925,70.29035502580518 40.2130731541547,65.97110903145222 40.894907247507945,64.90487112270057 41.21688445826294,64.97015129112697 41.4915120791411,65.34007151512924 41.567271422885824,65.26391157052421 40.951726755301934,64.92663118313067 40.94225683732657,64.71991043550224 42.81730059394613,61.48848833961529 43.96316066751024,59.92170412114501 44.446126483613625,59.57352682489727 44.66393459675601,58.81188515361282 46.48215884563979,55.972003365604905 47.42915064195404,54.764215361916285 47.8931766221649,53.991659335071745 48.06363514548866,52.7076809964492 50.49740406195633,49.05152510510379 51.63379421754507,45.25378230895876 51.576974709751084,44.92732266162784 51.065599139779806,44.720564384464524 51.12241864751559,44.88379463552701 51.64326413546223,45.01437866219203 52.00312101806048,43.849998959827644 53.3857290406595,41.260026132185885 53.46148838434601,40.68325918504706 54.12438264180673,39.74736676779867 54.42742001655279,38.430574433550646 54.910385832656175,37.70143471479969 55.26077279733727,36.341086512227776 54.89144599676365,34.43657079411787 54.47476960642962,33.63122280892276 53.66982657951303,33.0 53.46148838434601,33.0 52.552376259933226,33.64210592908785 52.31562831084011,35.16573213216907 51.823192576819565,36.66757161350688 50.64892274932936,37.70143471479969 50.44058455416234,37.70143471479969 49.7587504608091,37.17906299261085 48.641300141229294,36.776399765498354 48.14886440715054,37.26612511840358 47.45756039582193,36.994055746770755 47.23975228267955,37.05935245727596 46.11283204506617,36.308437948828214 45.478347541589756,37.0375868914125 45.118490658991504,38.1802732832366 44.66393459675601,38.561166112165665 44.26619804237271,38.387043839582475 43.887401323823724,37.84290996308118 42.70366157841636,37.52731108271837 42.34380469581811,37.77761371723318 42.00288764917059,38.51763556984224 41.936598223401234,39.30118269925151 41.57674134086119,39.08353127812006 41.54833158693509,39.59501143544185 41.83242912584683,39.73648425103602 41.5199218330672,39.660306603691424 41.35893322771881,39.79089682401536 40.88543732953258,40.5526700229093 40.76232839602744,41.02061380386294 40.336182087659836,41.52120262407698 40.250952825997956,41.9456131023253 39.976325205061585,42.10884746616648 38.830465131555684,44.63350815165177 38.29067980765831,47.82189778931934 38.489548084908165,48.10482210434566 40.07102438469883,48.648905283036584 40.65815929841483,49.12769625724468 42.826770511921495,50.32466458800627 43.328676163975615,50.128797932986345 43.20556723047048,49.20386735670763 43.42337534361286,47.64779015733802 43.63171353877988,47.60426320635452 44.21884845249588,47.941596626675164 45.96131335769314,49.160341020600754 45.203719920653384,52.642393562491634 44.14308910880936,54.579237651581934 43.86846148787299,54.77509639404889 43.413905425637495,54.52483238356217 42.85518026584759,54.66628602455603 41.69038035639096,54.40514069935307" stroke="#4dd2ff" stroke-linecap="round" stroke-linejoin="round" stroke-width="0.5"><title>2023-06-22 16.9km</title></polyline><polyline fill="none" points="163.22304278667434,86.93166262122759 162.24840415666404,87.0 161.9908776893717,86.79498755899112 161.84428570031014,85.65601290760969 161.84032375465904,85.42365861374128 161.9512582328607,85.37809881056819 161.83636180900794,85.28242307696928 161.70957954818732,83.9702786410453 161.77693262424145,82.42117103107375 161.555063667809,82.30726399938067 161.55110172217246,81.91542165472492 161.65411230908649,80.90390620778999 161.6382645264821,80.38902718335157 161.68976981993183,80.27967160368644 161.70957954818732,78.68942981268992 161.73731316774501,78.61196677270345 161.90767683071317,78.59374015608046 161.9750299067673,78.0833919557117 161.93144850461977,77.26773440334728 162.0067254719761,75.18979275548554 161.92748655895412,74.62927924402175 161.24999385274714,72.61046252827873 160.52891974433442,72.47374487054185 157.0542934088444,71.53949665206528 156.8482722350309,71.17946421762099 156.52339269169897,70.81031410786818 156.47981128955144,70.63257410801816 155.72307967027882,70.4548334203464 155.75081328983651,69.88058957478279 155.69930799640133,69.7028459770263 155.53686822470627,69.49775635563856 154.67712601854873,68.8915972322502 154.031328877536,68.63181230167538 153.2349778017815,68.41304490452967 152.8387832367298,68.26264171448929 152.7872779432655,68.18060340321244 152.89821242149628,68.0256417487144 154.08679611663683,67.30096118859001 154.40771371431765,67.25538341261927 154.89107108367898,67.00926264072768 156.38868653957616,65.90170284201304 157.2048473435716,65.19066271773045 157.94176923455962,64.05115237542122 158.10817095189122,62.81589121735669 158.08439927798463,61.94070452365486 157.9813886910706,61.430171246673126 157.48614548475598,60.19028107619306 157.42275435435295,59.697962454054505 157.52576494126697,59.10534970107983 157.07014119146334,58.84550938861139 157.10579870230868,58.27567899136557 156.99090227844135,58.125242585992964 156.67394662641163,57.99304048934209 156.8245005611243,57.336583058357064 157.35540127828426,56.634527914153296 157.46237381084939,55.69539839485515 157.54953661517357,55.58142505795331 157.86649226721784,54.564770367072924 158.42908854957204,53.59368453759089 158.51228940823057,53.34749049788297 158.591528321238,52.60434121697108 158.54794691909046,52.358141867956874 158.31419212570472,51.89765435352092 158.29438239746378,51.25934718394274 157.91007366936537,50.80796746705528 157.90611172369972,50.1559667008878 157.4306782456406,49.690897554210096 157.33162960439222,49.52219483547378 157.30389598483453,49.23494283253967 157.3752110065543,48.81546048524979 157.29597209353233,48.633075659290625 157.07014119146334,48.473488341624034 155.71911772464227,48.41877256200314 155.44574347474554,48.34125842915091 155.28330370307958,48.16343139403398 155.12878782270127,47.79865583078572 154.78013660546276,47.64818506567826 154.4631809534185,47.06453621438777 154.2611217252561,46.93686203798279 154.15018724703987,46.98245999894061 153.90454661671538,46.87302481649385 153.27459725827794,46.21184836719476 153.0685760844499,45.76497888525773 153.02103273665125,44.15986074942339 152.20090998699015,43.10191125451456 152.08601356313739,42.878461902364506 152.0543179979286,42.541005714378116 152.17713831308356,41.04066367046107 152.4465506173292,40.206105656503496 153.0527283018455,39.37609299813994 153.31025476912328,38.64639912503117 154.32847480131022,37.83460103960897 154.69297380116768,37.018227789558296 155.18425506181666,36.457247796599404 155.6240310290159,35.55419240701303 156.04795921363984,35.275974786829465 156.7650713763578,35.148267772565305 157.12957037621527,34.8563646891198 157.52180299560132,34.40026239840154 158.3617354735179,34.003449712232396 159.02338039716415,33.46523850826998 160.2396977118624,33.04561182733596 161.38470000484085,33.0 162.06219271107693,33.16876353432235 163.1596516562713,33.62031696120175 163.63112318867934,34.044499459836516 164.25711060146568,34.43675074872954 165.005918329407,35.22580421652674 165.35853149228205,35.70470287448188 166.13903478543216,37.17329421843897 167.00670088290644,38.44117063005615 167.30384680668067,38.72392965063045 167.94568200205686,39.15718605598522 167.28799902409082,38.66008099201645 166.93142391553556,38.276987172394 166.65408772000228,37.90757224219851 166.59862048090145,37.693219003955164 166.49560989400197,37.620247460065 165.79038356819365,36.3933959799906" stroke="#ff1b00" stroke-linecap="round" stroke-linejoin="round" stroke-width="0.5"><title>2023-04-05 21.2km</title></polyline><polyline fill="none" points="56.170244347536936,114.56604387429252 57.02911777974805,114.49428091770096 57.247740107937716,114.97868032442057 55.82669497461757,117.74152633201447 54.29633867711527,117.32889615472232 53.015836469014175,117.47241980089166 52.31312184256967,117.23919381831365 51.82902954437304,116.43187079815834 51.1887784403516,114.0457617972861 50.50167969457107,113.68694570401567 49.95512387400959,114.24311034665152 48.50284697947791,116.25246519551729 46.8163318761508,119.85848381400865 46.519630144990515,120.07376624448807 46.238544294436,119.91230444553366 45.707604354422074,120.70167187687184 45.97307432448724,120.97077362671553 44.598876832809765,124.57669863603951 43.20906346058473,126.37066453033185 41.616243640717585,127.24970135530748 42.16279946122086,128.03903692269523 40.75737020850647,130.2814488123404 40.538747880316805,131.19634491813486 40.788601969659794,134.3715368600533 38.352524598129094,135.89632683935633 35.60412961494876,138.69473164684314 32.371642333455384,143.233078643505 32.371642333455384,145.08067363139708 32.01247707993025,145.72643055890512 29.91994908131892,146.39012278908922 29.232850335596595,146.94618738722056 29.420240902574733,147.0 29.90433320082957,146.39012278908922 31.512768901186064,146.04930816266278 32.13740412465995,145.65467990240722 32.35602645284962,145.13448679630528 32.16863588587148,143.64565002609743 31.18483540887246,143.37658183930034 31.059908364200965,144.29141205004998 30.747590752493124,144.721918791809 27.98357988864882,145.85199413965165 27.49948759045219,144.36316324444488 27.12470645632129,144.0223448187753 26.453223591088317,143.57389854858047 25.06341021892149,143.2868923551723 24.3138479507179,142.71287860936718 24.220152667257935,142.372057090397 22.75225989212049,141.81597850368416 23.017729862069245,142.49762298750284 23.54866980202496,142.60525083031098 24.65739732363727,143.52008492180903 26.54691887460649,144.18378520531405 26.937315889284946,144.7398565505864 26.6249982775189,145.08067363139708 26.29706478532171,144.25553644215688 25.98474717355566,144.12997175903 26.109674218227156,143.59183642061544 26.84362060582498,143.73533933328872 27.561951112758834,144.5425411066244 27.95234812743729,145.88786943245213 30.700743110734038,144.84748306618712 31.07552424480673,144.48872776651115 31.169219528266694,143.44833339472825 31.887550035258755,141.88773067496368 33.27736340748379,140.27329997249763 35.76028842077358,136.1833446994424 36.54108245007228,135.30435107198718 38.867848657479044,134.03069970403158 39.5080997615587,133.3490234750352 39.648642686835956,132.47001614354667 39.180166269186884,131.33985761496297 40.24204614915652,128.8821870382526 40.02342382090865,127.78788506850833 40.22643026855076,127.41115663657547 40.56997964141192,127.39321716796258 40.445052596740425,127.14206442143768 40.91352901433129,126.1553895578254 42.77181880414719,125.41986481155618 44.02108925109496,123.67970904929098 45.02050560864154,120.82725274303812 45.254743817436974,120.8093126245949 45.89499492151663,119.51761944429018 44.95804208627669,119.40997793155839 44.69257211632794,118.99735154214432 49.28364100877661,110.36786325488356 49.73650154576171,110.29609864047961 50.51729557517683,110.76256812734937 49.29925688938238,110.02698108421464 51.87587718613213,105.75692919343419 51.42301664914703,105.0751469128736 51.17316255980404,103.87305087101413 48.94009163585724,102.45564382866723 50.79838142567314,99.01076036680024 50.34552088868804,98.47249142582587 48.12806584534701,97.21652436174918 49.61157450109022,94.20216798273032 50.407984410994686,93.16148571390659 50.923308470402844,93.0 52.48489652900025,93.37679977588414 53.59362405072898,93.23325709624623 54.34318631887436,93.68182759346382 53.65608757303562,95.06341776585032 53.00022058840841,94.9378190934367 51.235626082110684,96.08614658056467 50.84522906743223,97.23446680950292 50.7359179033665,98.27512574783759 50.923308470402844,98.27512574783759 53.34376996132778,95.52992636038107 54.26510691596195,93.96891213048366 54.2026433935971,93.66388479489251 53.609239931276534,93.25119993742555 52.14134715613909,93.3588569470885 50.70468614221318,93.0 50.26744148571743,93.21531425329158 49.15871396410512,94.90193374254159 48.97132339706877,95.78112279970082 47.65958942781435,95.78112279970082 47.50343062187312,96.30145717631967 47.97190703952219,97.07298471590912 49.06501868052874,97.86245136482466 50.68907026160741,98.54426071007038 53.28130643896293,95.22490164573537 52.125731275533326,95.02753243976622 51.36055312684039,95.42227063719474 50.79838142567314,96.13997425339767 50.31428912747651,97.61125780317525 49.84581270994386,97.5036033133365 50.01758739637444,97.18063946090115 49.5803427399951,96.44499743178312 50.329905008140486,95.22490164573537 50.70468614221318,94.90193374254159 51.78218190261396,94.66867878875928 53.531160528364126,94.54307984340994 53.99963694595499,94.05862595519284 53.921557542984374,93.46651389304316 53.07829999132082,93.26914277680044 53.45308112545172,93.46651389304316 53.609239931276534,94.30982442887034 53.952789304137696,94.61485067990725 53.64047169248806,95.00958977403934 52.984604707802646,94.88399106438737 51.235626082110684,96.01437632524176 50.59537497808924,98.61602996599686 50.751533783914056,99.17224073816033 51.266857843322214,99.08252943851403 52.56297593197087,99.69256540293281 53.85909402067773,100.51790491816064 53.812246378918644,100.84086283834768 50.033203276921995,106.83342232278665 49.31487276998814,108.43020871907356 48.83078047184972,109.00433073547902 48.487231098872144,108.96844816263183 48.955707516521215,109.21962602398708 48.315456412383355,110.24227516113024 49.127482202951796,110.40374555143353 49.04940280003939,110.56521579828404 49.39295217290055,110.17051049714792 49.87704447109718,110.3499221039092 49.08063456119271,111.40844697854482 49.37733629235299,110.92403805536742 49.17432984471088,110.61903918204189 49.37733629235299,110.1525693267613 50.01758739637444,110.42168669703824 50.329905008140486,110.83433255746786 50.11128267989261,110.99580242174852 50.31428912747651,111.46227011254814 51.34493724623462,112.21579231439682 52.79721414082451,114.69162898005743 53.99963694595499,114.99662101842114 54.733583333552815,116.10894058595295 56.560641362157185,116.19864348020928 56.935422496229876,116.57539515274402 55.6861520492821,117.7953475904651 54.10894811007893,117.22125334567681 53.09391587198479,117.45447935133416 52.37558536493452,117.32889615472232 51.672870738606434,115.89365345900296 51.579175455030054,114.53016239956196 50.86084494803799,113.68694570401567 50.39236853038892,113.68694570401567 48.4247675765655,116.27040576371655 46.66017307020957,119.9840652627754 46.30100781668443,119.93024465253984 45.707604354422074,120.55815078067826 45.98869020497659,121.00665382988518 44.63010859396309,124.5587588877097 43.333990505256224,126.29890623448591 41.63185952132335,127.24970135530748 42.10033593897242,128.12873392943584 40.80421785026556,130.24557043984532 40.58559552207589,131.12458852722193 40.80421785026556,134.42535319464514 38.52429928461788,135.69900179776596 35.65097725664964,138.4435945131263 34.120620959147345,140.9728883702337 32.46533761697356,143.0716374128824 32.3247946916963,143.57389854858047 31.996861199382693,143.64565002609743 31.278530692390632,143.21514073607977 31.871934154711198,141.81597850368416 33.199284004513174,140.39886731903243 36.010142510116566,135.95014272266417 37.3999558823416,134.6406183738727 39.024007463420276,133.9948220715014 39.523715642106254,133.49253447253432 39.69549032865325,132.48795511118078 39.22701391100418,131.1604667262145 40.24204614915652,128.64897569541063 40.05465558206197,127.62643012184708 40.91352901433129,126.19126873761707 42.709355281840544,125.50956311068148 43.58384459465742,124.43318059963349 45.06735325040063,120.77343238242611 45.254743817436974,120.82725274303812 45.910610802064184,119.78672294718854 45.95745844382327,119.1588141539396 46.61332542845048,118.62060489025316 47.05057008488802,117.66976462939056 46.72263659257442,117.52624113905767 47.98752292012796,115.46307844012335" stroke="#ff4a00" stroke-linecap="round" stroke-linejoin="round" stroke-width="0.5"><title>2023-01-01 20.1km</title></polyline><polyline fill="none" points="180.05483678542078,102.40706189814955 178.6017548792297,104.314932832669 176.29527566302568,103.30800264028949 174.58848104288336,103.65247918380192 173.48137101903558,103.3345008516626 172.8124920463888,102.46005849612993 171.82070598343853,98.56478066919954 170.82891992037185,98.0878039894742 170.13697615545243,98.64427670004079 167.92275610787328,101.82409863019711 165.27030500909314,107.36219856195385 164.39384290704038,107.38869637306198 163.90948227152694,108.13063402374974 164.11706540104933,109.08455084721209 161.53380867873784,115.39091568344156 160.03459718823433,117.00722904040595 157.77424755622633,118.14659162511816 158.35086736036465,119.33894264083938 156.43648961081635,122.78348249787814 156.11358252062928,124.32026294770185 156.7132671168074,127.49978078179993 156.55181357159745,128.69209026329918 153.2074187080143,130.67926096732845 148.68671944423113,135.1569650528254 144.0045666351216,141.8866283959942 144.07376101159025,144.483067594585 143.65859475266188,145.22490275505697 142.7590678583365,145.88725384543068 140.66017177153844,146.20518178856582 139.99129279877525,147.0 140.4987182263285,146.31115768602467 142.6668086895952,145.86075983315823 143.75085392140318,145.0924323409854 144.0276314272778,144.32410265071667 143.9123074664967,142.5224933778809 142.7590678583365,141.8866283959942 142.25164243066683,141.99260599754052 141.8595409640111,143.76772460632492 140.47565343417227,144.40358513439423 141.997929716832,143.63525347341783 142.1824480543146,142.1780666995619 143.40488203882705,139.47562666310114 144.99635269807186,137.83295374421868 148.80204340501223,131.6330976819445 150.8317451152252,129.46046467928682 153.62258496705908,128.13567983082612 154.49904706911184,127.15533483491163 154.63743582204916,125.80404262227239 153.9916216415586,123.97581292199902 155.53696271649096,120.3193161758536 155.3524443791248,118.72951944996021 156.5979431559099,116.45079439284746 159.18119987822138,115.52340075097163 160.74960574519355,113.48312346247258 162.6409187024692,108.68708591605537 163.93254706368316,106.91173537200666 163.5173808047548,106.30228397075552 164.34771332261153,105.5338432752178 165.6854712680215,102.85753264723462 169.5603563513141,97.6108264621289 170.27536490850616,95.808903709898 169.6295507278992,95.46441710050567 169.6295507278992,94.93443683820078 168.960671755136,94.98743491145433 168.86841258662753,94.2454609326378 169.90632823389024,93.31799057481112 170.59827199869324,93.58298243262107 170.48294803791214,95.01393394422485 171.9129651520634,95.8884005570435 173.5044358111918,98.56478066919954 173.48137101903558,98.82976734722615 172.42039057961665,99.06825513378135 172.18974265793804,99.57172865403118 172.67410329345148,102.27457035754924 173.34298226609826,103.12251508762711 174.8421937567182,103.67897736118175 176.433664415963,103.28150442638434 178.44030133401975,104.26193660093122 176.24914607859682,103.28150442638434 174.61154583503958,103.67897736118175 173.29685268178582,103.25500620974344 172.5818441247102,101.77110190675012 171.98215952841565,98.82976734722615 171.03650304989424,97.90231282950845 170.1139113632962,98.53828198695555 168.13033923727926,101.45312134598498 165.4317585543031,107.07072246656753 165.13191625615582,107.49468759150477 164.41690769908018,107.2297094668611 164.14013019320555,107.70666990304017 163.8633526872145,108.47510437876917 164.186259777518,108.84607195912395 162.08736369071994,114.38402703401516 160.103791564703,117.00722904040595 157.79731234838255,117.98761108960025 157.65892359544523,118.5175458418671 158.37393215252087,119.25945273789694 158.281672983896,119.76288839257904 156.1597121048253,123.23391905822791 156.6210079480661,127.71174729880295 156.3903600265039,128.79807307201554 153.73790892784018,130.25533245119732 149.3325336247217,134.28262633437407 143.98150184284896,141.78065075262566 143.84311308991164,145.01295006118016 142.7590678583365,145.86075983315823 140.33726468123496,146.44362749901484 140.0604871752439,146.89402437437093 140.6371069792658,146.28466371560353 142.45922556018922,145.9137478551129 143.7969835055992,145.06593825027812 143.77391871344298,142.31053855118807 142.73600306606386,141.8601339890447 142.22857763862703,141.91312280026614 141.95180013263598,143.58226500204182 140.40645905782003,144.32410265071667 141.90567054832354,143.66174770519137 142.11325367772952,142.25754981831415 143.42794683098327,139.4226373709098 146.8415360711515,135.13046998195932 149.07882091100328,131.23566612935974 151.17771699780133,129.19550823248574 153.6687145512551,128.02969676052453 154.42985269264318,127.18183069265797 154.683565406478,125.56557858473388 154.01468643383123,123.97581292199902 155.56002750864718,120.39880576508585 155.56002750864718,118.27907533285907 156.57487836387008,116.47729130700463 159.25039425469004,115.47040673182346 160.40363386285026,113.98656994863995 161.30316075717565,112.42323303726153 162.54865953396074,108.66058823300409 162.68704828701448,108.39561125915498 162.87156662426423,108.76657894937671 163.0791497536702,108.60759285921813 163.79415831074584,107.38869637306198 164.02480623242445,106.59376090046135 163.44818642828614,106.32878188652103 164.73981478938367,105.00388289336115 165.61627689155284,102.85753264723462 167.11548838205636,100.71116523942328 169.44503239064943,97.95531031687278 170.27536490850616,95.94139844190795 168.93760696297977,95.11993004905526 168.91454217082355,94.13946448249044 169.83713385730516,93.23849296639673 170.5521424143808,93.45048653634149 170.13697615545243,94.2454609326378 170.4368184535997,95.01393394422485 172.07441869715694,96.17988879478071 173.5044358111918,98.53828198695555 173.57363018766046,98.80326869120472 172.4895849560853,98.96226058810134 172.21280745009426,99.3862385196262 172.74329766992014,102.03608541958965 173.48137101903558,103.20200976880733 174.45009228994604,103.67897736118175 176.38753483153414,103.30800264028949 178.44030133401975,104.26193660093122 176.15688690997194,103.3345008516626 174.3117035368923,103.59948282127152 173.11233434441965,103.09601685541566 172.0513539048843,99.01525786618004 171.08263263409026,97.98180905659683 170.39068886928726,98.32629243523115 168.22259840590414,101.21463567827595 165.27030500909314,107.25620729115326 164.60142603644636,107.28270511273877 163.67883434984833,108.63409054742078 164.00174144026823,109.00505790807074 161.718327016104,114.91396889922908 159.94233801949304,117.0602227562049 157.7511827640701,117.98761108960025 158.21247860742733,119.57741220860044 156.13664731266908,123.41939271634328 156.43648961081635,128.71858596938546 152.8614468255546,130.83823398844106 148.73284902842715,134.86551912958384 143.98150184284896,141.70116749269073 144.0276314272778,144.16513761278475 143.47407641541213,145.35737310387776 140.68323656369466,146.1786878077255 139.9451632144628,146.86753046140075 140.82162531663198,146.20518178856582 143.566335584037,145.27789090242004 143.95843705080915,144.50956174271414 143.82004829787184,142.39002163076657 142.6668086895952,141.83363957953406 142.2055128463544,141.99260599754052 141.81341137958225,143.74123038494145 140.33726468123496,144.32410265071667 141.997929716832,143.55577076238114 142.06712409341708,142.20456107507925 143.26649328588974,139.66108910331968 146.65701773378532,135.3424304756336 149.1249504951993,131.1296842826414 151.89272555476055,128.71858596938546 153.3227426687954,128.1886713502172 154.36065831617452,127.26131825029734 154.683565406478,125.9895145050541 154.15307518665213,123.23391905822791 155.4677683400223,120.53128836143878 155.56002750864718,118.33206879755016 156.5979431559099,116.45079439284746 159.01974633301143,115.6823827456974 161.07251283549704,112.87368697929196 162.6409187024692,108.60759285921813 162.75624266336672,108.39561125915498 162.8254370399518,108.87256962386891 163.00995537720155,108.71358359639999 163.1714089222951,108.15713175898418 162.8254370399518,107.38869637306198 164.00174144026823,106.54076511863968 162.34107640443835,106.56726301086019 162.34107640443835,105.5603412669152 168.79921821004245,93.37098896724638 169.37583801406436,93.0 170.57520720665343,93.50348490275792 170.2061705319211,94.32495824273792 170.99037346546538,95.33192213295843" stroke="#ff2800" stroke-linecap="round" stroke-linejoin="round" stroke-width="0.5"><title>2022-05-22 20.9km</title></polyline><polyline fill="none" points="50.16338533721864,156.75264885144134 49.30910820129793,156.59388488977856 49.37192269664956,156.46398697473342 48.85684383532498,156.05985938991944 48.39201657020021,156.0165599395841 47.99000380036887,155.6124311180174 47.010097673977725,155.3526334285998 45.854310960683506,153.4041360427218 44.974908026633784,153.0 44.45982916536741,154.4722044923692 42.92715548037086,156.37738830060698 42.16081863787258,157.6763630272617 41.94724935392151,158.4124435831618 41.268852804845665,159.07635620019573 41.444733391632326,159.4083113783272 40.942217429343145,160.47633596882224 40.8417142368271,160.28871059212543 40.753773943462875,160.4330378263403 39.786430716048926,162.92987642915978 38.99496807542164,164.02674002497224 37.41204279428348,164.73392403380421 36.834149437665474,165.9606636925164 36.78389784140745,166.9997762945277 36.08037549426081,168.54399943897442 36.44469956686953,169.64082092764147 36.218567383883055,170.65104396895913 34.748708194179926,171.38705921944347 33.580358581850305,172.44056479952997 31.168281962920446,176.26487060103682 30.678328899666667,176.6112178866897 29.145655214670114,176.53906226980325 28.76876824302599,176.76996011855954 25.514977387269028,180.47870687044633 23.86923761072103,182.83089829894016 21.14308851538226,190.4932964559266 19.14558756526094,193.8553896954254 19.34659395017661,195.2550366391515 19.095335969061125,196.55366616032552 18.366687823669054,197.6069905293698 16.771199643495493,198.3861571020243 16.306372378370725,198.96331485152768 15.841545113245957,201.97892707611027 16.344061075535137,202.36849924281705 20.339062975661363,203.71035099074652 21.846610862528905,203.8979206851509 27.901928208069876,205.94674323234358 28.643139252380934,205.94674323234358 31.645672127080616,207.0 33.49241828848608,203.73920788246323 35.82911751308711,204.8790505539655 35.8039917149581,204.50391343957745 34.572827607393265,203.99891965179995 33.73111337056616,203.3929248064378 33.99493425077526,202.6859276489413 36.05524969607359,200.10319471982075 34.48488731397083,201.80578355806938 33.50498118752148,203.29192542158125 31.87180431006709,202.52721353192464 30.942149779875763,201.63263983519573 34.79895979037974,196.9721109954262 35.47735633951379,195.65905594741344 35.99243520083837,193.65337769073085 36.6457059517852,192.54230667982483 37.78892976598581,191.44565688948205 36.50751406222116,192.80203832108236 35.30147575266892,196.09193253978447 34.64820500172209,197.24626385937154 33.8190536639886,198.0398613596626 33.2788490044768,197.9100002450432 32.625578253529966,196.91439453761268 32.286379978992045,194.73558160380344 31.607983429916203,193.36478862883814 31.670797925209627,193.10505798648228 32.788895941281226,192.32586329327023 33.228597408218775,191.7198201075953 36.78389784140745,189.12246373685775 40.5527675585472,184.40381502399396 42.97740707657067,185.25520326130209 46.50758171163034,185.99114503328747 49.221167907933705,186.85695414317888 49.83674996171612,186.8136638093565 50.590523905179,185.78912217041943 51.54530423349934,183.75444778351812 57.16092011204455,178.32851106437738 61.69612667168258,173.04668785877584 62.57552960567409,172.29624941521615 62.927290779247414,171.6179652014107 64.15845488681225,170.65104396895913 63.68106472265208,171.01183622122335 62.75141019246075,170.95410952066595 60.351896472566295,169.10684307249903 57.851879560214,168.34195247804746 54.69859189685667,167.01420836200123 40.615582053840626,159.20625179444323 40.57789335667621,158.78769891105185 43.17841346148634,153.95260459960264" stroke="#4dd2ff" stroke-linecap="round" stroke-linejoin="round" stroke-width="0.5"><title>2022-05-07 16.0km</title></polyline><polyline fill="none" points="153.73248582071392,188.53163579823013 151.31104969623266,188.4583006185494 150.8103768133442,188.29067715905694 150.06391906071804,186.99158630686725 148.9897481483058,186.46775481927762 148.46176583549823,185.3467466862494 147.03257233346812,184.69718511423707 145.76723541127285,183.30375726513012 145.34849081828725,182.16176130235544 145.32118138836813,179.07097619596607 145.17553109509754,178.52615043731203 143.4459338633751,176.37825220679952 143.03629241374438,175.48764741300693 143.33669614346582,171.3174212571539 143.7918533097254,169.8714248928227 145.33938767499058,167.6604790233905 146.02212342439452,165.84767834754894 148.24329039567965,164.18155078341806 149.19001730147284,162.11719264365092 150.2095693538722,160.98544613198465 150.9469239632308,159.3297209852317 151.575040852651,158.56472525616846 152.0666105922428,158.31321859688614 154.1603335569671,157.75780592917 155.81710564214154,156.09155034516152 157.2645054308523,155.5466056891455 158.59356435626978,154.3623893073236 160.31405844475375,153.56591769933584 161.53387965029106,153.1991195373921 163.1269297322142,153.02095996904973 164.25571950449375,153.0 165.6029847165919,153.2410393920145 168.27020571083995,154.22615117001988 169.7904306461278,155.48372727807873 171.30155243808986,156.47929770966584 173.36796597289504,158.86862833455234 175.69837066411856,163.10222137295204 176.96370758628473,164.90459051127254 175.5436172275804,162.94503655532026 173.07666538649937,158.54376639083785 171.34706815474783,156.58409404954728 168.26110256751417,154.22615117001988 165.55746899999212,153.2305594299396 162.24392482964322,153.12575975165237 160.48701816788525,153.54495783877792 158.83934922609478,154.26807061565341 157.24629914417164,155.5570854206453 155.88993078871863,156.08107066682715 154.0510958370869,157.8311624871858 151.9937854456075,158.36561586708558 151.3292559828842,158.80575190753734 150.30060078715906,160.91209177163546 149.18091415817617,162.1800670931989 148.32521868561162,164.1291564073399 146.04943285434274,165.82672093189467 145.28476881503593,167.79669977893354 143.83736902635428,169.81903334749222 143.41862443339778,171.09737961282372 143.03629241374438,175.32000331560266 143.31848985681427,176.2001318504117 144.96615879866295,178.11752926922054 145.24835624173284,178.68331200304965 145.3666971049679,182.28748623488354 145.72171969461488,183.23041844677937 146.97795347351348,184.58193990093423 148.3980438321887,185.31531637979788 149.10808901156997,186.53061473530397 150.13674420729512,187.0439693124208 150.55548880025162,187.9763824538095 150.95602710655658,188.30115363307414 153.85082668391988,188.4478241601537 154.8885850229999,188.74116460182995 155.18898875272134,189.14974457053904 155.28002018597908,189.5792756500232 155.17988560939557,190.9097632490084 155.52580505571677,191.45452497802762 156.41791310158442,192.2507101319352 156.5635633947968,192.76403684454272 156.4907382481906,193.9059179117612 157.41925886736135,195.12111720179382 157.4010525807098,196.37820517173532 157.9654474668787,197.50957152581395 158.04737575678155,198.13810314193688 157.81069403031142,200.0341508111742 156.37239738498465,202.63199500437622 155.47118619582034,205.16692641601549 155.28912332927575,207.0 155.43477362248814,205.17740121274983 155.64414591898094,204.9364806245503 156.33598481171066,202.6110449040425 157.77428145706654,199.981774261767 158.02916947013,197.93906853565568 157.35553686408093,196.33630248098052 157.42836201068712,195.1315929968041 156.45432567491662,194.01067702310684 156.45432567491662,192.50213577295654 156.26315966507536,192.1354731793108 155.32553590257885,191.3707156645396 155.1343698927667,191.0250015418933 155.16167932274402,189.1078390056282 154.77024415976484,188.67830600450543 153.94185811717762,188.3954418525027" stroke="#4dd2ff" stroke-linecap="round" stroke-linejoin="round" stroke-width="0.5"><title>2022-02-26 19.6km</title></polyline><polyline fill="none" points="64.23547156061977,231.3751847447711 58.56177892466076,230.58849174168427 56.80097776185721,227.55409425939433 52.79026400228031,226.2616607901291 47.75241623073816,218.3946111605037 45.0623033430893,216.37163796689129 44.47536962223239,214.9667912410223 45.60032592061907,213.8429113639868 43.49714675405994,213.33716469543288 41.78525673458353,216.14686272357358 44.81774762598798,219.01274042431032 42.27436816855334,224.0139434193261 37.48107611434534,229.2960651619942 32.443228343036026,238.6801392842899 30.486782606691122,240.75922459358117 31.318272044649348,241.7144774601329 29.410737451398745,246.09738182782894 28.774892586981878,245.2545182237518 28.38360343989916,245.76023653597804 24.959823400946334,255.59355886781123 21.63386564911343,260.1449248478166 16.106906443601474,262.1677424933878 15.177594718756154,265.25814446323784 18.35681904060766,266.8876223840052 18.503552470821887,264.9210105179809 22.807733091060072,263.1229594388278 25.204379118280485,260.5382510641357 27.503202858380973,256.94211554399226 31.660650048404932,245.98500008595875 30.829160610446706,245.31070916965837 31.318272044649348,243.6249783844687 32.58996177325025,242.27639016223839 34.15511836227961,242.55734630528605 40.90485615306534,229.1274875655654 45.40468134707771,223.1710471168626 47.067660222994164,223.05866084911395 48.63281681225635,224.800645508687 49.659950823755935,230.47610693832394 51.56748541677371,234.0162175896112 53.81739801377989,234.8029058558168 57.73028948670253,234.18479373824084 62.27902582404204,236.20770362683106 65.40933900210075,231.7123385562445 60.616046948125586,230.86945365346037 58.07266749069095,234.35336983687012 54.4043317346368,235.14005763700698 52.3500637114048,234.69052188441856 49.75777311064303,231.4875693707727 48.68172795558348,224.8568384734681 46.627459932351485,223.0024677066831 45.453592490404844,223.22724024247145 40.366833575768396,230.53229934273986 34.301851792726666,243.11925817554584 32.443228343036026,242.83830230985768 31.660650048404932,244.2430802519666 31.85629462194629,246.26595439884113 27.89449200546369,257.44782347406726 25.5956682653632,261.15633456909563 23.73704481567256,263.29152696882375 19.383953052107245,264.7524434707011 17.6231518893037,266.7752447461244 14.83521671476774,264.9771995227784 15.76452843961306,262.1677424933878 21.095843071350828,260.2011143239797 25.35111254849471,254.24499899736838 28.62815915676765,245.0859453532612 29.50855973828584,245.2545182237518 31.269360901089385,242.10781640990172 31.220449757762253,240.75922459358117 30.2422268895898,240.81541598308831 32.39431719947606,238.51156446692767 34.301851792726666,233.90383346297313 41.540701017482206,224.7444525382598 44.57319190911949,219.29370804980863 41.6385233043693,215.75350583461113 43.594969040947035,213.1685823726002 45.257947916863486,213.50574696820695 45.257947916863486,216.54021934093907 48.241527664940804,218.22603033552878 53.27937543625012,226.317853610788 57.0455334787257,227.32932343200082 58.757423498434946,230.41991452814545 64.92022756836377,231.1504154264112 64.87131642480381,232.72379879228538 62.230114680482075,236.3762791264453 57.6813783433754,234.35336983687012 54.991265455726534,235.02767373225652 52.10550799453631,234.69052188441856 50.05123997130431,232.61141441034852 48.486083382042125,224.96922438644106 47.60568280052394,223.56439888000023 46.04052621126175,223.05866084911395 39.82881099823862,231.26280009676702 34.00838493206538,243.40021390258335 32.58996177325025,242.66972872370388 31.85629462194629,244.74879946245346 31.12262747087516,244.58022644219454 31.024805183988065,245.8164274317678 31.758472335292026,246.49071774928598 27.943403149023652,257.3354439730174 25.644579408690333,260.87538760440657 23.345755668357015,263.62866187893087 18.60137475747615,265.3705224005971 18.55246361414902,266.831433567917 15.030861288541928,265.25814446323784 14.59066099789925,264.3591201659292 15.715617296285927,262.28012104076333 20.606731637613848,260.5944405012997 24.715267683845013,255.48117900075158 28.677070300327614,245.02975438541034 29.50855973828584,245.14213631581515 31.41609433130361,242.3325814018608 31.41609433130361,241.15256420325022 30.340049176244065,240.70303319848608 32.687784060137346,238.06203137658304 37.23652039724402,229.5208352127811 43.30150218028575,221.93479694915004 44.67101419577375,218.6755790907191 41.980901308357716,216.87738193920814 41.736345591023564,215.30395477148704 43.64388018427417,213.056194129691 45.6492370639462,213.89910541067366 44.768836482428014,215.02298517676536 45.30685906019062,216.65260689583374 48.290438808267936,218.33841755765025 53.0348197191488,226.20546796394046 57.19226690917276,227.55409425939433 59.442179506178945,230.8132612821064 64.92022756836377,230.92564601911 64.57784956414253,233.51048884465126 62.76813725824468,236.3200872989255 57.48573376960121,234.35336983687012 54.69779859506525,235.14005763700698 51.958774564322084,234.521945885499 49.95341768418439,232.2180688988883 48.3393499518279,224.800645508687 46.67637107591145,223.11485398578225 45.60032592061907,223.33962647733279 39.77989985467866,231.59995397471357 34.15511836227961,243.2878316284041 32.78560634679161,242.72591992467642 32.05193919572048,243.73736059194198 31.758472335292026,246.49071774928598 26.671713420422748,259.6392193136271 23.834867102559656,263.29152696882375 18.894841618137434,265.03338852204615 18.60137475747615,266.8876223840052 15.07977243186906,265.14576650375966 15.813439583173022,262.1677424933878 21.193665358470753,260.2573037946131 24.61744539719075,255.48117900075158 28.530336870113388,245.31070916965837 28.872714874101803,244.86118144821376 29.0194483040832,245.98500008595875 31.660650048404932,242.05162514792755 31.41609433130361,240.98399011814035 30.340049176244065,240.5344589802553 43.44823561073281,221.65383062732872 44.71992533933371,218.50699834915577 41.980901308357716,216.87738193920814 41.68743444769643,215.75350583461113 43.05694646341726,213.50574696820695 44.084080474916846,213.056194129691 45.6492370639462,213.8429113639868 45.55141477729194,216.7649944287259 48.82846138579771,218.95654688269133 53.377197723137215,226.48643203894608 56.60533318831585,227.16074525326258 58.757423498434946,230.58849174168427 64.87131642480381,231.1504154264112 65.21369442879222,232.1056844171253 64.23547156061977,234.07240964483935 62.76813725824468,236.43247094855178 57.48573376960121,234.35336983687012 54.69779859506525,235.19624958123313 51.90986342076212,234.63432989036664 50.05123997130431,232.49903000623453 47.996971947839484,224.2387155558099 46.72528221900575,223.11485398578225 45.257947916863486,223.56439888000023 40.02445557177998,230.98183837917168 34.44858522270806,242.8944934940082 32.443228343036026,242.72591992467642 27.84558086236939,257.8411515535554 25.693490552017465,261.212523945258 23.394666811916977,263.74104013777105 19.090486191678792,265.03338852204615 18.60137475747615,266.831433567917 14.786305571440607,265.08957751560956 16.00908415694721,262.1115532114636 21.82951022265479,259.5830297819921 25.008734544506297,254.86308933439432 28.677070300327614,244.91737243288662 29.06835944764316,246.09738182782894 30.731338323559612,243.00687584566185 31.660650048404932,241.99543388054008 32.05193919572048,242.50115508784074 31.318272044649348,242.16400766617153 31.36718318797648,241.04018148541218 30.2422268895898,240.70303319848608 38.8994992733933,227.55409425939433 41.19832301372662,225.19399614573922 44.62210305244662,219.23751453572186 41.6385233043693,215.97828123322688 43.839524757815525,213.0 45.6492370639462,214.12388154136715 45.11121448664926,216.59641312109306 46.72528221900575,216.98976942762965 49.219750533113256,219.34990155813284 53.621753440238535,226.82358874601778 56.849888905417174,227.04835977306357 58.65960121154785,230.53229934273986 65.21369442879222,231.31899242359214 63.35507097910158,235.4210173023166 62.27902582404204,236.48866276518675 57.6813783433754,234.35336983687012 53.91522030066699,235.19624958123313 51.61639656010084,234.5781378908432 49.855595397530124,231.76853083865717 48.43717223848216,225.02541733451653 45.84488163772039,223.1710471168626 40.46465586242266,230.41991452814545 34.057296075392514,243.40021390258335 32.78560634679161,242.7821111198864 31.269360901089385,244.86118144821376 30.92698289710097,245.53547289717244 31.954116908833385,245.92880920681637 27.943403149023652,257.44782347406726 24.910912257619202,262.0553639238351 23.394666811916977,263.74104013777105 19.090486191678792,264.9210105179809 17.86770760617219,267.0 14.884127858327702,265.25814446323784 15.813439583173022,262.1677424933878 21.536043362226337,259.9763563864399 24.568534253630787,255.53736893704627 28.62815915676765,245.0859453532612 29.0194483040832,246.09738182782894 30.43787146313116,243.4564050314366 31.660650048404932,242.7821111198864 31.220449757762253,240.98399011814035 30.388960319804028,240.81541598308831 33.127984350780025,237.3877310755779 37.285431540803984,229.85799012234202 41.68743444769643,224.6320665811072 44.71992533933371,219.01274042431032 41.83416787791066,216.82118818658637 41.58961216080934,215.69731197116198 43.594969040947035,213.056194129691 45.16012562997639,213.44955288275378 45.35577020351775,214.51723955664784" stroke="#ff0000" stroke-linecap="round" stroke-linejoin="round" stroke-width="0.5"><title>2022-01-27 21.8km</title></polyline></svg>