<?xml version="1.0" encoding="utf-8" ?>
<svg baseProfile="full" height="300mm" version="1.1" viewBox="0,0,200,300" width="200mm" xmlns="http://www.w3.org/2000/svg" xmlns:ev="http://www.w3.org/2001/xml-events" xmlns:xlink="http://www.w3.org/1999/xlink"><defs /><rect fill="#222222" height="300" width="200" x="0" y="0" /><text fill="#FFFFFF" style="font-size:12px; font-family:Arial; font-weight:bold;" x="10" y="20">Over 15km Runs</text><text fill="#FFFFFF" style="font-size:4px; font-family:Arial" x="10" y="280">ATHLETE</text><text fill="#FFFFFF" style="font-size:9px; font-family:Arial" x="10" y="290">Jason</text><text fill="#FFFFFF" style="font-size:4px; font-family:Arial" x="120" y="280">STATISTICS</text><text fill="#FFFFFF" style="font-size:3px; font-family:Arial" x="120" y="285">Number: 6</text><text fill="#FFFFFF" style="font-size:3px; font-family:Arial" x="120" y="290">Weekly: 1.0</text><text fill="#FFFFFF" style="font-size:3px; font-family:Arial" x="141" y="285">Total: 119.7 km</text><text fill="#FFFFFF" style="font-size:3px; font-family:Arial" x="141" y="290">Avg: 20.0 km</text><text fill="#FFFFFF" style="font-size:3px; font-family:Arial" x="167" y="285">Min: 16.0 km</text><text fill="#FFFFFF" style="font-size:3px; font-family:Arial" x="167" y="290">Max: 21.8 km</text><polyline fill="none" points="54.29739038227126,105.9088834949689 52.99787220891449,106.0 52.65450358585804,105.72665007865362 52.45904760042322,104.20801721014868 52.453765006241156,103.89821148498595 52.601677643862786,103.83746508075637 52.44848241202999,103.70989743596147 52.2794393976219,101.96037152139616 52.36924349903711,99.89489470809713 52.07341822379385,99.7430186658421 52.068135629582684,99.22056220630111 52.205483078811085,97.8718749437212 52.18435270199552,97.18536957780088 52.25302642659517,97.03956213824858 52.2794393976219,94.91923975025202 52.316417557012755,94.81595569694036 52.54356910765637,94.79165354144425 52.63337320907158,94.1111892742847 52.57526467286516,93.0236458711297 52.6756339626445,90.25305700731406 52.56998207865399,89.50570565869202 51.66665847034892,86.8139500377074 50.705226325808326,86.63165982739156 46.07239121181192,85.38599553608583 45.797696313413326,84.90595229016253 45.36452358897077,84.41375214382424 45.30641505276435,84.17676547735755 44.29743956041057,83.93977789379642 44.33441771980142,83.17411943304614 44.26574399523088,82.93712796936961 44.049157632980496,82.66367514085141 42.902834691427415,81.85546297633482 42.041771836724365,81.50908306890051 40.97997040240443,81.21739320603956 40.4517109823355,81.01685561932027 40.38303725770675,80.90747120428568 40.53094989535748,80.70085566495254 42.11572815553518,79.73461491812122 42.543618285795674,79.67384455016145 43.18809477824834,79.34568352096903 45.18491538614035,77.86893712268284 46.273129791457905,76.92088362363938 47.25569231278496,75.40153650056163 47.477561269217404,73.75452162314104 47.44586570400861,72.5876060315386 47.30851825478021,71.90689499556174 46.64819397969404,70.25370810159075 46.56367247249,69.59728327207267 46.7010199217184,68.80713293477675 46.093521588656586,68.46067918481276 46.14106493644067,67.7009053218244 45.987869704607874,67.5003234479882 45.56526216858765,67.32405398579067 45.76600074820453,66.44877741114396 46.473868371074786,65.51270388553894 46.61649841448525,64.26053119314383 46.73271548692719,64.10856674394017 47.15532302297652,62.75302715609723 47.9054513994779,61.45824605011876 48.01638587767957,61.12998733051063 48.122037761699175,60.13912162262568 48.06392922549276,59.81085582394371 47.7522561676451,59.1968724713588 47.725843196647475,58.34579624525941 47.213431559182936,57.74395662274037 47.20814896497177,56.87462226784919 46.57423766088323,56.25453007228134 46.442172805865994,56.02959311396626 46.40519464647514,55.64659044338259 46.500281342101516,55.087280646999716 46.394629458052805,54.84410087905417 46.093521588656586,54.63131778882962 44.2921569661994,54.558363416002976 43.92765796635649,54.455011238864245 43.71107160413521,54.217908525377425 43.505050430307165,53.73154110771429 43.040182140655816,53.53091342090556 42.61757460460649,52.752714952519455 42.348162300360855,52.582482717312814 42.200249662739225,52.643279998588696 41.872728822316276,52.49736642199059 41.032796344399685,51.61579782292392 40.75810144597199,51.01997184701031 40.6947103155544,48.87981433256573 39.60121331602568,47.46921500602184 39.448018084221985,47.171282536484796 39.40575733059086,46.72134095250294 39.569517750816885,44.720884893951734 39.92873415647773,43.608140875337995 40.736971069156425,42.501457330854464 41.08033969218377,41.52853216670701 42.437966401776066,40.44613471947741 42.92396506824298,39.357637052740756 43.57900674911798,38.60966372880284 44.16537470539333,37.4055898760198 44.73061228488223,37.03463304910474 45.68676183518255,36.864357030088286 46.17276050164946,36.47515291882519 46.69573732750723,35.86701653120326 47.815647298062686,35.33793294964562 48.6978405295813,34.62031801102421 50.31959694917896,34.060815769782494 51.84626667315024,34.0 52.74959028145531,34.225018045763136 54.21286887503811,34.82708928159991 54.84149758494459,35.39266594644869 55.676147468650015,35.915667664972716 56.67455777255236,36.967738955368986 57.14470865641488,37.606270499309176 58.18537971394835,39.56439229124953 59.34226784389466,41.25489417340941 59.73846240894636,41.631906200840604 60.594242669438245,42.209581407980295 59.7173320321308,41.546774656020716 59.24189855408622,41.03598289652655 58.872116960032145,40.54342965626347 58.79816064122133,40.257625338606886 58.66081319202203,40.160329946753336 57.720511424297,38.5245279733208" stroke="#ff1b00" stroke-linecap="round" stroke-linejoin="round" stroke-width="0.5"><title>2023-04-05 21.2km</title></polyline><polyline fill="none" points="171.56032579671592,62.75472516572336 172.7054903729586,62.65904122359643 172.9969868104672,63.30490709922742 171.10225996607915,66.9887017760193 169.06178490282036,66.43852820628672 167.35444862523582,66.62989306784584 166.4174957900541,66.31892509106547 165.7720393924974,65.24249439753476 164.91837125376333,62.061015729705105 164.00223959272262,61.58259427201119 163.27349849860184,62.32414712886384 161.33712930593174,65.00328692734183 159.0884425014956,69.81131175199698 158.69284019328188,70.09835499263136 158.3180590592092,69.88307259403518 157.61013913922943,70.93556250249094 157.96409909927752,71.29436483561585 156.13183577696327,76.10226484804298 154.27875128074083,78.4942193737661 152.15499152091797,79.6662684737239 152.88373261492234,80.71871589691727 151.00982694455888,83.70859841644415 150.71833050705027,84.92845989084162 151.05146929284092,89.1620491467329 147.8033661308,91.19510245247511 144.13883948652074,94.92630886245752 139.82885644456837,100.9774381913303 139.82885644456837,103.44089817519125 139.34996943979058,104.3019074118638 136.55993210838642,105.18683038544259 135.6438004473457,105.92824984963227 135.8936545366887,106.0 136.53911093436182,105.18683038544259 138.68369186820928,104.73241088354553 139.51653883280233,104.20623986986175 139.80803527042735,103.51264906172582 139.55818118108436,101.52753336813475 138.24644721182995,101.16877578571439 138.07987781893462,102.38854940005695 137.6634543365799,102.96255838907382 133.97810651815962,104.46932551953068 133.33265012060292,102.48421765925013 132.8329419416841,102.02979309170041 131.93763145478442,101.43186473145033 130.084546958562,101.04918980688672 129.0851306009572,100.28383814582776 128.9602035562275,99.8294094538578 127.00301318941638,99.08797133824555 127.35697314934805,99.99683064999408 128.0648930693278,100.14033444040979 129.54319643147755,101.36011322906415 132.0625584993977,102.24504694039933 132.58308785234112,102.98647540078673 132.1666643699864,103.44089817519125 131.72941971372347,102.34071525619947 131.31299623136874,102.17329567868728 131.47956562426407,101.45578189415392 132.45816080772784,101.64711911104678 133.41593481693417,102.72338814217073 133.93646416987758,104.51715924325981 137.60099081427325,103.12997742157313 138.10069899295922,102.65163702200516 138.2256260375725,101.26444452629949 139.18340004701167,99.18364089993702 141.0364845432341,97.03106662997743 144.3470512275817,91.57779293257045 145.3881099333521,90.4058014293114 148.4904648765223,88.70759960537544 149.3441330153728,87.79869796671846 149.53152358240914,86.62668819139071 148.90688835887704,85.1198101532791 150.32272819883656,81.84291605099861 150.03123176121153,80.38384675800626 150.30190702469554,79.88154218209093 150.7599728552159,79.85762289061677 150.59340346232057,79.52275256191206 151.21803868573625,78.20718607709568 153.69575840549078,77.22648641539854 155.36145233467687,74.90627873237827 156.6940074780723,71.1030036573793 157.00632508983836,71.07908349944046 157.85999322857242,69.35682592571538 156.61072278162464,69.21330390874937 156.25676282169297,68.6631353895209 162.37818801158573,57.15715100649686 162.9820020609768,57.06146485397767 164.02306076686364,57.68342416979431 162.39900918572675,56.70264144560497 165.83450291480403,51.00923892456922 165.23068886541296,50.10019588381692 164.8975500796223,48.49740116133762 161.92012218106538,46.607525104875094 164.3978419008199,42.014347155723954 163.79402785154525,41.296655234429636 160.83742112701293,39.62203248232254 162.81543266808148,35.60289064362587 163.87731254799291,34.21531428520393 164.56441129383165,34.0 166.64652870525606,34.502399701174 168.12483206752222,34.311009461656795 169.124248425127,34.90910345793236 168.20811676396988,36.75122368779557 167.3336274512112,36.583758791253786 164.98083477606997,38.11486210740986 164.46030542312656,39.64595574598934 164.31455720448866,41.03350099711679 164.56441129383165,41.03350099711679 167.79169328173157,37.373235147155356 169.02014255453832,35.29188284064003 168.93685785809066,34.885179726508795 168.14565324166324,34.33493324989104 166.1884628747357,34.47847592945618 164.27291485620663,34.0 163.68992198095657,34.28708567105059 162.2116186186904,36.535911656712415 161.96176452934742,37.70816373292473 160.21278590371367,37.70816373292473 160.00457416241989,38.401942901764414 160.62920938595198,39.43064628787397 162.0866915739607,40.483268486423185 164.2520936820656,41.39234761342232 167.7084085852839,36.96653552763746 166.1676417007111,36.70337658634526 165.1474041690817,37.22969418291177 164.3978419008199,38.18663233786356 163.7523855032632,40.14834373757185 163.12775027984753,40.004804417782 163.35678319516592,39.574185947858496 162.77379031991586,38.59332990903931 163.77320667740423,36.96653552763746 164.27291485620663,36.535911656712415 165.70957587007433,36.22490505166934 168.04154737107456,36.057439791213255 168.66618259460665,35.4115012735856 168.56207672390155,34.62201852405269 167.43773332168348,34.35885703572421 167.9374415006023,34.62201852405269 168.14565324166324,35.746432571831974 168.6037190721836,36.15313423988118 168.18729558994528,36.679453032047604 167.31280627695378,36.51198808585468 164.98083477606997,38.019168433660525 164.1271666373359,41.48803995466733 164.33537837851327,42.2296543175471 165.022477124352,42.11003925134719 166.75063457584474,42.92342053723405 168.4787920274539,44.02387322419963 168.41632850514725,44.454483784444164 163.37760436919052,52.44456309704401 162.4198303599842,54.57361162541201 161.7743739624275,55.339107647305354 161.31630813179072,55.29126421683759 161.94094335532282,55.626168031973066 161.08727521647234,56.989700214820914 162.16997627052478,57.20499406856834 162.06587040005252,57.42028773103084 162.52393623045646,56.89401399619237 163.16939262801316,57.133229471888626 162.10751274821814,58.54459597138339 162.50311505643185,57.89871740715171 162.23243979294784,57.492052242712816 162.50311505643185,56.870092435667175 163.35678319516592,57.228915596046136 163.77320667740423,57.77911007661896 163.4817102397792,57.99440322900773 163.7523855032632,58.616360150059336 165.1265829949407,59.62105641920061 167.0629521877272,62.92217197340506 168.66618259460665,63.32882802456152 169.644777777954,64.81192078125605 172.0808551495429,64.93152464026934 172.5805633282289,65.43386020364414 170.9148693990428,67.06046345394861 168.81193081336096,66.29500446088787 167.45855449594092,66.60597246843099 166.50078048650175,66.43852820628672 165.56382765143644,64.52487127867062 165.43890060670674,62.70688319939654 164.481126597384,61.58259427201119 163.8564913738519,61.58259427201119 161.23302343534306,65.02720768495055 158.8802307602018,69.97875368369569 158.40134375554044,69.90699287003372 157.61013913922943,70.7442010408995 157.9849202731857,71.34220510651357 156.1734781252453,76.07834518361778 154.44532067363616,78.39854164597637 152.175812695059,79.6662684737239 152.8004479185911,80.83831190591445 151.07229046698194,83.66076058647013 150.7807940293569,84.83278470295772 151.07229046698194,89.233804259522 148.03239904611837,90.93200239702128 144.20130300882738,94.59145935083507 142.16082794545218,97.96385116029705 139.95378348918166,100.76218321715714 139.76639292226173,101.43186473145033 139.32914826576598,101.52753336813475 138.37137425655965,100.95352098143485 139.16257887287065,99.08797133824555 140.93237867264543,97.19848975869536 144.68019001348875,91.26685696354252 146.5332745097112,89.52082449849695 148.6986766178161,88.65976276199217 149.3649541893974,87.99004596336454 149.5939871048322,86.6506068148883 148.9693518813001,84.88062230159994 150.32272819883656,81.53196759388084 150.07287410937715,80.1685734957864 151.21803868573625,78.25502498348942 153.61247370904312,77.34608414756076 154.77845945954323,75.91090746616828 156.75647100049537,71.0312431765633 157.00632508983836,71.1030036573793 157.88081440271344,69.71563059625623 157.94327792502008,68.87841887191462 158.81776723789517,68.16080652031815 159.40076011314522,66.89301950584922 158.9635154567659,66.70165485206235 160.650030560093,63.95077125348325" stroke="#ff4a00" stroke-linecap="round" stroke-linejoin="round" stroke-width="0.5"><title>2023-01-01 20.1km</title></polyline><polyline fill="none" points="76.73978238075506,126.54274919754243 74.80233983916696,129.08657711022533 71.72703421744518,127.74400352037628 69.45130805741064,128.20330557838315 67.97516135894693,127.77933446885436 67.08332272875123,126.61341132814414 65.76094131136779,121.41970755890361 64.43855989398435,120.78373865262256 63.51596820750274,121.52570226672105 60.56367481057532,125.76546484025312 57.02707334572915,133.14959808258573 55.858457209542394,133.18492849741597 55.212643028819,134.17417869833298 55.48942053481005,135.44606779629248 52.04507823847234,143.85455424457905 50.046129584428854,146.00963872051216 47.03233007516246,147.52878883347148 47.80115648068022,149.11859018777614 45.24865281465463,153.71130999716115 44.818110027583316,155.7603505969455 45.61768948927056,159.99970770906657 45.402418095618486,161.5894536843698 40.94322494417429,164.2390146231046 34.91562592575792,170.20928673711023 28.67275551368948,179.18217119463952 28.76501468231436,182.64409012612305 28.21145967033226,183.6332036734093 27.012090477976017,184.51633846058394 24.213562362245284,184.94024238476413 23.32172373193316,186.0 23.99829096859321,185.08154358135653 26.88907825294882,184.48101311083883 28.334471895359457,183.4565764546569 28.70350856985897,182.43213686760282 28.5497432887787,180.02999117047875 27.012090477976017,179.18217119463952 26.335523241083138,179.32347466336796 25.812721285503358,181.6902994750999 23.967537912423722,182.53811351250624 25.997239622636698,181.51367129787104 26.243264072574675,179.57075559938676 27.873176052002236,175.96750221744878 29.995136930956505,173.77727165896795 35.06939120683819,165.51079690927872 37.77566015382763,162.61395290569635 41.49677995615639,160.84757310774876 42.665396092343144,159.54044644653914 42.8499144295929,157.7387234963535 41.98882885556668,155.301083895989 44.049283622181974,150.42575490110903 43.80325917236041,148.30602593327058 45.46392420807388,145.26772585712024 48.908266504411586,144.0312010012858 50.99947432707995,141.31083128327737 53.521224936819635,134.9161145547405 55.243396085104905,132.54898049597978 54.68984107312281,131.73637862768373 55.79695109697059,130.71179103362374 57.58062835759483,127.1433768629795 62.74714180198498,120.14776861615246 63.70048654486891,117.74520494652097 62.83940097060986,117.2858894673409 62.83940097060986,116.57924911758164 61.947562340297736,116.64991321525304 61.824550115619786,115.660614576831 63.2084376453422,114.42398743308149 64.1310293317074,114.77730991013232 63.97726405062713,116.68524525896646 65.88395353616215,117.85120074270526 68.00591441511642,121.41970755890361 67.97516135894693,121.77302312961547 66.56052077305503,122.0910068450321 66.25299021077808,122.76230487204157 66.89880439138506,126.36609381003655 67.79064302169718,127.49668678350281 69.78959167574067,128.23863648154656 71.91155255481135,127.70867256849306 74.58706844551489,129.0159154678695 71.66552810498979,127.70867256849306 69.48206111358013,128.23863648154656 67.72913690924179,127.67334161297185 66.77579216635786,125.69480254233349 65.97621270478703,121.77302312961547 64.7153373999754,120.53641710599186 63.48521515133325,121.3843759825977 60.84045231656637,125.2708284612745 57.24234473926481,132.7609632887179 56.84255500836298,133.32625012198696 55.88921026571188,132.9729459557857 55.520173591095954,133.60889320404385 55.15113691648003,134.63347250499646 55.581679703551345,135.1280959454889 52.78315158782061,142.51203604534385 50.13838875305373,146.00963872051216 47.06308313133195,147.31681478611426 46.878564794082195,148.0233944558131 47.83190953684971,149.01260365053895 47.70889731205534,149.683851190086 44.87961613992229,154.3118920776178 45.49467726435978,160.28232973173726 45.18714670219924,161.73076409602072 41.650545237236656,163.67377660155762 35.77671149978414,169.04350177914603 28.642002457403578,179.04086767017725 28.457484120037407,183.35060008158325 27.012090477976017,184.48101311083883 23.783019575173967,185.25816999867675 23.41398290055804,185.8586991658085 24.18280930595938,185.04621828746167 26.612300747074187,184.55166380680748 28.39597800769843,183.42125100034173 28.365224951528944,179.74738473488833 26.981337421690114,179.14684531872626 26.30477018491365,179.2174970670021 25.935733510297723,181.44302000271273 23.87527874391526,182.43213686760282 25.874227397958748,181.54899694022606 26.151004903833382,179.67673309109523 27.903929108171724,175.89684982787003 32.455381428357214,170.17395997594576 35.43842788145412,164.98088817246025 38.23695599718485,162.26067764332402 41.55828606861178,160.70626234734664 42.57313692360185,159.5757742568676 42.91142054204829,157.42077144628274 42.01958191185258,155.301083895989 44.08003667835146,150.53174102009507 44.08003667835146,147.70543377712602 45.43317115190439,145.30305507601588 49.000525673036464,143.96054230909795 50.53817848395556,141.98209326481447 51.73754767642822,139.89764404966263 53.398212712141685,134.88078431066242 53.58273104939144,134.5274816788733 53.82875549909659,135.0221052658162 54.105533005087636,134.81012381229084 55.05887774785515,133.18492849741597 55.366408310015686,132.12501453392906 54.59758190449793,131.77170918200864 56.31975305266678,130.0051771911385 57.48836918885354,127.1433768629795 59.48731784289703,124.28155365254497 62.59337652102113,120.60708042248734 63.70048654486891,117.9218645892106 61.91680928412825,116.82657339872094 61.88605622795876,115.51928597665392 63.11617847660091,114.31799062187201 64.06952321936842,114.60064871510258 63.51596820750274,115.660614576831 63.91575793828815,116.68524525896646 66.09922492969781,118.23985172636458 68.00591441511642,121.3843759825977 68.0981735837413,121.73769158826326 66.65277994167991,121.94968078413513 66.28374326706398,122.51498469279613 66.99106356000993,126.0481138927862 67.97516135894693,127.6026796917431 69.26678972004447,128.23863648154656 71.85004644223955,127.74400352037628 74.58706844551489,129.0159154678695 71.54251588007901,127.77933446885436 69.08227138279472,128.13264376169536 67.48311245942023,127.46135580720147 66.06847187341191,122.02034382155398 64.77684351231437,120.64241207545274 63.85425182583276,121.10172324694577 60.96346454147715,124.9528475710249 57.02707334572915,133.00827638819464 56.13523471541703,133.04360681696562 54.905112466658466,134.8454540632374 55.3356552538462,135.34007721074158 52.291102688293904,143.2186251989624 49.92311735951807,146.0802970082732 47.001577018992975,147.31681478611426 47.61663814331405,149.43654961144784 44.84886308363639,154.559190288448 45.24865281465463,161.62478129248484 40.481929100933485,164.45097865123535 34.9771320380969,169.82069217276876 28.642002457403578,178.9348899902252 28.70350856985897,182.2201834837033 27.965435220627114,183.80983080517035 24.24431541841477,184.90491707692854 23.260217619361356,185.82337394851493 24.428833755664527,184.94024238476413 28.088447445537895,183.70385453655035 28.611249401117675,182.6794156569522 28.426731063984334,179.85336217432632 26.88907825294882,179.11151943934965 26.274017128627747,179.32347466336796 25.751215172931552,181.6549738465692 23.783019575173967,182.43213686760282 25.997239622636698,181.40769434982212 26.089498791494407,179.6060814334196 27.688657714636065,176.2147854710638 32.20935697853565,170.45657396750175 35.49993399379309,164.83957904350245 39.19030073983595,161.62478129248484 41.09699022525456,160.91822846693685 42.48087775509339,159.6817576670437 42.91142054204829,157.98601934005274 42.20410024910234,154.3118920776178 43.95702445344068,150.70838448189897 44.08003667835146,147.7760917300766 45.46392420807388,145.26772585712024 48.69299511087593,144.2431769942341 51.43001711415127,140.4982493057032 53.521224936819635,134.81012381229084 53.67499021801632,134.5274816788733 53.76724938675761,135.16342616511974 54.01327383646276,134.95144479518058 54.228545229882,134.2095090119692 53.76724938675761,133.18492849741597 55.3356552538462,132.05435349149047 53.121435206150636,132.08968401447055 53.121435206150636,130.74712168920087 61.73229094699491,114.4946519563091 62.501117352279834,114.0 64.10027627565432,114.67131320366752 63.6082273760112,115.76661099030753 64.65383128752,117.10922951062093" stroke="#ff2800" stroke-linecap="round" stroke-linejoin="round" stroke-width="0.5"><title>2022-05-22 20.9km</title></polyline><polyline fill="none" points="163.55118044960545,119.00353180192178 162.41214426839724,118.79184651971445 162.49589692882728,118.61864929963485 161.80912511370843,118.07981251989258 161.1893554268754,118.02207991945033 160.6533384004142,117.48324149068503 159.34679689857876,117.1368445714761 157.8057479475392,114.5388480569527 156.63321070215898,114.0 155.94643888709834,115.96293932315893 153.9028739737696,118.50318440081901 152.88109151716344,120.23515070301073 152.59633247187594,121.21659144421574 151.69180373975541,122.1018082669325 151.9263111887849,122.54441517109808 151.25628990575206,123.96844795843936 151.1222856491222,123.71828078950057 151.00503192457836,123.91071710178221 149.7152409547125,127.23983523888455 148.65995743393432,128.70232003330602 146.54939039237797,129.64523204507714 145.7788659168873,131.2808849233552 145.71186378854327,132.6663683927036 144.77383399230894,134.72533258529438 145.2595994225121,136.1877612368553 144.9580898451386,137.5347252919455 142.9982775922399,138.5160789592628 141.44047810911434,139.9207530660351 138.2243759505218,145.01982746804424 137.57110519957496,145.48162384891475 135.52754028624622,145.38541635974252 135.02502432401525,145.69328015808424 130.6866365163005,150.63827582726663 128.4923168142559,153.77453106525354 124.85745135380421,163.99106194122578 122.19411675364245,168.47385292724357 122.46212526690215,170.34004885220202 122.12711462535663,172.07155488042918 121.15558376489207,173.47598737248336 119.02826619130792,174.5148761360324 118.4084965044749,175.28441980203206 117.78872681764187,179.30523610147065 118.45874810073292,179.82466565708455 123.78541730088182,181.61380132098566 125.79548115003854,181.86389424686786 133.86923761072103,184.59565764311992 134.85751900315518,184.59565764311992 138.8608961693826,186.0 141.3232243846287,181.65227717661764 144.4388233507634,183.17206740529218 144.4053222866496,182.67188458610326 142.76377014315221,181.99855953572842 141.64148449408822,181.19056640859344 141.99324566766154,180.24790353192657 144.74033292807871,176.80425962642767 142.64651641860837,179.074378077421 141.3399749166565,181.0559005621035 139.16240574675612,180.03628470923286 137.92286637314828,178.84351978024642 143.06527972052572,172.62948132723977 143.96980845270446,170.8787412632082 144.6565802677069,168.20450358765083 145.5276079357136,166.72307557309978 147.05190635466715,165.26087585263303 145.34335208288394,167.06938442810497 143.73530100355856,171.45591005304595 142.86427333561005,172.99501847915235 141.75873821863206,174.0531484795356 141.0384653393412,173.88000032672426 140.16743767133448,172.5525260501454 139.71517330530332,169.64744213840459 138.8106445731828,167.8197181717842 138.89439723361284,167.47341064864304 140.38519458833616,166.43448439102212 140.97146321093896,165.62642681013676 145.71186378854327,162.1632849824673 150.73702341143508,155.87175336532528 153.96987610205542,157.00693768174096 158.6767756154877,157.98819337772147 162.2948905438534,159.14260552423366 163.1156666156603,159.08488507915172 164.12069854018046,157.7188295605447 165.39373897801852,155.005930378029 172.88122681604,147.7713480858365 178.92816889553796,140.7289171450393 180.10070614085998,139.72833255361184 180.56972103897715,138.82395360186638 182.21127318241633,137.5347252919455 181.5747529635555,138.0157816282881 180.33521358988946,137.93881269422127 177.13586196338292,135.47579076333204 173.80250608024653,134.45593663740146 169.59812252910342,132.68561114932527 150.8207760717487,122.27500239259098 150.77052447554888,121.71693188141217 154.23788461531512,115.27013946612715" stroke="#4dd2ff" stroke-linecap="round" stroke-linejoin="round" stroke-width="0.5"><title>2022-05-07 16.0km</title></polyline><polyline fill="none" points="41.64331442757975,241.37551439764502 38.414732928271405,241.27773415806587 37.74716908443952,241.05423621207592 36.75189208087977,239.3221150758327 35.319664197741076,238.62367309237015 34.6156877806643,237.12899558167555 32.71009644458536,236.26291348565428 31.022980548324995,234.405009686845 30.46465442434419,232.88234840314544 30.4282418510993,228.76130159462627 30.234041460091248,228.03486724974937 27.927911817794666,225.17100294239935 27.381723218306433,223.98352988400438 27.78226152458228,218.42322834287188 28.38913774624234,216.4952331904351 30.452516899909824,213.54730536452553 31.362831232487224,211.13023779673676 34.32438719418133,208.9087343778956 35.586689735297114,206.15625685820123 36.94609247177141,204.64726150932256 37.929231950955,202.43962798031862 38.76672113680979,201.41963367488643 39.42214745626552,201.08429146251 42.213778075936716,200.34374123890302 44.42280752281658,198.12206712688203 46.352673907764256,197.39547425218916 48.12475247500697,195.81651907642663 50.418744592927396,194.7545569324575 52.045172867015935,194.26549271652766 54.16923964291345,194.02794662539964 55.67429267260013,194.0 57.470646288769785,194.32138585601933 61.02694094774779,195.63486822669802 63.05390752811218,197.31163637078134 65.0687365841004,198.63906361289264 67.82395463052671,201.82483777940797 70.9311608854332,207.46962849727424 72.61827678169357,209.8727873483731 70.72482297004899,207.260048740427 67.43555384862702,201.39168852112198 65.12942420627223,198.77879206606303 61.014803423313424,195.63486822669802 57.40995866659796,194.3074125732528 52.991899772838224,194.16767966886982 50.64935755712213,194.7266104517039 48.452465634734835,195.69076082087122 46.32839885883732,197.40944722753193 44.5199077182333,198.1080942224362 42.06812778278254,200.44154998291924 39.3250472607906,201.1541544894426 38.439007977140136,201.74100254339282 37.06746771617327,204.5494556955091 35.57455221086275,206.24008945759851 34.433624914090615,208.8388752097817 31.399243805732112,211.10229457585956 30.379691753303632,213.7289330385829 28.449825368414167,216.425377796666 27.89149924449157,218.12983948376495 27.381723218306433,223.7600044208084 27.75798647571355,224.93350913388713 29.954878398159053,227.4900390256371 30.33114165562438,228.2444160040759 30.488929473271128,233.04998164651624 30.96229292609496,234.30722459571552 32.63727129797917,236.10925320125534 34.53072510956554,237.08708850639232 35.477452015387826,238.70748631373863 36.84899227635469,239.3919590832229 37.40731840027729,240.63517660507932 37.941369475389365,241.068204844094 41.8011022452265,241.26376554687158 43.184780030627735,241.65488613577327 43.58531833690358,242.1996594273951 43.70669358124724,242.7723675333691 43.573180812527426,244.54635099868756 44.03440674091689,245.27269997070835 45.22388413542649,246.3342801759136 45.41808452637633,247.01871579272847 45.3209843308432,248.54122388234828 46.55901182309026,250.1614896023966 46.53473677422153,251.8376068956568 47.28726328909397,253.3460953677568 47.39650100900326,254.18413752257766 47.08092537370976,256.7122010815656 45.16319651325466,260.17599333917315 43.96158159436891,263.55590188803035 43.7188311056816,266.0 43.91303149663145,263.56986828366644 44.19219455862185,263.2486408327386 45.11464641557541,260.1480598720518 47.03237527603051,256.64236568236083 47.37222596013453,253.9187580475409 46.47404915210791,251.78173664130736 46.571149347524624,250.17545732908184 45.27243423322216,248.68090269748063 45.27243423322216,246.6695143639372 45.01754622004228,246.18063090575743 43.76738120341906,245.160954219391 43.51249319029739,244.70000205586257 43.54890576360049,242.14378534084244 43.026992212980986,241.57107467266906 41.92247748951195,241.1939224700036" stroke="#4dd2ff" stroke-linecap="round" stroke-linejoin="round" stroke-width="0.5"><title>2022-02-26 19.6km</title></polyline><polyline fill="none" points="182.31396208051592,218.50024632638087 174.74903856613673,217.4513223222457 172.40130368224345,213.40545901254518 167.05368533614092,211.6822143868776 160.33655497431755,201.192814880691 156.7497377905529,198.49551728920778 155.96715949615464,196.62238832144067 157.46710122725926,195.12388181872666 154.66286233859137,194.44955292728264 152.38034231285565,198.19581696478417 156.4236635013949,202.01698723243317 153.03249089140445,208.6852578924154 146.6414348189719,215.72808688267833 139.92430445738137,228.24018571246415 137.315710142022,231.01229945814703 138.4243627260439,232.2859699468827 135.88098326837644,238.12984243716346 135.03319011605345,237.00602429831633 134.51147125312127,237.68031538132345 129.94643120118417,250.7914118237677 125.51182086532936,256.8598997971276 118.14254192472436,259.5569899912225 116.90345962485299,263.6775259510032 121.14242538716644,265.85016317875125 121.33806996094063,263.22801402403275 127.07697745459154,260.83061258512316 130.27250549080782,257.38433475221973 133.3376038109418,252.5894873920479 138.88086673105136,237.98000011459226 137.77221414702944,237.0809455595445 138.4243627260439,234.83330451260554 140.11994903092273,233.03518688300392 142.2068244831171,233.40979507373413 151.20647487067617,215.503316754126 157.206241796026,207.56139615585562 159.423546963837,207.411547798838 161.5104224162642,209.73419401160209 162.87993443151936,217.30147591780405 165.423313888954,222.02162345283432 168.42319735162891,223.07054114108905 173.64038598211482,222.2463916509878 179.70536776538938,224.94360483577475 183.87911866954528,218.94978474173695 177.48806259734556,217.82593820465263 174.0968899873551,222.4711597824935 169.20577564602718,223.52007684938144 166.46675161505118,222.9206958459108 163.01036414736882,218.650092494383 161.57563727372326,209.80911796464352 158.8366132429801,207.3366236089496 157.2714566537179,207.63632032333408 150.4891114339698,217.37639912369195 142.40246905665845,234.1590109007666 139.92430445738137,233.78440307982964 138.88086673105136,235.65744033595547 139.14172616251744,238.35460586519912 133.85932267387398,253.2637646321673 130.79422435374,258.2084460921469 128.31605975399725,261.0553692918038 122.51193740265444,263.0032579609542 120.16420251899399,265.70032632816583 116.44695561961271,263.30293269711547 117.68603791948408,259.5569899912225 124.79445742839016,256.9348190986784 130.468150064582,248.99333199649118 134.83754554227926,236.78126047109254 136.01141298445873,237.00602429831633 138.35914786788635,232.81042187992716 138.29393301019445,231.01229945814703 136.98963585263118,231.08722131082322 139.8590895992238,228.0154192892369 142.40246905665845,221.87177795066964 152.054268023232,209.65927005099365 156.0975892120041,202.39161073311698 152.18469773908146,197.67134111281484 154.79329205444083,194.2247764968779 157.01059722225182,194.6743292909814 157.01059722225182,198.72029245458543 160.98870355309919,200.9680404473911 167.70583391468972,211.75713814777555 172.72737797163427,213.1057645760593 175.00989799760282,217.22655270423274 183.22697009099647,218.200553901901 183.1617552328389,220.29839838971384 179.64015290723182,225.16837216867134 173.57517112442292,222.4711597824935 169.98835394065827,223.3702316430281 166.1406773258932,222.9206958459108 163.4016532949172,220.14855254715076 161.31477784272283,209.95896584866568 160.14091040054336,208.08586517337244 158.05403494811617,207.411547798838 149.77174799749628,218.3504001291003 142.0111799093429,234.5336185367778 140.11994903092273,233.55963829829125 139.14172616251744,236.33173261664342 138.163503294345,236.10696858965093 138.03307357872836,237.7552365757292 139.01129644690081,238.6542903324007 133.92453753203154,253.11392529739533 130.85943921166472,257.83385013928637 127.79434089106508,261.50488250527997 121.46849967655726,263.82736320083495 121.40328481863253,265.77524475724204 116.70781505131163,263.6775259510032 116.12088133045472,262.4788268879638 117.62082306155935,259.7068280543899 124.14230884984136,257.4592540017911 129.62035691179335,250.6415720010409 134.90276040043682,236.70633918052772 136.01141298445873,236.8561817544396 138.55479244166054,233.110108535795 138.55479244166054,231.5367522710585 137.1200655682478,230.93737759802025 140.25037874653935,227.41604183544405 146.31536052958108,216.02778028370813 154.40200290712528,205.91306259890553 156.22801892762072,201.5674387876643 152.64120174432173,199.16984258563025 152.31512745469809,197.07193969533546 154.85850691213273,194.07492550631287 157.532316085184,195.19880721421214 156.35844864323735,196.69731356902048 157.07581208017655,198.87014252785593 161.05391841079108,201.1178900769446 167.37975962553173,211.6072906186455 172.92302254540846,213.40545901254518 175.92290600785054,217.75101504282793 183.22697009099647,217.90086135885213 182.77046608552337,221.34731845953502 180.35751634417102,225.09344973193947 173.314311692724,222.4711597824935 169.59706479334272,223.52007684938144 165.945032752119,222.6959278473514 163.2712235788349,219.62409186526202 161.11913326894864,209.73419401160209 158.90182810090482,207.4864719811012 157.46710122725926,207.78616863646312 149.70653313933872,218.79993863304844 142.2068244831171,234.3837755045388 140.38080846215598,233.63455989956856 139.40258559398353,234.98314745596144 139.01129644690081,238.6542903324007 132.2289512269199,256.185625751561 128.4464894698467,261.0553692918038 121.8597888238728,263.3778513627476 121.46849967655726,265.85016317875125 116.77302990900353,263.52768867171835 117.75125277717598,259.5569899912225 124.92488714423962,257.0097383928369 129.48992719617672,250.6415720010409 134.70711582666263,237.0809455595445 135.1636198319029,236.4815752643044 135.35926440521143,237.98000011459226 138.88086673105136,232.73550019721733 138.55479244166054,231.31198682420654 137.1200655682478,230.71261197369313 154.59764748066664,205.53844083641889 156.29323378577828,201.34266446559923 152.64120174432173,199.16984258563025 152.24991259677336,197.67134111281484 154.07592861773446,194.6743292909814 155.44544063298963,194.07492550631287 157.532316085184,195.12388181872666 157.40188636956736,199.01999257167336 161.77128184749745,201.9420625102939 167.836263630772,211.98190938530024 172.14044425077736,212.88099367107498 175.00989799760282,217.4513223222457 183.1617552328389,218.200553901901 183.61825923831202,219.4742458895198 182.31396208051592,222.09654619311914 180.35751634417102,225.24329459812725 173.314311692724,222.4711597824935 169.59706479334272,223.59499944164418 165.87981789419428,222.84577318723314 163.4016532949172,219.99870667501818 160.66262926347554,208.98495407449082 158.96704295859672,207.4864719811012 157.01059722225182,208.08586517337244 150.03260742896236,217.97578450560104 142.5981136301998,233.859324658697 139.92430445738137,233.63455989956856 133.7941078164149,253.788202071446 130.92465406935662,258.2833652604022 127.85955574922264,261.65472018375294 122.12064825533889,263.3778513627476 121.46849967655726,265.77524475724204 116.38174076192081,263.45277002081275 118.01211220910773,259.48207094869576 125.77268029679544,256.11070637602825 130.0116460591089,249.8174524459173 134.90276040043682,236.55649657722097 135.424479263369,238.12984243716346 137.64178443117999,234.0091677942546 138.88086673105136,232.66057850740617 139.40258559398353,233.33487345051253 138.4243627260439,232.88534355489537 138.4895775837358,231.38690864725504 136.98963585263118,230.93737759802025 148.5326656976249,213.40545901254518 151.59776401799172,210.2586615277105 156.16280406992882,202.31668604764855 152.18469773908146,197.9710416443413 155.1193663435988,194.0 157.532316085184,195.49850872188108 156.81495264871046,198.79521749482956 158.96704295859672,199.31969257019227 162.29300071066245,202.466535410902 168.16233792016283,212.43145166139584 172.466518540401,212.73114636412356 174.8794682819862,217.37639912369195 183.61825923831202,218.42532323143678 181.14009463856928,223.89468973642215 179.70536776538938,225.318217020249 173.57517112442292,222.4711597824935 168.55362706747837,223.59499944164418 165.48852874687873,222.77085052116308 163.14079386321828,219.02470778493444 161.24956298456527,210.03388977935538 157.79317551665008,207.56139615585562 150.61954114958644,217.22655270423274 142.07639476726763,234.5336185367778 140.38080846215598,233.70948149322066 138.35914786788635,236.4815752643044 137.90264386264607,237.38063052960206 139.27215587813407,237.90507894248003 133.92453753203154,253.2637646321673 129.88121634349227,259.4071518985438 127.85955574922264,261.65472018375294 122.12064825533889,263.22801402403275 120.49027680815198,266.0 116.51217047777027,263.6775259510032 117.75125277717598,259.5569899912225 125.3813911494799,256.6351418486447 129.42471233801916,250.7164919161005 134.83754554227926,236.78126047109254 135.35926440521143,238.12984243716346 137.25049528386444,234.60854004195426 138.88086673105136,233.70948149322066 138.29393301019445,231.31198682420654 137.18528042617254,231.08722131082322 140.8373124676291,226.5169747674954 146.38057538750581,216.4773201631615 152.24991259677336,209.50942210818175 156.29323378577828,202.01698723243317 152.44555717054754,199.09491758211516 152.1194828809239,197.59641596162692 154.79329205444083,194.07492550631287 156.88016750640236,194.5994038436911 157.14102693786845,196.02298607554985" stroke="#ff0000" stroke-linecap="round" stroke-linejoin="round" stroke-width="0.5"><title>2022-01-27 21.8km</title></polyline></svg>