<?xml version="1.0" encoding="utf-8" ?>
<svg baseProfile="full" height="300mm" version="1.1" viewBox="0,0,200,300" width="200mm" xmlns="http://www.w3.org/2000/svg" xmlns:ev="http://www.w3.org/2001/xml-events" xmlns:xlink="http://www.w3.org/1999/xlink"><defs /><rect fill="#222222" height="300" width="200" x="0" y="0" /><text fill="#FFFFFF" style="font-size:12px; font-family:Arial; font-weight:bold;" x="10" y="20">Over 15km Runs</text><text fill="#FFFFFF" style="font-size:4px; font-family:Arial" x="10" y="280">ATHLETE</text><text fill="#FFFFFF" style="font-size:9px; font-family:Arial" x="10" y="290">Jason</text><text fill="#FFFFFF" style="font-size:4px; font-family:Arial" x="120" y="280">STATISTICS</text><text fill="#FFFFFF" style="font-size:3px; font-family:Arial" x="120" y="285">Number: 7</text><text fill="#FFFFFF" style="font-size:3px; font-family:Arial" x="120" y="290">Weekly: 1.0</text><text fill="#FFFFFF" style="font-size:3px; font-family:Arial" x="141" y="285">Total: 136.6 km</text><text fill="#FFFFFF" style="font-size:3px; font-family:Arial" x="141" y="290">Avg: 19.5 km</text><text fill="#FFFFFF" style="font-size:3px; font-family:Arial" x="167" y="285">Min: 16.0 km</text><text fill="#FFFFFF" style="font-size:3px; font-family:Arial" x="167" y="290">Max: 21.8 km</text><polyline fill="none" points="44.8533329560305,69.57230570993852 43.93475091364235,69.1371220296569 42.92146969161695,69.24591811079881 42.46691362938145,68.82161278697458 42.27751527010696,67.64660490339156 42.040767321013846,67.1678943963343 41.69038035639096,66.92853836306313 41.368403145694174,67.21141361926857 40.553990200860426,68.32114799767442 39.31343094771728,70.8452081113428 39.09562283451669,70.74729306390509 38.89675455738325,71.03015851917735 38.072871694515925,73.61943164371769 37.23951891378965,74.7073433815749 36.28305719955824,75.16426310974202 36.27358728158288,75.49063318462868 36.472455558832735,75.74084958762978 36.311466953426134,76.20864394806995 35.65804261399899,77.14422671376087 35.58228327031247,77.72080283581454 35.7622117116116,79.53754183986894 34.31331426324323,80.39694686615258 32.46668026049156,82.22452009478002 31.917425018618815,83.24707761314494 30.676865765475668,84.8679206330562 30.686335683451034,85.93396546962322 30.326478800852783,86.48873982762598 29.322667496744543,86.73893127200427 29.010160203964915,87.0 29.30372766085202,86.7062976375164 29.881392656592652,86.67366399340244 30.47799748822581,86.33644910532894 30.629516175657045,85.96659933264164 30.582166585838422,85.16162789215014 29.976091836229898,84.92231092524162 29.66358454345027,85.83606382258586 27.968469228071626,86.49961772833194 27.665431853267364,85.56411434694019 27.438153822149616,85.30304221935512 26.964657923963387,85.04196947361925 26.11236530728638,84.91143286893202 25.544170229521114,84.25874752757227 24.862336136226077,83.87801262757421 24.739227202662732,84.05206303072191 24.957035315805115,84.41104111944878 25.714628752844874,84.83528644485341 26.14077506121248,85.28128618082701 27.42868390417425,85.52060236861143 27.608612345473375,85.7381620886299 26.746849810879212,85.40094433963532 26.92677825212013,85.06372555938287 27.646492017258424,85.41182234763983 27.883239966409747,86.52137352649879 28.20521717716474,86.49961772833194 29.559415445837658,85.85781975163991 29.80563331284793,85.61850429572223 29.871922738617286,85.05284751702857 30.354888554720674,83.97591601315798 31.718556741368957,82.2680333738972 32.83600706100697,80.37518985953648 33.83034844713984,79.57017759613518 34.54059229436098,79.30909127538325 34.853099587140605,78.9936111462157 35.00461827457184,78.31913335904392 34.711050817742944,77.35092416086263 35.36447515717009,76.00194435917365 35.26030605955748,75.46887520967721 35.78115154750412,74.50064097758877 36.85125227732351,74.17426797163353 37.52361645270139,73.27129761990363 38.25280013587326,71.32390264667629 38.30961964360904,71.23686743123835 38.35696923348587,71.43269656928896 38.83993504958926,70.46442688271054 38.319089561584406,70.46442688271054 38.072871694515925,70.29035502579791 40.21307315421291,65.97110903144494 40.89490724756615,64.9048711226933 41.21688445826294,64.97015129114152 41.49151207919931,65.34007151512196 41.56727142294403,65.26391157051694 40.951726755301934,64.92663118313794 40.94225683732657,64.71991043550224 42.81730059400434,61.48848833961529 43.96316066751024,59.92170412114501 44.446126483613625,59.573526824889996 44.663934596814215,58.81188515361282 46.482158845697995,55.97200336561218 47.42915064195404,54.76421536192356 47.8931766221649,53.9916593350863 48.06363514548866,52.7076809964492 50.49740406201454,49.05152510511107 51.63379421754507,45.253782308973314 51.576974709751084,44.92732266162784 51.065599139779806,44.7205643844718 51.122418647573795,44.88379463554156 51.64326413552044,45.01437866219203 52.00312101806048,43.849998959827644 53.385729040717706,41.26002613220044 53.46148838440422,40.68325918506889 54.12438264180673,39.74736676780594 54.427420016610995,38.430574433572474 54.91038583271438,37.70143471481424 55.26077279733727,36.341086512227776 54.89144599682186,34.4365707941397 54.47476960642962,33.63122280893003 53.669826579571236,33.0 53.46148838440422,33.0 52.55237625999143,33.6421059291024 52.31562831089832,35.165732132176345 51.823192576819565,36.667571613514156 50.648922749387566,37.70143471481424 50.44058455422055,37.70143471481424 49.758750460867304,37.179062992625404 48.641300141229294,36.776399765498354 48.14886440715054,37.26612511842541 47.45756039588014,36.99405574677803 47.239752282737754,37.05935245728324 46.11283204512438,36.308437948842766 45.478347541589756,37.0375868914125 45.118490658991504,38.18027328324388 44.663934596814215,38.56116611218022 44.26619804237271,38.38704383958975 43.887401323823724,37.84290996308846 42.70366157841636,37.52731108273292 42.343804695876315,37.777613717240456 42.00288764917059,38.51763556985679 41.93659822345944,39.30118269925879 41.57674134086119,39.083531278134615 41.54833158693509,39.5950114354564 41.83242912584683,39.73648425105057 41.5199218330672,39.660306603705976 41.35893322771881,39.790896824029915 40.885437329590786,40.55267002292385 40.76232839602744,41.02061380386294 40.336182087659836,41.52120262407698 40.250952826056164,41.9456131023253 39.97632520511979,42.10884746616648 38.83046513161389,44.63350815165904 38.290679807716515,47.821897789341165 38.48954808496637,48.104822104367486 40.07102438475704,48.648905283036584 40.65815929841483,49.12769625724468 42.8267705119797,50.32466458801355 43.32867616403382,50.12879793299362 43.20556723047048,49.20386735671491 43.42337534361286,47.6477901573453 43.63171353877988,47.60426320635452 44.218848452554084,47.941596626675164 45.96131335769314,49.160341020600754 45.203719920653384,52.642393562491634 44.14308910880936,54.579237651596486 43.86846148787299,54.77509639404889 43.413905425637495,54.524832383569446 42.85518026584759,54.666286024563306" stroke="#4dd2ff" stroke-linecap="round" stroke-linejoin="round" stroke-width="0.5"><title>2023-06-22 16.9km</title></polyline><polyline fill="none" points="162.24840415666404,87.0 161.9908776893717,86.79498755898749 161.8442857002956,85.65601290760969 161.84032375465904,85.42365861373764 161.9512582328607,85.37809881056819 161.83636180900794,85.28242307696928 161.70957954818732,83.97027864104166 161.77693262424145,82.42117103107739 161.555063667809,82.30726399937339 161.5511017221579,81.91542165471765 161.65411230908649,80.90390620778635 161.6382645264821,80.3890271833443 161.68976981991727,80.2796716036828 161.70957954818732,78.68942981268265 161.73731316773046,78.61196677269982 161.90767683071317,78.59374015607682 161.9750299067673,78.0833919557117 161.93144850461977,77.26773440334 162.00672547196154,75.1897927554819 161.92748655895412,74.62927924402175 161.2499938527326,72.61046252828237 160.52891974433442,72.47374487054185 157.0542934088444,71.539496652058 156.8482722350309,71.17946421761735 156.52339269169897,70.81031410786818 156.47981128953688,70.63257410801816 155.72307967027882,70.45483342035004 155.75081328983651,69.88058957478279 155.69930799638678,69.70284597702266 155.53686822470627,69.49775635563492 154.67712601854873,68.8915972322502 154.03132887752145,68.63181230167538 153.23497780176695,68.41304490452967 152.83878323671524,68.26264171449293 152.7872779432655,68.18060340321244 152.89821242148173,68.02564174871804 154.08679611662228,67.30096118858637 154.40771371431765,67.25538341261927 154.89107108366443,67.00926264072768 156.38868653957616,65.9017028420094 157.2048473435716,65.19066271772681 157.94176923455962,64.05115237542486 158.10817095189122,62.815891217353055 158.08439927798463,61.94070452365122 157.98138869105605,61.43017124666585 157.48614548475598,60.19028107618942 157.4227543543384,59.697962454054505 157.52576494126697,59.10534970107983 157.07014119146334,58.84550938860775 157.10579870230868,58.27567899136193 156.9909022784268,58.1252425859966 156.67394662641163,57.99304048934209 156.8245005611243,57.3365830583607 157.35540127828426,56.63452791415693 157.46237381084939,55.69539839485151 157.54953661517357,55.58142505794967 157.86649226720328,54.564770367069286 158.42908854957204,53.59368453758361 158.51228940823057,53.34749049788297 158.591528321238,52.60434121696744 158.54794691909046,52.358141867953236 158.31419212570472,51.897654353513644 158.29438239746378,51.2593471839391 157.91007366936537,50.80796746705164 157.90611172369972,50.155966700884164 157.4306782456406,49.690897554213734 157.33162960437767,49.522194835470145 157.30389598483453,49.23494283253967 157.37521100653976,48.81546048524979 157.29597209351778,48.63307565928699 157.07014119146334,48.473488341620396 155.71911772462772,48.4187725619995 155.44574347474554,48.34125842915091 155.28330370307958,48.163431394037616 155.12878782270127,47.79865583078572 154.78013660546276,47.648185065674625 154.4631809534185,47.06453621438777 154.26112172524154,46.93686203798643 154.15018724703987,46.98245999894061 153.90454661671538,46.873024816490215 153.27459725827794,46.21184836719476 153.0685760844499,45.76497888525773 153.02103273665125,44.15986074942339 152.20090998699015,43.101911254510924 152.08601356313739,42.87846190236087 152.0543179979286,42.541005714378116 152.17713831308356,41.04066367046107 152.4465506173292,40.206105656503496 153.0527283018455,39.3760929981363 153.31025476912328,38.64639912503117 154.32847480131022,37.83460103960897 154.69297380115313,37.01822778955466 155.1842550618021,36.45724779660668 155.6240310290159,35.55419240701667 156.0479592136253,35.27597478682583 156.7650713763578,35.14826777256894 157.12957037621527,34.85636468911616 157.52180299560132,34.40026239840881 158.3617354735179,34.00344971222876 159.0233803971496,33.46523850826998 160.2396977118624,33.04561182733232 161.38470000484085,33.0 162.06219271107693,33.168763534318714 163.15965165625676,33.62031696120175 163.63112318867934,34.04449945983288 164.25711060145113,34.43675074872954 165.00591832939244,35.225804216534016 165.35853149228205,35.704702874478244 166.13903478543216,37.17329421843533 167.00670088290644,38.44117063005979 167.30384680668067,38.72392965063045 167.94568200205686,39.15718605598158 167.28799902407627,38.66008099201645 166.93142391553556,38.27698717239764 166.65408772000228,37.907572242194874 166.59862048090145,37.693219003955164 166.49560989398742,37.620247460061364" stroke="#ff1b00" stroke-linecap="round" stroke-linejoin="round" stroke-width="0.5"><title>2023-04-05 21.2km</title></polyline><polyline fill="none" points="57.02911777974805,114.49428091770096 57.247740107937716,114.97868032442057 55.82669497461757,117.74152633201447 54.29633867717348,117.32889615470776 53.015836469014175,117.47241980089166 52.31312184256967,117.23919381831365 51.82902954443125,116.43187079815834 51.188778440409806,114.04576179730066 50.50167969457107,113.68694570400112 49.95512387400959,114.24311034665152 48.50284697947791,116.25246519551729 46.8163318761508,119.8584838139941 46.519630144990515,120.07376624448807 46.238544294436,119.91230444551911 45.70760435448028,120.7016718768864 45.97307432448724,120.97077362674463 44.598876832809765,124.57669863602496 43.20906346064294,126.3706645303173 41.61624364077579,127.24970135532203 42.162799461279064,128.03903692272434 40.75737020850647,130.28144881232583 40.538747880316805,131.1963449181203 40.788601969659794,134.37153686003876 38.3525245981873,135.89632683934178 35.60412961494876,138.6947316468286 32.371642333455384,143.23307864349044 32.371642333455384,145.08067363138252 32.01247707998846,145.72643055889057 29.919949081377126,146.39012278906011 29.232850335596595,146.9461873872351 29.42024090263294,147.0 29.90433320082957,146.39012278906011 31.51276890124427,146.04930816264823 32.13740412471816,145.65467990242178 32.35602645290783,145.13448679631983 32.16863588587148,143.64565002611198 31.184835408930667,143.3765818393149 31.059908364259172,144.29141205003543 30.747590752493124,144.72191879182355 27.98357988864882,145.8519941396371 27.499487590510398,144.36316324443032 27.1247064563795,144.02234481878986 26.453223591146525,143.57389854860958 25.063410218979698,143.28689235518686 24.313847950776108,142.71287860935263 24.220152667316142,142.37205709038244 22.75225989212049,141.8159785036696 23.017729862127453,142.49762298748828 23.54866980202496,142.60525083029643 24.657397323695477,143.52008492180903 26.546918874664698,144.18378520531405 26.937315889284946,144.73985655057186 26.624998277577106,145.08067363138252 26.29706478532171,144.25553644217143 25.98474717361387,144.12997175904457 26.109674218285363,143.59183642060088 26.84362060582498,143.73533933327417 27.561951112758834,144.54254110660986 27.952348127495497,145.88786943245213 30.700743110734038,144.84748306618712 31.07552424480673,144.4887277665257 31.169219528266694,143.44833339475736 31.887550035316963,141.88773067494913 33.277363407542,140.27329997251218 35.76028842077358,136.18334469942783 36.54108245013049,135.30435107197263 38.867848657479044,134.03069970406068 39.508099761616904,133.3490234750352 39.64864268689416,132.47001614353212 39.18016626924509,131.33985761497752 40.24204614915652,128.88218703826715 40.023423820966855,127.78788506849378 40.226430268608965,127.41115663657547 40.56997964147013,127.39321716799168 40.44505259679863,127.14206442143768 40.91352901433129,126.15538955783995 42.771818804205395,125.41986481154163 44.02108925109496,123.67970904927643 45.02050560864154,120.82725274303812 45.25474381749518,120.8093126245949 45.89499492151663,119.51761944430473 44.9580420863349,119.40997793158749 44.69257211632794,118.99735154214432 49.28364100877661,110.36786325488356 49.73650154581992,110.29609864047961 50.51729557523504,110.76256812734937 49.29925688938238,110.02698108422919 51.87587718619034,105.75692919341964 51.42301664914703,105.0751469128736 51.17316255980404,103.87305087101413 48.94009163591545,102.45564382868179 50.79838142567314,99.01076036680024 50.34552088868804,98.47249142582587 48.12806584534701,97.21652436176373 49.611574501148425,94.20216798275942 50.407984411052894,93.16148571390659 50.923308470402844,93.0 52.48489652900025,93.37679977588414 53.59362405072898,93.23325709624623 54.34318631893257,93.68182759349293 53.65608757303562,95.06341776587942 53.00022058846662,94.93781909345125 51.23562608216889,96.08614658056467 50.84522906743223,97.23446680951747 50.735917903424706,98.27512574783759 50.923308470402844,98.27512574783759 53.34376996132778,95.52992636036652 54.26510691596195,93.96891213048366 54.20264339365531,93.66388479489251 53.609239931276534,93.2511999374401 52.14134715613909,93.3588569471176 50.70468614221318,93.0 50.267441485775635,93.21531425329158 49.15871396410512,94.90193374254159 48.97132339712698,95.78112279970082 47.65958942781435,95.78112279970082 47.50343062193133,96.30145717631967 47.9719070395804,97.07298471592367 49.065018680586945,97.86245136482466 50.68907026166562,98.54426071009948 53.28130643902114,95.22490164573537 52.125731275591534,95.02753243976622 51.360553126898594,95.42227063719474 50.79838142567314,96.13997425342677 50.31428912753472,97.61125780317525 49.845812710002065,97.5036033133365 50.017587396432646,97.18063946090115 49.5803427399951,96.44499743178312 50.329905008140486,95.22490164573537 50.70468614221318,94.90193374254159 51.782181902672164,94.66867878877383 53.53116052842233,94.54307984340994 53.9996369460132,94.05862595519284 53.92155754304258,93.46651389304316 53.078299991379026,93.26914277681499 53.453081125509925,93.46651389304316 53.609239931276534,94.30982442887034 53.9527893041959,94.61485067990725 53.64047169248806,95.00958977403934 52.984604707802646,94.88399106441648 51.23562608216889,96.01437632525631 50.59537497808924,98.61602996599686 50.751533783914056,99.17224073817488 51.266857843322214,99.08252943851403 52.56297593197087,99.69256540294737 53.85909402067773,100.51790491816064 53.812246378918644,100.84086283836223 50.0332032769802,106.83342232278665 49.31487277004635,108.43020871907356 48.83078047184972,109.00433073549357 48.487231098872144,108.96844816263183 48.955707516521215,109.21962602398708 48.31545641244156,110.24227516114479 49.127482202951796,110.40374555146263 49.049402800097596,110.56521579826949 49.39295217295876,110.17051049713336 49.87704447109718,110.34992210392375 49.08063456119271,111.40844697854482 49.37733629235299,110.92403805535287 49.17432984476909,110.61903918204189 49.37733629235299,110.15256932674674 50.017587396432646,110.42168669706734 50.329905008140486,110.83433255748241 50.11128267995082,110.99580242174852 50.31428912753472,111.46227011257724 51.34493724623462,112.21579231439682 52.79721414082451,114.69162898005743 53.9996369460132,114.99662101842114 54.733583333552815,116.1089405859384 56.56064136221539,116.19864348023839 56.93542249628808,116.57539515274402 55.68615204934031,117.7953475904651 54.10894811007893,117.22125334567681 53.09391587198479,117.45447935133416 52.37558536499273,117.32889615470776 51.672870738606434,115.89365345900296 51.57917545508826,114.53016239956196 50.8608449480962,113.68694570400112 50.39236853038892,113.68694570400112 48.42476757662371,116.27040576371655 46.66017307020957,119.98406526276085 46.30100781674264,119.93024465252529 45.70760435448028,120.55815078070736 45.98869020497659,121.00665382991428 44.630108594021294,124.5587588877097 43.33399050531443,126.29890623448591 41.63185952132335,127.24970135532203 42.10033593903063,128.12873392943584 40.80421785032377,130.24557043984532 40.58559552207589,131.12458852722193 40.80421785032377,134.42535319467424 38.52429928461788,135.69900179776596 35.65097725664964,138.44359451314085 34.12062095920555,140.9728883702337 32.46533761697356,143.07163741286786 32.324794691754505,143.57389854860958 31.996861199382693,143.64565002611198 31.27853069244884,143.21514073606522 31.871934154711198,141.8159785036696 33.19928400457138,140.39886731901788 36.010142510174774,135.95014272266417 37.3999558823416,134.6406183738727 39.024007463420276,133.99482207148685 39.52371564216446,133.49253447253432 39.69549032865325,132.48795511118078 39.227013911062386,131.16046672619996 40.24204614915652,128.64897569542518 40.054655582120176,127.62643012184708 40.91352901433129,126.19126873760251 42.709355281840544,125.50956311068148 43.58384459471563,124.43318059963349 45.06735325040063,120.77343238242611 45.25474381749518,120.82725274303812 45.91061080212239,119.78672294720309 45.95745844388148,119.15881415395415 46.61332542845048,118.62060489023861 47.05057008494623,117.66976462939056 46.722636592632625,117.52624113904312" stroke="#ff4a00" stroke-linecap="round" stroke-linejoin="round" stroke-width="0.5"><title>2023-01-01 20.1km</title></polyline><polyline fill="none" points="179.32829583238345,104.3149328326399 177.02181661617942,103.30800264026038 175.3150219960371,103.65247918374371 174.20791197218932,103.33450085163349 173.53903299954254,102.46005849607172 172.54724693659227,98.56478066914133 171.5554608735256,98.08780398944509 170.86351710860617,98.64427669998258 168.64929706102703,101.8240986301389 165.99684596224688,107.36219856189564 165.12038386019412,107.38869637306198 164.63602322468068,108.13063402372063 164.84360635420308,109.08455084718298 162.2603496318916,115.39091568341246 160.76113814138807,117.00722904037684 158.50078850938007,118.14659162511816 159.0774083135184,119.33894264078117 157.1630305639701,122.78348249781993 156.84012347378302,124.32026294764364 157.43980806996115,127.49978078179993 157.2783545247512,128.69209026324097 153.93395966116805,130.67926096732845 149.41326039738487,135.1569650528254 144.73110758827534,141.8866283959651 144.800301964744,144.4830675945559 144.38513570581563,145.22490275502787 143.48560881149024,145.88725384537247 141.3867127246922,146.20518178853672 140.717833751929,147.0 141.22525917948224,146.31115768596646 143.39334964274894,145.86075983310002 144.47739487455692,145.0924323409272 144.75417238043156,144.32410265071667 144.63884841965046,142.52249337782268 143.48560881149024,141.8866283959651 142.97818338382058,141.99260599751142 142.58608191716485,143.76772460629581 141.20219438732602,144.40358513433603 142.72447066998575,143.63525347341783 142.90898900746834,142.1780666995328 144.1314229919808,139.47562666304293 145.7228936512256,137.83295374416048 149.52858435816597,131.63309768188628 151.55828606837895,129.4604646792577 154.34912592021283,128.13567983079702 155.22558802226558,127.15533483488252 155.3639767752029,125.80404262221418 154.71816259471234,123.97581292196992 156.2635036696447,120.3193161757954 156.07898533227853,118.729519449902 157.32448410906363,116.45079439281835 159.90774083137512,115.52340075094253 161.4761466983473,113.48312346241437 163.36745965562295,108.68708591599716 164.6590880168369,106.91173537197756 164.24392175790854,106.30228397075552 165.07425427576527,105.5338432751596 166.41201222117525,102.85753264717641 170.28689730446786,97.61082646207069 171.0019058616599,95.8089037098398 170.35609168105293,95.46441710044746 170.35609168105293,94.93443683814257 169.68721270828974,94.98743491142523 169.59495353978127,94.24546093257959 170.63286918704398,93.31799057475291 171.32481295184698,93.58298243256286 171.20948899106588,95.01393394419574 172.63950610521715,95.88840055698529 174.23097676434554,98.56478066914133 174.20791197218932,98.82976734716794 173.1469315327704,99.06825513375225 172.91628361109179,99.57172865397297 173.40064424660522,102.27457035749103 174.069523219252,103.1225150875689 175.56873470987193,103.67897736112354 177.16020536911674,103.28150442632614 179.1668422871735,104.26193660087301 176.97568703175057,103.28150442632614 175.33808678819332,103.67897736112354 174.02339363493957,103.25500620971434 173.30838507786393,101.77110190675012 172.7087004815694,98.82976734716794 171.76304400304798,97.90231282947934 170.84045231644996,98.53828198689735 168.856880190433,101.45312134592677 166.15829950745683,107.07072246650932 165.85845720930956,107.49468759150477 165.14344865223393,107.22970946683199 164.8666711463593,107.70666990298196 164.58989364036825,108.47510437874007 164.91280073067173,108.84607195906574 162.81390464387368,114.38402703395695 160.83033251785673,117.00722904037684 158.5238533015363,117.98761108954204 158.38546454859897,118.5175458418089 159.1004731056746,119.25945273783873 159.00821393704973,119.76288839254994 156.88625305797905,123.2339190581697 157.34754890121985,127.71174729880295 157.11690097965766,128.79807307195733 154.46444988099393,130.2553324511391 150.05907457787544,134.28262633431586 144.7080427960027,141.78065075256745 144.56965404306538,145.01295006112196 143.48560881149024,145.86075983310002 141.0638056343887,146.44362749895663 140.78702812839765,146.89402437434183 141.36364793241955,146.28466371557442 143.18576651334297,145.91374785508378 144.52352445875295,145.06593825024902 144.50045966659673,142.31053855112987 143.4625440192176,141.8601339889865 142.95511859178077,141.91312280020793 142.67834108578973,143.58226500201272 141.13300001097377,144.32410265071667 142.6322115014773,143.66174770516227 142.83979463088326,142.25754981831415 144.15448778413702,139.4226373708807 147.56807702430524,135.13046998190111 149.80536186415702,131.23566612933064 151.90425795095507,129.19550823245663 154.39525550440885,128.02969676046632 155.15639364579692,127.18183069262886 155.41010635963175,125.56557858467568 154.74122738698497,123.97581292196992 156.28656846180093,120.39880576502765 156.28656846180093,118.27907533282996 157.30141931702383,116.47729130697553 159.97693520784378,115.47040673176525 161.130174816004,113.98656994858175 162.0297017103294,112.42323303723242 163.2752004871145,108.66058823300409 163.41358924016822,108.39561125909677 163.59810757741798,108.7665789493185 163.80569070682395,108.60759285921813 164.5206992638996,107.38869637306198 164.7513471855782,106.59376090040314 164.17472738143988,106.32878188646282 165.46635574253742,105.00388289330294 166.3428178447066,102.85753264717641 167.8420293352101,100.71116523936507 170.17157334380317,97.95531031684368 171.0019058616599,95.94139844190795 169.66414791613352,95.11993004902615 169.6410831239773,94.13946448243223 170.5636748104589,93.23849296633853 171.27868336753454,93.45048653631238 170.86351710860617,94.24546093257959 171.16335940675344,95.01393394419574 172.8009596503107,96.1798887947225 174.23097676434554,98.53828198689735 174.3001711408142,98.80326869117562 173.21612590923905,98.96226058807224 172.939348403248,99.386238519568 173.46983862307388,102.03608541953145 174.20791197218932,103.20200976880733 175.1766332430998,103.67897736112354 177.11407578468788,103.30800264026038 179.1668422871735,104.26193660087301 176.8834278631257,103.33450085163349 175.03824449004605,103.59948282121331 173.8388752975734,103.09601685535745 172.77789485803805,99.01525786615093 171.809173587244,97.98180905653862 171.117229822441,98.32629243517295 168.94913935905788,101.21463567824685 165.99684596224688,107.25620729109505 165.3279669896001,107.28270511270966 164.40537530300207,108.63409054739168 164.72828239342198,109.00505790804164 162.44486796925776,114.91396889917087 160.66887897264678,117.06022275614669 158.47772371722385,117.98761108954204 158.93901956058107,119.57741220854223 156.86318826582283,123.41939271628507 157.1630305639701,128.71858596935635 153.58798777870834,130.83823398838285 149.4593899815809,134.86551912955474 144.7080427960027,141.70116749266163 144.75417238043156,144.16513761272654 144.20061736856587,145.35737310381955 141.4097775168484,146.1786878076673 140.67170416761655,146.86753046137164 141.54816626978572,146.20518178853672 144.29287653719075,145.27789090236183 144.6849780039629,144.50956174265593 144.54658925102558,142.39002163070836 143.39334964274894,141.83363957947586 142.93205379950814,141.99260599751142 142.539952332736,143.74123038491234 141.0638056343887,144.32410265071667 142.72447066998575,143.55577076235204 142.79366504657082,142.20456107505015 143.99303423904348,139.66108910326147 147.38355868693907,135.3424304756045 149.85149144835304,131.12968428258318 152.6192665079143,128.71858596935635 154.04928362194914,128.18867135015898 155.08719926932827,127.26131825023913 155.41010635963175,125.989514505025 154.87961613980588,123.2339190581697 156.19430929317605,120.53128836138058 156.28656846180093,118.33206879755016 157.32448410906363,116.45079439281835 159.74628728616517,115.68238274566829 161.79905378865078,112.87368697923375 163.36745965562295,108.60759285921813 163.48278361652046,108.39561125909677 163.55197799310554,108.8725696238107 163.7364963303553,108.71358359634178 163.89794987544883,108.15713175892597 163.55197799310554,107.38869637306198 164.72828239342198,106.54076511858148 163.0676173575921,106.56726301080198 163.0676173575921,105.5603412668861 169.5257591631962,93.37098896718817 170.1023789672181,93.0 171.30174815980718,93.50348490269971 170.93271148507483,94.32495824270882" stroke="#ff2800" stroke-linecap="round" stroke-linejoin="round" stroke-width="0.5"><title>2022-05-22 20.9km</title></polyline><polyline fill="none" points="49.30910820129793,156.593884889764 49.37192269664956,156.46398697471886 48.85684383532498,156.0598593899049 48.39201657020021,156.01655993956956 47.99000380036887,155.61243111800286 47.010097673977725,155.3526334285998 45.854310960683506,153.40413604270725 44.974908026633784,153.0 44.45982916536741,154.4722044923692 42.92715548037086,156.37738830060698 42.16081863787258,157.67636302724713 41.94724935392151,158.41244358314725 41.268852804845665,159.07635620021028 41.444733391632326,159.40831137834175 40.942217429343145,160.4763359688077 40.8417142368271,160.28871059211087 40.753773943462875,160.43303782632574 39.786430716048926,162.92987642914522 38.99496807542164,164.02674002497224 37.41204279428348,164.73392403380421 36.834149437665474,165.96066369250184 36.78389784140745,166.9997762945277 36.08037549426081,168.54399943895987 36.44469956686953,169.64082092764147 36.218567383883055,170.65104396897368 34.748708194179926,171.38705921942892 33.580358581850305,172.44056479954452 31.168281962920446,176.26487060102227 30.678328899666667,176.6112178866897 29.145655214670114,176.5390622698178 28.76876824302599,176.76996011855954 25.51497738721082,180.47870687044633 23.86923761072103,182.83089829894016 21.14308851538226,190.4932964559266 19.14558756526094,193.85538969543995 19.34659395017661,195.25503663916606 19.095335969061125,196.55366616031097 18.366687823669054,197.6069905293698 16.771199643495493,198.3861571020243 16.306372378370725,198.9633148515568 15.841545113245957,201.97892707611027 16.344061075535137,202.3684992428316 20.339062975661363,203.71035099076107 21.846610862528905,203.8979206851509 27.901928208069876,205.94674323234358 28.643139252380934,205.94674323234358 31.645672127080616,207.0 33.49241828848608,203.73920788247779 35.82911751308711,204.8790505539655 35.8039917149581,204.50391343957745 34.572827607393265,203.99891965179995 33.73111337056616,203.3929248064669 33.99493425077526,202.6859276489413 36.05524969607359,200.10319471982075 34.48488731397083,201.80578355806938 33.50498118752148,203.2919254215958 31.87180431006709,202.5272135319392 30.942149779875763,201.63263983518118 34.79895979037974,196.97211099544074 35.47735633951379,195.65905594739888 35.99243520083837,193.65337769073085 36.6457059517852,192.54230667982483 37.78892976598581,191.44565688948205 36.507514062162954,192.80203832108236 35.30147575266892,196.09193253978447 34.64820500172209,197.24626385937154 33.8190536639886,198.03986135964806 33.2788490044768,197.9100002450432 32.625578253529966,196.91439453761268 32.286379978992045,194.73558160380344 31.607983429916203,193.36478862883814 31.670797925209627,193.10505798649683 32.788895941281226,192.32586329328478 33.228597408218775,191.71982010760985 36.78389784140745,189.12246373685775 40.5527675585472,184.4038150239794 42.97740707657067,185.25520326131664 46.50758171163034,185.99114503328747 49.221167907933705,186.85695414317888 49.83674996171612,186.8136638093565 50.590523905179,185.78912217040488 51.54530423349934,183.75444778353267 57.16092011204455,178.32851106437738 61.69612667168258,173.0466878587904 62.57552960567409,172.29624941521615 62.927290779247414,171.61796520139615 64.15845488681225,170.65104396897368 63.68106472265208,171.0118362212088 62.75141019246075,170.9541095206514 60.351896472566295,169.10684307249903 57.851879560214,168.3419524780329 54.69859189685667,167.01420836198668 40.615582053840626,159.20625179442868 40.57789335667621,158.78769891105185" stroke="#4dd2ff" stroke-linecap="round" stroke-linejoin="round" stroke-width="0.5"><title>2022-05-07 16.0km</title></polyline><polyline fill="none" points="151.31104969623266,188.45830061854213 150.8103768133442,188.29067715904966 150.06391906071804,186.99158630686725 148.9897481483058,186.46775481927034 148.46176583549823,185.3467466862421 147.03257233346812,184.6971851142298 145.76723541127285,183.30375726513012 145.34849081828725,182.16176130234817 145.32118138836813,179.0709761959588 145.17553109509754,178.52615043731203 143.4459338633751,176.37825220679224 143.03629241374438,175.48764741299965 143.33669614346582,171.31742125716846 143.7918533097254,169.8714248928154 145.33938767499058,167.66047902338323 146.02212342439452,165.8476783475635 148.24329039567965,164.18155078341806 149.19001730147284,162.11719264365092 150.2095693538722,160.98544613197737 150.9469239632308,159.3297209852244 151.575040852651,158.56472525616846 152.0666105922428,158.31321859688614 154.1603335569671,157.75780592917727 155.81710564214154,156.09155034515425 157.2645054308523,155.5466056891455 158.59356435626978,154.36238930731633 160.31405844475375,153.56591769933584 161.53387965029106,153.19911953739938 163.1269297322142,153.02095996904245 164.25571950449375,153.0 165.6029847165919,153.24103939202178 168.27020571083995,154.22615117001988 169.7904306461278,155.48372727807873 171.30155243808986,156.47929770965857 173.36796597289504,158.86862833455962 175.69837066411856,163.1022213729666 176.96370758628473,164.90459051127254 175.5436172275804,162.94503655531298 173.07666538649937,158.54376639083057 171.34706815474783,156.58409404955455 168.26110256751417,154.22615117001988 165.55746899999212,153.23055942995416 162.24392482964322,153.12575975165964 160.48701816788525,153.54495783877792 158.83934922609478,154.26807061566797 157.24629914417164,155.55708542065986 155.88993078871863,156.08107066681987 154.0510958370869,157.8311624871858 151.9937854456075,158.36561586709286 151.3292559828842,158.80575190753007 150.30060078715906,160.91209177163546 149.18091415817617,162.1800670931916 148.32521868561162,164.12915640733263 146.04943285434274,165.8267209318874 145.28476881503593,167.79669977893354 143.83736902635428,169.81903334748495 143.41862443339778,171.09737961282372 143.03629241374438,175.3200033155954 143.31848985681427,176.2001318504117 144.96615879866295,178.11752926922782 145.24835624173284,178.68331200305693 145.3666971049679,182.28748623489082 145.72171969461488,183.2304184467721 146.97795347351348,184.58193990092695 148.3980438321887,185.3153163797906 149.10808901156997,186.5306147352967 150.13674420729512,187.0439693124281 150.55548880025162,187.9763824538095 150.95602710655658,188.30115363306686 153.85082668391988,188.4478241601537 154.8885850229999,188.74116460182267 155.18898875272134,189.14974457053177 155.28002018597908,189.5792756500232 155.17988560939557,190.90976324902294 155.52580505571677,191.45452497804217 156.41791310158442,192.25071013192792 156.5635633947968,192.76403684454272 156.4907382481906,193.90591791177576 157.41925886736135,195.12111720178655 157.4010525807098,196.37820517172804 157.9654474668787,197.50957152580668 158.04737575678155,198.1381031419296 157.81069403031142,200.0341508111669 156.37239738498465,202.63199500439077 155.47118619582034,205.16692641603004 155.28912332927575,207.0 155.43477362248814,205.17740121274255 155.64414591898094,204.9364806245503 156.33598481171066,202.61104490404978 157.77428145706654,199.9817742617597 158.02916947013,197.9390685356484 157.35553686408093,196.33630248098052 157.42836201068712,195.13159299681138 156.45432567491662,194.0106770231141 156.45432567491662,192.50213577294926 156.26315966507536,192.13547317932534 155.32553590257885,191.37071566453233 155.1343698927667,191.02500154190784 155.16167932274402,189.10783900562092 154.77024415976484,188.6783060045127" stroke="#4dd2ff" stroke-linecap="round" stroke-linejoin="round" stroke-width="0.5"><title>2022-02-26 19.6km</title></polyline><polyline fill="none" points="58.56177892466076,230.58849174174247 56.80097776185721,227.55409425939433 52.79026400228031,226.2616607901291 47.75241623073816,218.3946111605037 45.0623033430893,216.37163796689129 44.47536962223239,214.9667912410223 45.60032592061907,213.8429113639868 43.49714675405994,213.33716469543288 41.78525673458353,216.14686272357358 44.81774762598798,219.01274042431032 42.27436816855334,224.0139434193261 37.48107611434534,229.2960651619942 32.443228343036026,238.68013928434812 30.486782606691122,240.75922459363937 31.318272044649348,241.71447746024933 29.410737451398745,246.09738182794536 28.774892586981878,245.25451822381 28.38360343989916,245.76023653603625 24.959823400946334,255.59355886792764 21.63386564911343,260.1449248478748 16.106906443601474,262.1677424933878 15.177594718756154,265.25814446323784 18.35681904060766,266.88762238412164 18.503552470821887,264.9210105179809 22.807733091060072,263.1229594388278 25.204379118280485,260.5382510641357 27.503202858380973,256.9421155441087 31.660650048404932,245.98500008595875 30.829160610446706,245.31070916965837 31.318272044649348,243.6249783844687 32.58996177325025,242.27639016223839 34.15511836227961,242.55734630534425 40.90485615306534,229.1274875656236 45.40468134707771,223.17104711692082 47.067660222994164,223.05866084911395 48.63281681225635,224.800645508687 49.659950823755935,230.47610693838215 51.56748541677371,234.0162175896694 53.81739801377989,234.802905855875 57.73028948670253,234.18479373829905 62.27902582404204,236.20770362683106 65.40933900210075,231.7123385563027 60.616046948125586,230.86945365357678 58.07266749069095,234.35336983692832 54.4043317346368,235.14005763700698 52.3500637114048,234.69052188441856 49.75777311064303,231.4875693708309 48.68172795558348,224.8568384735845 46.627459932351485,223.0024677067413 45.453592490404844,223.22724024252966 40.366833575768396,230.53229934279807 34.301851792726666,243.11925817554584 32.443228343036026,242.83830230985768 31.660650048404932,244.2430802520248 31.85629462194629,246.26595439884113 27.89449200546369,257.44782347412547 25.5956682653632,261.15633456909563 23.73704481567256,263.29152696882375 19.383953052107245,264.7524434707593 17.6231518893037,266.7752447461244 14.83521671476774,264.9771995227784 15.76452843961306,262.1677424933878 21.095843071350828,260.2011143239797 25.35111254849471,254.24499899731018 28.62815915676765,245.0859453533194 29.50855973828584,245.25451822381 31.269360901089385,242.10781640990172 31.220449757762253,240.75922459363937 30.2422268895898,240.81541598314652 32.39431719947606,238.51156446692767 34.301851792726666,233.90383346308954 41.540701017482206,224.7444525382598 44.57319190911949,219.29370804980863 41.6385233043693,215.75350583466934 43.594969040947035,213.1685823726002 45.257947916863486,213.50574696826516 45.257947916863486,216.54021934093907 48.241527664940804,218.22603033552878 53.27937543625012,226.3178536108462 57.0455334787257,227.32932343200082 58.757423498434946,230.41991452826187 64.92022756836377,231.1504154264112 64.87131642480381,232.7237987923436 62.230114680482075,236.3762791264453 57.6813783433754,234.35336983692832 54.991265455726534,235.02767373225652 52.10550799453631,234.69052188441856 50.05123997130431,232.61141441046493 48.486083382042125,224.96922438644106 47.60568280052394,223.56439888000023 46.04052621126175,223.05866084911395 39.82881099823862,231.26280009676702 34.00838493206538,243.40021390264155 32.58996177325025,242.6697287237621 31.85629462194629,244.74879946251167 31.12262747087516,244.58022644219454 31.024805183988065,245.816427431826 31.758472335292026,246.49071774934418 27.943403149023652,257.3354439730756 25.644579408690333,260.8753876044648 23.345755668357015,263.62866187893087 18.60137475747615,265.3705224005971 18.55246361414902,266.831433567917 15.030861288541928,265.25814446323784 14.59066099789925,264.3591201659874 15.715617296285927,262.28012104076333 20.606731637613848,260.5944405012997 24.715267683845013,255.48117900075158 28.677070300327614,245.02975438541034 29.50855973828584,245.14213631581515 31.41609433130361,242.33258140191901 31.41609433130361,241.15256420336664 30.340049176244065,240.70303319848608 32.687784060137346,238.06203137664124 37.23652039724402,229.5208352127811 43.30150218028575,221.93479694915004 44.67101419577375,218.67557909077732 41.980901308357716,216.87738193926634 41.736345591023564,215.30395477148704 43.64388018427417,213.056194129691 45.6492370639462,213.89910541067366 44.768836482428014,215.02298517676536 45.30685906019062,216.65260689589195 48.290438808267936,218.33841755765025 53.0348197191488,226.20546796394046 57.19226690917276,227.55409425939433 59.442179506178945,230.8132612821646 64.92022756836377,230.92564601911 64.57784956414253,233.51048884465126 62.76813725824468,236.3200872989255 57.48573376960121,234.35336983692832 54.69779859506525,235.14005763700698 51.958774564322084,234.52194588555722 49.95341768418439,232.21806889900472 48.3393499518279,224.800645508687 46.67637107591145,223.11485398578225 45.60032592061907,223.33962647733279 39.77989985467866,231.59995397477178 34.15511836227961,243.2878316284041 32.78560634679161,242.72591992467642 32.05193919572048,243.7373605920002 31.758472335292026,246.49071774934418 26.671713420422748,259.6392193136853 23.834867102559656,263.29152696882375 18.894841618137434,265.03338852210436 18.60137475747615,266.88762238412164 15.07977243186906,265.1457665038761 15.813439583173022,262.1677424933878 21.193665358470753,260.2573037946131 24.61744539719075,255.48117900075158 28.530336870113388,245.31070916965837 28.872714874101803,244.86118144827196 29.0194483040832,245.98500008595875 31.660650048404932,242.05162514792755 31.41609433130361,240.98399011819856 30.340049176244065,240.5344589802553 43.44823561073281,221.65383062738692 44.71992533933371,218.50699834927218 41.980901308357716,216.87738193926634 41.68743444769643,215.75350583466934 43.05694646341726,213.50574696826516 44.084080474916846,213.056194129691 45.6492370639462,213.8429113639868 45.55141477729194,216.76499442878412 48.82846138579771,218.95654688274954 53.377197723137215,226.48643203894608 56.60533318831585,227.16074525332078 58.757423498434946,230.58849174174247 64.87131642480381,231.1504154264112 65.21369442879222,232.10568441724172 64.23547156061977,234.07240964483935 62.76813725824468,236.43247094855178 57.48573376960121,234.35336983692832 54.69779859506525,235.19624958129134 51.90986342076212,234.63432989048306 50.05123997130431,232.49903000623453 47.996971947839484,224.2387155558099 46.72528221900575,223.11485398578225 45.257947916863486,223.56439888000023 40.02445557177998,230.98183837917168 34.44858522270806,242.8944934940082 32.443228343036026,242.72591992467642 27.84558086236939,257.8411515535554 25.693490552017465,261.212523945258 23.394666811916977,263.74104013788747 19.090486191678792,265.03338852210436 18.60137475747615,266.831433567917 14.786305571440607,265.08957751566777 16.00908415694721,262.1115532115218 21.82951022265479,259.5830297820503 25.008734544506297,254.86308933445252 28.677070300327614,244.91737243288662 29.06835944764316,246.09738182794536 30.731338323559612,243.00687584577827 31.660650048404932,241.99543388059828 32.05193919572048,242.50115508784074 31.318272044649348,242.16400766617153 31.36718318797648,241.04018148541218 30.2422268895898,240.70303319848608 38.8994992733933,227.55409425939433 41.19832301372662,225.19399614579743 44.62210305244662,219.23751453572186 41.6385233043693,215.97828123322688 43.839524757815525,213.0 45.6492370639462,214.12388154136715 45.11121448664926,216.59641312109306 46.72528221900575,216.98976942762965 49.219750533113256,219.34990155819105 53.621753440238535,226.82358874595957 56.849888905417174,227.04835977312177 58.65960121154785,230.53229934279807 65.21369442879222,231.31899242359214 63.35507097910158,235.4210173023166 62.27902582404204,236.48866276518675 57.6813783433754,234.35336983692832 53.91522030066699,235.19624958129134 51.61639656010084,234.5781378908432 49.855595397530124,231.76853083871538 48.43717223848216,225.02541733457474 45.84488163772039,223.17104711692082 40.46465586242266,230.41991452826187 34.057296075392514,243.40021390264155 32.78560634679161,242.7821111200028 31.269360901089385,244.86118144827196 30.92698289710097,245.53547289717244 31.954116908833385,245.92880920681637 27.943403149023652,257.44782347412547 24.910912257619202,262.0553639238933 23.394666811916977,263.74104013788747 19.090486191678792,264.9210105179809 17.86770760617219,267.0 14.884127858327702,265.25814446323784 15.813439583173022,262.1677424933878 21.536043362226337,259.9763563865563 24.568534253630787,255.53736893704627 28.62815915676765,245.0859453533194 29.0194483040832,246.09738182794536 30.43787146313116,243.4564050314366 31.660650048404932,242.7821111200028 31.220449757762253,240.98399011819856 30.388960319804028,240.81541598314652 33.127984350780025,237.3877310756361 37.285431540803984,229.85799012240022 41.68743444769643,224.6320665811072 44.71992533933371,219.01274042431032 41.83416787791066,216.82118818658637 41.58961216080934,215.69731197116198 43.594969040947035,213.056194129691 45.16012562997639,213.449552882812" stroke="#ff0000" stroke-linecap="round" stroke-linejoin="round" stroke-width="0.5"><title>2022-01-27 21.8km</title></polyline></svg>