<?xml version="1.0" encoding="utf-8" ?>
<svg baseProfile="full" height="300mm" version="1.1" viewBox="0,0,200,300" width="200mm" xmlns="http://www.w3.org/2000/svg" xmlns:ev="http://www.w3.org/2001/xml-events" xmlns:xlink="http://www.w3.org/1999/xlink"><defs /><rect fill="#222222" height="300" width="200" x="0" y="0" /><text fill="#FFFFFF" style="font-size:12px; font-family:Arial; font-weight:bold;" x="10" y="20">Over 15km Runs</text><text fill="#FFFFFF" style="font-size:4px; font-family:Arial" x="10" y="280">ATHLETE</text><text fill="#FFFFFF" style="font-size:9px; font-family:Arial" x="10" y="290">Jason</text><text fill="#FFFFFF" style="font-size:4px; font-family:Arial" x="120" y="280">STATISTICS</text><text fill="#FFFFFF" style="font-size:3px; font-family:Arial" x="120" y="285">Number: 4</text><text fill="#FFFFFF" style="font-size:3px; font-family:Arial" x="120" y="290">Weekly: 1.0</text><text fill="#FFFFFF" style="font-size:3px; font-family:Arial" x="141" y="285">Total: 78.3 km</text><text fill="#FFFFFF" style="font-size:3px; font-family:Arial" x="141" y="290">Avg: 19.6 km</text><text fill="#FFFFFF" style="font-size:3px; font-family:Arial" x="167" y="285">Min: 16.0 km</text><text fill="#FFFFFF" style="font-size:3px; font-family:Arial" x="167" y="290">Max: 21.8 km</text><polyline fill="none" points="85.08225517824758,48.61059284725343 82.90263231901918,51.4723992490035 79.44291349453852,49.96200396044878 76.88272156449966,50.47871877570287 75.22205652866978,50.00175127747934 74.21873806975782,48.690087744180346 72.731058975216,42.84717100378475 71.24337988067418,42.131705984211294 70.20546423329506,42.96641505009029 66.88413416186813,47.73614794528112 62.905457513872534,56.04329784293077 61.59076436061878,56.083044559607515 60.86422340734862,57.1959510356246 61.175598101573996,58.62682627083268 57.30071301816497,68.0863735251769 55.051895782351494,70.51084356059437 51.66137133445591,72.21988743767724 52.526301040663384,74.00841396124451 49.65473441639915,79.17522374683176 49.17037378100213,81.48039442155277 50.06990067532752,86.249671172729 49.8277203575708,88.03813539494877 44.811128062196076,91.01889145100722 38.0300791664049,97.7354475792381 31.006849952740595,107.82994259399129 31.110641517559998,111.72460139187751 30.48789212910924,112.83735413258546 29.138601787621155,113.83088076816057 25.99025765748229,114.30777268286329 24.986939198337495,115.5 25.748077339609154,114.46673652905156 29.000213034567423,113.79113974972279 30.626280882162973,112.63864851149265 31.041447140974924,111.48615397608955 30.868461199803278,108.78374006680679 29.138601787621155,107.82994259399129 28.377463646233082,107.98890899628168 27.789311446016654,110.65158690948738 25.713480151374824,111.6053777015768 27.99689457542263,110.45288021012675 28.273672081530094,108.26710004932829 30.107323058415204,104.21343999463716 32.49452904728241,101.74943061635713 38.20306510757655,92.44964652293129 41.24761767301243,89.19069701893022 45.43387745064683,87.20351974622463 46.748570603784174,85.733002252382 46.95615373319015,83.70606393340859 45.987432462512515,80.96371938299853 48.30544407479465,75.47897426376585 48.0286665688036,73.09427917492576 49.89691473392304,69.67619158930029 53.77179981733207,68.2851011264429 56.124408617964946,65.22468519370886 58.961378053878434,58.03062887411215 60.89882059569936,55.36760305799544 60.276071207248606,54.45342595616239 61.521569984033704,53.30076491285581 63.528206902206875,49.28629897086648 69.340534527204,41.416239693178795 70.41304736281745,38.71335556486156 69.44432609190699,38.19662565077306 69.44432609190699,37.40165525727207 68.4410076327622,37.48115236716694 68.30261887994129,36.368191398942145 69.85949235095177,34.97698586221668 70.89740799809806,35.374473648902494 70.72442205692641,37.52090091636637 72.86944772815332,38.832600835565245 75.25665371690411,42.84717100378475 75.22205652866978,43.244651020824676 73.63058586954139,43.602382700686576 73.28461398696527,44.35759298107587 74.01115494023543,48.411855536309304 75.01447339938022,49.68377263145521 77.2632906351937,50.518466041772626 79.6504966240609,49.92225663957652 82.66045200114604,51.39290490138228 79.37371911806986,49.92225663957652 76.91731875273399,50.518466041772626 74.94527902279515,49.882509314629715 73.8727661871817,47.65665286013973 72.97323929273989,43.244651020824676 71.55475457489956,41.85346924426267 70.17086704517715,42.80742298043333 67.19550885609351,47.17968201896292 63.14763783151284,55.60608369982219 62.69787438435014,56.24203138725716 61.62536154885311,55.84456420026254 61.21019528992474,56.5600048545748 60.795029030996375,57.71265656815376 61.2793896663934,58.26910793868592 58.13104553613812,66.5760405510373 55.1556873471709,70.51084356059437 51.69596852269024,71.98141663440038 51.488385393167846,72.77631876280066 52.56089822889771,73.88917910685996 52.422509475960396,74.64433258888312 49.23956815735437,79.85087858734187 49.931511922273785,86.56762094821897 49.58554003981408,88.19710960803786 45.60686339181848,90.38299867679598 38.99880043719895,96.42393950154656 30.97225276438985,107.67097612895304 30.764669634983875,112.51942509179935 29.138601787621155,113.79113974972279 25.505897022085264,114.66544124853681 25.090730763040483,115.3410365615564 25.955660469131544,114.42699557341984 28.68883834045846,113.87062178266933 30.695475258515216,112.59890737541718 30.660878070397303,108.46580782675301 29.10400459927041,107.7902009835525 28.342866457998753,107.86968420038465 27.92770019895397,110.37339750307729 25.609688586788252,111.48615397608955 27.858505822601728,110.49262155778706 28.16988051671069,108.38632472750032 30.141920246649534,104.13395605635014 35.26230410684366,97.69570497295354 38.618231366504915,91.85349919402506 41.7665754967602,88.79326234874316 45.50307182711549,87.0445451407868 46.64477903896477,85.7727460389724 47.02534810977522,83.34836787707172 46.022029650746845,80.96371938299853 48.34004126302898,75.59820864759968 48.34004126302898,72.4186129992886 49.86231754592154,69.71593696050695 53.87559138215147,68.20561009776429 55.60545079433359,65.97985492294538 56.95474113593809,63.634849555877736 58.82298930105753,57.99088234952069 59.03057243057992,57.59341688873246 59.30734993645456,58.14986842405051 59.618724630679935,57.91138928881264 60.69123746617697,56.083044559607515 61.03720934863668,54.890641350706574 60.17227964254562,54.49317282976699 62.10972218425013,52.50582434004173 63.42441533738747,49.28629897086648 65.67323257320095,46.06674785914947 69.16754858603235,41.932965475309175 70.41304736281745,38.91209766289103 68.40641044464428,37.679895073582884 68.37181325640995,36.20919672373566 69.75570078613237,34.8577394495951 70.82821362174582,35.17572980452678 70.20546423329506,36.368191398942145 70.65522768057417,37.52090091636637 73.11162804579362,39.26983319220017 75.25665371690411,42.80742298043333 75.3604452816071,43.20490303679253 73.7343774343608,43.44339088216657 73.31921117531601,44.0793577794102 74.11494650493842,48.054128129413584 75.22205652866978,49.803014653210994 76.67513843497727,50.518466041772626 79.58130224735942,49.96200396044878 82.66045200114604,51.39290490138228 79.23533036513254,50.00175127747934 76.4675553055713,50.399224231921835 74.6685015168041,49.64402528310893 73.0770308575593,43.522886799270054 71.62394895136822,41.972713584895246 70.5860333039891,42.489438652817626 67.33389760903083,46.821953517443035 62.905457513872534,55.88431093672989 61.90213905472774,55.9240576690936 60.51825152488891,57.951135821145726 61.002612160518765,58.50758686210611 57.577490524272434,67.37095334884361 54.91350702941418,70.59033413432189 51.62677414633799,71.98141663440038 52.31871791114099,74.36611831290065 49.204970969003625,80.12908907452947 49.65473441639915,88.07787895406364 44.29217023844831,91.25735098263249 38.099273542757146,97.29827869439032 30.97225276438985,107.55175123902154 31.041447140974924,111.24770641917712 30.211114623118192,113.0360596558312 26.024854845600203,114.26803171157371 24.91774482175242,115.30129569210112 26.232437975006178,114.30777268286329 30.34950337605551,112.91683635363006 30.937655576271936,111.76434261407121 30.73007244686596,108.5850324461353 29.000213034567423,107.750459369272 28.308269269648008,107.98890899628168 27.720117069547996,110.61184557739762 25.505897022085264,111.48615397608955 27.99689457542263,110.33365614357172 28.100686140242033,108.30684161261888 29.899739928892814,104.49163365497952 34.98552660085261,98.01364571347949 38.68742574297357,91.69452642396209 42.839088332257234,88.07787895406364 44.98411400336772,87.28300702531124 46.5409874743782,85.89197737543145 47.02534810977522,83.9842717575666 46.22961278015282,79.85087858734187 48.20165251009166,75.79693254214362 48.34004126302898,72.49810319635435 49.89691473392304,69.67619158930029 53.52961949969176,68.52357411853154 56.60876925336197,64.31053046890884 58.961378053878434,57.91138928881264 59.134363995166495,57.59341688873246 59.238155560102314,58.30885443580337 59.51493306597695,58.07037539459998 59.75711338350084,57.23569763847627 59.238155560102314,56.083044559607515 61.002612160518765,54.81114767794497 58.511614606832154,54.850894516304834 58.511614606832154,53.3405119003728 68.1988273152383,35.056483450869564 69.06375702121295,34.5 70.86281080998015,35.25522735415143 70.30925579799805,36.48743736409233 71.4855601984309,37.99788319945219" stroke="#ff2800" stroke-linecap="round" stroke-linejoin="round" stroke-width="0.5"><title>2022-05-22 20.9km</title></polyline><polyline fill="none" points="160.24507800582796,40.12897327715473 158.9636623018887,39.89082733466057 159.05788404494524,39.69598046208557 158.28526575292926,39.08978908485733 157.5880248552421,39.02483990936889 156.9850057004951,38.41864667700429 155.51514651090838,38.02895014289243 153.78146644099616,35.10620406406815 152.46236203995068,34.5 151.6897437479347,36.70830673853925 149.39073322049808,39.56608245091047 148.24122795672156,41.5145445408707 147.92087403079495,42.61866537472815 146.90327920718119,43.61453430028632 147.16710008739028,44.112467067476246 146.4133261439856,45.71450395323336 146.26257135521155,45.43306588818086 146.1306609151652,45.64955673950317 144.6796460740734,49.39481464373239 143.49245211307425,51.04011003745836 141.11806419142522,52.100886050699046 140.2512241564691,53.94099553876731 140.17584676214028,55.49966444176971 139.1205632413039,57.81599915845436 139.6670493503334,59.46123139144038 139.32785107579548,60.97656595343142 137.123062291299,62.080588829150656 135.37053787277546,63.6608471992804 131.75242294429336,69.39730590154068 131.0174933495,69.91682683002728 128.71848282194696,69.8085934046976 128.15315236453898,70.15494017783203 123.27246608084533,75.71806030566222 120.80385641602334,79.24634744841023 116.71463277295697,90.73994468388264 113.7183813478332,95.78308454313083 114.01989092526492,97.88255495872 113.64300395350438,99.83049924047373 112.55003173556179,101.41048579404014 110.15679946518503,102.57923565302917 109.45955856749788,103.44497227728425 108.76231766981073,107.96839061414357 109.51609161333181,108.55274886421103 115.50859446346294,110.56552648609795 117.76991629379336,110.84688102771179 126.8528923119884,113.92011484850082 127.9647088785423,113.92011484850082 132.46850819059182,115.5 135.23862743272912,110.6088118236803 138.74367626954336,112.31857583094097 138.70598757243715,111.75587015935162 136.8592414110899,110.99837947769265 135.59667005587835,110.08938720964943 135.99240137613378,109.02889147341193 139.08287454408128,105.15479207971657 136.72733097092714,107.70867533709679 135.257471781224,109.9378881323646 132.80770646512974,108.79082029787241 131.41322466975544,107.44895975277177 137.19843968562782,100.45816649313201 138.21603450924158,98.4885839211056 138.98865280114114,95.48006653609627 139.9685589276487,93.8134600197227 141.68339464894962,92.16848533420125 139.76127109327354,94.20305748161627 137.95221362903249,99.13789880966942 136.97230750252493,100.86939578903548 135.7285804959247,102.05979203947936 134.9182735066861,101.86500036754296 133.93836738017853,100.37159180639719 133.42956996837165,97.10337240570516 132.4119751447579,95.04718294323538 132.50619688781444,94.65758697972342 134.18334391189273,93.48879493989807 134.84289611235727,92.57973016139294 140.17584676214028,88.68369560527208 145.8291513378499,81.60572253598366 149.4661106148269,82.88280489195313 154.7613725673873,83.98671754992392 158.83175186184235,85.28543121475377 159.7551249426324,85.22049571403477 160.88578585768119,83.6836832556146 162.3179563502781,80.63167167527718 170.74138016800862,72.49276659655152 177.54419000749476,64.57003178815648 178.86329440842383,63.4443741228024 179.39093616884202,62.426947802101495 181.23768233018927,60.97656595343142 180.52159708400723,61.517754331813194 179.12711528863292,61.43116428099165 175.52784470876213,58.66026460872672 171.7778193402337,57.51292871705664 167.0478878453141,55.52131254298729 145.92337308067363,43.8093776916503 145.8668400349561,43.181548366570496 149.7676201921422,35.92890689938213" stroke="#4dd2ff" stroke-linecap="round" stroke-linejoin="round" stroke-width="0.5"><title>2022-05-07 16.0km</title></polyline><polyline fill="none" points="45.598728731041774,237.79745369734883 41.96657454437809,237.6874509278132 41.21556522004539,237.43601573858177 40.0958785910625,235.48737946028996 38.484622222487815,234.70163222891279 37.692648753290996,233.02012002938136 35.548858500202186,232.0457776713447 33.65085311693838,229.9556358976988 33.02273622748908,228.24264195353317 32.98177208256675,223.60646429394546 32.763296642689966,222.78922565595713 30.168900795048103,219.56737831019564 29.554438620631117,218.23147111950675 30.00504421518417,211.97613188571995 30.687779964588117,209.8071373392304 33.00908151251497,206.49071853507485 34.03318513662089,203.7715175213234 37.36493559356313,201.27232617512345 38.78502595226746,198.1757889654691 40.31435403082287,196.47816919797333 41.42038594488986,193.99458147784753 42.3625612789765,192.84708788424905 43.0999158883933,192.46982789532922 46.240500335465185,191.63670889375499 48.72565846319776,189.13732551773137 50.896758146292996,188.319908533711 52.890346534433775,186.54358396098542 55.47108766710153,185.34887654900376 57.30081947549479,184.79867930608452 59.690394598350395,184.53143995357095 61.383579256769735,184.5 63.40447707491694,184.86155908802175 67.40530856628902,186.33922675502254 69.68564596917713,188.22559091710718 71.95232865714934,189.7189465644915 75.0519489593571,193.30294250183215 78.54755599616328,199.65333205941715 80.44556137942709,202.35688576690154 78.3154258414288,199.4175548329804 74.61499807971995,192.8156495862495 72.0206022321363,189.87614107431727 67.39165385131491,186.33922675502254 63.33620349998819,184.8458391449094 58.36588724446483,184.688639627464 55.73052725184243,185.31743675815233 53.25902383914217,186.40210592348012 50.86944871628657,188.33562813096796 48.83489618310705,189.12160600023344 46.07664375565946,191.7467437307787 42.9906781684258,192.54842380061746 41.99388397432631,193.20862786129874 40.45090118073858,196.3681376574532 38.77137123729335,198.27010063978378 37.48782802844653,201.19373461100622 34.074149281543214,203.74008139784564 32.9271532225539,206.69504966840032 30.756053539575078,209.7285500212456 30.127936650125775,211.64606941923557 29.554438620631117,217.98000497338944 29.977734785235953,219.30019777560665 32.44923819799442,222.1762939038308 32.872534362599254,223.0249680045672 33.050045657437295,228.43122935231077 33.58257954195142,229.84562767016178 35.466930210299324,231.87290985140135 37.59706574829761,232.97297456968226 38.66213351738406,234.79592210294504 40.20511631097179,235.56595396863122 40.83323320042109,236.9645736806997 41.43404065986397,237.4517304496112 45.77624002593802,237.6717362402269 47.33287753449986,238.11174690273765 47.78348312911112,238.72461685580492 47.920030278968625,239.36891347503115 47.76982841413701,241.36464487350895 48.28870758356061,242.1817874670378 49.62686965242028,243.3760651978955 49.84534509223886,244.14605526679952 49.73610737227136,245.8588768676418 51.12888830108568,247.68167580268346 51.101578871079255,249.56730775759206 51.94817120034713,251.2643572887173 52.07106363517232,252.20715471290168 51.71604104549624,255.05122621674673 49.55859607749153,258.94799250656797 48.20677929377416,262.7503896240232 47.933684993942734,265.5 48.15216043376131,262.7661018191138 48.466218878515065,262.40472093681456 49.503977217536885,258.9165673560492 51.661422185599804,254.97266139264684 52.043754205224104,251.90860280347988 51.0333052961505,249.50445372147078 51.14254301605979,247.6973894952098 49.681488512433134,246.01601553465298 49.681488512433134,243.75320365942025 49.3947394976276,243.2032097689662 47.98830385389738,242.05607349680213 47.70155483915005,241.53750231282902 47.742518984130584,238.66175850843138 47.15536623966182,238.01745900674723 45.91278717579553,237.5931627787504" stroke="#4dd2ff" stroke-linecap="round" stroke-linejoin="round" stroke-width="0.5"><title>2022-02-26 19.6km</title></polyline><polyline fill="none" points="181.35320734092966,212.06277711718576 172.84266838710755,210.8827376125264 170.20146664278582,206.3311413890915 164.18539600353688,204.39249118528096 156.6286243465729,192.59191674075555 152.59345501475036,189.55745695030782 151.713054433465,187.45018686156254 153.4004888809286,185.7643670460675 150.24572013132274,185.00574704323662 147.67788510210812,189.22029408533126 152.2266214392148,193.5191106364946 148.41155225317925,201.02091512898915 141.22161417175084,208.9440977430204 133.66484251478687,223.02020892652217 130.73017391003668,226.13883689040085 131.9774080668576,227.57171619025758 129.11610617721453,234.14607274183072 128.16233888082206,232.8817773355986 127.57540515996516,233.64035480399616 122.43973510153592,248.39033830171684 117.45079847378656,255.21738727175398 109.1603596652858,258.25161374011077 107.76639207825065,262.88721669488586 112.53522856114432,265.33143357606605 112.75532870646566,262.38151577702956 119.21159963682294,259.68443915824173 122.80656867753714,255.80737659620354 126.25480428757146,250.4131733160466 132.4909750726074,233.977500128909 131.24374091578647,232.96606375445845 131.9774080668576,230.43746757670306 133.8849426601082,228.41458524332847 136.23267754353583,228.83601945795817 146.35728422971442,208.6912313483772 153.10702202096581,199.75657067529391 155.60149033460766,199.58799127367092 157.94922521850094,202.20096826303052 159.48992623575032,210.7141604074859 162.3512281253934,216.024326384475 165.72609702078626,217.20435878372518 171.59543423028663,216.27719060733216 178.41853873617947,219.3115554402466 183.11400850350037,212.56850783445407 175.92407042253762,211.30418048024876 172.10900123603642,216.53005475533428 166.6064976020716,217.71008645551046 163.52509556757286,217.03578282665694 159.63665966596454,212.23135405621724 158.0225919331424,202.28525771020213 154.94118989864364,199.50370156008285 153.18038873607293,199.8408603637945 145.55025036353618,210.7984490141389 136.45277768932283,229.67888726340607 133.66484251478687,229.25745346478652 132.4909750726074,231.3646203779499 132.78444193303585,234.398931598349 126.84173800842836,251.1717352111591 123.39350239839405,256.73450185364345 120.60556722385809,259.9372904532356 114.0759295783937,262.12866520608077 111.43472783407196,265.16286711918656 107.25282507250085,262.4657992842258 108.646792659536,258.25161374011077 116.64376460714266,255.30167148599867 123.02666882285848,246.36749849608168 127.94223873550072,232.62891802995 129.26283960789442,232.8817773355986 131.9040413517505,228.16172461491078 131.83067463664338,226.13883689040085 130.36334033450112,226.22312397469068 133.5914757992141,222.7673467003624 136.45277768932283,215.8557501945179 147.31105152657256,202.11667880736059 151.85978786367923,193.94056207471294 147.45778495678678,188.6302587519167 150.39245356153697,184.75287355895853 152.88692187564448,185.25862045231042 152.88692187564448,189.8103290114086 157.36229149764404,192.33904550335137 164.919063154608,204.4767804162111 170.56830021832138,205.99398514808854 173.136135247536,210.6298717922764 182.38034135242924,211.7256231396459 182.30697463732213,214.08569818845717 178.34517202107236,219.56441868975526 171.52206751517951,216.53005475533428 167.48689818382263,217.54151059844298 163.1582619920373,217.03578282665694 160.07685995707288,213.91712161555188 157.7291250731796,202.4538365797489 156.4085242007859,200.34659832000034 154.06078931689262,199.58799127367092 144.74321649735793,211.89420014520874 136.0125773982145,230.10032085387502 133.8849426601082,229.00459308555583 132.78444193303585,232.1231991936802 131.68394120642915,231.87033966335002 131.53720777621493,233.72464114770992 132.63770850328729,234.73607662395807 126.91510472400114,251.0031659595552 123.46686911350116,256.31308140663896 120.01863350300118,260.4429928184254 112.90206213621423,263.0557836009539 112.82869542157277,265.24715035193367 107.54629193292931,262.88721669488586 106.88599149696529,261.538680248952 108.57342594489455,258.4201815612032 115.91009745653719,255.89166075194953 122.07290152600035,248.22176850115648 128.01560545060784,232.5446315780864 129.26283960789442,232.71320447372273 132.12414149707183,228.4988721027621 132.12414149707183,226.72884630493354 130.51007376471534,226.05454979778733 134.03167609032243,222.09304706484545 140.85478059621528,209.28125281917164 149.9522532708943,197.90219542378327 152.00652129389346,193.01336863613687 147.97135196253657,190.3160729088122 147.604518387001,187.95593215723056 150.46582027664408,184.5842911945656 153.47385559603572,185.84865811601048 152.15325472410768,187.53447776514804 152.96028859028593,189.97891034383792 157.43565821275115,192.50762633653358 164.55222957907245,204.3082019459689 170.78840036364272,206.3311413890915 174.1632692590356,211.2198919231887 182.38034135242924,211.3884690286941 181.86677434667945,215.265733267006 179.1522058872506,219.48013094841735 171.22860065475106,216.53005475533428 167.0466978927143,217.71008645551046 162.93816184671596,216.78291882830672 159.930126526393,213.32710334839066 157.50902492785826,202.20096826303052 155.01455661375076,199.67228097870247 153.4004888809286,200.00943971599918 144.66984978225082,212.39993096212856 136.23267754353583,229.93174744257703 134.178409520071,229.08887988701463 133.0779087934643,230.60604088800028 132.63770850328729,234.73607662395807 125.00757013075054,254.45882897049887 120.75230065407231,259.9372904532356 113.34226242732257,262.55008278309833 112.90206213621423,265.33143357606605 107.61965864803642,262.7186497556977 108.72015937464312,258.25161374011077 116.79049803782254,255.38595569191966 121.92616809578612,248.22176850115648 127.7955053052865,232.96606375445845 128.3090723110363,232.29177217237884 128.52917245635763,233.977500128909 132.4909750726074,228.07743772189133 132.12414149707183,226.47598517726874 130.51007376471534,225.80168847041205 150.17235341621563,197.48074594099307 152.07988800900057,192.76049752376275 147.97135196253657,190.3160729088122 147.5311516718939,188.6302587519167 149.58541969535872,185.25862045231042 151.12612071214244,184.5842911945656 153.47385559603572,185.7643670460675 153.32712216628715,190.14749164308887 158.2426920789294,193.4348203240661 165.06579658482224,204.72964805847732 169.90799978235736,205.74111787998118 173.136135247536,210.8827376125264 182.30697463732213,211.7256231396459 182.82054164353758,213.15852662571706 181.35320734092966,216.10861446725903 179.1522058872506,219.64870642288588 171.22860065475106,216.53005475533428 167.0466978927143,217.7943743718788 162.86479513114318,216.95149483560817 160.07685995707288,213.7485450093518 156.9954579216428,201.35807333374396 155.08792332885787,199.67228097870247 152.88692187564448,200.34659832000034 145.0366833577864,211.47275756875752 136.6728778341785,229.3417402409832 133.66484251478687,229.08887988701463 126.76837129378691,251.7617273303331 123.54023582814261,256.8187859179452 120.0920002181083,260.6115602066857 113.63572928775102,262.55008278309833 112.90206213621423,265.24715035193367 107.17945835739374,262.63436627341434 109.01362623553723,258.16732981725363 117.74426533421502,254.37454467301723 122.51310181664303,247.29463400162058 128.01560545060784,232.37605864932993 128.60253917146474,234.14607274183072 131.09700748557225,229.51031376852188 132.4909750726074,227.99315082083922 133.0779087934643,228.75173263181932 131.9774080668576,228.2460114992573 132.05077478196472,226.56027222814737 130.36334033450112,226.05454979778733 143.34924891032279,206.3311413890915 146.79748452082276,202.79099421866704 151.93315457878634,193.8562718036119 147.45778495678678,188.96742184989853 150.75928713707253,184.5 153.47385559603572,186.18582231213804 152.66682172985747,189.8946196816978 155.08792332885787,190.48465414147358 158.8296257997863,194.02485233725747 165.4326301603578,205.23538311908487 170.2748333583586,205.57253965962445 172.98940181778744,210.7984490141389 182.82054164353758,211.9784886353882 180.03260646853596,218.13152595347492 178.41853873617947,219.73299414775101 171.52206751517951,216.53005475533428 165.87283045100048,217.7943743718788 162.4245948405005,216.86720683629392 159.78339309664443,212.65279625804396 157.6557583580725,202.5381260017748 153.76732245646417,199.75657067529391 145.6969837937504,210.6298717922764 136.0859441133216,230.10032085387502 134.178409520071,229.1731666799169 131.9040413517505,232.29177217237884 131.3904743460007,233.30320934578776 132.93117536325008,233.89321381028276 126.91510472400114,251.1717352111591 122.36636838689446,258.08304588583997 120.0920002181083,260.6115602066857 113.63572928775102,262.38151577702956 111.80156140960753,265.5 107.32619178760797,262.88721669488586 108.72015937464312,258.25161374011077 117.30406504357234,254.96453457971802 121.85280138067901,248.3060534056276 127.94223873550072,232.62891802995 128.52917245635763,234.14607274183072 130.65680719492957,230.184607547184 132.4909750726074,229.1731666799169 131.83067463664338,226.47598517726874 130.58344047982246,226.22312397469068 134.69197652628645,221.08159661339596 140.9281473113224,209.78698518354213 147.5311516718939,201.94809987168992 152.07988800900057,193.5191106364946 147.75125181721523,190.23178227990866 147.38441824167967,188.54596795683028 150.39245356153697,184.5842911945656 152.7401884449646,185.17432932415977 153.03365530539304,186.77585933497176" stroke="#ff0000" stroke-linecap="round" stroke-linejoin="round" stroke-width="0.5"><title>2022-01-27 21.8km</title></polyline></svg>