<?xml version="1.0" encoding="utf-8" ?>
<svg baseProfile="full" height="300mm" version="1.1" viewBox="0,0,200,300" width="200mm" xmlns="http://www.w3.org/2000/svg" xmlns:ev="http://www.w3.org/2001/xml-events" xmlns:xlink="http://www.w3.org/1999/xlink"><defs /><rect fill="#222222" height="300" width="200" x="0" y="0" /><text fill="#FFFFFF" style="font-size:12px; font-family:Arial; font-weight:bold;" x="10" y="20">Over 15km Runs</text><text fill="#FFFFFF" style="font-size:4px; font-family:Arial" x="10" y="280">ATHLETE</text><text fill="#FFFFFF" style="font-size:9px; font-family:Arial" x="10" y="290">Jason</text><text fill="#FFFFFF" style="font-size:4px; font-family:Arial" x="120" y="280">STATISTICS</text><text fill="#FFFFFF" style="font-size:3px; font-family:Arial" x="120" y="285">Number: 10</text><text fill="#FFFFFF" style="font-size:3px; font-family:Arial" x="120" y="290">Weekly: 1.0</text><text fill="#FFFFFF" style="font-size:3px; font-family:Arial" x="141" y="285">Total: 194.2 km</text><text fill="#FFFFFF" style="font-size:3px; font-family:Arial" x="141" y="290">Avg: 19.4 km</text><text fill="#FFFFFF" style="font-size:3px; font-family:Arial" x="167" y="285">Min: 16.0 km</text><text fill="#FFFFFF" style="font-size:3px; font-family:Arial" x="167" y="290">Max: 21.8 km</text><polyline fill="none" points="54.34001795068616,56.71395579352975 55.10717940487666,56.86650101670239 54.88588283152785,57.781769509703736 54.45804278977448,58.56143882207107 54.08921516762348,59.44279986868787 53.72038754547248,59.73093615261314 52.93847298633773,59.256358486105455 52.112299112661276,59.10381538611546 51.22711281944066,59.341104594190256 50.47470447019441,59.002119910903275 50.06161753332708,58.40889510474517 49.89933337958064,57.51057935372228 49.67803680623183,56.68005683668889 49.16167813516222,55.866479863456334 48.48303531034617,56.17157168018457 48.040442163764965,56.74785474372038 47.524083492637146,57.49362995476986 47.051984136225656,58.18855394044658 46.62414409453049,59.01906916091684 46.28482268209336,59.64619023690466 45.97500747948652,60.27330902250833 45.62093296216335,60.98517081436876 45.28161154972622,61.68008066932089 44.67673424939858,61.713978639105335 44.41117836139165,62.37498771202809 44.3226597320172,63.01904538691451 44.027597634354606,63.76479336101329 43.74728864146164,64.52748680271907 43.511238963284995,65.35797136455949 43.157164445961826,66.15455482357356 42.68506508949213,66.83249528237502 42.094940893992316,67.5443298836908 41.43105117412051,68.06972972062067 40.6196304053301,68.37479985608661 40.6196304053301,69.01883502890996 40.64913661504397,69.73066056799144 40.29506209777901,70.49332751428301 39.69018479739316,71.22209498747543 39.36561648984207,72.0017032794567 39.39512269961415,72.83215169777395 39.55740685336059,73.69649170531193 39.69018479739316,74.56082736309327 39.49839443381643,75.39126340762596 38.74598608457018,75.86579648753104 38.037837049982045,76.27253808395471 37.329688015335705,76.79791122039023 36.7395638198941,77.408019942799 36.075674099847674,78.03507387149148 35.38227817020379,78.64517819948378 34.79215397470398,79.28917486136197 34.32005461829249,80.00095783644065 33.80369594722288,80.71273786203528 33.30209038103931,81.47535604506265 32.726719290425535,82.17018299753545 32.239866829128005,82.93279471005371 31.649742633628193,83.59372212240123 31.62023642391432,84.42411449743668 31.649742633628193,85.27144951785158 31.22190259193303,85.94931452500168 30.45474113774253,86.32213913879241 29.540048634749837,86.52549767799792 29.126961697940715,86.91526753858489 29.77609831292648,86.3899253452837 30.63177839643322,86.27129946638888 31.413692955451552,85.86458154539287 31.649742633628193,85.03419613344886 31.60548331902828,84.11907286693167 30.94159359904006,83.81403069474618 30.439988032914698,83.93265827049618 30.351469403598458,84.83083582881954 29.658073473838158,85.33923613894149 28.846652704989538,85.69511546081048 28.123750565515365,86.1018337829737 27.312329796724953,86.13572693303286 27.091033223376144,85.20366287001525 26.987761489173863,84.37327426331467 26.13208140572533,83.9496050603484 25.26164821733255,83.84792429614754 24.479733658314217,83.50898798085109 24.022387406788766,82.84806024256977 23.255225952598266,82.54301581335312 22.606089337554295,82.22102388368512 22.709361071756575,82.71248500749061 23.373250791744795,83.08531664633483 24.110906036105007,83.61066894566466 24.76004265114898,84.18685994273983 25.61572273465572,84.40716775436886 26.412390398560092,84.627475283487 26.441896608332172,84.91556931835657 25.61572273465572,84.4580079784937 25.92553793732077,83.7970838915353 26.69269939145306,84.22075347062491 27.01726769900415,85.01724945061142 27.282823586952873,85.79679513160954 27.843441572622396,86.05099404537759 28.640109236584976,85.55954247273621 29.451530005433597,85.23755619733129 30.23344456439372,84.91556931835657 30.439988032914698,84.13601963837573 30.764556340465788,83.305625870722 31.08912464795867,82.52606888471928 31.60548331902828,81.7804023703211 32.180854409583844,81.13641504838597 32.667706870881375,80.4246367784508 33.09554691257654,79.69590835113195 33.59715247876011,79.03496594115859 34.05449873034377,78.32317896306631 34.45283256226685,77.56054678479268 34.88067260407843,76.79791122039023 35.44129058974795,76.20474788472347 36.10518030973617,75.61158250062726 36.8133293443243,75.08620573538064 37.639503218000755,74.79809521410789 38.259133623272646,74.18797722064483 38.36240535747493,73.4253266810847 38.05259015480988,72.71351645528921 37.97882463037968,71.88306746332091 38.30339293793077,71.08651057547831 38.70172676991206,70.34079439597554 38.90827023831662,69.56117856438505 38.89351713343058,68.84935232288262 39.49839443381643,68.73071432911092 39.2328385458095,68.4595414641808 39.55740685336059,67.67991709226044 40.22129657334881,67.20536139389151 41.003211132308934,66.96808305293962 41.66710085229715,66.40878280921606 42.109693998936564,65.73084067774471 42.522780935745686,65.00204990131897 42.862102348182816,64.17156361814705 43.17191755078966,63.37497096037259 43.39321412413847,62.54447680807789 43.67352311697323,62.51057900224987 44.05710384412669,61.84957045127521 44.30790662718937,61.06991606920201 43.8063010610058,61.137712242940324 43.289942389936186,61.08686511515407 43.46697964856867,60.29025814709894 43.82105416583363,59.57839347427944 44.20463489292888,58.883475113645545 44.64722803956829,58.17160460843297 45.0160556617775,57.40888293486205 45.39963638881454,56.68005683668889 45.76846401102375,55.96817719595856 46.16679784300504,55.20544573407096 46.60939098964445,54.493559979237034 46.963465506909415,53.747771736831055 47.33229312917683,52.95113071759988 47.878158010018524,52.40873471699888 48.18797321256716,52.57823365124932 47.760133170871995,52.12058614467969 48.23223252722528,51.45953759252734 48.61581325432053,50.71373617032077 49.014147086360026,49.96793150815938 49.47149333782727,49.20517338877835 49.89933337958064,48.52716332642012 50.37143273599213,47.84915058630577 50.78451967285946,47.06943262468849 51.2418659243267,46.425315115615376 51.684459070907906,45.74729407404084 52.171311532263644,45.03536909808463 52.73192951793317,44.52684945047076 53.11551024502842,43.865771656433935 53.38106613303535,43.17078969191061 53.86791859433288,42.47580491362896 54.34001795068616,41.83167016750667 54.82687041198369,41.13667996735603 55.2694635586231,40.44168695315602 55.69730360037647,39.712788817472756 55.43174771236954,38.9330338966829 55.594031866115984,38.13632412321749 56.007118802983314,37.644735396810574 56.405452634964604,37.000582520646276 56.862798886490054,36.23776677760179 57.36440445261542,35.54275392671116 57.452923081989866,34.661270164942835 56.89230509620393,34.25442997875507 56.31693400564836,33.864540561975446 55.78582222975092,33.57636085849663 55.10717940487666,33.186469901382225 54.39903037028853,33.11866268790618 54.16298069199547,33.762830133666284 53.83841238450259,34.47480186597386 53.5138440769515,35.18677064485382 53.10075714014238,35.83093032836041 52.554892259300686,36.390330197435105 51.979521168686915,36.55984494932636 51.2418659243267,36.44118464060011 50.38618584081996,36.52594201230386 49.66328370134579,36.33947573923797 48.99939398141578,36.169960769679165 48.49778841523221,36.54289348164457 48.084701478423085,37.153145262389444 47.77488627569983,37.74644352469477 47.406058653548826,38.30583715066314 47.30278691928834,38.9330338966829 46.874946877593175,39.64498418237781 46.8454406678793,40.33998042240273 47.524083492637146,40.93326766914106 48.01093595393468,41.59435675700661 48.084701478423085,42.44190314512525 47.597849017125554,42.95042896932864 46.889699982479215,42.95042896932864 46.211057157604955,42.526657553811674 45.53241433284711,42.08593417186057 45.65043917193543,42.73006796381378 46.13729163323296,43.425051712663844 46.32908199680969,44.18783551514207 46.31432889186544,44.89976400602609 46.65365030430257,45.543887239313335 46.24056336743524,46.30666162665875 45.78321711590979,47.001630895450944 45.32587086438434,47.696597350775846 45.00130255689146,48.442411880372674 44.55870941031026,49.17127294924285 44.027597634354606,49.628928317921236 44.01284452941036,50.03573206588044 43.67352311697323,50.730686238617636 43.34895480942214,51.391737597150495 43.127658236189745,52.13753607404942 43.511238963284995,52.69688280565606 44.21938799787313,53.018930097154225 44.80951219337294,53.493525004640105 45.50290812301682,53.9172693490691 45.56192054261919,54.59525812494394 45.22259913024027,55.2393449821102 44.83901840314502,55.90037898099399 44.47019078093581,56.62920838876744 44.13086936855689,57.32413587310293 44.33741283696145,57.39193352582515 44.48494388582185,58.45974302556715 44.16037557827076,59.171612336213 43.74728864146164,59.96822449399042 43.40796722902451,60.71398571784084 43.79154795611976,61.137712242940324 44.38167215161957,61.30720256024506 43.968585214810446,62.08685586489446 43.65877001208719,62.57837460721203 43.45222654368263,62.81565901370777 43.1866706556757,63.56140787106415 42.921114767726976,64.32410221615282 42.611299565120135,65.0359472152777 42.24247194296913,65.73084067774471 41.755619481613394,66.39183428857359 41.23926081054378,66.93418612037203 40.47209935641149,67.20536139389151 39.74919721693732,67.42569098836975 39.39512269961415,68.10362642910331 39.07055439206306,68.86630060098832 39.02629507740494,69.6628677865665 38.73123297962593,70.62891239463352 38.259133623272646,71.51021150765882 38.067343259754125,72.35761023614032 38.46567709167721,73.13721337364404 38.48043019656325,73.98460407460516 38.067343259754125,74.71335673348221 37.388700434879865,75.12010105904483 36.66579829540569,75.39126340762596 35.98715547058964,75.83190131101583 35.38227817020379,76.35727579529339 34.86591949913418,77.00128103533643 34.4675856672111,77.73002089482907 34.09875804494368,78.47570499239373 33.626658688590396,79.13664955436252 33.154559332178906,79.79759157310764 32.69721308071166,80.45853104861453 32.284126143786125,81.15336211414251 31.7235081581166,81.76345536648296 31.19239638216095,82.37354645189771 30.92684049421223,83.1361572616297 30.52850666217273,83.8309774962836 30.45474113774253,84.61052856050082 29.93838246667292,85.16976953606354 29.200727222312707,85.37312943946745 28.507331292552408,85.79679513160954 27.799182257964276,86.13572693303286 27.253317377122585,85.7290086910507 27.091033223376144,84.91556931835657 26.884489754971582,84.01739220305171 25.95504414703464,83.81403069474618 25.15837648313027,83.76319028006401 24.450227448542137,83.39036011250573 23.948621882358566,82.83111334401474 23.269979057542514,82.55996274026984 22.724114176700823,82.06850118003786 22.694607966928743,82.50912195436831 22.989670064649545,83.03447601593507 23.624053574807476,83.33951957242971 24.214177770307288,83.7970838915353 24.92232680489542,84.27159374988696 25.63047583954176,84.47495471655566 26.30911866435781,84.61052856050082 26.51566213282058,84.93251601122029 25.70424136397196,84.4580079784937 25.7927599932882,83.8309774962836 26.47140281816246,84.11907286693167 27.002514594059903,84.67831544243381 27.282823586952873,85.3561827900703 27.430354635813273,86.13572693303286 28.212269194831606,85.89847474226553 28.994183753908146,85.45786266146752 29.73183899826836,85.20366287001525 30.36622250842629,84.71220887330128 30.439988032914698,83.88181789094233 30.92684049421223,83.78013708662183 31.472705374995712,84.01739220305171 31.634989528742153,84.6613687244535 31.694001948286314,85.42396937767626 31.23665569687728,86.01710087859828 30.48424734751461,86.30519258296408 29.70233278849628,86.42381843845942 29.067949278338347,86.94916052820918 29.48103621514747,86.52549767799792 30.14492593507748,86.37297879619291 30.83832186483778,86.20351321308408 31.443199165223632,85.74595530373335 31.575977109197993,85.03419613344886 31.590730214084033,84.16991317628708 31.78252057766076,83.4242537975806 32.284126143786125,82.78027263843978 32.726719290425535,82.11934209628089 33.228324856609106,81.56009118977818 33.670918003306724,80.9161030419491 33.272584171267226,80.4076896408369 33.03653449314879,79.79759157310764 33.523386954388116,79.18749133842357 33.93647389119724,78.52654697209073 34.30530151340645,77.81475788712851 34.65937603072962,77.10296585249307 35.14622849202715,76.52675109250413 35.72159958264092,75.98442955264181 36.35598309279885,75.47600155380496 37.0346259176149,75.08620573538064 37.74277495226124,74.79809521410789 38.259133623272646,74.20492497198575 38.34765225253068,73.44227450760081 38.05259015480988,72.73046435210563 37.949318420665804,72.03559921187116 38.30339293793077,71.22209498747543 38.70172676991206,70.49332751428301 38.9377764480887,69.78150513638684 38.878764028602745,69.0866280645132 39.36561648984207,68.69681774442142 40.02950620971387,69.06967980816262 40.66388971993001,69.45948928194412 40.44259314669762,70.13741669415322 40.02950620971387,70.81534143030876 39.61641927290475,71.45936745096697 39.40987580450019,72.20507877357886 39.46888822410256,72.98468260346272 39.60166616801871,73.71343950515438 39.69018479739316,74.44219331469503 39.70493790222099,74.95062437377055 39.631172377849,74.23882046957442 39.49839443381643,73.47617015572905 39.36561648984207,72.73046435210563 39.39512269961415,72.0017032794567 39.73444411199307,71.25599107377639 40.23604967817664,70.47637939674314 40.64913661504397,69.74760875913489 40.6196304053301,69.05273155010946 40.50160556618357,68.40869650430977 41.18024839099962,68.12057478082716 41.873644320701715,67.83245257395902 42.390002991771325,67.23925827302446 42.83259613846894,66.62911342573352 43.245683075278066,65.98506929070572 43.48173275345471,65.29017685701547 43.74728864146164,64.61223030935798 43.98333831963828,63.88343478557363 44.23414110275917,63.171585008720285 44.42593146627769,62.57837460721203 44.55870941031026,61.968213199070306 45.04556187154958,61.764825581238256 45.35537707421463,61.408896670283866 45.70945159147959,60.79873110652261 46.048773003858514,60.12076682601764 46.31432889186544,59.42585066038009 46.66840340918861,58.747880959213944 47.00772482162574,58.069908581033815 47.361799338890705,57.442781747857225" stroke="#ff4600" stroke-linecap="round" stroke-linejoin="round" stroke-width="0.5"><title>2024-01-01 20.2km</title><desc>9223370332779570807</desc></polyline><polyline fill="none" points="125.01712534972467,37.472788590879645 126.45903459179681,37.88693206431344 125.9063027157681,39.43306228029542 125.47372994304169,40.730700685991906 124.68067985994276,42.138769592071185 124.20004344591871,42.52529707134818 122.78216602455359,41.779850740131224 121.36428860318847,41.69702324739774 119.94641118182335,41.890287359041395 118.67272468470037,41.1448393354367 118.19208827067632,39.79198414369603 117.92773824301548,38.328684426727705 117.49516547040548,36.865377053734846 116.34163807681762,36.119915637071244 115.40439706936013,37.196692601108225 114.56328334484715,38.41151291699498 113.72216962033417,39.54349982572603 113.09734228206798,40.84113771907869 112.4725149438018,42.111160465865396 111.87171942635905,43.29835042741615 111.24689208809286,44.56836201690021 110.57400110852905,45.83836783980951 109.58869645965751,46.00402034810395 109.2522509698756,47.16358515934553 108.86774183879606,48.35075367643731 108.45920088689309,49.64835071080597 108.00259629345965,51.00115823119995 107.57002352084965,52.46439165310585 106.7769734376343,53.76196960514062 105.86376425111666,54.94911011864315 104.85442778165452,55.94299132528249 103.48461400170345,56.467538316210266 102.73962755990215,57.489021739020245 103.36445489816833,58.40007137475186 102.66753209778108,59.78044395730831 101.82641837338451,61.0779879745387 101.22562285570893,62.45834734354867 101.15352739370428,63.97673478318029 101.41787742148153,65.49511398203322 101.63416380761191,66.95827159524197 101.20159103511833,68.33860195169109 99.90387271728832,69.02876457609818 98.5821225787513,69.69131909386488 97.38053154363297,70.60232899387483 96.39522689499427,71.76179184921784 95.24169950128999,72.7280072249414 94.16026756970678,73.77703728363849 93.19899474165868,74.85366930672899 92.38191283773631,76.17874918653979 91.61289457546081,77.58663968308247 90.65162174741272,78.77367910719477 89.71438073995523,79.93310810188996 88.87326701544225,81.20295339342556 88.44069424294867,82.52800320577808 88.5848851671908,84.01867674474488 88.03215329104569,85.31610836132313 86.68637133180164,85.95101951344986 85.17236662749201,86.22706739118439 84.30722108227201,86.917185894039 85.48478029668331,86.06143869721564 86.92668953875545,85.84060028617387 88.12828057387378,85.01245469236164 88.41666242212523,83.60460155829787 88.15231239446439,82.22434651129879 87.02281682146713,81.7826634584053 86.47008494543843,82.52800320577808 86.01348035200499,83.93586175647215 84.64366657205392,84.40514636595617 85.89332124858629,83.93586175647215 86.49411676602904,82.61081861070124 86.90265771804843,81.2305586618022 87.5274850561982,79.8778973063454 88.34456696012057,78.63565152592491 89.40196707099676,77.58663968308247 90.19501715397928,76.26156647069729 91.10822634072974,75.04691051336704 91.97337188583333,73.72182527335826 92.7664219691651,72.34152147505665 93.53544023144059,70.85078572449856 94.59284034231678,69.60849986490211 95.93862230156083,68.61466720578028 97.38053154363297,67.81407721841242 98.75034532358404,67.09630493735312 99.47129994467832,65.77118204187718 99.32710902043618,64.28041128220502 98.77437714429107,62.955275049229385 99.30307719961274,61.46448928434984 100.04806364141405,60.08412501143175 100.40854095190298,58.62093144567916 100.40854095190298,57.3509836566227 101.58610016631428,57.65466734804795 100.79305008321535,57.15773022681242 101.2736864972394,55.74973692270578 102.47527753224131,54.94911011864315 103.94121859513689,54.424560280458536 104.97458688518964,53.347849636134924 105.83973243040964,52.050269763101824 106.48859158938285,50.642250751145184 107.01729164482094,49.20661622597254 107.54599170014262,47.74336576228961 108.00259629345965,47.38445410213899 108.62742363172583,46.00402034810395 109.15612368716393,44.67879753472516 110.26158743933775,43.684876304265345 110.81431931548286,42.33203339847387 110.79028749477584,41.310494623408886 111.75156032282393,40.012858907692134 112.59267404733691,38.65999824064784 113.57797869609203,37.472788590879645 114.5152197034331,36.28557390140486 115.28423796582501,35.04313452739734 115.69277891772799,33.690249820647296 116.55792446306441,33.27610013267258 117.68742003594525,34.35288804577431 118.50450193975121,35.62294025544543 119.22545656084549,36.89298669769778 120.25882485101465,37.914541607373394 121.67670227237977,38.135417854064144 122.44572053477168,39.54349982572603 122.87829330738168,40.50982648888021 122.20540232770145,41.64180490517174 120.7394612650387,41.917896506842226 119.32158384367358,41.69702324739774 118.43240647774655,40.64787288248772 118.02386552572716,39.046530527528375 117.78354731877334,37.472788590879645 116.84630631143227,36.20274478153442 115.64471527643036,36.837767407036154 114.80360155180097,38.080198808718706 113.89039236516692,39.29501528709079 113.16943774418905,40.67548215307761 112.52057858521584,42.02833307129913 111.89575124706607,43.325959436333505 111.2709239089163,44.67879753472516 110.525937467115,45.9211941062822 109.46853735623881,46.30771635854035 109.39644189411774,47.46727991072112 108.74758273526095,48.847706443368224 108.24291450052988,50.28334281060961 107.76227808650583,51.691363629186526 107.18551438965369,53.18220147682587 106.27230520301964,54.47977609920781 105.21490509214345,55.66691356652882 103.84509131219238,56.35710745246615 102.64350027719047,57.26816077448893 103.36445489816833,58.427678893116536 102.69156391860452,59.78044395730831 101.87448201479856,60.995166195731144 101.22562285570893,62.32031171320705 101.08143193158321,63.783485930383904 101.29771831783,65.21904564969009 101.56206834560726,66.70981140778167 101.34578195936047,68.17296266843914 100.07209546212107,68.89073218739941 98.72631350299343,69.58089344977634 97.54875428858213,70.49190370939323 96.46732235711534,71.62376080884133 95.33782678400166,72.67279500773293 94.1842993904138,73.72182527335826 93.2230265623657,74.9364869830315 92.35788101726212,76.20635495067108 91.56483093393035,77.61424530830118 90.65162174741272,78.8288901206397 89.71438073995523,80.015924274805 88.8252033740282,81.2305586618022 88.3926306014182,82.63842374028172 88.4887578842463,84.26712156253052 87.74377144256141,85.50934234273154 86.32589402119629,86.00622911087703 84.78785749629606,86.30988170136698 84.54753928934224,86.55832448494039 85.98944853141438,85.97862431351678 87.47942141490057,85.64736653352156 88.3926306014182,84.54317110136617 88.34456696012057,83.05250035651261 87.67167598044034,82.11392581340624 86.59024404897355,81.83787387813209 86.42202130402438,83.3561561522074 85.31655755173415,84.26712156253052 85.1483348069014,84.26712156253052 86.39798948331736,83.46657635990414 86.59024404897355,81.92068948730594 87.28716684924439,80.51282079773955 87.91199418751057,79.10494502444635 89.01745793968439,78.02832935936749 89.93066712631844,76.78607536759228 90.69968538882677,75.43339252629085 91.70902185817249,74.16352105056285 92.52610376197845,72.81082553052693 93.2230265623657,71.43051723798271 94.11220392829273,70.16062759459601 95.2657313218806,69.05637104561902 96.5394178192364,68.06253642521915 97.98132706119213,67.53801117438707 99.20694991701748,66.62699129630346 99.51936358597595,65.1362250969105 99.0146953513613,63.81109291760367 98.87050442723557,62.29270457892562 99.56742722750641,60.88473711928236 100.26435002766084,59.55958480175468 100.26435002766084,58.06878094145213 100.86514554533642,57.15773022681242 101.77835473185405,57.65466734804795 100.76901826250833,56.79883064579917 101.44190924207214,55.47365897329291 102.81172302202322,54.81107078291825 104.20556862279773,54.31412861021818 105.16684145084582,53.099377360369544 106.03198699594941,51.801796334795654 106.68084615503903,50.338559446827276 107.18551438965369,48.930531818652526 107.69018262438476,47.46727991072112 108.17081903840881,47.191193786711665 108.795646376675,45.61749767616857 109.44450553553179,44.45792645541951 110.42981018428691,43.381177445931826 110.67012839124072,42.22159695401206 110.98254206043202,41.00679318702896 111.91978306765668,39.70915606225026 112.7849286129931,38.41151291699498 113.79426508245524,37.25191182093113 114.75553791050334,36.009476739767706 115.45246071077418,34.65659670755849 115.71681073855143,33.3589301193424 116.7742108493112,33.524590019049356 117.83161096018739,34.54615723231109 118.60062922269572,35.8162085643271 119.39367930567823,37.05864450414083 120.45107941655442,37.96976068537333 121.86895683791954,38.35629392624833 122.5658796383068,39.70915606225026 122.80619784526061,40.70309142084443 122.10927504498977,41.64180490517174 120.71542944433168,41.94550565208192 119.32158384367358,41.72463241437799 118.43240647774655,40.620263609220274 118.02386552572716,39.212187058408745 117.75951549806632,37.80410341868992 117.11065633909311,36.36840299674077 115.7889062006725,36.53406111386721 114.9477924760431,37.748884307889966 114.05861511011608,39.074139956210274 113.31362866843119,40.39938932497171 112.59267404733691,41.83506905505783 111.94381488848012,43.105087288684445 111.31898755021393,44.43031755826087 110.59803292923607,45.755541548889596 109.58869645965751,46.03162908999366 109.32434643199667,47.30162826902233 108.86774183879606,48.43357919895789 108.36307360394858,49.81400096270954 107.88243718992453,51.24963237057091 107.40180077590048,52.63004023747635 106.63278251350857,53.95522538089426 105.71957332687452,55.169972914183745 104.5179822917562,56.08103010247578 103.05204122909345,56.55036143533653 102.90785030485131,57.79270528064808 103.07607304968406,58.897006289160345 102.37915024941321,60.16694705985719 101.53803652501665,61.40927484421991 101.0574001109926,62.73441840012674 101.10546375229023,64.19759045157116 101.36981377995107,65.66075485068723 101.56206834560726,67.12391159753315 100.93724100745749,68.39381502429023 99.63952268951107,69.11158397659892 98.34180437168106,69.82935108753736 97.21230879880022,70.76796683881548 96.13087686721701,71.8446104407194 94.97734947351273,72.92124989969307 93.89591754192952,74.02549119509058 92.95867653470486,75.2677574432455 92.06949916877784,76.59283536209841 91.27644908556249,77.94551259820582 90.24308079539333,79.21536690980429 89.37793525017332,80.48521545846597 88.3926306014182,81.61703213377041 88.53682152566034,83.1629206839134 88.51278970506974,84.59838097641477 87.43135777337011,85.59215686531388 85.98944853141438,86.0890434863395 84.57157111004926,86.50311499653617 84.59560293075629,86.39269598710234 85.98944853141438,86.00622911087703 87.38329413207248,85.61976170080015 88.32053513941355,84.51556615970912 88.3685987808276,83.05250035651261 87.74377144256141,82.05871544813272 86.66233951109461,81.69984780828236 86.47008494543843,83.05250035651261 85.53284393798094,84.18430664777406 84.18706197885331,84.59838097641477 82.98547094373498,85.31610836132313 81.66372080519795,85.7853906560922 81.20711621188093,84.48796121537453 80.846638901392,83.10771052568452 79.52488876285497,82.11392581340624 78.29926590714604,82.00350507203257 76.8813884856645,81.50661119620781 75.94414747832343,80.45761011654395 74.69449280190747,79.79508109256858 73.61306087044068,79.29818329508998 74.04563364305068,80.31958336586831 75.24722467805259,80.98211114798323 76.44881571317092,81.92068948730594 77.65040674817283,82.72123911249219 78.75587050034665,82.58321347847232 79.78923879051581,82.22434651129879 80.8706707219826,83.27334096789127 81.44743441895116,84.59838097641477 81.88000719156116,85.7853906560922 83.24982097151224,85.04005958494963 84.59560293075629,84.29472652863478 85.96541671070736,83.88065175066004 86.42202130402438,82.55560834350763 86.92668953875545,81.17534812222584 87.5034532356076,79.8778973063454 88.32053513941355,78.66325704767951 89.40196707099676,77.61424530830118 90.19501715397928,76.26156647069729 91.0841945199063,75.07451638911152 91.94934006524272,73.83224928297568 92.69432650704402,72.47955216135597 93.3431856657844,71.12684849981451 94.28042667324189,69.93977663342957 95.3618586048251,68.91833867056994 96.63554510183167,68.06253642521915 98.02939070260618,67.56561779102776 99.08679081348237,66.65459800284589 99.51936358597595,65.35707984986948 99.13485445489641,64.03194871669984 98.87050442723557,62.541168689203914 99.49533176538534,61.02277345806942 100.28838184848428,59.366332897683606 100.14419092424214,57.930743145087035 101.0574001109926,57.29576840455411 100.93724100745749,57.240553141688 101.08143193158321,56.05342235244461 102.09076840116177,55.1147572316404 103.5567094637081,54.617815598408924 104.75830049894284,53.6791456603969 105.64747786486987,52.35395920902374 106.36843248573132,50.9459417257458 106.92116436187644,49.510308759170584 107.44986441731453,48.07466842443682 107.97856447275262,47.16358515934553 108.55532816960476,46.22489020662033 109.08402822504286,44.92727729055332 110.04530105309095,43.9333569429582 110.18949197733309,42.66334247018676 110.81431931548286,41.22766699170461 111.72752850211691,39.957640233042184" stroke="#ff1900" stroke-linecap="round" stroke-linejoin="round" stroke-width="0.5"><title>2023-12-24 21.3km</title><desc>9223370333471178807</desc></polyline><polyline fill="none" points="179.2201789926039,39.74047322766273 179.9476827151375,38.79681699036155 180.8159936098382,39.09339501624345 180.39357209345326,40.2797038994031 180.1354256112827,41.250316425808705 179.78340768103953,42.30180943693267 179.10283968248405,43.29937598769902 178.75082175224088,43.649871478352 178.14065733982716,43.13760868640384 177.2019428591011,42.70622874799301 176.2397605162114,42.40965464510373 175.20717458764557,42.76015127761639 174.221524382825,42.787112538382644 173.2593420400517,42.38269334702636 172.6022419036599,41.573853168054484 172.27369183534756,40.57628031511558 172.0624810771551,39.49781907800934 171.9216739051044,38.446315271809 171.40538094064686,37.55657811983838 170.58400577004068,37.09822754675406 169.8565020475071,37.799233994213864 169.31674122111872,38.60808535164688 168.70657680858858,39.44389590440551 168.19028384436388,40.17185785021866 167.69745874183718,40.899817855795845 167.25156936363783,41.95131221631891 166.85261570930015,42.81407379650045 166.40672633086797,43.542026759823784 166.07817626255564,44.404783315374516 165.65575474628713,45.240576129668625 165.20986536797136,46.04940545040881 164.670104541583,46.75038892435259 163.9426008190494,46.77734979122761 163.59058288880624,47.64009612746304 163.68445433687884,48.260193373513175 163.2620328204939,49.06901375268353 162.95695061434526,49.931752850767225 162.6518684080802,50.87537061909097 162.34678620181512,51.7111436346604 162.0182361336192,52.70867582180654 161.6427503413288,53.65228399756597 161.10298951494042,54.48804851685418 160.5397608265048,55.29685045569204 159.92959641397465,56.07869005363318 159.08475338143762,56.61788847259595 158.09910317661706,56.94140701313154 157.27772800601088,57.50756353716133 157.58281021215953,58.31635653608828 157.794020970352,59.017308531474555 157.30119586805813,59.90697578169056 156.76143504155334,60.90447804122232 156.15127062925603,61.7671797608491 155.75231697480194,62.60291945384233 155.588041940704,63.60041186964372 155.681913388893,64.54398242448224 155.84618842287455,65.54146775323898 156.057399181067,66.56590835400857 156.12780276709236,67.64426273127901 155.75231697480194,68.58781931985868 154.83707035612315,69.07307572520222 153.96875946142245,69.5044140284881 153.05351284286007,69.93575165086077 152.25560553418472,70.4749227212742 151.57503753562924,71.20280197853572 150.89446953719016,71.93067929669633 150.14349795260932,72.63159636288765 149.41599423007574,73.33251163110253 148.73542623152025,74.06038327561691 148.07832609501202,74.84216917844606 147.5150974066928,75.70482688918128 146.92840085620992,76.59443980079959 146.4590436159633,77.5649233100703 145.872347065364,78.34669918569853 145.21524692885578,79.12847282469738 144.5816146545112,79.93720182176912 144.08878955198452,80.8537584580481 143.36128582956735,81.55465263497899 143.29088224342559,82.52511852738098 143.33781796740368,83.49558097313275 143.31435010547284,84.46603997240891 142.7980571410153,85.30171023783623 141.9297462463146,85.81389397606836 140.9206281795632,85.94867901076213 139.93497797485907,86.19129190573585 139.20747425232548,86.81130165877403 139.5829600446159,86.2721628228901 140.56861024932005,85.97563600976719 141.53079259209335,85.8678079979436 142.4695070728194,85.57128074602224 143.17354293342214,84.87039687152719 143.33781796740368,83.95385370776057 143.24394651933108,83.01035018105176 142.98580003727693,82.25554501402075 142.18789272860158,81.98597123485524 141.62466404016595,81.77031202000217 141.4134532819735,82.65990518423496 141.2257103859447,83.68428160401527 140.28699590521865,84.25038271487574 139.6298957687104,84.38516852070461 140.732885283418,84.03472528711427 141.4134532819735,83.27992294964497 141.43692114413716,82.20163027945091 141.85934266040567,81.28507816427737 142.39910348667763,80.42243807099294 142.77458927908447,79.45196471080999 143.4786251395708,78.67019199731294 144.20612886210438,77.94233263275237 144.79282541258726,77.13359773150296 145.23871479090303,76.21702861628728 145.82541134138592,75.46220468336833 146.48251147777773,74.65346244117245 147.04574016632978,73.81775960957748 147.5150974066928,72.928137657349 147.93751892296132,72.03851280847448 148.45381188741885,71.14888506304123 149.08744416187983,70.36708859229111 149.8149478844134,69.6661657167133 150.5893873310415,68.99219971743878 151.50463394960389,68.45302572101355 152.49028415430803,68.10256205269252 153.38206291105598,67.67122153611854 154.01569518551696,66.8624562319892 154.22690594370943,65.89193470677128 154.10956663358957,64.84053249721183 153.5698058072012,64.00479964941042 153.5698058072012,62.95339017713559 153.96875946142245,61.98285476511228 154.43811670178548,61.09319427513401 154.88400608021766,60.230490427115 155.02481325226836,59.28690497385105 154.8605382181704,58.50507455790648 155.37683118251152,57.83108102402184 155.8696562849218,58.01979938108707 155.49417049263138,57.37276447121985 155.9165920088999,56.456129058642546 156.5971600074554,55.86301038810052 157.6532137983013,55.51253056831774 158.63886400300544,55.16205029885168 159.34289986360818,54.40716819127556 159.9530642760219,53.46356262319023 160.51629296445753,52.51995379553409 160.98565020470414,51.495460520585766 161.36113599711098,50.44400290088379 161.76008965144865,49.41950183993322 162.13557544362266,48.39499693637481 162.41718978784047,48.17931120385765 162.8396113042254,47.55921377422055 163.2620328204939,46.53470189316431 163.4028399925446,45.860678823140915 163.21509709651582,45.591069129441166 163.9895365430275,44.86312162701506 164.48236164543778,43.91948308821884 164.9047831618227,42.92191880239989 165.46801185025834,41.97827355697518 166.12511198665015,41.08854791088379 166.66487281315494,40.11793480964843 167.29850508761592,39.22820310332463 168.00254094821867,38.4732769583934 168.70657680858858,37.637463435239624 169.29327335907146,36.69379993175971 169.7626305994345,35.696209254005225 169.73916273738723,34.96823537864839 169.1289983249735,34.509880461584544 168.56576963653788,33.99760052643251 168.9412554288283,33.16177330588107 169.809566323529,33.24265992292203 170.3727950118482,33.94367626673193 170.8656201143749,34.61772874655435 171.64005956088658,35.23785555877839 172.2032882493222,35.96582871544524 172.6961133517325,36.774685502576176 173.3062777640298,37.61050166611676 173.68176355643664,38.55416200228501 174.47967086511198,39.1742798765481 175.53572465584148,39.22820310332463 176.35709982644767,39.95616562408395 176.73258561873809,40.92677930020727 177.62436437536962,41.1424707598635 178.58654671814293,41.08854791088379 179.61913264694158,41.250316425808705 179.57219692284707,42.03219623025507 179.05590395838954,42.92191880239989 178.53961099404842,43.6768326513411 178.1171894776635,43.568987943493994 177.22541072103195,43.05672499988577 176.3336319644004,42.76015127761639 175.39491748367436,42.86799630476162 174.40926727897022,43.110647460242035 173.44708493619692,42.84103505194071 172.78998479968868,42.086118892912054 172.39103114546742,41.16943218038068 172.1563525252277,40.17185785021866 171.99207749112975,39.14731825905619 171.75739887089003,38.203659972321475 171.1472344584763,37.4217692076345 170.25545570184477,37.55657811983838 169.7156948754564,38.36543019590317 169.1289983249735,39.20124149124604 168.54230177449062,40.064011758513516 167.9790730861714,40.87285640867776 167.46278012171388,41.81650547325262 167.0638264673762,42.73319001408527 166.57100136508234,43.542026759823784 166.19551557279192,44.485666602733545 165.74962619435973,45.456264182779705 165.2802689539967,46.37293650812353 164.69357240363024,46.966075785137946 163.96606868109666,47.10087998671224 163.59058288880624,47.99058604819584 163.68445433687884,48.69156454046606 163.21509709651582,49.58126542082755 162.86307916627266,50.551844894333044 162.55799696000759,51.52242091920925 162.22944689181168,52.4660331926425 161.90089682349935,53.46356262319023 161.33766813506372,54.40716819127556 160.70403586060274,55.24293040094199 160.09387144818902,56.07869005363318 159.2959641396301,56.72572802868672 158.35724965890404,57.07620629196754 157.41853517806157,57.48060372925829 157.34813159215264,58.37027598413988 157.91136028047185,58.99034887255402 157.46547090215608,59.93393535015639 156.99611366179306,60.823599615338026 156.4094171114266,61.65934219490737 155.8696562849218,62.54900084109977 155.63497766468208,63.57345266305492 155.70538125070743,64.62485974901938 155.84618842287455,65.62234478237224 156.01046345708892,66.61982617390458 156.15127062925603,67.61730392364552 155.9165920088999,68.58781931985868 155.09521683841012,69.10003438909189 154.25037380575668,69.612248497986 153.3351271870779,70.04358595007216 152.49028415430803,70.60971532267286 151.76278043177444,71.36455266125267 151.01180884731002,72.14634627776104 150.23736940068193,72.87422108228202 149.439462092123,73.52121928066481 148.68849050754216,74.2760485757608 147.96098678489216,75.16566613918985 147.42122595850378,76.02832282855525 146.8345294081373,76.94489257675014 146.34170430572703,77.86145925035817 145.7315398933133,78.7241074287449 145.05097189475782,79.53283762244973 144.4408074823441,80.36852297472069 143.87757879390847,81.23116323820432 143.26741438137833,81.9590138423373 143.36128582956735,83.03730746993097 143.45515727752354,84.06168247485766 143.24394651933108,85.08605363976676 142.49297493486665,85.75997994354111 141.5542604541406,86.05650699077523 140.45127093920019,86.21824888081755 139.4890885966597,86.6226031872211 139.32481356244534,86.75738782304688 140.19312445702963,86.16433492806391 141.15530679980293,85.97563600976719 142.16442486667074,85.75997994354111 142.91539645113517,85.1130107237841 143.29088224342559,84.19646837381879 143.22047865740024,83.1720938741928 142.93886431318242,82.36337445129175 142.16442486667074,82.03988601191668 141.5542604541406,81.9590138423373 141.4134532819735,83.03730746993097 141.03796748968307,84.00776809663512 140.0288494230481,84.46603997240891 139.88804225088097,84.4929971175734 140.94409604161046,84.00776809663512 141.38998541992623,83.06426475607441 141.5073247300461,81.98597123485524 142.00014983245637,81.01550342771225 142.44603921077214,79.99111700311187 143.00926789920777,79.07455747321364 143.8071752077667,78.3736569347675 144.4877432063222,77.5649233100703 145.02750403271057,76.67531355816755 145.52032913512085,75.8126589115418 146.22436499560717,75.03087578545092 146.76412582211196,74.16821594690555 147.35082237247843,73.22467862992198 147.8436474748887,72.2541797044978 148.336472577299,71.28367733184132 149.01704057573806,70.50188124689157 149.7680121603189,69.74704152485356 150.61285519297235,69.07307572520222 151.5515696736984,68.53390188835328 152.53721987851895,68.1295208123338 153.45246649708133,67.59034511348 154.03916304756422,66.78157956994255 154.2034380817786,65.7301807840995 154.01569518551696,64.7596552366158 153.49940222105943,63.843044609355275 153.59327366924845,62.791634514549514 154.06263090961147,61.848057907423936 154.60239173599984,60.90447804122232 155.0482811143156,59.960894915944664 154.954409666243,59.017308531474555 154.97787752817385,58.23547734390013 155.8227205609437,58.07371888778289 156.76143504155334,58.55899396870518 157.67668166034855,59.12514714032295 157.5124066262506,60.01481403943035 156.9726457997458,60.95839697847259 156.38594924926292,61.82109852787107 155.8696562849218,62.710756647371454 155.681913388893,63.681289473490324 155.7757848368492,64.67877795198001 155.9635277329944,65.70322178766946 156.12780276709236,66.70070288394345 156.24514207721222,67.77905672910856 155.8696562849218,68.77653024651227 154.88400608021766,69.28874496195931 153.96875946142245,69.80095871709636 153.0300449806964,70.25925442081643 152.16173408622853,70.85234183751163 151.48116608767305,71.58022008926491 150.70672664104495,72.30809640191728 149.93228719453327,73.06292904837755 149.22825133393053,73.7638432100357 148.50074761139695,74.51867183478316 147.93751892296132,75.3813305668009 147.32735451043118,76.21702861628728 146.76412582211196,77.13359773150296 146.24783285777085,78.07712155024637 145.61420058319345,78.93976904769079 144.91016472270712,79.72154098993633 144.32346817222424,80.61114082412678 143.59596444957424,81.41986543289386 143.29088224342559,82.36337445129175 143.45515727752354,83.46862372945179 143.4316894155927,84.46603997240891 142.96233217522968,85.35562436078908 142.14095700450707,85.8947650049231 141.10837107582483,86.08346397907007 140.07578514702618,86.2721628228901 139.27787783846725,86.83825857259217 139.5829600446159,86.48781848486396 140.61554597341456,86.11042096468736 141.6481319022132,86.00259300603648 142.563378520892,85.62519481577328 143.19701079535298,84.81648265291005 143.24394651933108,83.76515326305525 143.12660720921122,82.65990518423496 143.31435010547284,81.60856749719824 144.08878955198452,80.79984344690456 144.6285503784893,79.85632902971702 145.3560541010229,79.07455747321364 145.96621851343662,78.29278367996449 146.5059793399414,77.45709197921678 146.99880444223527,76.51356601939187 147.6089688547654,75.67786887698458 148.2426011292264,74.81521108114976 148.92316912778188,73.97950874417438 149.7210764363408,73.22467862992198 150.5893873310415,72.49680475905188 151.4576982256258,71.68805373946088 152.34947698237374,70.63667383493157 153.45246649708133,69.93575165086077 154.48505242587999,69.39657951655681 155.47070263070054,68.8574063181004 156.057399181067,67.99472698743921 156.057399181067,66.91637399350293 155.9165920088999,65.99977060215315 155.70538125070743,65.05620507526328 155.61150980275124,64.1126362895302 155.75231697480194,63.169064244953915 156.03393131913617,62.2254889413598 156.62062786961906,61.389748093730304 157.18385655793827,60.500085672334535 157.6532137983013,59.610420353594236 157.8409566943301,58.72075213750941 157.16038869589102,57.99283962382469 157.9817638664972,57.23796533877612 159.06128551927395,56.91444714940735 160.0,56.32132947386708 160.6805679985555,55.40469053326524" stroke="#4dd2ff" stroke-linecap="round" stroke-linejoin="round" stroke-width="0.5"><title>2023-12-17 16.0km</title><desc>9223370334074632807</desc></polyline><polyline fill="none" points="44.8533329560305,129.57230570992397 43.93475091364235,129.13712202964234 42.92146969155874,129.2459181107988 42.46691362938145,128.82161278696003 42.27751527004875,127.64660490337701 42.040767321013846,127.1678943963343 41.69038035639096,126.92853836304857 41.368403145635966,127.2114136192613 40.55399020080222,128.3211479976817 39.31343094765907,130.8452081113428 39.09562283451669,130.74729306391237 38.89675455732504,131.03015851917735 38.072871694515925,133.61943164372497 37.23951891378965,134.70734338159673 36.28305719955824,135.1642631097493 36.27358728158288,135.49063318462868 36.47245555877453,135.74084958764433 36.311466953426134,136.20864394806995 35.65804261394078,137.14422671376087 35.582283270254266,137.72080283581454 35.7622117116116,139.53754183986894 34.31331426324323,140.39694686615985 32.46668026043335,142.22452009479457 31.917425018560607,143.24707761315221 30.67686576541746,144.86792063307075 30.686335683451034,145.9339654696305 30.326478800794575,146.48873982764053 29.322667496744543,146.73893127200427 29.010160203964915,147.0 29.30372766079381,146.7062976375164 29.881392656592652,146.673663993417 30.47799748822581,146.33644910532166 30.629516175657045,145.9665993326562 30.582166585838422,145.16162789215014 29.97609183617169,144.9223109252489 29.66358454345027,145.8360638226004 27.968469228071626,146.49961772833922 27.665431853267364,145.5641143469402 27.438153822091408,145.30304221936967 26.964657923963387,145.04196947362652 26.11236530728638,144.91143286894658 25.544170229462907,144.25874752757954 24.86233613616787,143.87801262758148 24.739227202662732,144.0520630307292 24.957035315805115,144.41104111946333 25.714628752844874,144.83528644486069 26.140775061154272,145.281286180827 27.42868390417425,145.5206023686187 27.608612345473375,145.73816208863718 26.746849810821004,145.40094433964987 26.92677825212013,145.06372555938287 27.646492017258424,145.41182234763255 27.883239966409747,146.5213735264988 28.205217177106533,146.49961772833922 29.559415445837658,145.85781975164718 29.80563331284793,145.61850429572223 29.871922738617286,145.05284751702857 30.354888554720674,143.97591601317254 31.718556741368957,142.26803337388992 32.83600706100697,140.37518985953648 33.83034844708163,139.57017759613518 34.54059229436098,139.30909127537598 34.853099587140605,138.99361114620115 35.00461827451363,138.31913335904392 34.711050817684736,137.3509241608699 35.36447515711188,136.0019443591882 35.26030605955748,135.46887520966266 35.78115154750412,134.50064097759605 36.85125227732351,134.17426797162625 37.52361645270139,133.2712976199109 38.25280013581505,131.32390264668356 38.30961964360904,131.23686743123835 38.35696923342766,131.43269656929624 38.83993504953105,130.46442688271054 38.319089561584406,130.46442688271054 38.072871694515925,130.29035502580518 40.2130731541547,125.97110903145222 40.894907247507945,124.90487112270057 41.21688445826294,124.97015129112697 41.4915120791411,125.34007151512924 41.567271422885824,125.26391157052421 40.951726755301934,124.92663118313067 40.94225683732657,124.71991043550224 42.81730059394613,121.48848833961529 43.96316066751024,119.92170412114501 44.446126483613625,119.57352682489727 44.66393459675601,118.81188515361282 46.48215884563979,115.9720033656049 47.42915064195404,114.76421536191629 47.8931766221649,113.99165933507174 48.06363514548866,112.7076809964492 50.49740406195633,109.05152510510379 51.63379421754507,105.25378230895876 51.576974709751084,104.92732266162784 51.065599139779806,104.72056438446452 51.12241864751559,104.88379463552701 51.64326413546223,105.01437866219203 52.00312101806048,103.84999895982764 53.3857290406595,101.26002613218589 53.46148838434601,100.68325918504706 54.12438264180673,99.74736676779867 54.42742001655279,98.43057443355065 54.910385832656175,97.70143471479969 55.26077279733727,96.34108651222778 54.89144599676365,94.43657079411787 54.47476960642962,93.63122280892276 53.66982657951303,93.0 53.46148838434601,93.0 52.552376259933226,93.64210592908785 52.31562831084011,95.16573213216907 51.823192576819565,96.66757161350688 50.64892274932936,97.70143471479969 50.44058455416234,97.70143471479969 49.7587504608091,97.17906299261085 48.641300141229294,96.77639976549835 48.14886440715054,97.26612511840358 47.45756039582193,96.99405574677075 47.23975228267955,97.05935245727596 46.11283204506617,96.30843794882821 45.478347541589756,97.0375868914125 45.118490658991504,98.1802732832366 44.66393459675601,98.56116611216567 44.26619804237271,98.38704383958247 43.887401323823724,97.84290996308118 42.70366157841636,97.52731108271837 42.34380469581811,97.77761371723318 42.00288764917059,98.51763556984224 41.936598223401234,99.30118269925151 41.57674134086119,99.08353127812006 41.54833158693509,99.59501143544185 41.83242912584683,99.73648425103602 41.5199218330672,99.66030660369142 41.35893322771881,99.79089682401536 40.88543732953258,100.5526700229093 40.76232839602744,101.02061380386294 40.336182087659836,101.52120262407698 40.250952825997956,101.9456131023253 39.976325205061585,102.10884746616648 38.830465131555684,104.63350815165177 38.29067980765831,107.82189778931934 38.489548084908165,108.10482210434566 40.07102438469883,108.64890528303658 40.65815929841483,109.12769625724468 42.826770511921495,110.32466458800627 43.328676163975615,110.12879793298634 43.20556723047048,109.20386735670763 43.42337534361286,107.64779015733802 43.63171353877988,107.60426320635452 44.21884845249588,107.94159662667516 45.96131335769314,109.16034102060075 45.203719920653384,112.64239356249163 44.14308910880936,114.57923765158193 43.86846148787299,114.77509639404889 43.413905425637495,114.52483238356217 42.85518026584759,114.66628602455603" stroke="#4dd2ff" stroke-linecap="round" stroke-linejoin="round" stroke-width="0.5"><title>2023-06-22 16.9km</title><desc>1687415245000</desc></polyline><polyline fill="none" points="102.24840415666404,147.0 101.9908776893717,146.79498755899112 101.84428570031014,145.6560129076097 101.84032375465904,145.42365861374128 101.95125823286071,145.3780988105682 101.83636180900794,145.28242307696928 101.70957954818732,143.9702786410453 101.77693262424145,142.42117103107375 101.55506366780901,142.30726399938067 101.55110172217246,141.91542165472492 101.65411230908649,140.90390620779 101.63826452648209,140.38902718335157 101.68976981993183,140.27967160368644 101.70957954818732,138.68942981268992 101.73731316774501,138.61196677270345 101.90767683071317,138.59374015608046 101.9750299067673,138.0833919557117 101.93144850461977,137.26773440334728 102.0067254719761,135.18979275548554 101.92748655895412,134.62927924402175 101.24999385274714,132.61046252827873 100.52891974433442,132.47374487054185 97.05429340884439,131.53949665206528 96.84827223503089,131.179464217621 96.52339269169897,130.81031410786818 96.47981128955144,130.63257410801816 95.72307967027882,130.4548334203464 95.75081328983651,129.8805895747828 95.69930799640133,129.7028459770263 95.53686822470627,129.49775635563856 94.67712601854873,128.8915972322502 94.031328877536,128.63181230167538 93.2349778017815,128.41304490452967 92.8387832367298,128.2626417144893 92.78727794326551,128.18060340321244 92.89821242149628,128.0256417487144 94.08679611663683,127.30096118859001 94.40771371431765,127.25538341261927 94.89107108367898,127.00926264072768 96.38868653957616,125.90170284201304 97.2048473435716,125.19066271773045 97.94176923455962,124.05115237542122 98.10817095189122,122.8158912173567 98.08439927798463,121.94070452365486 97.9813886910706,121.43017124667313 97.48614548475598,120.19028107619306 97.42275435435295,119.6979624540545 97.52576494126697,119.10534970107983 97.07014119146334,118.84550938861139 97.10579870230868,118.27567899136557 96.99090227844135,118.12524258599296 96.67394662641163,117.99304048934209 96.8245005611243,117.33658305835706 97.35540127828426,116.6345279141533 97.46237381084939,115.69539839485515 97.54953661517357,115.58142505795331 97.86649226721784,114.56477036707292 98.42908854957204,113.59368453759089 98.51228940823057,113.34749049788297 98.591528321238,112.60434121697108 98.54794691909046,112.35814186795687 98.31419212570472,111.89765435352092 98.29438239746378,111.25934718394274 97.91007366936537,110.80796746705528 97.90611172369972,110.1559667008878 97.43067824564059,109.6908975542101 97.33162960439222,109.52219483547378 97.30389598483453,109.23494283253967 97.37521100655431,108.81546048524979 97.29597209353233,108.63307565929063 97.07014119146334,108.47348834162403 95.71911772464227,108.41877256200314 95.44574347474554,108.34125842915091 95.28330370307958,108.16343139403398 95.12878782270127,107.79865583078572 94.78013660546276,107.64818506567826 94.46318095341849,107.06453621438777 94.26112172525609,106.93686203798279 94.15018724703987,106.98245999894061 93.90454661671538,106.87302481649385 93.27459725827794,106.21184836719476 93.06857608444989,105.76497888525773 93.02103273665125,104.15986074942339 92.20090998699015,103.10191125451456 92.08601356313739,102.8784619023645 92.05431799792859,102.54100571437812 92.17713831308356,101.04066367046107 92.4465506173292,100.2061056565035 93.05272830184549,99.37609299813994 93.31025476912328,98.64639912503117 94.32847480131022,97.83460103960897 94.69297380116768,97.0182277895583 95.18425506181666,96.4572477965994 95.6240310290159,95.55419240701303 96.04795921363984,95.27597478682947 96.76507137635781,95.1482677725653 97.12957037621527,94.8563646891198 97.52180299560132,94.40026239840154 98.36173547351791,94.0034497122324 99.02338039716415,93.46523850826998 100.23969771186239,93.04561182733596 101.38470000484085,93.0 102.06219271107693,93.16876353432235 103.15965165627131,93.62031696120175 103.63112318867934,94.04449945983652 104.25711060146568,94.43675074872954 105.005918329407,95.22580421652674 105.35853149228205,95.70470287448188 106.13903478543216,97.17329421843897 107.00670088290644,98.44117063005615 107.30384680668067,98.72392965063045 107.94568200205686,99.15718605598522 107.28799902409082,98.66008099201645 106.93142391553556,98.276987172394 106.65408772000228,97.90757224219851 106.59862048090145,97.69321900395516 106.49560989400197,97.620247460065" stroke="#ff1b00" stroke-linecap="round" stroke-linejoin="round" stroke-width="0.5"><title>2023-04-05 21.2km</title><desc>1680651232000</desc></polyline><polyline fill="none" points="177.02911777974805,114.49428091770096 177.24774010793772,114.97868032442057 175.82669497461757,117.74152633201447 174.29633867711527,117.32889615472232 173.01583646901418,117.47241980089166 172.31312184256967,117.23919381831365 171.82902954437304,116.43187079815834 171.1887784403516,114.0457617972861 170.50167969457107,113.68694570401567 169.9551238740096,114.24311034665152 168.5028469794779,116.25246519551729 166.8163318761508,119.85848381400865 166.51963014499051,120.07376624448807 166.238544294436,119.91230444553366 165.70760435442207,120.70167187687184 165.97307432448724,120.97077362671553 164.59887683280976,124.57669863603951 163.20906346058473,126.37066453033185 161.61624364071758,127.24970135530748 162.16279946122086,128.03903692269523 160.75737020850647,130.2814488123404 160.5387478803168,131.19634491813486 160.7886019696598,134.3715368600533 158.3525245981291,135.89632683935633 155.60412961494876,138.69473164684314 152.37164233345538,143.233078643505 152.37164233345538,145.08067363139708 152.01247707993025,145.72643055890512 149.91994908131892,146.39012278908922 149.2328503355966,146.94618738722056 149.42024090257473,147.0 149.90433320082957,146.39012278908922 151.51276890118606,146.04930816266278 152.13740412465995,145.65467990240722 152.35602645284962,145.13448679630528 152.16863588587148,143.64565002609743 151.18483540887246,143.37658183930034 151.05990836420096,144.29141205004998 150.74759075249312,144.721918791809 147.98357988864882,145.85199413965165 147.4994875904522,144.36316324444488 147.1247064563213,144.0223448187753 146.45322359108832,143.57389854858047 145.0634102189215,143.2868923551723 144.3138479507179,142.71287860936718 144.22015266725793,142.372057090397 142.7522598921205,141.81597850368416 143.01772986206925,142.49762298750284 143.54866980202496,142.60525083031098 144.65739732363727,143.52008492180903 146.5469188746065,144.18378520531405 146.93731588928495,144.7398565505864 146.6249982775189,145.08067363139708 146.2970647853217,144.25553644215688 145.98474717355566,144.12997175903 146.10967421822716,143.59183642061544 146.84362060582498,143.73533933328872 147.56195111275883,144.5425411066244 147.9523481274373,145.88786943245213 150.70074311073404,144.84748306618712 151.07552424480673,144.48872776651115 151.1692195282667,143.44833339472825 151.88755003525876,141.88773067496368 153.2773634074838,140.27329997249763 155.76028842077358,136.1833446994424 156.54108245007228,135.30435107198718 158.86784865747904,134.03069970403158 159.5080997615587,133.3490234750352 159.64864268683596,132.47001614354667 159.18016626918688,131.33985761496297 160.24204614915652,128.8821870382526 160.02342382090865,127.78788506850833 160.22643026855076,127.41115663657547 160.56997964141192,127.39321716796258 160.44505259674042,127.14206442143768 160.9135290143313,126.1553895578254 162.7718188041472,125.41986481155618 164.02108925109496,123.67970904929098 165.02050560864154,120.82725274303812 165.25474381743697,120.8093126245949 165.89499492151663,119.51761944429018 164.9580420862767,119.40997793155839 164.69257211632794,118.99735154214432 169.2836410087766,110.36786325488356 169.7365015457617,110.29609864047961 170.51729557517683,110.76256812734937 169.29925688938238,110.02698108421464 171.87587718613213,105.75692919343419 171.42301664914703,105.0751469128736 171.17316255980404,103.87305087101413 168.94009163585724,102.45564382866723 170.79838142567314,99.01076036680024 170.34552088868804,98.47249142582587 168.128065845347,97.21652436174918 169.61157450109022,94.20216798273032 170.4079844109947,93.16148571390659 170.92330847040284,93.0 172.48489652900025,93.37679977588414 173.59362405072898,93.23325709624623 174.34318631887436,93.68182759346382 173.65608757303562,95.06341776585032 173.0002205884084,94.9378190934367 171.23562608211068,96.08614658056467 170.84522906743223,97.23446680950292 170.7359179033665,98.27512574783759 170.92330847040284,98.27512574783759 173.34376996132778,95.52992636038107 174.26510691596195,93.96891213048366 174.2026433935971,93.66388479489251 173.60923993127653,93.25119993742555 172.1413471561391,93.3588569470885 170.70468614221318,93.0 170.26744148571743,93.21531425329158 169.15871396410512,94.90193374254159 168.97132339706877,95.78112279970082 167.65958942781435,95.78112279970082 167.50343062187312,96.30145717631967 167.9719070395222,97.07298471590912 169.06501868052874,97.86245136482466 170.6890702616074,98.54426071007038 173.28130643896293,95.22490164573537 172.12573127553333,95.02753243976622 171.3605531268404,95.42227063719474 170.79838142567314,96.13997425339767 170.3142891274765,97.61125780317525 169.84581270994386,97.5036033133365 170.01758739637444,97.18063946090115 169.5803427399951,96.44499743178312 170.32990500814049,95.22490164573537 170.70468614221318,94.90193374254159 171.78218190261396,94.66867878875928 173.53116052836413,94.54307984340994 173.999636945955,94.05862595519284 173.92155754298437,93.46651389304316 173.07829999132082,93.26914277680044 173.45308112545172,93.46651389304316 173.60923993127653,94.30982442887034 173.9527893041377,94.61485067990725 173.64047169248806,95.00958977403934 172.98460470780265,94.88399106438737 171.23562608211068,96.01437632524176 170.59537497808924,98.61602996599686 170.75153378391406,99.17224073816033 171.2668578433222,99.08252943851403 172.56297593197087,99.69256540293281 173.85909402067773,100.51790491816064 173.81224637891864,100.84086283834768 170.033203276922,106.83342232278665 169.31487276998814,108.43020871907356 168.83078047184972,109.00433073547902 168.48723109887214,108.96844816263183 168.95570751652122,109.21962602398708 168.31545641238336,110.24227516113024 169.1274822029518,110.40374555143353 169.0494028000394,110.56521579828404 169.39295217290055,110.17051049714792 169.87704447109718,110.3499221039092 169.0806345611927,111.40844697854482 169.377336292353,110.92403805536742 169.17432984471088,110.61903918204189 169.377336292353,110.1525693267613 170.01758739637444,110.42168669703824 170.32990500814049,110.83433255746786 170.1112826798926,110.99580242174852 170.3142891274765,111.46227011254814 171.34493724623462,112.21579231439682 172.7972141408245,114.69162898005743 173.999636945955,114.99662101842114 174.73358333355282,116.10894058595295 176.56064136215718,116.19864348020928 176.93542249622988,116.57539515274402 175.6861520492821,117.7953475904651 174.10894811007893,117.22125334567681 173.0939158719848,117.45447935133416 172.37558536493452,117.32889615472232 171.67287073860643,115.89365345900296 171.57917545503005,114.53016239956196 170.860844948038,113.68694570401567 170.39236853038892,113.68694570401567 168.4247675765655,116.27040576371655 166.66017307020957,119.9840652627754 166.30100781668443,119.93024465253984 165.70760435442207,120.55815078067826 165.9886902049766,121.00665382988518 164.6301085939631,124.5587588877097 163.33399050525622,126.29890623448591 161.63185952132335,127.24970135530748 162.10033593897242,128.12873392943584 160.80421785026556,130.24557043984532 160.5855955220759,131.12458852722193 160.80421785026556,134.42535319464514 158.52429928461788,135.69900179776596 155.65097725664964,138.4435945131263 154.12062095914735,140.9728883702337 152.46533761697356,143.0716374128824 152.3247946916963,143.57389854858047 151.9968611993827,143.64565002609743 151.27853069239063,143.21514073607977 151.8719341547112,141.81597850368416 153.19928400451317,140.39886731903243 156.01014251011657,135.95014272266417 157.3999558823416,134.6406183738727 159.02400746342028,133.9948220715014 159.52371564210625,133.49253447253432 159.69549032865325,132.48795511118078 159.22701391100418,131.1604667262145 160.24204614915652,128.64897569541063 160.05465558206197,127.62643012184708 160.9135290143313,126.19126873761707 162.70935528184054,125.50956311068148 163.58384459465742,124.43318059963349 165.06735325040063,120.77343238242611 165.25474381743697,120.82725274303812 165.91061080206418,119.78672294718854 165.95745844382327,119.1588141539396 166.61332542845048,118.62060489025316 167.05057008488802,117.66976462939056 166.72263659257442,117.52624113905767" stroke="#ff4a00" stroke-linecap="round" stroke-linejoin="round" stroke-width="0.5"><title>2023-01-01 20.1km</title><desc>1672559967000</desc></polyline><polyline fill="none" points="59.328295832383446,164.314932832669 57.02181661617942,163.3080026402895 55.3150219960371,163.65247918380192 54.20791197218932,163.3345008516626 53.53903299954254,162.46005849612993 52.54724693659227,158.56478066919954 51.55546087352559,158.0878039894742 50.863517108606175,158.6442767000408 48.64929706102703,161.8240986301971 45.99684596224688,167.36219856195385 45.120383860194124,167.38869637306198 44.636023224680685,168.13063402374974 44.843606354203075,169.08455084721209 42.260349631891586,175.39091568344156 40.761138141388074,177.00722904040595 38.50078850938007,178.14659162511816 39.07740831351839,179.33894264083938 37.163030563970096,182.78348249787814 36.840123473783024,184.32026294770185 37.439808069961146,187.49978078179993 37.278354524751194,188.69209026329918 33.933959661168046,190.67926096732845 29.413260397384875,195.1569650528254 24.731107588275336,201.8866283959942 24.800301964743994,204.483067594585 24.385135705815628,205.22490275505697 23.485608811490238,205.88725384543068 21.386712724692188,206.20518178856582 20.717833751928993,207.0 21.225259179482237,206.31115768602467 23.393349642748944,205.86075983315823 24.47739487455692,205.0924323409854 24.754172380431555,204.32410265071667 24.638848419650458,202.5224933778809 23.485608811490238,201.8866283959942 22.97818338382058,201.99260599754052 22.586081917164847,203.76772460632492 21.202194387326017,204.40358513439423 22.72447066998575,203.63525347341783 22.908989007468335,202.1780666995619 24.1314229919808,199.47562666310114 25.722893651225604,197.83295374421868 29.528584358165972,191.6330976819445 31.558286068378948,189.46046467928682 34.34912592021283,188.13567983082612 35.22558802226558,187.15533483491163 35.3639767752029,185.8040426222724 34.71816259471234,183.97581292199902 36.263503669644706,180.3193161758536 36.078985332278535,178.7295194499602 37.32448410906363,176.45079439284746 39.90774083137512,175.52340075097163 41.47614669834729,173.48312346247258 43.36745965562295,168.68708591605537 44.659088016836904,166.91173537200666 44.24392175790854,166.30228397075552 45.07425427576527,165.5338432752178 46.412012221175246,162.85753264723462 50.28689730446786,157.6108264621289 51.00190586165991,155.808903709898 50.35609168105293,155.46441710050567 50.35609168105293,154.93443683820078 49.687212708289735,154.98743491145433 49.59495353978127,154.2454609326378 50.63286918704398,153.31799057481112 51.32481295184698,153.58298243262107 51.20948899106588,155.01393394422485 52.63950610521715,155.8884005570435 54.23097676434554,158.56478066919954 54.20791197218932,158.82976734722615 53.146931532770395,159.06825513378135 52.916283611091785,159.57172865403118 53.400644246605225,162.27457035754924 54.069523219252005,163.1225150876271 55.56873470987193,163.67897736118175 57.16020536911674,163.28150442638434 59.166842287173495,164.26193660093122 56.97568703175057,163.28150442638434 55.33808678819332,163.67897736118175 54.023393634939566,163.25500620974344 53.30838507786393,161.77110190675012 52.708700481569394,158.82976734722615 51.76304400304798,157.90231282950845 50.840452316449955,158.53828198695555 48.856880190433,161.45312134598498 46.15829950745683,167.07072246656753 45.85845720930956,167.49468759150477 45.14344865223393,167.2297094668611 44.866671146359295,167.70666990304017 44.589893640368246,168.47510437876917 44.912800730671734,168.84607195912395 42.813904643873684,174.38402703401516 40.83033251785673,177.00722904040595 38.52385330153629,177.98761108960025 38.385464548598975,178.5175458418671 39.10047310567461,179.25945273789694 39.00821393704973,179.76288839257904 36.88625305797905,183.2339190582279 37.34754890121985,187.71174729880295 37.11690097965766,188.79807307201554 34.464449880993925,190.25533245119732 30.059074577875435,194.28262633437407 24.7080427960027,201.78065075262566 24.569654043065384,205.01295006118016 23.485608811490238,205.86075983315823 21.0638056343887,206.44362749901484 20.78702812839765,206.89402437437093 21.363647932419553,206.28466371560353 23.18576651334297,205.9137478551129 24.523524458752945,205.06593825027812 24.500459666596726,202.31053855118807 23.462544019217603,201.8601339890447 22.955118591780774,201.91312280026614 22.678341085789725,203.58226500204182 21.133000010973774,204.32410265071667 22.632211501477286,203.66174770519137 22.83979463088326,202.25754981831415 24.154487784137018,199.4226373709098 27.56807702430524,195.13046998195932 29.80536186415702,191.23566612935974 31.90425795095507,189.19550823248574 34.39525550440885,188.02969676052453 35.156393645796925,187.18183069265797 35.410106359631754,185.56557858473388 34.741227386984974,183.97581292199902 36.286568461800925,180.39880576508585 36.286568461800925,178.27907533285907 37.30141931702383,176.47729130700463 39.97693520784378,175.47040673182346 41.130174816004,173.98656994863995 42.02970171032939,172.42323303726153 43.27520048711449,168.6605882330041 43.41358924016822,168.39561125915498 43.59810757741798,168.7665789493767 43.80569070682395,168.60759285921813 44.52069926389959,167.38869637306198 44.7513471855782,166.59376090046135 44.17472738143988,166.32878188652103 45.46635574253742,165.00388289336115 46.34281784470659,162.85753264723462 47.8420293352101,160.71116523942328 50.171573343803175,157.95531031687278 51.00190586165991,155.94139844190795 49.664147916133516,155.11993004905526 49.641083123977296,154.13946448249044 50.563674810458906,153.23849296639673 51.27868336753454,153.4504865363415 50.863517108606175,154.2454609326378 51.16335940675344,155.01393394422485 52.80095965031069,156.1798887947807 54.23097676434554,158.53828198695555 54.3001711408142,158.80326869120472 53.216125909239054,158.96226058810134 52.939348403248005,159.3862385196262 53.46983862307388,162.03608541958965 54.20791197218932,163.20200976880733 55.176633243099786,163.67897736118175 57.114075784687884,163.3080026402895 59.166842287173495,164.26193660093122 56.88342786312569,163.3345008516626 55.038244490046054,163.59948282127152 53.838875297573395,163.09601685541566 52.77789485803805,159.01525786618004 51.809173587244004,157.98180905659683 51.117229822441004,158.32629243523115 48.94913935905788,161.21463567827595 45.99684596224688,167.25620729115326 45.3279669896001,167.28270511273877 44.405375303002074,168.63409054742078 44.72828239342198,169.00505790807074 42.44486796925776,174.91396889922908 40.66887897264678,177.0602227562049 38.47772371722385,177.98761108960025 38.93901956058107,179.57741220860044 36.86318826582283,183.41939271634328 37.163030563970096,188.71858596938546 33.58798777870834,190.83823398844106 29.459389981580898,194.86551912958384 24.7080427960027,201.70116749269073 24.754172380431555,204.16513761278475 24.200617368565872,205.35737310387776 21.409777516848408,206.1786878077255 20.671704167616554,206.86753046140075 21.548166269785725,206.20518178856582 24.29287653719075,205.27789090242004 24.684978003962897,204.50956174271414 24.54658925102558,202.39002163076657 23.393349642748944,201.83363957953406 22.93205379950814,201.99260599754052 22.539952332735993,203.74123038494145 21.0638056343887,204.32410265071667 22.72447066998575,203.55577076238114 22.793665046570823,202.20456107507925 23.99303423904348,199.66108910331968 27.383558686939068,195.3424304756336 29.851491448353045,191.1296842826414 32.61926650791429,188.71858596938546 34.049283621949144,188.1886713502172 35.087199269328266,187.26131825029734 35.410106359631754,185.9895145050541 34.879616139805876,183.2339190582279 36.19430929317605,180.53128836143878 36.286568461800925,178.33206879755016 37.32448410906363,176.45079439284746 39.74628728616517,175.6823827456974 41.79905378865078,172.87368697929196 43.36745965562295,168.60759285921813 43.482783616520464,168.39561125915498 43.55197799310554,168.8725696238689 43.736496330355294,168.71358359639999 43.89794987544883,168.15713175898418 43.55197799310554,167.38869637306198 44.72828239342198,166.54076511863968 43.0676173575921,166.5672630108602 43.0676173575921,165.5603412669152 49.5257591631962,153.37098896724638 50.1023789672181,153.0 51.301748159807175,153.50348490275792 50.93271148507483,154.32495824273792" stroke="#ff2800" stroke-linecap="round" stroke-linejoin="round" stroke-width="0.5"><title>2022-05-22 20.9km</title><desc>1653205192000</desc></polyline><polyline fill="none" points="109.30910820129793,156.59388488977856 109.37192269664956,156.46398697473342 108.85684383532498,156.05985938991944 108.39201657020021,156.0165599395841 107.99000380036887,155.6124311180174 107.01009767397773,155.3526334285998 105.8543109606835,153.4041360427218 104.97490802663378,153.0 104.45982916536741,154.4722044923692 102.92715548037086,156.37738830060698 102.16081863787258,157.6763630272617 101.9472493539215,158.4124435831618 101.26885280484566,159.07635620019573 101.44473339163233,159.4083113783272 100.94221742934315,160.47633596882224 100.8417142368271,160.28871059212543 100.75377394346287,160.4330378263403 99.78643071604893,162.92987642915978 98.99496807542164,164.02674002497224 97.41204279428348,164.73392403380421 96.83414943766547,165.9606636925164 96.78389784140745,166.9997762945277 96.0803754942608,168.54399943897442 96.44469956686953,169.64082092764147 96.21856738388306,170.65104396895913 94.74870819417993,171.38705921944347 93.5803585818503,172.44056479952997 91.16828196292045,176.26487060103682 90.67832889966667,176.6112178866897 89.14565521467011,176.53906226980325 88.76876824302599,176.76996011855954 85.51497738726903,180.47870687044633 83.86923761072103,182.83089829894016 81.14308851538226,190.4932964559266 79.14558756526094,193.8553896954254 79.34659395017661,195.2550366391515 79.09533596906113,196.55366616032552 78.36668782366905,197.6069905293698 76.77119964349549,198.3861571020243 76.30637237837072,198.96331485152768 75.84154511324596,201.97892707611027 76.34406107553514,202.36849924281705 80.33906297566136,203.71035099074652 81.8466108625289,203.8979206851509 87.90192820806988,205.94674323234358 88.64313925238093,205.94674323234358 91.64567212708062,207.0 93.49241828848608,203.73920788246323 95.82911751308711,204.8790505539655 95.8039917149581,204.50391343957745 94.57282760739326,203.99891965179995 93.73111337056616,203.3929248064378 93.99493425077526,202.6859276489413 96.05524969607359,200.10319471982075 94.48488731397083,201.80578355806938 93.50498118752148,203.29192542158125 91.87180431006709,202.52721353192464 90.94214977987576,201.63263983519573 94.79895979037974,196.9721109954262 95.47735633951379,195.65905594741344 95.99243520083837,193.65337769073085 96.6457059517852,192.54230667982483 97.78892976598581,191.44565688948205 96.50751406222116,192.80203832108236 95.30147575266892,196.09193253978447 94.64820500172209,197.24626385937154 93.8190536639886,198.0398613596626 93.2788490044768,197.9100002450432 92.62557825352997,196.91439453761268 92.28637997899204,194.73558160380344 91.6079834299162,193.36478862883814 91.67079792520963,193.10505798648228 92.78889594128123,192.32586329327023 93.22859740821877,191.7198201075953 96.78389784140745,189.12246373685775 100.5527675585472,184.40381502399396 102.97740707657067,185.25520326130209 106.50758171163034,185.99114503328747 109.2211679079337,186.85695414317888 109.83674996171612,186.8136638093565 110.590523905179,185.78912217041943 111.54530423349934,183.75444778351812 117.16092011204455,178.32851106437738 121.69612667168258,173.04668785877584 122.57552960567409,172.29624941521615 122.92729077924741,171.6179652014107 124.15845488681225,170.65104396895913 123.68106472265208,171.01183622122335 122.75141019246075,170.95410952066595 120.3518964725663,169.10684307249903 117.851879560214,168.34195247804746 114.69859189685667,167.01420836200123 100.61558205384063,159.20625179444323 100.57789335667621,158.78769891105185" stroke="#4dd2ff" stroke-linecap="round" stroke-linejoin="round" stroke-width="0.5"><title>2022-05-07 16.0km</title><desc>1651926428000</desc></polyline><polyline fill="none" points="151.31104969623266,188.4583006185494 150.8103768133442,188.29067715905694 150.06391906071804,186.99158630686725 148.9897481483058,186.46775481927762 148.46176583549823,185.3467466862494 147.03257233346812,184.69718511423707 145.76723541127285,183.30375726513012 145.34849081828725,182.16176130235544 145.32118138836813,179.07097619596607 145.17553109509754,178.52615043731203 143.4459338633751,176.37825220679952 143.03629241374438,175.48764741300693 143.33669614346582,171.3174212571539 143.7918533097254,169.8714248928227 145.33938767499058,167.6604790233905 146.02212342439452,165.84767834754894 148.24329039567965,164.18155078341806 149.19001730147284,162.11719264365092 150.2095693538722,160.98544613198465 150.9469239632308,159.3297209852317 151.575040852651,158.56472525616846 152.0666105922428,158.31321859688614 154.1603335569671,157.75780592917 155.81710564214154,156.09155034516152 157.2645054308523,155.5466056891455 158.59356435626978,154.3623893073236 160.31405844475375,153.56591769933584 161.53387965029106,153.1991195373921 163.1269297322142,153.02095996904973 164.25571950449375,153.0 165.6029847165919,153.2410393920145 168.27020571083995,154.22615117001988 169.7904306461278,155.48372727807873 171.30155243808986,156.47929770966584 173.36796597289504,158.86862833455234 175.69837066411856,163.10222137295204 176.96370758628473,164.90459051127254 175.5436172275804,162.94503655532026 173.07666538649937,158.54376639083785 171.34706815474783,156.58409404954728 168.26110256751417,154.22615117001988 165.55746899999212,153.2305594299396 162.24392482964322,153.12575975165237 160.48701816788525,153.54495783877792 158.83934922609478,154.26807061565341 157.24629914417164,155.5570854206453 155.88993078871863,156.08107066682715 154.0510958370869,157.8311624871858 151.9937854456075,158.36561586708558 151.3292559828842,158.80575190753734 150.30060078715906,160.91209177163546 149.18091415817617,162.1800670931989 148.32521868561162,164.1291564073399 146.04943285434274,165.82672093189467 145.28476881503593,167.79669977893354 143.83736902635428,169.81903334749222 143.41862443339778,171.09737961282372 143.03629241374438,175.32000331560266 143.31848985681427,176.2001318504117 144.96615879866295,178.11752926922054 145.24835624173284,178.68331200304965 145.3666971049679,182.28748623488354 145.72171969461488,183.23041844677937 146.97795347351348,184.58193990093423 148.3980438321887,185.31531637979788 149.10808901156997,186.53061473530397 150.13674420729512,187.0439693124208 150.55548880025162,187.9763824538095 150.95602710655658,188.30115363307414 153.85082668391988,188.4478241601537 154.8885850229999,188.74116460182995 155.18898875272134,189.14974457053904 155.28002018597908,189.5792756500232 155.17988560939557,190.9097632490084 155.52580505571677,191.45452497802762 156.41791310158442,192.2507101319352 156.5635633947968,192.76403684454272 156.4907382481906,193.9059179117612 157.41925886736135,195.12111720179382 157.4010525807098,196.37820517173532 157.9654474668787,197.50957152581395 158.04737575678155,198.13810314193688 157.81069403031142,200.0341508111742 156.37239738498465,202.63199500437622 155.47118619582034,205.16692641601549 155.28912332927575,207.0 155.43477362248814,205.17740121274983 155.64414591898094,204.9364806245503 156.33598481171066,202.6110449040425 157.77428145706654,199.981774261767 158.02916947013,197.93906853565568 157.35553686408093,196.33630248098052 157.42836201068712,195.1315929968041 156.45432567491662,194.01067702310684 156.45432567491662,192.50213577295654 156.26315966507536,192.1354731793108 155.32553590257885,191.3707156645396 155.1343698927667,191.0250015418933 155.16167932274402,189.1078390056282 154.77024415976484,188.67830600450543" stroke="#4dd2ff" stroke-linecap="round" stroke-linejoin="round" stroke-width="0.5"><title>2022-02-26 19.6km</title><desc>1645834127000</desc></polyline><polyline fill="none" points="58.56177892466076,230.58849174168427 56.80097776185721,227.55409425939433 52.79026400228031,226.2616607901291 47.75241623073816,218.3946111605037 45.0623033430893,216.37163796689129 44.47536962223239,214.9667912410223 45.60032592061907,213.8429113639868 43.49714675405994,213.33716469543288 41.78525673458353,216.14686272357358 44.81774762598798,219.01274042431032 42.27436816855334,224.0139434193261 37.48107611434534,229.2960651619942 32.443228343036026,238.6801392842899 30.486782606691122,240.75922459358117 31.318272044649348,241.7144774601329 29.410737451398745,246.09738182782894 28.774892586981878,245.2545182237518 28.38360343989916,245.76023653597804 24.959823400946334,255.59355886781123 21.63386564911343,260.1449248478166 16.106906443601474,262.1677424933878 15.177594718756154,265.25814446323784 18.35681904060766,266.8876223840052 18.503552470821887,264.9210105179809 22.807733091060072,263.1229594388278 25.204379118280485,260.5382510641357 27.503202858380973,256.94211554399226 31.660650048404932,245.98500008595875 30.829160610446706,245.31070916965837 31.318272044649348,243.6249783844687 32.58996177325025,242.27639016223839 34.15511836227961,242.55734630528605 40.90485615306534,229.1274875655654 45.40468134707771,223.1710471168626 47.067660222994164,223.05866084911395 48.63281681225635,224.800645508687 49.659950823755935,230.47610693832394 51.56748541677371,234.0162175896112 53.81739801377989,234.8029058558168 57.73028948670253,234.18479373824084 62.27902582404204,236.20770362683106 65.40933900210075,231.7123385562445 60.616046948125586,230.86945365346037 58.07266749069095,234.35336983687012 54.4043317346368,235.14005763700698 52.3500637114048,234.69052188441856 49.75777311064303,231.4875693707727 48.68172795558348,224.8568384734681 46.627459932351485,223.0024677066831 45.453592490404844,223.22724024247145 40.366833575768396,230.53229934273986 34.301851792726666,243.11925817554584 32.443228343036026,242.83830230985768 31.660650048404932,244.2430802519666 31.85629462194629,246.26595439884113 27.89449200546369,257.44782347406726 25.5956682653632,261.15633456909563 23.73704481567256,263.29152696882375 19.383953052107245,264.7524434707011 17.6231518893037,266.7752447461244 14.83521671476774,264.9771995227784 15.76452843961306,262.1677424933878 21.095843071350828,260.2011143239797 25.35111254849471,254.24499899736838 28.62815915676765,245.0859453532612 29.50855973828584,245.2545182237518 31.269360901089385,242.10781640990172 31.220449757762253,240.75922459358117 30.2422268895898,240.81541598308831 32.39431719947606,238.51156446692767 34.301851792726666,233.90383346297313 41.540701017482206,224.7444525382598 44.57319190911949,219.29370804980863 41.6385233043693,215.75350583461113 43.594969040947035,213.1685823726002 45.257947916863486,213.50574696820695 45.257947916863486,216.54021934093907 48.241527664940804,218.22603033552878 53.27937543625012,226.317853610788 57.0455334787257,227.32932343200082 58.757423498434946,230.41991452814545 64.92022756836377,231.1504154264112 64.87131642480381,232.72379879228538 62.230114680482075,236.3762791264453 57.6813783433754,234.35336983687012 54.991265455726534,235.02767373225652 52.10550799453631,234.69052188441856 50.05123997130431,232.61141441034852 48.486083382042125,224.96922438644106 47.60568280052394,223.56439888000023 46.04052621126175,223.05866084911395 39.82881099823862,231.26280009676702 34.00838493206538,243.40021390258335 32.58996177325025,242.66972872370388 31.85629462194629,244.74879946245346 31.12262747087516,244.58022644219454 31.024805183988065,245.8164274317678 31.758472335292026,246.49071774928598 27.943403149023652,257.3354439730174 25.644579408690333,260.87538760440657 23.345755668357015,263.62866187893087 18.60137475747615,265.3705224005971 18.55246361414902,266.831433567917 15.030861288541928,265.25814446323784 14.59066099789925,264.3591201659292 15.715617296285927,262.28012104076333 20.606731637613848,260.5944405012997 24.715267683845013,255.48117900075158 28.677070300327614,245.02975438541034 29.50855973828584,245.14213631581515 31.41609433130361,242.3325814018608 31.41609433130361,241.15256420325022 30.340049176244065,240.70303319848608 32.687784060137346,238.06203137658304 37.23652039724402,229.5208352127811 43.30150218028575,221.93479694915004 44.67101419577375,218.6755790907191 41.980901308357716,216.87738193920814 41.736345591023564,215.30395477148704 43.64388018427417,213.056194129691 45.6492370639462,213.89910541067366 44.768836482428014,215.02298517676536 45.30685906019062,216.65260689583374 48.290438808267936,218.33841755765025 53.0348197191488,226.20546796394046 57.19226690917276,227.55409425939433 59.442179506178945,230.8132612821064 64.92022756836377,230.92564601911 64.57784956414253,233.51048884465126 62.76813725824468,236.3200872989255 57.48573376960121,234.35336983687012 54.69779859506525,235.14005763700698 51.958774564322084,234.521945885499 49.95341768418439,232.2180688988883 48.3393499518279,224.800645508687 46.67637107591145,223.11485398578225 45.60032592061907,223.33962647733279 39.77989985467866,231.59995397471357 34.15511836227961,243.2878316284041 32.78560634679161,242.72591992467642 32.05193919572048,243.73736059194198 31.758472335292026,246.49071774928598 26.671713420422748,259.6392193136271 23.834867102559656,263.29152696882375 18.894841618137434,265.03338852204615 18.60137475747615,266.8876223840052 15.07977243186906,265.14576650375966 15.813439583173022,262.1677424933878 21.193665358470753,260.2573037946131 24.61744539719075,255.48117900075158 28.530336870113388,245.31070916965837 28.872714874101803,244.86118144821376 29.0194483040832,245.98500008595875 31.660650048404932,242.05162514792755 31.41609433130361,240.98399011814035 30.340049176244065,240.5344589802553 43.44823561073281,221.65383062732872 44.71992533933371,218.50699834915577 41.980901308357716,216.87738193920814 41.68743444769643,215.75350583461113 43.05694646341726,213.50574696820695 44.084080474916846,213.056194129691 45.6492370639462,213.8429113639868 45.55141477729194,216.7649944287259 48.82846138579771,218.95654688269133 53.377197723137215,226.48643203894608 56.60533318831585,227.16074525326258 58.757423498434946,230.58849174168427 64.87131642480381,231.1504154264112 65.21369442879222,232.1056844171253 64.23547156061977,234.07240964483935 62.76813725824468,236.43247094855178 57.48573376960121,234.35336983687012 54.69779859506525,235.19624958123313 51.90986342076212,234.63432989036664 50.05123997130431,232.49903000623453 47.996971947839484,224.2387155558099 46.72528221900575,223.11485398578225 45.257947916863486,223.56439888000023 40.02445557177998,230.98183837917168 34.44858522270806,242.8944934940082 32.443228343036026,242.72591992467642 27.84558086236939,257.8411515535554 25.693490552017465,261.212523945258 23.394666811916977,263.74104013777105 19.090486191678792,265.03338852204615 18.60137475747615,266.831433567917 14.786305571440607,265.08957751560956 16.00908415694721,262.1115532114636 21.82951022265479,259.5830297819921 25.008734544506297,254.86308933439432 28.677070300327614,244.91737243288662 29.06835944764316,246.09738182782894 30.731338323559612,243.00687584566185 31.660650048404932,241.99543388054008 32.05193919572048,242.50115508784074 31.318272044649348,242.16400766617153 31.36718318797648,241.04018148541218 30.2422268895898,240.70303319848608 38.8994992733933,227.55409425939433 41.19832301372662,225.19399614573922 44.62210305244662,219.23751453572186 41.6385233043693,215.97828123322688 43.839524757815525,213.0 45.6492370639462,214.12388154136715 45.11121448664926,216.59641312109306 46.72528221900575,216.98976942762965 49.219750533113256,219.34990155813284 53.621753440238535,226.82358874601778 56.849888905417174,227.04835977306357 58.65960121154785,230.53229934273986 65.21369442879222,231.31899242359214 63.35507097910158,235.4210173023166 62.27902582404204,236.48866276518675 57.6813783433754,234.35336983687012 53.91522030066699,235.19624958123313 51.61639656010084,234.5781378908432 49.855595397530124,231.76853083865717 48.43717223848216,225.02541733451653 45.84488163772039,223.1710471168626 40.46465586242266,230.41991452814545 34.057296075392514,243.40021390258335 32.78560634679161,242.7821111198864 31.269360901089385,244.86118144821376 30.92698289710097,245.53547289717244 31.954116908833385,245.92880920681637 27.943403149023652,257.44782347406726 24.910912257619202,262.0553639238351 23.394666811916977,263.74104013777105 19.090486191678792,264.9210105179809 17.86770760617219,267.0 14.884127858327702,265.25814446323784 15.813439583173022,262.1677424933878 21.536043362226337,259.9763563864399 24.568534253630787,255.53736893704627 28.62815915676765,245.0859453532612 29.0194483040832,246.09738182782894 30.43787146313116,243.4564050314366 31.660650048404932,242.7821111198864 31.220449757762253,240.98399011814035 30.388960319804028,240.81541598308831 33.127984350780025,237.3877310755779 37.285431540803984,229.85799012234202 41.68743444769643,224.6320665811072 44.71992533933371,219.01274042431032 41.83416787791066,216.82118818658637 41.58961216080934,215.69731197116198 43.594969040947035,213.056194129691 45.16012562997639,213.44955288275378" stroke="#ff0000" stroke-linecap="round" stroke-linejoin="round" stroke-width="0.5"><title>2022-01-27 21.8km</title><desc>1643277543000</desc></polyline></svg>