<?xml version="1.0" encoding="utf-8" ?>
<svg baseProfile="full" height="300mm" version="1.1" viewBox="0,0,200,300" width="200mm" xmlns="http://www.w3.org/2000/svg" xmlns:ev="http://www.w3.org/2001/xml-events" xmlns:xlink="http://www.w3.org/1999/xlink"><defs /><rect fill="#222222" height="300" width="200" x="0" y="0" /><text fill="#FFFFFF" style="font-size:12px; font-family:Arial; font-weight:bold;" x="10" y="20">Over 15km Runs</text><text fill="#FFFFFF" style="font-size:4px; font-family:Arial" x="10" y="280">ATHLETE</text><text fill="#FFFFFF" style="font-size:9px; font-family:Arial" x="10" y="290">Jason</text><text fill="#FFFFFF" style="font-size:4px; font-family:Arial" x="120" y="280">STATISTICS</text><text fill="#FFFFFF" style="font-size:3px; font-family:Arial" x="120" y="285">Number: 11</text><text fill="#FFFFFF" style="font-size:3px; font-family:Arial" x="120" y="290">Weekly: 1.0</text><text fill="#FFFFFF" style="font-size:3px; font-family:Arial" x="141" y="285">Total: 220.9 km</text><text fill="#FFFFFF" style="font-size:3px; font-family:Arial" x="141" y="290">Avg: 20.1 km</text><text fill="#FFFFFF" style="font-size:3px; font-family:Arial" x="167" y="285">Min: 16.0 km</text><text fill="#FFFFFF" style="font-size:3px; font-family:Arial" x="167" y="290">Max: 26.7 km</text><polyline fill="none" points="35.86415792055777,33.26863877375581 35.84649596149393,33.08610241295173 35.602172194528976,33.055105570576416 35.31074987007014,33.13431966452845 35.0311021849775,33.18253684454612 34.82210233612568,33.30996761871211 34.63076444633771,33.41328950112802 34.39821531873895,33.489058672734245 34.23042670766881,33.65092858373828 34.05675077694468,33.80590965772717 33.888962165874545,33.988441974575835 33.791821391074336,34.222632879304 33.612258140638005,34.41205075865582 33.45624416896317,34.5911357381774 33.29728653744678,34.725448825094645 33.1236106067081,34.85976135681631 32.94110369643022,35.00440500087643 32.805695343675325,35.19381832304498 32.64085039244674,35.33846048012856 32.43185054359492,35.35223589007728 32.211076055362355,35.3660112942016 31.981470587605145,35.37978669247968 31.740090480467188,35.43488822717336 31.604682127697743,35.63118668521565 31.48399207413604,35.83781536002425 31.372133000098984,36.01344870059984 31.222006348107243,36.18563732871189 31.00123185988923,36.25795628045307 30.812837629928254,36.35438129910108 30.71864051495504,36.56444909913989 30.647992678714218,36.740078512717446 30.49197870703938,36.87093902735069 30.318302776300698,36.984580625728995 30.171119784150505,37.108552825306106 29.98272555420408,37.18086972334277 29.747232766763773,37.211862630374526 29.57355683601054,37.36682672226743 29.42048652417725,37.570000745530706 29.273303532027057,37.786947876677004 29.055472703636042,37.90747343493422 28.822923576051835,38.02455497784467 28.610980067343917,38.162297429546015 28.484402694084565,38.38612766857841 28.24596624681726,38.42056295315342 28.0193044389016,38.4343370567658 27.94276928297768,38.62028688431019 27.936881963309133,38.84755745111761 27.81324824987678,39.05072221869341 27.618966700247256,39.18846032189322 27.40702319155389,39.34685841904138 27.192136023018975,39.47770843886974 26.98019251432561,39.60511453100844 26.76530534576159,39.718746570270014 26.550418177241227,39.82893483506996 26.356136627597152,39.9528961865326 26.17951703701692,40.09751716579558 25.9822918275313,40.20770414672734 25.782122958204127,40.29378746571456 25.605503367623896,40.414303729343374 25.408278158138273,40.507273113165866 25.181616350222612,40.49694319475384 24.963785521846148,40.59679893518478 24.80188423047366,40.78273639318286 24.77833495172672,41.04442434731027 24.769503972202074,41.32332629540906 24.766560312360525,41.59189628043532 24.83132082891825,41.82947557172156 24.90491232498607,42.07738254651122 25.01382773918158,42.301185830812756 25.149236091965577,42.463011861349514 25.331743002214353,42.57663391214737 25.54663017076382,42.7178001494467 25.770348318837932,42.85207966005328 26.041165024391375,42.88651021448459 26.244277553545544,43.01734598879921 26.191291676383116,43.282458969981235 26.300207090578624,43.49592499433129 26.54453085755813,43.623315341184934 26.738812407187652,43.812678448011866 26.912488337926334,44.02614099173661 27.044953030868783,44.2774741260655 27.136206486000447,44.528805317946535 27.336375355313066,44.71472029220604 27.50710762622475,44.938505425685435 27.63957231915265,45.18294588871868 27.801473610525136,45.406727800305816 27.96926222158072,45.62706540882209 28.09583959482552,45.87150069669951 28.24596624681726,46.08150701208069 28.416698517714394,46.28118389042356 28.58154346892843,46.48430221584567 28.740501100444817,46.714960471024824 28.852360174481873,46.95938758320699 29.06430368317524,47.110862618210376 29.314514769837842,47.19692766475782 29.558838536788244,47.27954989518912 29.73251446755603,47.45856400784032 29.800218643940752,47.73052587066195 29.844373541563982,48.002485459739546 29.938570656551747,48.257230354218336 30.15640148492821,48.42246921911283 30.36834499363613,48.5945921442144 30.48903504719783,48.83556270936606 30.606781440917985,49.09030108030129 30.727471494479687,49.32438323010865 30.84816154805594,49.54813665181791 31.013006499255425,49.77877318357423 31.17785145046946,49.99563887868135 31.345640061510494,50.21594540630031 31.48693573397759,50.46723071820088 31.7077102221956,50.61180494965447 31.904935431695776,50.81145402272523 32.108047960864496,50.99389089761462 32.35237172782945,51.08338785847809 32.599639154650504,51.16944239639997 32.83218828224926,51.3071291836859 33.029413491734886,51.517100412580476 33.21780772168131,51.72707028656805 33.33555411538691,51.98522811071962 33.509230046140146,52.19863703235751 33.62108912016265,52.44302294937734 33.538666644570185,52.72871120163836 33.4974554067594,53.00751298153409 33.48568076737865,53.296638230440294 33.42975123037468,53.5685512992859 33.38559633272234,53.83357830669047 33.359103394148406,54.11925435224475 33.33555411538691,54.41181155906452 33.32377947602072,54.70436613619313 33.33555411538691,54.97282566977083 33.359103394148406,55.251608226415556 33.276680918526836,55.526946679408866 33.21486406183976,55.802282803364506 33.2384133405867,56.063849963931716 33.2443006602698,56.34262317656612 33.155990864979685,56.59730279020732 33.03530081140343,56.82444779162324 32.949934675954864,57.07568208359589 32.87045586020395,57.33379748758671 32.78803338459693,57.59879383997031 32.64968137197138,57.82593185378573 32.47600544124725,58.03586103316411 32.43185054359492,58.28364455231349 32.49661106013809,58.538308981904265 32.4701181215496,58.792971419588866 32.33176610893861,59.02354244909293 32.17575213724922,59.21969860667741 32.20518873567926,59.45714921637045 32.364146367195644,59.64297892043396 32.48189276093035,59.883867699121765 32.50838569951884,60.141960841625405 32.50838569951884,60.40005193848265 32.51132935936039,60.66158216331678 32.514273019187385,60.91622799559991 32.55254059717117,61.17431295600909 32.6025828144775,61.4323958710811 32.637906732590636,61.70079993315812 32.64379405230284,61.97264281816388 32.64968137197138,62.26168846004293 32.64085039244674,62.52664471159369 32.63496307276364,62.79503975580519 32.637906732590636,63.05655074842434 32.67617431055987,63.32150053388614 32.7379911672615,63.5554803705345 32.796864364121575,63.80322189500657 32.84101926177391,64.04752071978146 32.823357302710065,64.29869929123743 32.77920240507228,64.54299440004615 32.7379911672615,64.79072841405286 32.71149822868756,65.02469769738673 32.83807560193236,65.23458047760141 32.99703323344875,65.41693654945266 33.07356838937267,65.63369809950018 33.12066694686655,65.87798319713693 33.16482184450433,66.1291476552833 33.179540143726626,66.38375074616852 33.34144143508456,66.5867436768458 33.5033427264425,66.77597323590817 33.64758205875114,66.96176118827134 33.86835654699826,67.04777377042046 34.1421169123787,67.07529774874274 34.3864406793582,67.05809526501253 34.633708106164704,67.00648775932132 34.85448259439727,66.8723078619696 35.07820074247138,66.77941376316812 35.254820333066164,66.81381901583518 35.48442580079427,66.91703455581592 35.69931296934374,67.04089277220191 35.92008745756175,67.1578695442222 36.161467564699706,67.23356017292099 36.39990401198156,67.29548873833846 36.64422777896107,67.32989344603993 36.876776906545274,67.35741718604913 37.01807257902692,67.5604040505641 37.09460773493629,67.78403218306266 37.14170629243017,68.02142036741498 37.241790727101034,68.22096272074123 37.4596215554775,68.32761416712674 37.703945322457,68.37921958036895 37.93649445004121,68.45490737196815 38.17198723748152,68.52715464540961 38.407480024936376,68.60284209339079 38.637085492679034,68.67508903883572 38.87257828011934,68.74389550462729 39.10512740773265,68.81614213734065 39.34062019515841,68.8574258555418 39.58494396213791,68.87118708333583 39.81454942988057,68.8883886098738 40.04121123779623,68.89526921796642 40.28553500477574,68.88150800034418 40.52985877174069,68.84710493090097 40.7682952190371,68.78173899888498 40.98906970725511,68.69573099382615 41.21573151517077,68.63380508961927 41.45122430261108,68.64756641183703 41.68377343020984,68.66820838426793 41.9163225578086,68.6922906689033 42.14592802555126,68.71637293574531 42.36670251378382,68.7404551847867 42.584533342174836,68.76109709837328 42.77881489181891,68.64412608183557 42.940716183176846,68.45834772196031 43.146772372187115,68.32761416712674 43.38520881946897,68.29321051288207 43.62364526675083,68.27944904102333 43.862081714047235,68.30697197893824 44.10051816132909,68.33793525630972 44.341898268452496,68.4205038521286 44.56561641652661,68.54091601265827 44.77461626537843,68.65788739968411 44.9777287945617,68.77141805025894 45.18084132371587,68.87806769503732 45.38689751272614,68.98127669635505 45.58706638205331,69.09824650269366 45.79017891122203,69.21177561908553 45.9874041206931,69.31842382268951 46.205234949084115,69.34250562680973 46.358305260917405,69.18081317201722 46.52020655228989,68.9950378718313 46.73509372083936,68.90214982458565 46.94409356969118,68.80926151255699 47.15898073822609,68.71981325812158 47.38564254614175,68.70605196642282 47.59758605483512,68.80926151255699 47.81836054305313,68.90903042975333 48.03030405176105,69.01911991493398 48.21869828172203,69.12576874904335 48.4041488518269,69.24961856998925 48.51012060618086,69.44915340258376 48.58665576209023,69.65900768422216 48.598430401456426,69.87574101559221 48.61609236052027,70.08215237208424 48.61609236052027,70.30576319967076 48.63375431958411,70.49841129775814 48.64847261880641,70.69793848459085 48.67202189755335,70.89746444991397 48.71323313534958,71.1141895455221 48.77504999205121,71.3205930586737 48.82214854953054,71.54419538959701 48.85452880781668,71.7712361868289 48.87513442670752,72.01203530424027 48.910458344820654,72.24595274347666 48.934007623567595,72.48330842918222 48.957556902314536,72.71378258603363 48.97227520153683,72.93737536002664 49.00465545980842,73.15064703840108 49.02231741887226,73.36735715332543 49.063528656668495,73.5737463995938 49.140063812592416,73.78013433920933 49.24309190707572,73.95212329077549 49.36378196065198,74.1034728175946 49.48447201422823,74.25138190357393 49.599274748092284,74.39585059554884 49.749401400084025,74.53687893925598 49.91719001113961,74.66758759113509 50.108527900927584,74.81893379652684 50.29103481120546,74.97027929936303 50.461767082088045,75.11130515830519 50.63249935299973,75.24201150728186 50.78262600499147,75.37615695217391 50.90625971839472,75.54125828051838 51.01517513257568,75.68916084390366 51.124090546771185,75.85426058731537 51.23300596096669,76.0227990464191 51.34486503500375,76.19133663437242 51.436118490135414,76.37363141206151 51.47732972793165,76.52496969853746 51.50382266653469,76.64191243883397 51.53620292479172,76.85172042167687 51.56563952322176,77.04776928394858 51.59507612166635,77.22661984950173 51.61862540039874,77.40890883959219 51.65394931852643,77.5292878026994 51.67749859725882,77.63246941740363 51.7304844744358,77.73909007628754 51.79818865083507,77.83539230726092 51.92770968392142,77.9488910001055 52.1161039138824,78.03143525588166 52.29272350446263,78.1242972938926 52.428131857246626,78.27218814188018 52.551765570635325,78.44415340087653 52.6165260871785,78.63331413847482 52.663624644686934,78.81903452252664 52.71955418169091,78.92565130219737 52.77842737855099,79.00475384899619 52.837300575411064,79.08385620392073 52.89323011242959,79.18015446403297 52.940328669923474,79.27645243981533 52.97270892819506,79.38650692112424 52.99920186678355,79.50000021602682 53.02863846521359,79.6134931159977 53.04630042426288,79.81640368023727 53.04630042426288,80.02275211198867 53.04335676442133,80.22909923831321 53.02863846521359,80.43888414519824 53.00803284632275,80.6452286390122 52.99920186678355,80.83437661166317 53.05807506364363,80.94098680383104 53.143441199092194,81.00976738807731 53.22292001484311,81.07510880876362 53.36421568732476,81.16452317233416 53.523173318841145,81.3227172152001 53.549666257429635,81.54281199865363 53.552609917271184,81.7594663507698 53.54672259758809,81.9589246409123 53.523173318841145,82.15838171155701 53.51434233930195,82.30969315857874 53.51728599915805,82.42317628327874 53.499624040094204,82.62950822593484 53.46430012196652,82.84959419309962 53.40542692512099,83.04904581843584 53.38187764637405,83.25193501384274 53.38482130623015,83.44794541115334 53.38776496605715,83.6439546308975 53.3907086258987,83.83308521786967 53.417201564487186,84.00502116377902 53.46430012196652,84.08067269293315 53.5202296589996,84.17695620365339 53.602652134606615,84.26292338383064 53.71451120864367,84.39015439483774 53.86758152046241,84.55177145021662 54.01476451262715,84.7030717978414 54.10601796775882,84.87500315949 54.15606018509425,85.043495014972 54.19138410320738,85.19479308260634 54.24436998038436,85.41830030799247 54.31796147645218,85.60742061068595 54.42687689064769,85.77590868442348 54.50635570641316,85.91001081525974 54.55051060405094,85.98221942667442 54.61232746075257,86.0888127991384 54.68886261667649,86.17477494267223 54.79189071117435,86.33294469515386 54.900806125369854,86.49799057606651 55.01266519942146,86.66303562228131 55.10686231438012,86.82464142127719 55.183397470304044,86.95530084391794" stroke="#ff0000" stroke-linecap="round" stroke-linejoin="round" stroke-width="0.5"><title>2024-02-08 26.7km</title><desc>9223370329467665807</desc></polyline><polyline fill="none" points="114.34001795068616,56.71395579352975 115.10717940487666,56.86650101670239 114.88588283152785,57.781769509703736 114.45804278977448,58.56143882207107 114.08921516762348,59.44279986868787 113.72038754547248,59.73093615261314 112.93847298633773,59.256358486105455 112.11229911266128,59.10381538611546 111.22711281944066,59.341104594190256 110.47470447019441,59.002119910903275 110.06161753332708,58.40889510474517 109.89933337958064,57.51057935372228 109.67803680623183,56.68005683668889 109.16167813516222,55.866479863456334 108.48303531034617,56.17157168018457 108.04044216376496,56.74785474372038 107.52408349263715,57.49362995476986 107.05198413622566,58.18855394044658 106.6241440945305,59.01906916091684 106.28482268209336,59.64619023690466 105.97500747948652,60.27330902250833 105.62093296216335,60.98517081436876 105.28161154972622,61.68008066932089 104.67673424939858,61.713978639105335 104.41117836139165,62.37498771202809 104.3226597320172,63.01904538691451 104.0275976343546,63.76479336101329 103.74728864146164,64.52748680271907 103.511238963285,65.35797136455949 103.15716444596183,66.15455482357356 102.68506508949213,66.83249528237502 102.09494089399232,67.5443298836908 101.43105117412051,68.06972972062067 100.6196304053301,68.37479985608661 100.6196304053301,69.01883502890996 100.64913661504397,69.73066056799144 100.29506209777901,70.49332751428301 99.69018479739316,71.22209498747543 99.36561648984207,72.0017032794567 99.39512269961415,72.83215169777395 99.55740685336059,73.69649170531193 99.69018479739316,74.56082736309327 99.49839443381643,75.39126340762596 98.74598608457018,75.86579648753104 98.03783704998204,76.27253808395471 97.3296880153357,76.79791122039023 96.7395638198941,77.408019942799 96.07567409984767,78.03507387149148 95.38227817020379,78.64517819948378 94.79215397470398,79.28917486136197 94.32005461829249,80.00095783644065 93.80369594722288,80.71273786203528 93.3020903810393,81.47535604506265 92.72671929042554,82.17018299753545 92.239866829128,82.93279471005371 91.6497426336282,83.59372212240123 91.62023642391432,84.42411449743668 91.6497426336282,85.27144951785158 91.22190259193303,85.94931452500168 90.45474113774253,86.32213913879241 89.54004863474984,86.52549767799792 89.12696169794071,86.91526753858489 89.77609831292648,86.3899253452837 90.63177839643322,86.27129946638888 91.41369295545155,85.86458154539287 91.6497426336282,85.03419613344886 91.60548331902828,84.11907286693167 90.94159359904006,83.81403069474618 90.4399880329147,83.93265827049618 90.35146940359846,84.83083582881954 89.65807347383816,85.33923613894149 88.84665270498954,85.69511546081048 88.12375056551537,86.1018337829737 87.31232979672495,86.13572693303286 87.09103322337614,85.20366287001525 86.98776148917386,84.37327426331467 86.13208140572533,83.9496050603484 85.26164821733255,83.84792429614754 84.47973365831422,83.50898798085109 84.02238740678877,82.84806024256977 83.25522595259827,82.54301581335312 82.6060893375543,82.22102388368512 82.70936107175658,82.71248500749061 83.3732507917448,83.08531664633483 84.110906036105,83.61066894566466 84.76004265114898,84.18685994273983 85.61572273465572,84.40716775436886 86.41239039856009,84.627475283487 86.44189660833217,84.91556931835657 85.61572273465572,84.4580079784937 85.92553793732077,83.7970838915353 86.69269939145306,84.22075347062491 87.01726769900415,85.01724945061142 87.28282358695287,85.79679513160954 87.8434415726224,86.05099404537759 88.64010923658498,85.55954247273621 89.4515300054336,85.23755619733129 90.23344456439372,84.91556931835657 90.4399880329147,84.13601963837573 90.76455634046579,83.305625870722 91.08912464795867,82.52606888471928 91.60548331902828,81.7804023703211 92.18085440958384,81.13641504838597 92.66770687088137,80.4246367784508 93.09554691257654,79.69590835113195 93.59715247876011,79.03496594115859 94.05449873034377,78.32317896306631 94.45283256226685,77.56054678479268 94.88067260407843,76.79791122039023 95.44129058974795,76.20474788472347 96.10518030973617,75.61158250062726 96.8133293443243,75.08620573538064 97.63950321800075,74.79809521410789 98.25913362327265,74.18797722064483 98.36240535747493,73.4253266810847 98.05259015480988,72.71351645528921 97.97882463037968,71.88306746332091 98.30339293793077,71.08651057547831 98.70172676991206,70.34079439597554 98.90827023831662,69.56117856438505 98.89351713343058,68.84935232288262 99.49839443381643,68.73071432911092 99.2328385458095,68.4595414641808 99.55740685336059,67.67991709226044 100.22129657334881,67.20536139389151 101.00321113230893,66.96808305293962 101.66710085229715,66.40878280921606 102.10969399893656,65.73084067774471 102.52278093574569,65.00204990131897 102.86210234818282,64.17156361814705 103.17191755078966,63.37497096037259 103.39321412413847,62.54447680807789 103.67352311697323,62.51057900224987 104.05710384412669,61.84957045127521 104.30790662718937,61.06991606920201 103.8063010610058,61.137712242940324 103.28994238993619,61.08686511515407 103.46697964856867,60.29025814709894 103.82105416583363,59.57839347427944 104.20463489292888,58.883475113645545 104.64722803956829,58.17160460843297 105.0160556617775,57.40888293486205 105.39963638881454,56.68005683668889 105.76846401102375,55.96817719595856 106.16679784300504,55.20544573407096 106.60939098964445,54.493559979237034 106.96346550690942,53.747771736831055 107.33229312917683,52.95113071759988 107.87815801001852,52.40873471699888 108.18797321256716,52.57823365124932 107.760133170872,52.12058614467969 108.23223252722528,51.45953759252734 108.61581325432053,50.71373617032077 109.01414708636003,49.96793150815938 109.47149333782727,49.20517338877835 109.89933337958064,48.52716332642012 110.37143273599213,47.84915058630577 110.78451967285946,47.06943262468849 111.2418659243267,46.425315115615376 111.6844590709079,45.74729407404084 112.17131153226364,45.03536909808463 112.73192951793317,44.52684945047076 113.11551024502842,43.865771656433935 113.38106613303535,43.17078969191061 113.86791859433288,42.47580491362896 114.34001795068616,41.83167016750667 114.82687041198369,41.13667996735603 115.2694635586231,40.44168695315602 115.69730360037647,39.712788817472756 115.43174771236954,38.9330338966829 115.59403186611598,38.13632412321749 116.00711880298331,37.644735396810574 116.4054526349646,37.000582520646276 116.86279888649005,36.23776677760179 117.36440445261542,35.54275392671116 117.45292308198987,34.661270164942835 116.89230509620393,34.25442997875507 116.31693400564836,33.864540561975446 115.78582222975092,33.57636085849663 115.10717940487666,33.186469901382225 114.39903037028853,33.11866268790618 114.16298069199547,33.762830133666284 113.83841238450259,34.47480186597386 113.5138440769515,35.18677064485382 113.10075714014238,35.83093032836041 112.55489225930069,36.390330197435105 111.97952116868692,36.55984494932636 111.2418659243267,36.44118464060011 110.38618584081996,36.52594201230386 109.66328370134579,36.33947573923797 108.99939398141578,36.169960769679165 108.49778841523221,36.54289348164457 108.08470147842309,37.153145262389444 107.77488627569983,37.74644352469477 107.40605865354883,38.30583715066314 107.30278691928834,38.9330338966829 106.87494687759317,39.64498418237781 106.8454406678793,40.33998042240273 107.52408349263715,40.93326766914106 108.01093595393468,41.59435675700661 108.08470147842309,42.44190314512525 107.59784901712555,42.95042896932864 106.88969998247921,42.95042896932864 106.21105715760496,42.526657553811674 105.53241433284711,42.08593417186057 105.65043917193543,42.73006796381378 106.13729163323296,43.425051712663844 106.32908199680969,44.18783551514207 106.31432889186544,44.89976400602609 106.65365030430257,45.543887239313335 106.24056336743524,46.30666162665875 105.78321711590979,47.001630895450944 105.32587086438434,47.696597350775846 105.00130255689146,48.442411880372674 104.55870941031026,49.17127294924285 104.0275976343546,49.628928317921236 104.01284452941036,50.03573206588044 103.67352311697323,50.730686238617636 103.34895480942214,51.391737597150495 103.12765823618975,52.13753607404942 103.511238963285,52.69688280565606 104.21938799787313,53.018930097154225 104.80951219337294,53.493525004640105 105.50290812301682,53.9172693490691 105.56192054261919,54.59525812494394 105.22259913024027,55.2393449821102 104.83901840314502,55.90037898099399 104.47019078093581,56.62920838876744 104.13086936855689,57.32413587310293 104.33741283696145,57.39193352582515 104.48494388582185,58.45974302556715 104.16037557827076,59.171612336213 103.74728864146164,59.96822449399042 103.4079672290245,60.71398571784084 103.79154795611976,61.137712242940324 104.38167215161957,61.30720256024506 103.96858521481045,62.08685586489446 103.65877001208719,62.57837460721203 103.45222654368263,62.81565901370777 103.1866706556757,63.56140787106415 102.92111476772698,64.32410221615282 102.61129956512013,65.0359472152777 102.24247194296913,65.73084067774471 101.7556194816134,66.39183428857359 101.23926081054378,66.93418612037203 100.47209935641149,67.20536139389151 99.74919721693732,67.42569098836975 99.39512269961415,68.10362642910331 99.07055439206306,68.86630060098832 99.02629507740494,69.6628677865665 98.73123297962593,70.62891239463352 98.25913362327265,71.51021150765882 98.06734325975413,72.35761023614032 98.46567709167721,73.13721337364404 98.48043019656325,73.98460407460516 98.06734325975413,74.71335673348221 97.38870043487987,75.12010105904483 96.6657982954057,75.39126340762596 95.98715547058964,75.83190131101583 95.38227817020379,76.35727579529339 94.86591949913418,77.00128103533643 94.4675856672111,77.73002089482907 94.09875804494368,78.47570499239373 93.6266586885904,79.13664955436252 93.1545593321789,79.79759157310764 92.69721308071166,80.45853104861453 92.28412614378612,81.15336211414251 91.7235081581166,81.76345536648296 91.19239638216095,82.37354645189771 90.92684049421223,83.1361572616297 90.52850666217273,83.8309774962836 90.45474113774253,84.61052856050082 89.93838246667292,85.16976953606354 89.20072722231271,85.37312943946745 88.50733129255241,85.79679513160954 87.79918225796428,86.13572693303286 87.25331737712258,85.7290086910507 87.09103322337614,84.91556931835657 86.88448975497158,84.01739220305171 85.95504414703464,83.81403069474618 85.15837648313027,83.76319028006401 84.45022744854214,83.39036011250573 83.94862188235857,82.83111334401474 83.26997905754251,82.55996274026984 82.72411417670082,82.06850118003786 82.69460796692874,82.50912195436831 82.98967006464954,83.03447601593507 83.62405357480748,83.33951957242971 84.21417777030729,83.7970838915353 84.92232680489542,84.27159374988696 85.63047583954176,84.47495471655566 86.30911866435781,84.61052856050082 86.51566213282058,84.93251601122029 85.70424136397196,84.4580079784937 85.7927599932882,83.8309774962836 86.47140281816246,84.11907286693167 87.0025145940599,84.67831544243381 87.28282358695287,85.3561827900703 87.43035463581327,86.13572693303286 88.2122691948316,85.89847474226553 88.99418375390815,85.45786266146752 89.73183899826836,85.20366287001525 90.36622250842629,84.71220887330128 90.4399880329147,83.88181789094233 90.92684049421223,83.78013708662183 91.47270537499571,84.01739220305171 91.63498952874215,84.6613687244535 91.69400194828631,85.42396937767626 91.23665569687728,86.01710087859828 90.48424734751461,86.30519258296408 89.70233278849628,86.42381843845942 89.06794927833835,86.94916052820918 89.48103621514747,86.52549767799792 90.14492593507748,86.37297879619291 90.83832186483778,86.20351321308408 91.44319916522363,85.74595530373335 91.57597710919799,85.03419613344886 91.59073021408403,84.16991317628708 91.78252057766076,83.4242537975806 92.28412614378612,82.78027263843978 92.72671929042554,82.11934209628089 93.2283248566091,81.56009118977818 93.67091800330672,80.9161030419491 93.27258417126723,80.4076896408369 93.03653449314879,79.79759157310764 93.52338695438812,79.18749133842357 93.93647389119724,78.52654697209073 94.30530151340645,77.81475788712851 94.65937603072962,77.10296585249307 95.14622849202715,76.52675109250413 95.72159958264092,75.98442955264181 96.35598309279885,75.47600155380496 97.0346259176149,75.08620573538064 97.74277495226124,74.79809521410789 98.25913362327265,74.20492497198575 98.34765225253068,73.44227450760081 98.05259015480988,72.73046435210563 97.9493184206658,72.03559921187116 98.30339293793077,71.22209498747543 98.70172676991206,70.49332751428301 98.9377764480887,69.78150513638684 98.87876402860275,69.0866280645132 99.36561648984207,68.69681774442142 100.02950620971387,69.06967980816262 100.66388971993001,69.45948928194412 100.44259314669762,70.13741669415322 100.02950620971387,70.81534143030876 99.61641927290475,71.45936745096697 99.40987580450019,72.20507877357886 99.46888822410256,72.98468260346272 99.60166616801871,73.71343950515438 99.69018479739316,74.44219331469503 99.70493790222099,74.95062437377055 99.631172377849,74.23882046957442 99.49839443381643,73.47617015572905 99.36561648984207,72.73046435210563 99.39512269961415,72.0017032794567 99.73444411199307,71.25599107377639 100.23604967817664,70.47637939674314 100.64913661504397,69.74760875913489 100.6196304053301,69.05273155010946 100.50160556618357,68.40869650430977 101.18024839099962,68.12057478082716 101.87364432070171,67.83245257395902 102.39000299177133,67.23925827302446 102.83259613846894,66.62911342573352 103.24568307527807,65.98506929070572 103.48173275345471,65.29017685701547 103.74728864146164,64.61223030935798 103.98333831963828,63.88343478557363 104.23414110275917,63.171585008720285 104.42593146627769,62.57837460721203 104.55870941031026,61.968213199070306 105.04556187154958,61.764825581238256 105.35537707421463,61.408896670283866 105.70945159147959,60.79873110652261 106.04877300385851,60.12076682601764 106.31432889186544,59.42585066038009 106.66840340918861,58.747880959213944 107.00772482162574,58.069908581033815 107.3617993388907,57.442781747857225" stroke="#ff9b00" stroke-linecap="round" stroke-linejoin="round" stroke-width="0.5"><title>2024-01-01 20.2km</title><desc>9223370332779570807</desc></polyline><polyline fill="none" points="185.01712534972467,37.472788590879645 186.4590345917968,37.88693206431344 185.9063027157681,39.43306228029542 185.4737299430417,40.730700685991906 184.68067985994276,42.138769592071185 184.2000434459187,42.52529707134818 182.7821660245536,41.779850740131224 181.36428860318847,41.69702324739774 179.94641118182335,41.890287359041395 178.67272468470037,41.1448393354367 178.19208827067632,39.79198414369603 177.92773824301548,38.328684426727705 177.49516547040548,36.865377053734846 176.34163807681762,36.119915637071244 175.40439706936013,37.196692601108225 174.56328334484715,38.41151291699498 173.72216962033417,39.54349982572603 173.09734228206798,40.84113771907869 172.4725149438018,42.111160465865396 171.87171942635905,43.29835042741615 171.24689208809286,44.56836201690021 170.57400110852905,45.83836783980951 169.5886964596575,46.00402034810395 169.2522509698756,47.16358515934553 168.86774183879606,48.35075367643731 168.4592008868931,49.64835071080597 168.00259629345965,51.00115823119995 167.57002352084965,52.46439165310585 166.7769734376343,53.76196960514062 165.86376425111666,54.94911011864315 164.85442778165452,55.94299132528249 163.48461400170345,56.467538316210266 162.73962755990215,57.489021739020245 163.36445489816833,58.40007137475186 162.66753209778108,59.78044395730831 161.8264183733845,61.0779879745387 161.22562285570893,62.45834734354867 161.15352739370428,63.97673478318029 161.41787742148153,65.49511398203322 161.6341638076119,66.95827159524197 161.20159103511833,68.33860195169109 159.90387271728832,69.02876457609818 158.5821225787513,69.69131909386488 157.38053154363297,70.60232899387483 156.39522689499427,71.76179184921784 155.24169950129,72.7280072249414 154.16026756970678,73.77703728363849 153.19899474165868,74.85366930672899 152.3819128377363,76.17874918653979 151.6128945754608,77.58663968308247 150.65162174741272,78.77367910719477 149.71438073995523,79.93310810188996 148.87326701544225,81.20295339342556 148.44069424294867,82.52800320577808 148.5848851671908,84.01867674474488 148.0321532910457,85.31610836132313 146.68637133180164,85.95101951344986 145.172366627492,86.22706739118439 144.307221082272,86.917185894039 145.4847802966833,86.06143869721564 146.92668953875545,85.84060028617387 148.12828057387378,85.01245469236164 148.41666242212523,83.60460155829787 148.1523123944644,82.22434651129879 147.02281682146713,81.7826634584053 146.47008494543843,82.52800320577808 146.013480352005,83.93586175647215 144.64366657205392,84.40514636595617 145.8933212485863,83.93586175647215 146.49411676602904,82.61081861070124 146.90265771804843,81.2305586618022 147.5274850561982,79.8778973063454 148.34456696012057,78.63565152592491 149.40196707099676,77.58663968308247 150.19501715397928,76.26156647069729 151.10822634072974,75.04691051336704 151.97337188583333,73.72182527335826 152.7664219691651,72.34152147505665 153.5354402314406,70.85078572449856 154.59284034231678,69.60849986490211 155.93862230156083,68.61466720578028 157.38053154363297,67.81407721841242 158.75034532358404,67.09630493735312 159.47129994467832,65.77118204187718 159.32710902043618,64.28041128220502 158.77437714429107,62.955275049229385 159.30307719961274,61.46448928434984 160.04806364141405,60.08412501143175 160.40854095190298,58.62093144567916 160.40854095190298,57.3509836566227 161.58610016631428,57.65466734804795 160.79305008321535,57.15773022681242 161.2736864972394,55.74973692270578 162.4752775322413,54.94911011864315 163.9412185951369,54.424560280458536 164.97458688518964,53.347849636134924 165.83973243040964,52.050269763101824 166.48859158938285,50.642250751145184 167.01729164482094,49.20661622597254 167.54599170014262,47.74336576228961 168.00259629345965,47.38445410213899 168.62742363172583,46.00402034810395 169.15612368716393,44.67879753472516 170.26158743933775,43.684876304265345 170.81431931548286,42.33203339847387 170.79028749477584,41.310494623408886 171.75156032282393,40.012858907692134 172.5926740473369,38.65999824064784 173.57797869609203,37.472788590879645 174.5152197034331,36.28557390140486 175.284237965825,35.04313452739734 175.692778917728,33.690249820647296 176.5579244630644,33.27610013267258 177.68742003594525,34.35288804577431 178.5045019397512,35.62294025544543 179.2254565608455,36.89298669769778 180.25882485101465,37.914541607373394 181.67670227237977,38.135417854064144 182.44572053477168,39.54349982572603 182.87829330738168,40.50982648888021 182.20540232770145,41.64180490517174 180.7394612650387,41.917896506842226 179.32158384367358,41.69702324739774 178.43240647774655,40.64787288248772 178.02386552572716,39.046530527528375 177.78354731877334,37.472788590879645 176.84630631143227,36.20274478153442 175.64471527643036,36.837767407036154 174.80360155180097,38.080198808718706 173.89039236516692,39.29501528709079 173.16943774418905,40.67548215307761 172.52057858521584,42.02833307129913 171.89575124706607,43.325959436333505 171.2709239089163,44.67879753472516 170.525937467115,45.9211941062822 169.4685373562388,46.30771635854035 169.39644189411774,47.46727991072112 168.74758273526095,48.847706443368224 168.24291450052988,50.28334281060961 167.76227808650583,51.691363629186526 167.1855143896537,53.18220147682587 166.27230520301964,54.47977609920781 165.21490509214345,55.66691356652882 163.84509131219238,56.35710745246615 162.64350027719047,57.26816077448893 163.36445489816833,58.427678893116536 162.69156391860452,59.78044395730831 161.87448201479856,60.995166195731144 161.22562285570893,62.32031171320705 161.0814319315832,63.783485930383904 161.29771831783,65.21904564969009 161.56206834560726,66.70981140778167 161.34578195936047,68.17296266843914 160.07209546212107,68.89073218739941 158.72631350299343,69.58089344977634 157.54875428858213,70.49190370939323 156.46732235711534,71.62376080884133 155.33782678400166,72.67279500773293 154.1842993904138,73.72182527335826 153.2230265623657,74.9364869830315 152.35788101726212,76.20635495067108 151.56483093393035,77.61424530830118 150.65162174741272,78.8288901206397 149.71438073995523,80.015924274805 148.8252033740282,81.2305586618022 148.3926306014182,82.63842374028172 148.4887578842463,84.26712156253052 147.7437714425614,85.50934234273154 146.3258940211963,86.00622911087703 144.78785749629606,86.30988170136698 144.54753928934224,86.55832448494039 145.98944853141438,85.97862431351678 147.47942141490057,85.64736653352156 148.3926306014182,84.54317110136617 148.34456696012057,83.05250035651261 147.67167598044034,82.11392581340624 146.59024404897355,81.83787387813209 146.42202130402438,83.3561561522074 145.31655755173415,84.26712156253052 145.1483348069014,84.26712156253052 146.39798948331736,83.46657635990414 146.59024404897355,81.92068948730594 147.2871668492444,80.51282079773955 147.91199418751057,79.10494502444635 149.0174579396844,78.02832935936749 149.93066712631844,76.78607536759228 150.69968538882677,75.43339252629085 151.7090218581725,74.16352105056285 152.52610376197845,72.81082553052693 153.2230265623657,71.43051723798271 154.11220392829273,70.16062759459601 155.2657313218806,69.05637104561902 156.5394178192364,68.06253642521915 157.98132706119213,67.53801117438707 159.20694991701748,66.62699129630346 159.51936358597595,65.1362250969105 159.0146953513613,63.81109291760367 158.87050442723557,62.29270457892562 159.5674272275064,60.88473711928236 160.26435002766084,59.55958480175468 160.26435002766084,58.06878094145213 160.86514554533642,57.15773022681242 161.77835473185405,57.65466734804795 160.76901826250833,56.79883064579917 161.44190924207214,55.47365897329291 162.81172302202322,54.81107078291825 164.20556862279773,54.31412861021818 165.16684145084582,53.099377360369544 166.0319869959494,51.801796334795654 166.68084615503903,50.338559446827276 167.1855143896537,48.930531818652526 167.69018262438476,47.46727991072112 168.1708190384088,47.191193786711665 168.795646376675,45.61749767616857 169.4445055355318,44.45792645541951 170.4298101842869,43.381177445931826 170.67012839124072,42.22159695401206 170.98254206043202,41.00679318702896 171.91978306765668,39.70915606225026 172.7849286129931,38.41151291699498 173.79426508245524,37.25191182093113 174.75553791050334,36.009476739767706 175.45246071077418,34.65659670755849 175.71681073855143,33.3589301193424 176.7742108493112,33.524590019049356 177.8316109601874,34.54615723231109 178.60062922269572,35.8162085643271 179.39367930567823,37.05864450414083 180.45107941655442,37.96976068537333 181.86895683791954,38.35629392624833 182.5658796383068,39.70915606225026 182.8061978452606,40.70309142084443 182.10927504498977,41.64180490517174 180.71542944433168,41.94550565208192 179.32158384367358,41.72463241437799 178.43240647774655,40.620263609220274 178.02386552572716,39.212187058408745 177.75951549806632,37.80410341868992 177.1106563390931,36.36840299674077 175.7889062006725,36.53406111386721 174.9477924760431,37.748884307889966 174.05861511011608,39.074139956210274 173.3136286684312,40.39938932497171 172.5926740473369,41.83506905505783 171.94381488848012,43.105087288684445 171.31898755021393,44.43031755826087 170.59803292923607,45.755541548889596 169.5886964596575,46.03162908999366 169.32434643199667,47.30162826902233 168.86774183879606,48.43357919895789 168.36307360394858,49.81400096270954 167.88243718992453,51.24963237057091 167.40180077590048,52.63004023747635 166.63278251350857,53.95522538089426 165.71957332687452,55.169972914183745 164.5179822917562,56.08103010247578 163.05204122909345,56.55036143533653 162.9078503048513,57.79270528064808 163.07607304968406,58.897006289160345 162.37915024941321,60.16694705985719 161.53803652501665,61.40927484421991 161.0574001109926,62.73441840012674 161.10546375229023,64.19759045157116 161.36981377995107,65.66075485068723 161.56206834560726,67.12391159753315 160.9372410074575,68.39381502429023 159.63952268951107,69.11158397659892 158.34180437168106,69.82935108753736 157.21230879880022,70.76796683881548 156.130876867217,71.8446104407194 154.97734947351273,72.92124989969307 153.89591754192952,74.02549119509058 152.95867653470486,75.2677574432455 152.06949916877784,76.59283536209841 151.2764490855625,77.94551259820582 150.24308079539333,79.21536690980429 149.37793525017332,80.48521545846597 148.3926306014182,81.61703213377041 148.53682152566034,83.1629206839134 148.51278970506974,84.59838097641477 147.4313577733701,85.59215686531388 145.98944853141438,86.0890434863395 144.57157111004926,86.50311499653617 144.59560293075629,86.39269598710234 145.98944853141438,86.00622911087703 147.38329413207248,85.61976170080015 148.32053513941355,84.51556615970912 148.3685987808276,83.05250035651261 147.7437714425614,82.05871544813272 146.66233951109461,81.69984780828236 146.47008494543843,83.05250035651261 145.53284393798094,84.18430664777406 144.1870619788533,84.59838097641477 142.98547094373498,85.31610836132313 141.66372080519795,85.7853906560922 141.20711621188093,84.48796121537453 140.846638901392,83.10771052568452 139.52488876285497,82.11392581340624 138.29926590714604,82.00350507203257 136.8813884856645,81.50661119620781 135.94414747832343,80.45761011654395 134.69449280190747,79.79508109256858 133.61306087044068,79.29818329508998 134.04563364305068,80.31958336586831 135.2472246780526,80.98211114798323 136.44881571317092,81.92068948730594 137.65040674817283,82.72123911249219 138.75587050034665,82.58321347847232 139.7892387905158,82.22434651129879 140.8706707219826,83.27334096789127 141.44743441895116,84.59838097641477 141.88000719156116,85.7853906560922 143.24982097151224,85.04005958494963 144.59560293075629,84.29472652863478 145.96541671070736,83.88065175066004 146.42202130402438,82.55560834350763 146.92668953875545,81.17534812222584 147.5034532356076,79.8778973063454 148.32053513941355,78.66325704767951 149.40196707099676,77.61424530830118 150.19501715397928,76.26156647069729 151.0841945199063,75.07451638911152 151.94934006524272,73.83224928297568 152.69432650704402,72.47955216135597 153.3431856657844,71.12684849981451 154.2804266732419,69.93977663342957 155.3618586048251,68.91833867056994 156.63554510183167,68.06253642521915 158.02939070260618,67.56561779102776 159.08679081348237,66.65459800284589 159.51936358597595,65.35707984986948 159.1348544548964,64.03194871669984 158.87050442723557,62.541168689203914 159.49533176538534,61.02277345806942 160.28838184848428,59.366332897683606 160.14419092424214,57.930743145087035 161.0574001109926,57.29576840455411 160.9372410074575,57.240553141688 161.0814319315832,56.05342235244461 162.09076840116177,55.1147572316404 163.5567094637081,54.617815598408924 164.75830049894284,53.6791456603969 165.64747786486987,52.35395920902374 166.36843248573132,50.9459417257458 166.92116436187644,49.510308759170584 167.44986441731453,48.07466842443682 167.97856447275262,47.16358515934553 168.55532816960476,46.22489020662033 169.08402822504286,44.92727729055332 170.04530105309095,43.9333569429582 170.1894919773331,42.66334247018676 170.81431931548286,41.22766699170461 171.7275285021169,39.957640233042184" stroke="#ff8200" stroke-linecap="round" stroke-linejoin="round" stroke-width="0.5"><title>2023-12-24 21.3km</title><desc>9223370333471178807</desc></polyline><polyline fill="none" points="59.220178992603905,99.74047322766273 59.94768271513749,98.79681699036155 60.81599360983819,99.09339501624345 60.39357209345326,100.2797038994031 60.1354256112827,101.2503164258087 59.783407681039535,102.30180943693267 59.102839682484046,103.29937598769902 58.75082175224088,103.649871478352 58.14065733982716,103.13760868640384 57.20194285910111,102.70622874799301 56.23976051621139,102.40965464510373 55.20717458764557,102.76015127761639 54.22152438282501,102.78711253838264 53.259342040051706,102.38269334702636 52.60224190365989,101.57385316805448 52.27369183534756,100.57628031511558 52.0624810771551,99.49781907800934 51.9216739051044,98.446315271809 51.405380940646864,97.55657811983838 50.584005770040676,97.09822754675406 49.85650204750709,97.79923399421386 49.31674122111872,98.60808535164688 48.70657680858858,99.44389590440551 48.190283844363876,100.17185785021866 47.69745874183718,100.89981785579585 47.25156936363783,101.95131221631891 46.85261570930015,102.81407379650045 46.40672633086797,103.54202675982378 46.078176262555644,104.40478331537452 45.65575474628713,105.24057612966863 45.20986536797136,106.04940545040881 44.67010454158299,106.75038892435259 43.9426008190494,106.7773497912276 43.59058288880624,107.64009612746304 43.684454336878844,108.26019337351318 43.262032820493914,109.06901375268353 42.95695061434526,109.93175285076723 42.65186840808019,110.87537061909097 42.34678620181512,111.7111436346604 42.01823613361921,112.70867582180654 41.64275034132879,113.65228399756597 41.10298951494042,114.48804851685418 40.53976082650479,115.29685045569204 39.92959641397465,116.07869005363318 39.08475338143762,116.61788847259595 38.099103176617064,116.94140701313154 37.277728006010875,117.50756353716133 37.58281021215953,118.31635653608828 37.794020970351994,119.01730853147455 37.30119586805813,119.90697578169056 36.76143504155334,120.90447804122232 36.15127062925603,121.7671797608491 35.75231697480194,122.60291945384233 35.58804194070399,123.60041186964372 35.68191338889301,124.54398242448224 35.84618842287455,125.54146775323898 36.05739918106701,126.56590835400857 36.12780276709236,127.64426273127901 35.75231697480194,128.58781931985868 34.83707035612315,129.07307572520222 33.96875946142245,129.5044140284881 33.05351284286007,129.93575165086077 32.255605534184724,130.4749227212742 31.575037535629235,131.20280197853572 30.89446953719016,131.93067929669633 30.143497952609323,132.63159636288765 29.41599423007574,133.33251163110253 28.73542623152025,134.0603832756169 28.078326095012017,134.84216917844606 27.515097406692803,135.70482688918128 26.92840085620992,136.5944398007996 26.45904361596331,137.5649233100703 25.87234706536401,138.34669918569853 25.215246928855777,139.12847282469738 24.581614654511213,139.93720182176912 24.08878955198452,140.8537584580481 23.36128582956735,141.554652634979 23.290882243425585,142.52511852738098 23.33781796740368,143.49558097313275 23.31435010547284,144.4660399724089 22.798057141015306,145.30171023783623 21.929746246314608,145.81389397606836 20.92062817956321,145.94867901076213 19.934977974859066,146.19129190573585 19.207474252325483,146.81130165877403 19.582960044615902,146.2721628228901 20.568610249320045,145.9756360097672 21.53079259209335,145.8678079979436 22.469507072819397,145.57128074602224 23.17354293342214,144.8703968715272 23.33781796740368,143.95385370776057 23.243946519331075,143.01035018105176 22.98580003727693,142.25554501402075 22.187892728601582,141.98597123485524 21.624664040165953,141.77031202000217 21.41345328197349,142.65990518423496 21.225710385944694,143.68428160401527 20.286995905218646,144.25038271487574 19.629895768710412,144.3851685207046 20.732885283418,144.03472528711427 21.41345328197349,143.27992294964497 21.43692114413716,142.2016302794509 21.859342660405673,141.28507816427737 22.39910348667763,140.42243807099294 22.774589279084466,139.45196471081 23.478625139570795,138.67019199731294 24.20612886210438,137.94233263275237 24.792825412587263,137.13359773150296 25.238714790903032,136.21702861628728 25.825411341385916,135.46220468336833 26.482511477777734,134.65346244117245 27.04574016632978,133.81775960957748 27.515097406692803,132.928137657349 27.937518922961317,132.03851280847448 28.45381188741885,131.14888506304123 29.08744416187983,130.3670885922911 29.814947884413414,129.6661657167133 30.589387331041507,128.99219971743878 31.504633949603885,128.45302572101355 32.49028415430803,128.10256205269252 33.38206291105598,127.67122153611854 34.01569518551696,126.8624562319892 34.226905943709426,125.89193470677128 34.109566633589566,124.84053249721183 33.56980580720119,124.00479964941042 33.56980580720119,122.95339017713559 33.96875946142245,121.98285476511228 34.438116701785475,121.09319427513401 34.88400608021766,120.230490427115 35.02481325226836,119.28690497385105 34.860538218170404,118.50507455790648 35.37683118251152,117.83108102402184 35.8696562849218,118.01979938108707 35.49417049263138,117.37276447121985 35.9165920088999,116.45612905864255 36.597160007455386,115.86301038810052 37.653213798301294,115.51253056831774 38.63886400300544,115.16205029885168 39.34289986360818,114.40716819127556 39.953064276021905,113.46356262319023 40.516292964457534,112.5199537955341 40.98565020470414,111.49546052058577 41.36113599711098,110.44400290088379 41.76008965144865,109.41950183993322 42.135575443622656,108.39499693637481 42.41718978784047,108.17931120385765 42.8396113042254,107.55921377422055 43.262032820493914,106.53470189316431 43.402839992544614,105.86067882314092 43.21509709651582,105.59106912944117 43.9895365430275,104.86312162701506 44.48236164543778,103.91948308821884 44.90478316182271,102.92191880239989 45.468011850258335,101.97827355697518 46.125111986650154,101.08854791088379 46.66487281315494,100.11793480964843 47.29850508761592,99.22820310332463 48.002540948218666,98.4732769583934 48.70657680858858,97.63746343523962 49.29327335907146,96.69379993175971 49.76263059943449,95.69620925400523 49.73916273738723,94.96823537864839 49.12899832497351,94.50988046158454 48.56576963653788,93.9976005264325 48.9412554288283,93.16177330588107 49.809566323529,93.24265992292203 50.37279501184821,93.94367626673193 50.865620114374906,94.61772874655435 51.640059560886584,95.23785555877839 52.20328824932221,95.96582871544524 52.69611335173249,96.77468550257618 53.3062777640298,97.61050166611676 53.681763556436636,98.55416200228501 54.479670865111984,99.1742798765481 55.53572465584148,99.22820310332463 56.357099826447666,99.95616562408395 56.732585618738085,100.92677930020727 57.62436437536962,101.1424707598635 58.58654671814293,101.08854791088379 59.61913264694158,101.2503164258087 59.57219692284707,102.03219623025507 59.055903958389536,102.92191880239989 58.53961099404842,103.6768326513411 58.11718947766349,103.568987943494 57.22541072103195,103.05672499988577 56.33363196440041,102.76015127761639 55.39491748367436,102.86799630476162 54.40926727897022,103.11064746024203 53.447084936196916,102.84103505194071 52.78998479968868,102.08611889291205 52.39103114546742,101.16943218038068 52.1563525252277,100.17185785021866 51.99207749112975,99.14731825905619 51.75739887089003,98.20365997232147 51.147234458476305,97.4217692076345 50.25545570184477,97.55657811983838 49.71569487545639,98.36543019590317 49.12899832497351,99.20124149124604 48.542301774490625,100.06401175851352 47.97907308617141,100.87285640867776 47.46278012171388,101.81650547325262 47.0638264673762,102.73319001408527 46.57100136508234,103.54202675982378 46.19551557279192,104.48566660273355 45.749626194359735,105.4562641827797 45.28026895399671,106.37293650812353 44.69357240363024,106.96607578513795 43.96606868109666,107.10087998671224 43.59058288880624,107.99058604819584 43.684454336878844,108.69156454046606 43.21509709651582,109.58126542082755 42.863079166272655,110.55184489433304 42.557996960007586,111.52242091920925 42.229446891811676,112.4660331926425 41.90089682349935,113.46356262319023 41.33766813506372,114.40716819127556 40.704035860602744,115.24293040094199 40.09387144818902,116.07869005363318 39.29596413963009,116.72572802868672 38.35724965890404,117.07620629196754 37.418535178061575,117.48060372925829 37.34813159215264,118.37027598413988 37.911360280471854,118.99034887255402 37.465470902156085,119.93393535015639 36.99611366179306,120.82359961533803 36.40941711142659,121.65934219490737 35.8696562849218,122.54900084109977 35.63497766468208,123.57345266305492 35.70538125070743,124.62485974901938 35.84618842287455,125.62234478237224 36.01046345708892,126.61982617390458 36.15127062925603,127.61730392364552 35.9165920088999,128.58781931985868 35.095216838410124,129.1000343890919 34.25037380575668,129.612248497986 33.33512718707789,130.04358595007216 32.49028415430803,130.60971532267286 31.762780431774445,131.36455266125267 31.01180884731002,132.14634627776104 30.237369400681928,132.87422108228202 29.439462092122994,133.5212192806648 28.688490507542156,134.2760485757608 27.960986784892157,135.16566613918985 27.421225958503783,136.02832282855525 26.834529408137314,136.94489257675014 26.341704305727035,137.86145925035817 25.73153989331331,138.7241074287449 25.050971894757822,139.53283762244973 24.4408074823441,140.3685229747207 23.87757879390847,141.23116323820432 23.26741438137833,141.9590138423373 23.36128582956735,143.03730746993097 23.45515727752354,144.06168247485766 23.243946519331075,145.08605363976676 22.492974934866652,145.7599799435411 21.554260454140604,146.05650699077523 20.451270939200185,146.21824888081755 19.489088596659712,146.6226031872211 19.324813562445343,146.75738782304688 20.193124457029626,146.1643349280639 21.15530679980293,145.9756360097672 22.164424866670743,145.7599799435411 22.915396451135166,145.1130107237841 23.290882243425585,144.1964683738188 23.220478657400236,143.1720938741928 22.93886431318242,142.36337445129175 22.164424866670743,142.03988601191668 21.554260454140604,141.9590138423373 21.41345328197349,143.03730746993097 21.03796748968307,144.00776809663512 20.028849423048086,144.4660399724089 19.88804225088097,144.4929971175734 20.944096041610464,144.00776809663512 21.389985419926234,143.0642647560744 21.507324730046093,141.98597123485524 22.000149832456373,141.01550342771225 22.446039210772142,139.99111700311187 23.00926789920777,139.07455747321364 23.807175207766704,138.3736569347675 24.487743206322193,137.5649233100703 25.027504032710567,136.67531355816755 25.520329135120846,135.8126589115418 26.224364995607175,135.03087578545092 26.764125822111964,134.16821594690555 27.350822372478433,133.22467862992198 27.843647474888712,132.2541797044978 28.33647257729899,131.28367733184132 29.017040575738065,130.50188124689157 29.768012160318904,129.74704152485356 30.612855192972347,129.07307572520222 31.551569673698395,128.53390188835328 32.537219878518954,128.1295208123338 33.45246649708133,127.59034511348 34.039163047564216,126.78157956994255 34.203438081778586,125.7301807840995 34.01569518551696,124.7596552366158 33.49940222105943,123.84304460935527 33.59327366924845,122.79163451454951 34.06263090961147,121.84805790742394 34.602391735999845,120.90447804122232 35.048281114315614,119.96089491594466 34.95440966624301,119.01730853147455 34.97787752817385,118.23547734390013 35.82272056094371,118.07371888778289 36.76143504155334,118.55899396870518 37.67668166034855,119.12514714032295 37.512406626250595,120.01481403943035 36.972645799745806,120.95839697847259 36.38594924926292,121.82109852787107 35.8696562849218,122.71075664737145 35.68191338889301,123.68128947349032 35.7757848368492,124.67877795198001 35.96352773299441,125.70322178766946 36.12780276709236,126.70070288394345 36.24514207721222,127.77905672910856 35.8696562849218,128.77653024651227 34.88400608021766,129.2887449619593 33.96875946142245,129.80095871709636 33.0300449806964,130.25925442081643 32.161734086228535,130.85234183751163 31.481166087673046,131.5802200892649 30.706726641044952,132.30809640191728 29.932287194533274,133.06292904837755 29.22825133393053,133.7638432100357 28.500747611396946,134.51867183478316 27.937518922961317,135.3813305668009 27.327354510431178,136.21702861628728 26.764125822111964,137.13359773150296 26.247832857770845,138.07712155024637 25.61420058319345,138.9397690476908 24.910164722707123,139.72154098993633 24.32346817222424,140.61114082412678 23.59596444957424,141.41986543289386 23.290882243425585,142.36337445129175 23.45515727752354,143.4686237294518 23.4316894155927,144.4660399724089 22.962332175229676,145.35562436078908 22.140957004507072,145.8947650049231 21.108371075824834,146.08346397907007 20.07578514702618,146.2721628228901 19.277877838467248,146.83825857259217 19.582960044615902,146.48781848486396 20.615545973414555,146.11042096468736 21.64813190221321,146.00259300603648 22.563378520892,145.62519481577328 23.19701079535298,144.81648265291005 23.243946519331075,143.76515326305525 23.126607209211215,142.65990518423496 23.31435010547284,141.60856749719824 24.08878955198452,140.79984344690456 24.628550378489308,139.85632902971702 25.35605410102289,139.07455747321364 25.966218513436615,138.2927836799645 26.505979339941405,137.45709197921678 26.99880444223527,136.51356601939187 27.608968854765408,135.67786887698458 28.242601129226387,134.81521108114976 28.923169127781875,133.97950874417438 29.72107643634081,133.22467862992198 30.589387331041507,132.49680475905188 31.45769822562579,131.68805373946088 32.349476982373744,130.63667383493157 33.45246649708133,129.93575165086077 34.485052425879985,129.3965795165568 35.47070263070054,128.8574063181004 36.05739918106701,127.99472698743921 36.05739918106701,126.91637399350293 35.9165920088999,125.99977060215315 35.70538125070743,125.05620507526328 35.61150980275124,124.1126362895302 35.75231697480194,123.16906424495392 36.03393131913617,122.2254889413598 36.62062786961906,121.3897480937303 37.18385655793827,120.50008567233454 37.653213798301294,119.61042035359424 37.84095669433009,118.72075213750941 37.160388695891015,117.9928396238247 37.981763866497204,117.23796533877612 39.06128551927395,116.91444714940735 40.0,116.32132947386708 40.68056799855549,115.40469053326524" stroke="#4dd2ff" stroke-linecap="round" stroke-linejoin="round" stroke-width="0.5"><title>2023-12-17 16.0km</title><desc>9223370334074632807</desc></polyline><polyline fill="none" points="104.8533329560305,129.57230570992397 103.93475091364235,129.13712202964234 102.92146969155874,129.2459181107988 102.46691362938145,128.82161278696003 102.27751527004875,127.64660490337701 102.04076732101385,127.1678943963343 101.69038035639096,126.92853836304857 101.36840314563597,127.2114136192613 100.55399020080222,128.3211479976817 99.31343094765907,130.8452081113428 99.09562283451669,130.74729306391237 98.89675455732504,131.03015851917735 98.07287169451592,133.61943164372497 97.23951891378965,134.70734338159673 96.28305719955824,135.1642631097493 96.27358728158288,135.49063318462868 96.47245555877453,135.74084958764433 96.31146695342613,136.20864394806995 95.65804261394078,137.14422671376087 95.58228327025427,137.72080283581454 95.7622117116116,139.53754183986894 94.31331426324323,140.39694686615985 92.46668026043335,142.22452009479457 91.9174250185606,143.24707761315221 90.67686576541746,144.86792063307075 90.68633568345103,145.9339654696305 90.32647880079458,146.48873982764053 89.32266749674454,146.73893127200427 89.01016020396492,147.0 89.30372766079381,146.7062976375164 89.88139265659265,146.673663993417 90.47799748822581,146.33644910532166 90.62951617565705,145.9665993326562 90.58216658583842,145.16162789215014 89.97609183617169,144.9223109252489 89.66358454345027,145.8360638226004 87.96846922807163,146.49961772833922 87.66543185326736,145.5641143469402 87.43815382209141,145.30304221936967 86.96465792396339,145.04196947362652 86.11236530728638,144.91143286894658 85.5441702294629,144.25874752757954 84.86233613616787,143.87801262758148 84.73922720266273,144.0520630307292 84.95703531580511,144.41104111946333 85.71462875284487,144.83528644486069 86.14077506115427,145.281286180827 87.42868390417425,145.5206023686187 87.60861234547338,145.73816208863718 86.746849810821,145.40094433964987 86.92677825212013,145.06372555938287 87.64649201725842,145.41182234763255 87.88323996640975,146.5213735264988 88.20521717710653,146.49961772833922 89.55941544583766,145.85781975164718 89.80563331284793,145.61850429572223 89.87192273861729,145.05284751702857 90.35488855472067,143.97591601317254 91.71855674136896,142.26803337388992 92.83600706100697,140.37518985953648 93.83034844708163,139.57017759613518 94.54059229436098,139.30909127537598 94.8530995871406,138.99361114620115 95.00461827451363,138.31913335904392 94.71105081768474,137.3509241608699 95.36447515711188,136.0019443591882 95.26030605955748,135.46887520966266 95.78115154750412,134.50064097759605 96.85125227732351,134.17426797162625 97.52361645270139,133.2712976199109 98.25280013581505,131.32390264668356 98.30961964360904,131.23686743123835 98.35696923342766,131.43269656929624 98.83993504953105,130.46442688271054 98.3190895615844,130.46442688271054 98.07287169451592,130.29035502580518 100.2130731541547,125.97110903145222 100.89490724750794,124.90487112270057 101.21688445826294,124.97015129112697 101.4915120791411,125.34007151512924 101.56727142288582,125.26391157052421 100.95172675530193,124.92663118313067 100.94225683732657,124.71991043550224 102.81730059394613,121.48848833961529 103.96316066751024,119.92170412114501 104.44612648361363,119.57352682489727 104.66393459675601,118.81188515361282 106.48215884563979,115.9720033656049 107.42915064195404,114.76421536191629 107.8931766221649,113.99165933507174 108.06363514548866,112.7076809964492 110.49740406195633,109.05152510510379 111.63379421754507,105.25378230895876 111.57697470975108,104.92732266162784 111.0655991397798,104.72056438446452 111.12241864751559,104.88379463552701 111.64326413546223,105.01437866219203 112.00312101806048,103.84999895982764 113.3857290406595,101.26002613218589 113.46148838434601,100.68325918504706 114.12438264180673,99.74736676779867 114.42742001655279,98.43057443355065 114.91038583265617,97.70143471479969 115.26077279733727,96.34108651222778 114.89144599676365,94.43657079411787 114.47476960642962,93.63122280892276 113.66982657951303,93.0 113.46148838434601,93.0 112.55237625993323,93.64210592908785 112.31562831084011,95.16573213216907 111.82319257681957,96.66757161350688 110.64892274932936,97.70143471479969 110.44058455416234,97.70143471479969 109.7587504608091,97.17906299261085 108.6413001412293,96.77639976549835 108.14886440715054,97.26612511840358 107.45756039582193,96.99405574677075 107.23975228267955,97.05935245727596 106.11283204506617,96.30843794882821 105.47834754158976,97.0375868914125 105.1184906589915,98.1802732832366 104.66393459675601,98.56116611216567 104.26619804237271,98.38704383958247 103.88740132382372,97.84290996308118 102.70366157841636,97.52731108271837 102.34380469581811,97.77761371723318 102.00288764917059,98.51763556984224 101.93659822340123,99.30118269925151 101.57674134086119,99.08353127812006 101.54833158693509,99.59501143544185 101.83242912584683,99.73648425103602 101.5199218330672,99.66030660369142 101.35893322771881,99.79089682401536 100.88543732953258,100.5526700229093 100.76232839602744,101.02061380386294 100.33618208765984,101.52120262407698 100.25095282599796,101.9456131023253 99.97632520506158,102.10884746616648 98.83046513155568,104.63350815165177 98.29067980765831,107.82189778931934 98.48954808490817,108.10482210434566 100.07102438469883,108.64890528303658 100.65815929841483,109.12769625724468 102.8267705119215,110.32466458800627 103.32867616397562,110.12879793298634 103.20556723047048,109.20386735670763 103.42337534361286,107.64779015733802 103.63171353877988,107.60426320635452 104.21884845249588,107.94159662667516 105.96131335769314,109.16034102060075 105.20371992065338,112.64239356249163 104.14308910880936,114.57923765158193 103.86846148787299,114.77509639404889 103.4139054256375,114.52483238356217 102.8551802658476,114.66628602455603" stroke="#4dd2ff" stroke-linecap="round" stroke-linejoin="round" stroke-width="0.5"><title>2023-06-22 16.9km</title><desc>1687415245000</desc></polyline><polyline fill="none" points="162.24840415666404,147.0 161.9908776893717,146.79498755899112 161.84428570031014,145.6560129076097 161.84032375465904,145.42365861374128 161.9512582328607,145.3780988105682 161.83636180900794,145.28242307696928 161.70957954818732,143.9702786410453 161.77693262424145,142.42117103107375 161.555063667809,142.30726399938067 161.55110172217246,141.91542165472492 161.65411230908649,140.90390620779 161.6382645264821,140.38902718335157 161.68976981993183,140.27967160368644 161.70957954818732,138.68942981268992 161.73731316774501,138.61196677270345 161.90767683071317,138.59374015608046 161.9750299067673,138.0833919557117 161.93144850461977,137.26773440334728 162.0067254719761,135.18979275548554 161.92748655895412,134.62927924402175 161.24999385274714,132.61046252827873 160.52891974433442,132.47374487054185 157.0542934088444,131.53949665206528 156.8482722350309,131.179464217621 156.52339269169897,130.81031410786818 156.47981128955144,130.63257410801816 155.72307967027882,130.4548334203464 155.75081328983651,129.8805895747828 155.69930799640133,129.7028459770263 155.53686822470627,129.49775635563856 154.67712601854873,128.8915972322502 154.031328877536,128.63181230167538 153.2349778017815,128.41304490452967 152.8387832367298,128.2626417144893 152.7872779432655,128.18060340321244 152.89821242149628,128.0256417487144 154.08679611663683,127.30096118859001 154.40771371431765,127.25538341261927 154.89107108367898,127.00926264072768 156.38868653957616,125.90170284201304 157.2048473435716,125.19066271773045 157.94176923455962,124.05115237542122 158.10817095189122,122.8158912173567 158.08439927798463,121.94070452365486 157.9813886910706,121.43017124667313 157.48614548475598,120.19028107619306 157.42275435435295,119.6979624540545 157.52576494126697,119.10534970107983 157.07014119146334,118.84550938861139 157.10579870230868,118.27567899136557 156.99090227844135,118.12524258599296 156.67394662641163,117.99304048934209 156.8245005611243,117.33658305835706 157.35540127828426,116.6345279141533 157.46237381084939,115.69539839485515 157.54953661517357,115.58142505795331 157.86649226721784,114.56477036707292 158.42908854957204,113.59368453759089 158.51228940823057,113.34749049788297 158.591528321238,112.60434121697108 158.54794691909046,112.35814186795687 158.31419212570472,111.89765435352092 158.29438239746378,111.25934718394274 157.91007366936537,110.80796746705528 157.90611172369972,110.1559667008878 157.4306782456406,109.6908975542101 157.33162960439222,109.52219483547378 157.30389598483453,109.23494283253967 157.3752110065543,108.81546048524979 157.29597209353233,108.63307565929063 157.07014119146334,108.47348834162403 155.71911772464227,108.41877256200314 155.44574347474554,108.34125842915091 155.28330370307958,108.16343139403398 155.12878782270127,107.79865583078572 154.78013660546276,107.64818506567826 154.4631809534185,107.06453621438777 154.2611217252561,106.93686203798279 154.15018724703987,106.98245999894061 153.90454661671538,106.87302481649385 153.27459725827794,106.21184836719476 153.0685760844499,105.76497888525773 153.02103273665125,104.15986074942339 152.20090998699015,103.10191125451456 152.08601356313739,102.8784619023645 152.0543179979286,102.54100571437812 152.17713831308356,101.04066367046107 152.4465506173292,100.2061056565035 153.0527283018455,99.37609299813994 153.31025476912328,98.64639912503117 154.32847480131022,97.83460103960897 154.69297380116768,97.0182277895583 155.18425506181666,96.4572477965994 155.6240310290159,95.55419240701303 156.04795921363984,95.27597478682947 156.7650713763578,95.1482677725653 157.12957037621527,94.8563646891198 157.52180299560132,94.40026239840154 158.3617354735179,94.0034497122324 159.02338039716415,93.46523850826998 160.2396977118624,93.04561182733596 161.38470000484085,93.0 162.06219271107693,93.16876353432235 163.1596516562713,93.62031696120175 163.63112318867934,94.04449945983652 164.25711060146568,94.43675074872954 165.005918329407,95.22580421652674 165.35853149228205,95.70470287448188 166.13903478543216,97.17329421843897 167.00670088290644,98.44117063005615 167.30384680668067,98.72392965063045 167.94568200205686,99.15718605598522 167.28799902409082,98.66008099201645 166.93142391553556,98.276987172394 166.65408772000228,97.90757224219851 166.59862048090145,97.69321900395516 166.49560989400197,97.620247460065" stroke="#ff8300" stroke-linecap="round" stroke-linejoin="round" stroke-width="0.5"><title>2023-04-05 21.2km</title><desc>1680651232000</desc></polyline><polyline fill="none" points="57.02911777974805,174.49428091770096 57.247740107937716,174.97868032442057 55.82669497461757,177.74152633201447 54.29633867711527,177.32889615472232 53.015836469014175,177.47241980089166 52.31312184256967,177.23919381831365 51.82902954437304,176.43187079815834 51.1887784403516,174.0457617972861 50.50167969457107,173.68694570401567 49.95512387400959,174.24311034665152 48.50284697947791,176.2524651955173 46.8163318761508,179.85848381400865 46.519630144990515,180.07376624448807 46.238544294436,179.91230444553366 45.707604354422074,180.70167187687184 45.97307432448724,180.97077362671553 44.598876832809765,184.5766986360395 43.20906346058473,186.37066453033185 41.616243640717585,187.24970135530748 42.16279946122086,188.03903692269523 40.75737020850647,190.2814488123404 40.538747880316805,191.19634491813486 40.788601969659794,194.3715368600533 38.352524598129094,195.89632683935633 35.60412961494876,198.69473164684314 32.371642333455384,203.233078643505 32.371642333455384,205.08067363139708 32.01247707993025,205.72643055890512 29.91994908131892,206.39012278908922 29.232850335596595,206.94618738722056 29.420240902574733,207.0 29.90433320082957,206.39012278908922 31.512768901186064,206.04930816266278 32.13740412465995,205.65467990240722 32.35602645284962,205.13448679630528 32.16863588587148,203.64565002609743 31.18483540887246,203.37658183930034 31.059908364200965,204.29141205004998 30.747590752493124,204.721918791809 27.98357988864882,205.85199413965165 27.49948759045219,204.36316324444488 27.12470645632129,204.0223448187753 26.453223591088317,203.57389854858047 25.06341021892149,203.2868923551723 24.3138479507179,202.71287860936718 24.220152667257935,202.372057090397 22.75225989212049,201.81597850368416 23.017729862069245,202.49762298750284 23.54866980202496,202.60525083031098 24.65739732363727,203.52008492180903 26.54691887460649,204.18378520531405 26.937315889284946,204.7398565505864 26.6249982775189,205.08067363139708 26.29706478532171,204.25553644215688 25.98474717355566,204.12997175903 26.109674218227156,203.59183642061544 26.84362060582498,203.73533933328872 27.561951112758834,204.5425411066244 27.95234812743729,205.88786943245213 30.700743110734038,204.84748306618712 31.07552424480673,204.48872776651115 31.169219528266694,203.44833339472825 31.887550035258755,201.88773067496368 33.27736340748379,200.27329997249763 35.76028842077358,196.1833446994424 36.54108245007228,195.30435107198718 38.867848657479044,194.03069970403158 39.5080997615587,193.3490234750352 39.648642686835956,192.47001614354667 39.180166269186884,191.33985761496297 40.24204614915652,188.8821870382526 40.02342382090865,187.78788506850833 40.22643026855076,187.41115663657547 40.56997964141192,187.39321716796258 40.445052596740425,187.14206442143768 40.91352901433129,186.1553895578254 42.77181880414719,185.41986481155618 44.02108925109496,183.67970904929098 45.02050560864154,180.82725274303812 45.254743817436974,180.8093126245949 45.89499492151663,179.51761944429018 44.95804208627669,179.4099779315584 44.69257211632794,178.99735154214432 49.28364100877661,170.36786325488356 49.73650154576171,170.2960986404796 50.51729557517683,170.76256812734937 49.29925688938238,170.02698108421464 51.87587718613213,165.7569291934342 51.42301664914703,165.0751469128736 51.17316255980404,163.87305087101413 48.94009163585724,162.45564382866723 50.79838142567314,159.01076036680024 50.34552088868804,158.47249142582587 48.12806584534701,157.21652436174918 49.61157450109022,154.20216798273032 50.407984410994686,153.1614857139066 50.923308470402844,153.0 52.48489652900025,153.37679977588414 53.59362405072898,153.23325709624623 54.34318631887436,153.68182759346382 53.65608757303562,155.06341776585032 53.00022058840841,154.9378190934367 51.235626082110684,156.08614658056467 50.84522906743223,157.23446680950292 50.7359179033665,158.2751257478376 50.923308470402844,158.2751257478376 53.34376996132778,155.52992636038107 54.26510691596195,153.96891213048366 54.2026433935971,153.6638847948925 53.609239931276534,153.25119993742555 52.14134715613909,153.3588569470885 50.70468614221318,153.0 50.26744148571743,153.21531425329158 49.15871396410512,154.9019337425416 48.97132339706877,155.78112279970082 47.65958942781435,155.78112279970082 47.50343062187312,156.30145717631967 47.97190703952219,157.07298471590912 49.06501868052874,157.86245136482466 50.68907026160741,158.54426071007038 53.28130643896293,155.22490164573537 52.125731275533326,155.02753243976622 51.36055312684039,155.42227063719474 50.79838142567314,156.13997425339767 50.31428912747651,157.61125780317525 49.84581270994386,157.5036033133365 50.01758739637444,157.18063946090115 49.5803427399951,156.44499743178312 50.329905008140486,155.22490164573537 50.70468614221318,154.9019337425416 51.78218190261396,154.66867878875928 53.531160528364126,154.54307984340994 53.99963694595499,154.05862595519284 53.921557542984374,153.46651389304316 53.07829999132082,153.26914277680044 53.45308112545172,153.46651389304316 53.609239931276534,154.30982442887034 53.952789304137696,154.61485067990725 53.64047169248806,155.00958977403934 52.984604707802646,154.88399106438737 51.235626082110684,156.01437632524176 50.59537497808924,158.61602996599686 50.751533783914056,159.17224073816033 51.266857843322214,159.08252943851403 52.56297593197087,159.69256540293281 53.85909402067773,160.51790491816064 53.812246378918644,160.84086283834768 50.033203276921995,166.83342232278665 49.31487276998814,168.43020871907356 48.83078047184972,169.00433073547902 48.487231098872144,168.96844816263183 48.955707516521215,169.21962602398708 48.315456412383355,170.24227516113024 49.127482202951796,170.40374555143353 49.04940280003939,170.56521579828404 49.39295217290055,170.17051049714792 49.87704447109718,170.3499221039092 49.08063456119271,171.40844697854482 49.37733629235299,170.92403805536742 49.17432984471088,170.6190391820419 49.37733629235299,170.1525693267613 50.01758739637444,170.42168669703824 50.329905008140486,170.83433255746786 50.11128267989261,170.99580242174852 50.31428912747651,171.46227011254814 51.34493724623462,172.21579231439682 52.79721414082451,174.69162898005743 53.99963694595499,174.99662101842114 54.733583333552815,176.10894058595295 56.560641362157185,176.19864348020928 56.935422496229876,176.57539515274402 55.6861520492821,177.7953475904651 54.10894811007893,177.2212533456768 53.09391587198479,177.45447935133416 52.37558536493452,177.32889615472232 51.672870738606434,175.89365345900296 51.579175455030054,174.53016239956196 50.86084494803799,173.68694570401567 50.39236853038892,173.68694570401567 48.4247675765655,176.27040576371655 46.66017307020957,179.9840652627754 46.30100781668443,179.93024465253984 45.707604354422074,180.55815078067826 45.98869020497659,181.00665382988518 44.63010859396309,184.5587588877097 43.333990505256224,186.2989062344859 41.63185952132335,187.24970135530748 42.10033593897242,188.12873392943584 40.80421785026556,190.24557043984532 40.58559552207589,191.12458852722193 40.80421785026556,194.42535319464514 38.52429928461788,195.69900179776596 35.65097725664964,198.4435945131263 34.120620959147345,200.9728883702337 32.46533761697356,203.0716374128824 32.3247946916963,203.57389854858047 31.996861199382693,203.64565002609743 31.278530692390632,203.21514073607977 31.871934154711198,201.81597850368416 33.199284004513174,200.39886731903243 36.010142510116566,195.95014272266417 37.3999558823416,194.6406183738727 39.024007463420276,193.9948220715014 39.523715642106254,193.49253447253432 39.69549032865325,192.48795511118078 39.22701391100418,191.1604667262145 40.24204614915652,188.64897569541063 40.05465558206197,187.62643012184708 40.91352901433129,186.19126873761707 42.709355281840544,185.50956311068148 43.58384459465742,184.4331805996335 45.06735325040063,180.7734323824261 45.254743817436974,180.82725274303812 45.910610802064184,179.78672294718854 45.95745844382327,179.1588141539396 46.61332542845048,178.62060489025316 47.05057008488802,177.66976462939056 46.72263659257442,177.52624113905767" stroke="#ff9d00" stroke-linecap="round" stroke-linejoin="round" stroke-width="0.5"><title>2023-01-01 20.1km</title><desc>1672559967000</desc></polyline><polyline fill="none" points="119.32829583238345,164.314932832669 117.02181661617942,163.3080026402895 115.3150219960371,163.65247918380192 114.20791197218932,163.3345008516626 113.53903299954254,162.46005849612993 112.54724693659227,158.56478066919954 111.55546087352559,158.0878039894742 110.86351710860617,158.6442767000408 108.64929706102703,161.8240986301971 105.99684596224688,167.36219856195385 105.12038386019412,167.38869637306198 104.63602322468068,168.13063402374974 104.84360635420308,169.08455084721209 102.26034963189159,175.39091568344156 100.76113814138807,177.00722904040595 98.50078850938007,178.14659162511816 99.07740831351839,179.33894264083938 97.1630305639701,182.78348249787814 96.84012347378302,184.32026294770185 97.43980806996115,187.49978078179993 97.2783545247512,188.69209026329918 93.93395966116805,190.67926096732845 89.41326039738487,195.1569650528254 84.73110758827534,201.8866283959942 84.800301964744,204.483067594585 84.38513570581563,205.22490275505697 83.48560881149024,205.88725384543068 81.38671272469219,206.20518178856582 80.71783375192899,207.0 81.22525917948224,206.31115768602467 83.39334964274894,205.86075983315823 84.47739487455692,205.0924323409854 84.75417238043156,204.32410265071667 84.63884841965046,202.5224933778809 83.48560881149024,201.8866283959942 82.97818338382058,201.99260599754052 82.58608191716485,203.76772460632492 81.20219438732602,204.40358513439423 82.72447066998575,203.63525347341783 82.90898900746834,202.1780666995619 84.1314229919808,199.47562666310114 85.7228936512256,197.83295374421868 89.52858435816597,191.6330976819445 91.55828606837895,189.46046467928682 94.34912592021283,188.13567983082612 95.22558802226558,187.15533483491163 95.3639767752029,185.8040426222724 94.71816259471234,183.97581292199902 96.2635036696447,180.3193161758536 96.07898533227853,178.7295194499602 97.32448410906363,176.45079439284746 99.90774083137512,175.52340075097163 101.47614669834729,173.48312346247258 103.36745965562295,168.68708591605537 104.6590880168369,166.91173537200666 104.24392175790854,166.30228397075552 105.07425427576527,165.5338432752178 106.41201222117525,162.85753264723462 110.28689730446786,157.6108264621289 111.0019058616599,155.808903709898 110.35609168105293,155.46441710050567 110.35609168105293,154.93443683820078 109.68721270828974,154.98743491145433 109.59495353978127,154.2454609326378 110.63286918704398,153.31799057481112 111.32481295184698,153.58298243262107 111.20948899106588,155.01393394422485 112.63950610521715,155.8884005570435 114.23097676434554,158.56478066919954 114.20791197218932,158.82976734722615 113.1469315327704,159.06825513378135 112.91628361109179,159.57172865403118 113.40064424660522,162.27457035754924 114.069523219252,163.1225150876271 115.56873470987193,163.67897736118175 117.16020536911674,163.28150442638434 119.1668422871735,164.26193660093122 116.97568703175057,163.28150442638434 115.33808678819332,163.67897736118175 114.02339363493957,163.25500620974344 113.30838507786393,161.77110190675012 112.7087004815694,158.82976734722615 111.76304400304798,157.90231282950845 110.84045231644996,158.53828198695555 108.856880190433,161.45312134598498 106.15829950745683,167.07072246656753 105.85845720930956,167.49468759150477 105.14344865223393,167.2297094668611 104.8666711463593,167.70666990304017 104.58989364036825,168.47510437876917 104.91280073067173,168.84607195912395 102.81390464387368,174.38402703401516 100.83033251785673,177.00722904040595 98.52385330153629,177.98761108960025 98.38546454859897,178.5175458418671 99.10047310567461,179.25945273789694 99.00821393704973,179.76288839257904 96.88625305797905,183.2339190582279 97.34754890121985,187.71174729880295 97.11690097965766,188.79807307201554 94.46444988099393,190.25533245119732 90.05907457787544,194.28262633437407 84.7080427960027,201.78065075262566 84.56965404306538,205.01295006118016 83.48560881149024,205.86075983315823 81.0638056343887,206.44362749901484 80.78702812839765,206.89402437437093 81.36364793241955,206.28466371560353 83.18576651334297,205.9137478551129 84.52352445875295,205.06593825027812 84.50045966659673,202.31053855118807 83.4625440192176,201.8601339890447 82.95511859178077,201.91312280026614 82.67834108578973,203.58226500204182 81.13300001097377,204.32410265071667 82.63221150147729,203.66174770519137 82.83979463088326,202.25754981831415 84.15448778413702,199.4226373709098 87.56807702430524,195.13046998195932 89.80536186415702,191.23566612935974 91.90425795095507,189.19550823248574 94.39525550440885,188.02969676052453 95.15639364579692,187.18183069265797 95.41010635963175,185.56557858473388 94.74122738698497,183.97581292199902 96.28656846180093,180.39880576508585 96.28656846180093,178.27907533285907 97.30141931702383,176.47729130700463 99.97693520784378,175.47040673182346 101.130174816004,173.98656994863995 102.02970171032939,172.42323303726153 103.27520048711449,168.6605882330041 103.41358924016822,168.39561125915498 103.59810757741798,168.7665789493767 103.80569070682395,168.60759285921813 104.52069926389959,167.38869637306198 104.7513471855782,166.59376090046135 104.17472738143988,166.32878188652103 105.46635574253742,165.00388289336115 106.34281784470659,162.85753264723462 107.8420293352101,160.71116523942328 110.17157334380317,157.95531031687278 111.0019058616599,155.94139844190795 109.66414791613352,155.11993004905526 109.6410831239773,154.13946448249044 110.5636748104589,153.23849296639673 111.27868336753454,153.4504865363415 110.86351710860617,154.2454609326378 111.16335940675344,155.01393394422485 112.80095965031069,156.1798887947807 114.23097676434554,158.53828198695555 114.3001711408142,158.80326869120472 113.21612590923905,158.96226058810134 112.939348403248,159.3862385196262 113.46983862307388,162.03608541958965 114.20791197218932,163.20200976880733 115.17663324309979,163.67897736118175 117.11407578468788,163.3080026402895 119.1668422871735,164.26193660093122 116.88342786312569,163.3345008516626 115.03824449004605,163.59948282127152 113.8388752975734,163.09601685541566 112.77789485803805,159.01525786618004 111.809173587244,157.98180905659683 111.117229822441,158.32629243523115 108.94913935905788,161.21463567827595 105.99684596224688,167.25620729115326 105.3279669896001,167.28270511273877 104.40537530300207,168.63409054742078 104.72828239342198,169.00505790807074 102.44486796925776,174.91396889922908 100.66887897264678,177.0602227562049 98.47772371722385,177.98761108960025 98.93901956058107,179.57741220860044 96.86318826582283,183.41939271634328 97.1630305639701,188.71858596938546 93.58798777870834,190.83823398844106 89.4593899815809,194.86551912958384 84.7080427960027,201.70116749269073 84.75417238043156,204.16513761278475 84.20061736856587,205.35737310387776 81.40977751684841,206.1786878077255 80.67170416761655,206.86753046140075 81.54816626978572,206.20518178856582 84.29287653719075,205.27789090242004 84.6849780039629,204.50956174271414 84.54658925102558,202.39002163076657 83.39334964274894,201.83363957953406 82.93205379950814,201.99260599754052 82.539952332736,203.74123038494145 81.0638056343887,204.32410265071667 82.72447066998575,203.55577076238114 82.79366504657082,202.20456107507925 83.99303423904348,199.66108910331968 87.38355868693907,195.3424304756336 89.85149144835304,191.1296842826414 92.61926650791429,188.71858596938546 94.04928362194914,188.1886713502172 95.08719926932827,187.26131825029734 95.41010635963175,185.9895145050541 94.87961613980588,183.2339190582279 96.19430929317605,180.53128836143878 96.28656846180093,178.33206879755016 97.32448410906363,176.45079439284746 99.74628728616517,175.6823827456974 101.79905378865078,172.87368697929196 103.36745965562295,168.60759285921813 103.48278361652046,168.39561125915498 103.55197799310554,168.8725696238689 103.7364963303553,168.71358359639999 103.89794987544883,168.15713175898418 103.55197799310554,167.38869637306198 104.72828239342198,166.54076511863968 103.0676173575921,166.5672630108602 103.0676173575921,165.5603412669152 109.5257591631962,153.37098896724638 110.1023789672181,153.0 111.30174815980718,153.50348490275792 110.93271148507483,154.32495824273792" stroke="#ff8b00" stroke-linecap="round" stroke-linejoin="round" stroke-width="0.5"><title>2022-05-22 20.9km</title><desc>1653205192000</desc></polyline><polyline fill="none" points="169.30910820129793,156.59388488977856 169.37192269664956,156.46398697473342 168.85684383532498,156.05985938991944 168.3920165702002,156.0165599395841 167.99000380036887,155.6124311180174 167.01009767397773,155.3526334285998 165.8543109606835,153.4041360427218 164.97490802663378,153.0 164.4598291653674,154.4722044923692 162.92715548037086,156.37738830060698 162.16081863787258,157.6763630272617 161.9472493539215,158.4124435831618 161.26885280484566,159.07635620019573 161.44473339163233,159.4083113783272 160.94221742934315,160.47633596882224 160.8417142368271,160.28871059212543 160.75377394346287,160.4330378263403 159.78643071604893,162.92987642915978 158.99496807542164,164.02674002497224 157.41204279428348,164.73392403380421 156.83414943766547,165.9606636925164 156.78389784140745,166.9997762945277 156.0803754942608,168.54399943897442 156.44469956686953,169.64082092764147 156.21856738388306,170.65104396895913 154.74870819417993,171.38705921944347 153.5803585818503,172.44056479952997 151.16828196292045,176.26487060103682 150.67832889966667,176.6112178866897 149.14565521467011,176.53906226980325 148.768768243026,176.76996011855954 145.51497738726903,180.47870687044633 143.86923761072103,182.83089829894016 141.14308851538226,190.4932964559266 139.14558756526094,193.8553896954254 139.3465939501766,195.2550366391515 139.09533596906113,196.55366616032552 138.36668782366905,197.6069905293698 136.7711996434955,198.3861571020243 136.30637237837072,198.96331485152768 135.84154511324596,201.97892707611027 136.34406107553514,202.36849924281705 140.33906297566136,203.71035099074652 141.8466108625289,203.8979206851509 147.90192820806988,205.94674323234358 148.64313925238093,205.94674323234358 151.64567212708062,207.0 153.49241828848608,203.73920788246323 155.8291175130871,204.8790505539655 155.8039917149581,204.50391343957745 154.57282760739326,203.99891965179995 153.73111337056616,203.3929248064378 153.99493425077526,202.6859276489413 156.0552496960736,200.10319471982075 154.48488731397083,201.80578355806938 153.50498118752148,203.29192542158125 151.8718043100671,202.52721353192464 150.94214977987576,201.63263983519573 154.79895979037974,196.9721109954262 155.4773563395138,195.65905594741344 155.99243520083837,193.65337769073085 156.6457059517852,192.54230667982483 157.7889297659858,191.44565688948205 156.50751406222116,192.80203832108236 155.30147575266892,196.09193253978447 154.6482050017221,197.24626385937154 153.8190536639886,198.0398613596626 153.2788490044768,197.9100002450432 152.62557825352997,196.91439453761268 152.28637997899204,194.73558160380344 151.6079834299162,193.36478862883814 151.67079792520963,193.10505798648228 152.78889594128123,192.32586329327023 153.22859740821877,191.7198201075953 156.78389784140745,189.12246373685775 160.5527675585472,184.40381502399396 162.97740707657067,185.25520326130209 166.50758171163034,185.99114503328747 169.2211679079337,186.85695414317888 169.83674996171612,186.8136638093565 170.590523905179,185.78912217041943 171.54530423349934,183.75444778351812 177.16092011204455,178.32851106437738 181.69612667168258,173.04668785877584 182.5755296056741,172.29624941521615 182.92729077924741,171.6179652014107 184.15845488681225,170.65104396895913 183.68106472265208,171.01183622122335 182.75141019246075,170.95410952066595 180.3518964725663,169.10684307249903 177.851879560214,168.34195247804746 174.69859189685667,167.01420836200123 160.61558205384063,159.20625179444323 160.5778933566762,158.78769891105185" stroke="#4dd2ff" stroke-linecap="round" stroke-linejoin="round" stroke-width="0.5"><title>2022-05-07 16.0km</title><desc>1651926428000</desc></polyline><polyline fill="none" points="31.311049696232658,248.4583006185494 30.81037681334419,248.29067715905694 30.063919060718035,246.99158630686725 28.989748148305807,246.46775481927762 28.461765835498227,245.3467466862494 27.032572333468124,244.69718511423707 25.76723541127285,243.30375726513012 25.348490818287246,242.16176130235544 25.32118138836813,239.07097619596607 25.17553109509754,238.52615043731203 23.445933863375103,236.37825220679952 23.036292413744377,235.48764741300693 23.336696143465815,231.3174212571539 23.79185330972541,229.8714248928227 25.339387674990576,227.6604790233905 26.022123424394522,225.84767834754894 28.24329039567965,224.18155078341806 29.190017301472835,222.11719264365092 30.20956935387221,220.98544613198465 30.9469239632308,219.3297209852317 31.575040852651,218.56472525616846 32.066610592242796,218.31321859688614 34.16033355696709,217.75780592917 35.81710564214154,216.09155034516152 37.264505430852296,215.5466056891455 38.59356435626978,214.3623893073236 40.314058444753755,213.56591769933584 41.533879650291055,213.1991195373921 43.126929732214194,213.02095996904973 44.255719504493754,213.0 45.60298471659189,213.2410393920145 48.270205710839946,214.22615117001988 49.79043064612779,215.48372727807873 51.30155243808986,216.47929770966584 53.367965972895036,218.86862833455234 55.698370664118556,223.10222137295204 56.96370758628473,224.90459051127254 55.5436172275804,222.94503655532026 53.07666538649937,218.54376639083785 51.34706815474783,216.58409404954728 48.26110256751417,214.22615117001988 45.557468999992125,213.2305594299396 42.24392482964322,213.12575975165237 40.48701816788525,213.54495783877792 38.83934922609478,214.26807061565341 37.246299144171644,215.5570854206453 35.88993078871863,216.08107066682715 34.051095837086905,217.8311624871858 31.9937854456075,218.36561586708558 31.329255982884206,218.80575190753734 30.300600787159055,220.91209177163546 29.180914158176165,222.1800670931989 28.325218685611617,224.1291564073399 26.04943285434274,225.82672093189467 25.28476881503593,227.79669977893354 23.83736902635428,229.81903334749222 23.41862443339778,231.09737961282372 23.036292413744377,235.32000331560266 23.318489856814267,236.2001318504117 24.966158798662946,238.11752926922054 25.248356241732836,238.68331200304965 25.366697104967898,242.28748623488354 25.721719694614876,243.23041844677937 26.97795347351348,244.58193990093423 28.398043832188705,245.31531637979788 29.108089011569973,246.53061473530397 30.136744207295123,247.0439693124208 30.555488800251624,247.9763824538095 30.956027106556576,248.30115363307414 33.85082668391988,248.4478241601537 34.888585022999905,248.74116460182995 35.18898875272134,249.14974457053904 35.28002018597908,249.5792756500232 35.17988560939557,250.9097632490084 35.52580505571677,251.45452497802762 36.41791310158442,252.2507101319352 36.5635633947968,252.76403684454272 36.49073824819061,253.9059179117612 37.41925886736135,255.12111720179382 37.4010525807098,256.3782051717353 37.965447466878686,257.50957152581395 38.04737575678155,258.1381031419369 37.810694030311424,260.0341508111742 36.37239738498465,262.6319950043762 35.47118619582034,265.1669264160155 35.28912332927575,267.0 35.43477362248814,265.1774012127498 35.64414591898094,264.9364806245503 36.33598481171066,262.6110449040425 37.774281457066536,259.981774261767 38.02916947013,257.9390685356557 37.35553686408093,256.3363024809805 37.428362010687124,255.1315929968041 36.45432567491662,254.01067702310684 36.45432567491662,252.50213577295654 36.263159665075364,252.1354731793108 35.32553590257885,251.3707156645396 35.1343698927667,251.0250015418933 35.16167932274402,249.1078390056282 34.77024415976484,248.67830600450543" stroke="#4dd2ff" stroke-linecap="round" stroke-linejoin="round" stroke-width="0.5"><title>2022-02-26 19.6km</title><desc>1645834127000</desc></polyline><polyline fill="none" points="118.56177892466076,230.58849174168427 116.80097776185721,227.55409425939433 112.79026400228031,226.2616607901291 107.75241623073816,218.3946111605037 105.0623033430893,216.37163796689129 104.47536962223239,214.9667912410223 105.60032592061907,213.8429113639868 103.49714675405994,213.33716469543288 101.78525673458353,216.14686272357358 104.81774762598798,219.01274042431032 102.27436816855334,224.0139434193261 97.48107611434534,229.2960651619942 92.44322834303603,238.6801392842899 90.48678260669112,240.75922459358117 91.31827204464935,241.7144774601329 89.41073745139875,246.09738182782894 88.77489258698188,245.2545182237518 88.38360343989916,245.76023653597804 84.95982340094633,255.59355886781123 81.63386564911343,260.1449248478166 76.10690644360147,262.1677424933878 75.17759471875615,265.25814446323784 78.35681904060766,266.8876223840052 78.50355247082189,264.9210105179809 82.80773309106007,263.1229594388278 85.20437911828049,260.5382510641357 87.50320285838097,256.94211554399226 91.66065004840493,245.98500008595875 90.8291606104467,245.31070916965837 91.31827204464935,243.6249783844687 92.58996177325025,242.27639016223839 94.15511836227961,242.55734630528605 100.90485615306534,229.1274875655654 105.40468134707771,223.1710471168626 107.06766022299416,223.05866084911395 108.63281681225635,224.800645508687 109.65995082375593,230.47610693832394 111.5674854167737,234.0162175896112 113.8173980137799,234.8029058558168 117.73028948670253,234.18479373824084 122.27902582404204,236.20770362683106 125.40933900210075,231.7123385562445 120.61604694812559,230.86945365346037 118.07266749069095,234.35336983687012 114.4043317346368,235.14005763700698 112.3500637114048,234.69052188441856 109.75777311064303,231.4875693707727 108.68172795558348,224.8568384734681 106.62745993235148,223.0024677066831 105.45359249040484,223.22724024247145 100.3668335757684,230.53229934273986 94.30185179272667,243.11925817554584 92.44322834303603,242.83830230985768 91.66065004840493,244.2430802519666 91.85629462194629,246.26595439884113 87.89449200546369,257.44782347406726 85.5956682653632,261.15633456909563 83.73704481567256,263.29152696882375 79.38395305210724,264.7524434707011 77.6231518893037,266.7752447461244 74.83521671476774,264.9771995227784 75.76452843961306,262.1677424933878 81.09584307135083,260.2011143239797 85.35111254849471,254.24499899736838 88.62815915676765,245.0859453532612 89.50855973828584,245.2545182237518 91.26936090108939,242.10781640990172 91.22044975776225,240.75922459358117 90.2422268895898,240.81541598308831 92.39431719947606,238.51156446692767 94.30185179272667,233.90383346297313 101.5407010174822,224.7444525382598 104.57319190911949,219.29370804980863 101.6385233043693,215.75350583461113 103.59496904094703,213.1685823726002 105.25794791686349,213.50574696820695 105.25794791686349,216.54021934093907 108.2415276649408,218.22603033552878 113.27937543625012,226.317853610788 117.0455334787257,227.32932343200082 118.75742349843495,230.41991452814545 124.92022756836377,231.1504154264112 124.87131642480381,232.72379879228538 122.23011468048207,236.3762791264453 117.6813783433754,234.35336983687012 114.99126545572653,235.02767373225652 112.10550799453631,234.69052188441856 110.05123997130431,232.61141441034852 108.48608338204212,224.96922438644106 107.60568280052394,223.56439888000023 106.04052621126175,223.05866084911395 99.82881099823862,231.26280009676702 94.00838493206538,243.40021390258335 92.58996177325025,242.66972872370388 91.85629462194629,244.74879946245346 91.12262747087516,244.58022644219454 91.02480518398806,245.8164274317678 91.75847233529203,246.49071774928598 87.94340314902365,257.3354439730174 85.64457940869033,260.87538760440657 83.34575566835701,263.62866187893087 78.60137475747615,265.3705224005971 78.55246361414902,266.831433567917 75.03086128854193,265.25814446323784 74.59066099789925,264.3591201659292 75.71561729628593,262.28012104076333 80.60673163761385,260.5944405012997 84.71526768384501,255.48117900075158 88.67707030032761,245.02975438541034 89.50855973828584,245.14213631581515 91.41609433130361,242.3325814018608 91.41609433130361,241.15256420325022 90.34004917624407,240.70303319848608 92.68778406013735,238.06203137658304 97.23652039724402,229.5208352127811 103.30150218028575,221.93479694915004 104.67101419577375,218.6755790907191 101.98090130835772,216.87738193920814 101.73634559102356,215.30395477148704 103.64388018427417,213.056194129691 105.6492370639462,213.89910541067366 104.76883648242801,215.02298517676536 105.30685906019062,216.65260689583374 108.29043880826794,218.33841755765025 113.0348197191488,226.20546796394046 117.19226690917276,227.55409425939433 119.44217950617895,230.8132612821064 124.92022756836377,230.92564601911 124.57784956414253,233.51048884465126 122.76813725824468,236.3200872989255 117.48573376960121,234.35336983687012 114.69779859506525,235.14005763700698 111.95877456432208,234.521945885499 109.95341768418439,232.2180688988883 108.3393499518279,224.800645508687 106.67637107591145,223.11485398578225 105.60032592061907,223.33962647733279 99.77989985467866,231.59995397471357 94.15511836227961,243.2878316284041 92.78560634679161,242.72591992467642 92.05193919572048,243.73736059194198 91.75847233529203,246.49071774928598 86.67171342042275,259.6392193136271 83.83486710255966,263.29152696882375 78.89484161813743,265.03338852204615 78.60137475747615,266.8876223840052 75.07977243186906,265.14576650375966 75.81343958317302,262.1677424933878 81.19366535847075,260.2573037946131 84.61744539719075,255.48117900075158 88.53033687011339,245.31070916965837 88.8727148741018,244.86118144821376 89.0194483040832,245.98500008595875 91.66065004840493,242.05162514792755 91.41609433130361,240.98399011814035 90.34004917624407,240.5344589802553 103.44823561073281,221.65383062732872 104.71992533933371,218.50699834915577 101.98090130835772,216.87738193920814 101.68743444769643,215.75350583461113 103.05694646341726,213.50574696820695 104.08408047491685,213.056194129691 105.6492370639462,213.8429113639868 105.55141477729194,216.7649944287259 108.82846138579771,218.95654688269133 113.37719772313721,226.48643203894608 116.60533318831585,227.16074525326258 118.75742349843495,230.58849174168427 124.87131642480381,231.1504154264112 125.21369442879222,232.1056844171253 124.23547156061977,234.07240964483935 122.76813725824468,236.43247094855178 117.48573376960121,234.35336983687012 114.69779859506525,235.19624958123313 111.90986342076212,234.63432989036664 110.05123997130431,232.49903000623453 107.99697194783948,224.2387155558099 106.72528221900575,223.11485398578225 105.25794791686349,223.56439888000023 100.02445557177998,230.98183837917168 94.44858522270806,242.8944934940082 92.44322834303603,242.72591992467642 87.84558086236939,257.8411515535554 85.69349055201747,261.212523945258 83.39466681191698,263.74104013777105 79.09048619167879,265.03338852204615 78.60137475747615,266.831433567917 74.78630557144061,265.08957751560956 76.00908415694721,262.1115532114636 81.82951022265479,259.5830297819921 85.0087345445063,254.86308933439432 88.67707030032761,244.91737243288662 89.06835944764316,246.09738182782894 90.73133832355961,243.00687584566185 91.66065004840493,241.99543388054008 92.05193919572048,242.50115508784074 91.31827204464935,242.16400766617153 91.36718318797648,241.04018148541218 90.2422268895898,240.70303319848608 98.8994992733933,227.55409425939433 101.19832301372662,225.19399614573922 104.62210305244662,219.23751453572186 101.6385233043693,215.97828123322688 103.83952475781552,213.0 105.6492370639462,214.12388154136715 105.11121448664926,216.59641312109306 106.72528221900575,216.98976942762965 109.21975053311326,219.34990155813284 113.62175344023854,226.82358874601778 116.84988890541717,227.04835977306357 118.65960121154785,230.53229934273986 125.21369442879222,231.31899242359214 123.35507097910158,235.4210173023166 122.27902582404204,236.48866276518675 117.6813783433754,234.35336983687012 113.91522030066699,235.19624958123313 111.61639656010084,234.5781378908432 109.85559539753012,231.76853083865717 108.43717223848216,225.02541733451653 105.84488163772039,223.1710471168626 100.46465586242266,230.41991452814545 94.05729607539251,243.40021390258335 92.78560634679161,242.7821111198864 91.26936090108939,244.86118144821376 90.92698289710097,245.53547289717244 91.95411690883338,245.92880920681637 87.94340314902365,257.44782347406726 84.9109122576192,262.0553639238351 83.39466681191698,263.74104013777105 79.09048619167879,264.9210105179809 77.86770760617219,267.0 74.8841278583277,265.25814446323784 75.81343958317302,262.1677424933878 81.53604336222634,259.9763563864399 84.56853425363079,255.53736893704627 88.62815915676765,245.0859453532612 89.0194483040832,246.09738182782894 90.43787146313116,243.4564050314366 91.66065004840493,242.7821111198864 91.22044975776225,240.98399011814035 90.38896031980403,240.81541598308831 93.12798435078003,237.3877310755779 97.28543154080398,229.85799012234202 101.68743444769643,224.6320665811072 104.71992533933371,219.01274042431032 101.83416787791066,216.82118818658637 101.58961216080934,215.69731197116198 103.59496904094703,213.056194129691 105.16012562997639,213.44955288275378" stroke="#ff7500" stroke-linecap="round" stroke-linejoin="round" stroke-width="0.5"><title>2022-01-27 21.8km</title><desc>1643277543000</desc></polyline></svg>