<?xml version="1.0" encoding="utf-8" ?>
<svg baseProfile="full" height="300mm" version="1.1" viewBox="0,0,200,300" width="200mm" xmlns="http://www.w3.org/2000/svg" xmlns:ev="http://www.w3.org/2001/xml-events" xmlns:xlink="http://www.w3.org/1999/xlink"><defs /><rect fill="#222222" height="300" width="200" x="0" y="0" /><text fill="#FFFFFF" style="font-size:12px; font-family:Arial; font-weight:bold;" x="10" y="20">Over 15km Runs</text><text fill="#FFFFFF" style="font-size:4px; font-family:Arial" x="10" y="280">ATHLETE</text><text fill="#FFFFFF" style="font-size:9px; font-family:Arial" x="10" y="290">Jason</text><text fill="#FFFFFF" style="font-size:4px; font-family:Arial" x="120" y="280">STATISTICS</text><text fill="#FFFFFF" style="font-size:3px; font-family:Arial" x="120" y="285">Number: 8</text><text fill="#FFFFFF" style="font-size:3px; font-family:Arial" x="120" y="290">Weekly: 1.0</text><text fill="#FFFFFF" style="font-size:3px; font-family:Arial" x="141" y="285">Total: 152.7 km</text><text fill="#FFFFFF" style="font-size:3px; font-family:Arial" x="141" y="290">Avg: 19.1 km</text><text fill="#FFFFFF" style="font-size:3px; font-family:Arial" x="167" y="285">Min: 16.0 km</text><text fill="#FFFFFF" style="font-size:3px; font-family:Arial" x="167" y="290">Max: 21.8 km</text><polyline fill="none" points="59.220178992603905,39.74047322766273 59.94768271513749,38.79681699036155 60.81599360983819,39.09339501624345 60.39357209345326,40.2797038994031 60.1354256112827,41.250316425808705 59.783407681039535,42.30180943693267 59.102839682484046,43.29937598769902 58.75082175224088,43.649871478352 58.14065733982716,43.13760868640384 57.20194285910111,42.70622874799301 56.23976051621139,42.40965464510373 55.20717458764557,42.76015127761639 54.22152438282501,42.787112538382644 53.259342040051706,42.38269334702636 52.60224190365989,41.573853168054484 52.27369183534756,40.57628031511558 52.0624810771551,39.49781907800934 51.9216739051044,38.446315271809 51.405380940646864,37.55657811983838 50.584005770040676,37.09822754675406 49.85650204750709,37.799233994213864 49.31674122111872,38.60808535164688 48.70657680858858,39.44389590440551 48.190283844363876,40.17185785021866 47.69745874183718,40.899817855795845 47.25156936363783,41.95131221631891 46.85261570930015,42.81407379650045 46.40672633086797,43.542026759823784 46.078176262555644,44.404783315374516 45.65575474628713,45.240576129668625 45.20986536797136,46.04940545040881 44.67010454158299,46.75038892435259 43.9426008190494,46.77734979122761 43.59058288880624,47.64009612746304 43.684454336878844,48.260193373513175 43.262032820493914,49.06901375268353 42.95695061434526,49.931752850767225 42.65186840808019,50.87537061909097 42.34678620181512,51.7111436346604 42.01823613361921,52.70867582180654 41.64275034132879,53.65228399756597 41.10298951494042,54.48804851685418 40.53976082650479,55.29685045569204 39.92959641397465,56.07869005363318 39.08475338143762,56.61788847259595 38.099103176617064,56.94140701313154 37.277728006010875,57.50756353716133 37.58281021215953,58.31635653608828 37.794020970351994,59.017308531474555 37.30119586805813,59.90697578169056 36.76143504155334,60.90447804122232 36.15127062925603,61.7671797608491 35.75231697480194,62.60291945384233 35.58804194070399,63.60041186964372 35.68191338889301,64.54398242448224 35.84618842287455,65.54146775323898 36.05739918106701,66.56590835400857 36.12780276709236,67.64426273127901 35.75231697480194,68.58781931985868 34.83707035612315,69.07307572520222 33.96875946142245,69.5044140284881 33.05351284286007,69.93575165086077 32.255605534184724,70.4749227212742 31.575037535629235,71.20280197853572 30.89446953719016,71.93067929669633 30.143497952609323,72.63159636288765 29.41599423007574,73.33251163110253 28.73542623152025,74.06038327561691 28.078326095012017,74.84216917844606 27.515097406692803,75.70482688918128 26.92840085620992,76.59443980079959 26.45904361596331,77.5649233100703 25.87234706536401,78.34669918569853 25.215246928855777,79.12847282469738 24.581614654511213,79.93720182176912 24.08878955198452,80.8537584580481 23.36128582956735,81.55465263497899 23.290882243425585,82.52511852738098 23.33781796740368,83.49558097313275 23.31435010547284,84.46603997240891 22.798057141015306,85.30171023783623 21.929746246314608,85.81389397606836 20.92062817956321,85.94867901076213 19.934977974859066,86.19129190573585 19.207474252325483,86.81130165877403 19.582960044615902,86.2721628228901 20.568610249320045,85.97563600976719 21.53079259209335,85.8678079979436 22.469507072819397,85.57128074602224 23.17354293342214,84.87039687152719 23.33781796740368,83.95385370776057 23.243946519331075,83.01035018105176 22.98580003727693,82.25554501402075 22.187892728601582,81.98597123485524 21.624664040165953,81.77031202000217 21.41345328197349,82.65990518423496 21.225710385944694,83.68428160401527 20.286995905218646,84.25038271487574 19.629895768710412,84.38516852070461 20.732885283418,84.03472528711427 21.41345328197349,83.27992294964497 21.43692114413716,82.20163027945091 21.859342660405673,81.28507816427737 22.39910348667763,80.42243807099294 22.774589279084466,79.45196471080999 23.478625139570795,78.67019199731294 24.20612886210438,77.94233263275237 24.792825412587263,77.13359773150296 25.238714790903032,76.21702861628728 25.825411341385916,75.46220468336833 26.482511477777734,74.65346244117245 27.04574016632978,73.81775960957748 27.515097406692803,72.928137657349 27.937518922961317,72.03851280847448 28.45381188741885,71.14888506304123 29.08744416187983,70.36708859229111 29.814947884413414,69.6661657167133 30.589387331041507,68.99219971743878 31.504633949603885,68.45302572101355 32.49028415430803,68.10256205269252 33.38206291105598,67.67122153611854 34.01569518551696,66.8624562319892 34.226905943709426,65.89193470677128 34.109566633589566,64.84053249721183 33.56980580720119,64.00479964941042 33.56980580720119,62.95339017713559 33.96875946142245,61.98285476511228 34.438116701785475,61.09319427513401 34.88400608021766,60.230490427115 35.02481325226836,59.28690497385105 34.860538218170404,58.50507455790648 35.37683118251152,57.83108102402184 35.8696562849218,58.01979938108707 35.49417049263138,57.37276447121985 35.9165920088999,56.456129058642546 36.597160007455386,55.86301038810052 37.653213798301294,55.51253056831774 38.63886400300544,55.16205029885168 39.34289986360818,54.40716819127556 39.953064276021905,53.46356262319023 40.516292964457534,52.51995379553409 40.98565020470414,51.495460520585766 41.36113599711098,50.44400290088379 41.76008965144865,49.41950183993322 42.135575443622656,48.39499693637481 42.41718978784047,48.17931120385765 42.8396113042254,47.55921377422055 43.262032820493914,46.53470189316431 43.402839992544614,45.860678823140915 43.21509709651582,45.591069129441166 43.9895365430275,44.86312162701506 44.48236164543778,43.91948308821884 44.90478316182271,42.92191880239989 45.468011850258335,41.97827355697518 46.125111986650154,41.08854791088379 46.66487281315494,40.11793480964843 47.29850508761592,39.22820310332463 48.002540948218666,38.4732769583934 48.70657680858858,37.637463435239624 49.29327335907146,36.69379993175971 49.76263059943449,35.696209254005225 49.73916273738723,34.96823537864839 49.12899832497351,34.509880461584544 48.56576963653788,33.99760052643251 48.9412554288283,33.16177330588107 49.809566323529,33.24265992292203 50.37279501184821,33.94367626673193 50.865620114374906,34.61772874655435 51.640059560886584,35.23785555877839 52.20328824932221,35.96582871544524 52.69611335173249,36.774685502576176 53.3062777640298,37.61050166611676 53.681763556436636,38.55416200228501 54.479670865111984,39.1742798765481 55.53572465584148,39.22820310332463 56.357099826447666,39.95616562408395 56.732585618738085,40.92677930020727 57.62436437536962,41.1424707598635 58.58654671814293,41.08854791088379 59.61913264694158,41.250316425808705 59.57219692284707,42.03219623025507 59.055903958389536,42.92191880239989 58.53961099404842,43.6768326513411 58.11718947766349,43.568987943493994 57.22541072103195,43.05672499988577 56.33363196440041,42.76015127761639 55.39491748367436,42.86799630476162 54.40926727897022,43.110647460242035 53.447084936196916,42.84103505194071 52.78998479968868,42.086118892912054 52.39103114546742,41.16943218038068 52.1563525252277,40.17185785021866 51.99207749112975,39.14731825905619 51.75739887089003,38.203659972321475 51.147234458476305,37.4217692076345 50.25545570184477,37.55657811983838 49.71569487545639,38.36543019590317 49.12899832497351,39.20124149124604 48.542301774490625,40.064011758513516 47.97907308617141,40.87285640867776 47.46278012171388,41.81650547325262 47.0638264673762,42.73319001408527 46.57100136508234,43.542026759823784 46.19551557279192,44.485666602733545 45.749626194359735,45.456264182779705 45.28026895399671,46.37293650812353 44.69357240363024,46.966075785137946 43.96606868109666,47.10087998671224 43.59058288880624,47.99058604819584 43.684454336878844,48.69156454046606 43.21509709651582,49.58126542082755 42.863079166272655,50.551844894333044 42.557996960007586,51.52242091920925 42.229446891811676,52.4660331926425 41.90089682349935,53.46356262319023 41.33766813506372,54.40716819127556 40.704035860602744,55.24293040094199 40.09387144818902,56.07869005363318 39.29596413963009,56.72572802868672 38.35724965890404,57.07620629196754 37.418535178061575,57.48060372925829 37.34813159215264,58.37027598413988 37.911360280471854,58.99034887255402 37.465470902156085,59.93393535015639 36.99611366179306,60.823599615338026 36.40941711142659,61.65934219490737 35.8696562849218,62.54900084109977 35.63497766468208,63.57345266305492 35.70538125070743,64.62485974901938 35.84618842287455,65.62234478237224 36.01046345708892,66.61982617390458 36.15127062925603,67.61730392364552 35.9165920088999,68.58781931985868 35.095216838410124,69.10003438909189 34.25037380575668,69.612248497986 33.33512718707789,70.04358595007216 32.49028415430803,70.60971532267286 31.762780431774445,71.36455266125267 31.01180884731002,72.14634627776104 30.237369400681928,72.87422108228202 29.439462092122994,73.52121928066481 28.688490507542156,74.2760485757608 27.960986784892157,75.16566613918985 27.421225958503783,76.02832282855525 26.834529408137314,76.94489257675014 26.341704305727035,77.86145925035817 25.73153989331331,78.7241074287449 25.050971894757822,79.53283762244973 24.4408074823441,80.36852297472069 23.87757879390847,81.23116323820432 23.26741438137833,81.9590138423373 23.36128582956735,83.03730746993097 23.45515727752354,84.06168247485766 23.243946519331075,85.08605363976676 22.492974934866652,85.75997994354111 21.554260454140604,86.05650699077523 20.451270939200185,86.21824888081755 19.489088596659712,86.6226031872211 19.324813562445343,86.75738782304688 20.193124457029626,86.16433492806391 21.15530679980293,85.97563600976719 22.164424866670743,85.75997994354111 22.915396451135166,85.1130107237841 23.290882243425585,84.19646837381879 23.220478657400236,83.1720938741928 22.93886431318242,82.36337445129175 22.164424866670743,82.03988601191668 21.554260454140604,81.9590138423373 21.41345328197349,83.03730746993097 21.03796748968307,84.00776809663512 20.028849423048086,84.46603997240891 19.88804225088097,84.4929971175734 20.944096041610464,84.00776809663512 21.389985419926234,83.06426475607441 21.507324730046093,81.98597123485524 22.000149832456373,81.01550342771225 22.446039210772142,79.99111700311187 23.00926789920777,79.07455747321364 23.807175207766704,78.3736569347675 24.487743206322193,77.5649233100703 25.027504032710567,76.67531355816755 25.520329135120846,75.8126589115418 26.224364995607175,75.03087578545092 26.764125822111964,74.16821594690555 27.350822372478433,73.22467862992198 27.843647474888712,72.2541797044978 28.33647257729899,71.28367733184132 29.017040575738065,70.50188124689157 29.768012160318904,69.74704152485356 30.612855192972347,69.07307572520222 31.551569673698395,68.53390188835328 32.537219878518954,68.1295208123338 33.45246649708133,67.59034511348 34.039163047564216,66.78157956994255 34.203438081778586,65.7301807840995 34.01569518551696,64.7596552366158 33.49940222105943,63.843044609355275 33.59327366924845,62.791634514549514 34.06263090961147,61.848057907423936 34.602391735999845,60.90447804122232 35.048281114315614,59.960894915944664 34.95440966624301,59.017308531474555 34.97787752817385,58.23547734390013 35.82272056094371,58.07371888778289 36.76143504155334,58.55899396870518 37.67668166034855,59.12514714032295 37.512406626250595,60.01481403943035 36.972645799745806,60.95839697847259 36.38594924926292,61.82109852787107 35.8696562849218,62.710756647371454 35.68191338889301,63.681289473490324 35.7757848368492,64.67877795198001 35.96352773299441,65.70322178766946 36.12780276709236,66.70070288394345 36.24514207721222,67.77905672910856 35.8696562849218,68.77653024651227 34.88400608021766,69.28874496195931 33.96875946142245,69.80095871709636 33.0300449806964,70.25925442081643 32.161734086228535,70.85234183751163 31.481166087673046,71.58022008926491 30.706726641044952,72.30809640191728 29.932287194533274,73.06292904837755 29.22825133393053,73.7638432100357 28.500747611396946,74.51867183478316 27.937518922961317,75.3813305668009 27.327354510431178,76.21702861628728 26.764125822111964,77.13359773150296 26.247832857770845,78.07712155024637 25.61420058319345,78.93976904769079 24.910164722707123,79.72154098993633 24.32346817222424,80.61114082412678 23.59596444957424,81.41986543289386 23.290882243425585,82.36337445129175 23.45515727752354,83.46862372945179 23.4316894155927,84.46603997240891 22.962332175229676,85.35562436078908 22.140957004507072,85.8947650049231 21.108371075824834,86.08346397907007 20.07578514702618,86.2721628228901 19.277877838467248,86.83825857259217 19.582960044615902,86.48781848486396 20.615545973414555,86.11042096468736 21.64813190221321,86.00259300603648 22.563378520892,85.62519481577328 23.19701079535298,84.81648265291005 23.243946519331075,83.76515326305525 23.126607209211215,82.65990518423496 23.31435010547284,81.60856749719824 24.08878955198452,80.79984344690456 24.628550378489308,79.85632902971702 25.35605410102289,79.07455747321364 25.966218513436615,78.29278367996449 26.505979339941405,77.45709197921678 26.99880444223527,76.51356601939187 27.608968854765408,75.67786887698458 28.242601129226387,74.81521108114976 28.923169127781875,73.97950874417438 29.72107643634081,73.22467862992198 30.589387331041507,72.49680475905188 31.45769822562579,71.68805373946088 32.349476982373744,70.63667383493157 33.45246649708133,69.93575165086077 34.485052425879985,69.39657951655681 35.47070263070054,68.8574063181004 36.05739918106701,67.99472698743921 36.05739918106701,66.91637399350293 35.9165920088999,65.99977060215315 35.70538125070743,65.05620507526328 35.61150980275124,64.1126362895302 35.75231697480194,63.169064244953915 36.03393131913617,62.2254889413598 36.62062786961906,61.389748093730304 37.18385655793827,60.500085672334535 37.653213798301294,59.610420353594236 37.84095669433009,58.72075213750941 37.160388695891015,57.99283962382469 37.981763866497204,57.23796533877612 39.06128551927395,56.91444714940735 40.0,56.32132947386708 40.68056799855549,55.40469053326524" stroke="#4dd2ff" stroke-linecap="round" stroke-linejoin="round" stroke-width="0.5"><title>2023-12-17 16.0km</title><desc>9223370334074632807</desc></polyline><polyline fill="none" points="164.8533329560305,69.57230570992397 163.93475091364235,69.13712202964234 162.92146969155874,69.24591811079881 162.46691362938145,68.82161278696003 162.27751527004875,67.64660490337701 162.04076732101385,67.1678943963343 161.69038035639096,66.92853836304857 161.36840314563597,67.2114136192613 160.55399020080222,68.32114799768169 159.31343094765907,70.8452081113428 159.0956228345167,70.74729306391237 158.89675455732504,71.03015851917735 158.07287169451592,73.61943164372497 157.23951891378965,74.70734338159673 156.28305719955824,75.1642631097493 156.27358728158288,75.49063318462868 156.47245555877453,75.74084958764433 156.31146695342613,76.20864394806995 155.65804261394078,77.14422671376087 155.58228327025427,77.72080283581454 155.7622117116116,79.53754183986894 154.31331426324323,80.39694686615985 152.46668026043335,82.22452009479457 151.9174250185606,83.24707761315221 150.67686576541746,84.86792063307075 150.68633568345103,85.9339654696305 150.32647880079458,86.48873982764053 149.32266749674454,86.73893127200427 149.01016020396492,87.0 149.3037276607938,86.7062976375164 149.88139265659265,86.673663993417 150.4779974882258,86.33644910532166 150.62951617565705,85.96659933265619 150.58216658583842,85.16162789215014 149.9760918361717,84.9223109252489 149.66358454345027,85.83606382260041 147.96846922807163,86.49961772833922 147.66543185326736,85.56411434694019 147.4381538220914,85.30304221936967 146.9646579239634,85.04196947362652 146.11236530728638,84.91143286894658 145.5441702294629,84.25874752757954 144.86233613616787,83.87801262758148 144.73922720266273,84.05206303072919 144.95703531580511,84.41104111946333 145.71462875284487,84.83528644486069 146.14077506115427,85.28128618082701 147.42868390417425,85.52060236861871 147.60861234547338,85.73816208863718 146.746849810821,85.40094433964987 146.92677825212013,85.06372555938287 147.64649201725842,85.41182234763255 147.88323996640975,86.52137352649879 148.20521717710653,86.49961772833922 149.55941544583766,85.85781975164718 149.80563331284793,85.61850429572223 149.8719227386173,85.05284751702857 150.35488855472067,83.97591601317254 151.71855674136896,82.26803337388992 152.83600706100697,80.37518985953648 153.83034844708163,79.57017759613518 154.54059229436098,79.30909127537598 154.8530995871406,78.99361114620115 155.00461827451363,78.31913335904392 154.71105081768474,77.35092416086991 155.36447515711188,76.0019443591882 155.26030605955748,75.46887520966266 155.78115154750412,74.50064097759605 156.8512522773235,74.17426797162625 157.5236164527014,73.27129761991091 158.25280013581505,71.32390264668356 158.30961964360904,71.23686743123835 158.35696923342766,71.43269656929624 158.83993504953105,70.46442688271054 158.3190895615844,70.46442688271054 158.07287169451592,70.29035502580518 160.2130731541547,65.97110903145222 160.89490724750794,64.90487112270057 161.21688445826294,64.97015129112697 161.4915120791411,65.34007151512924 161.56727142288582,65.26391157052421 160.95172675530193,64.92663118313067 160.94225683732657,64.71991043550224 162.81730059394613,61.48848833961529 163.96316066751024,59.92170412114501 164.44612648361363,59.57352682489727 164.663934596756,58.81188515361282 166.4821588456398,55.972003365604905 167.42915064195404,54.764215361916285 167.8931766221649,53.991659335071745 168.06363514548866,52.7076809964492 170.49740406195633,49.05152510510379 171.63379421754507,45.25378230895876 171.57697470975108,44.92732266162784 171.0655991397798,44.720564384464524 171.1224186475156,44.88379463552701 171.64326413546223,45.01437866219203 172.00312101806048,43.849998959827644 173.3857290406595,41.260026132185885 173.461488384346,40.68325918504706 174.12438264180673,39.74736676779867 174.4274200165528,38.430574433550646 174.91038583265617,37.70143471479969 175.26077279733727,36.341086512227776 174.89144599676365,34.43657079411787 174.47476960642962,33.63122280892276 173.66982657951303,33.0 173.461488384346,33.0 172.55237625993323,33.64210592908785 172.3156283108401,35.16573213216907 171.82319257681957,36.66757161350688 170.64892274932936,37.70143471479969 170.44058455416234,37.70143471479969 169.7587504608091,37.17906299261085 168.6413001412293,36.776399765498354 168.14886440715054,37.26612511840358 167.45756039582193,36.994055746770755 167.23975228267955,37.05935245727596 166.11283204506617,36.308437948828214 165.47834754158976,37.0375868914125 165.1184906589915,38.1802732832366 164.663934596756,38.561166112165665 164.2661980423727,38.387043839582475 163.88740132382372,37.84290996308118 162.70366157841636,37.52731108271837 162.3438046958181,37.77761371723318 162.0028876491706,38.51763556984224 161.93659822340123,39.30118269925151 161.5767413408612,39.08353127812006 161.5483315869351,39.59501143544185 161.83242912584683,39.73648425103602 161.5199218330672,39.660306603691424 161.3589332277188,39.79089682401536 160.88543732953258,40.5526700229093 160.76232839602744,41.02061380386294 160.33618208765984,41.52120262407698 160.25095282599796,41.9456131023253 159.97632520506158,42.10884746616648 158.83046513155568,44.63350815165177 158.2906798076583,47.82189778931934 158.48954808490817,48.10482210434566 160.07102438469883,48.648905283036584 160.65815929841483,49.12769625724468 162.8267705119215,50.32466458800627 163.32867616397562,50.128797932986345 163.20556723047048,49.20386735670763 163.42337534361286,47.64779015733802 163.63171353877988,47.60426320635452 164.21884845249588,47.941596626675164 165.96131335769314,49.160341020600754 165.20371992065338,52.642393562491634 164.14308910880936,54.579237651581934 163.868461487873,54.77509639404889 163.4139054256375,54.52483238356217 162.8551802658476,54.66628602455603" stroke="#4dd2ff" stroke-linecap="round" stroke-linejoin="round" stroke-width="0.5"><title>2023-06-22 16.9km</title><desc>1687415245000</desc></polyline><polyline fill="none" points="42.24840415666404,147.0 41.9908776893717,146.79498755899112 41.84428570031014,145.6560129076097 41.84032375465904,145.42365861374128 41.95125823286071,145.3780988105682 41.83636180900794,145.28242307696928 41.70957954818732,143.9702786410453 41.776932624241454,142.42117103107375 41.55506366780901,142.30726399938067 41.55110172217246,141.91542165472492 41.654112309086486,140.90390620779 41.63826452648209,140.38902718335157 41.689769819931826,140.27967160368644 41.70957954818732,138.68942981268992 41.737313167745015,138.61196677270345 41.90767683071317,138.59374015608046 41.975029906767304,138.0833919557117 41.931448504619766,137.26773440334728 42.0067254719761,135.18979275548554 41.927486558954115,134.62927924402175 41.24999385274714,132.61046252827873 40.52891974433442,132.47374487054185 37.05429340884439,131.53949665206528 36.84827223503089,131.179464217621 36.52339269169897,130.81031410786818 36.479811289551435,130.63257410801816 35.72307967027882,130.4548334203464 35.750813289836515,129.8805895747828 35.69930799640133,129.7028459770263 35.53686822470627,129.49775635563856 34.677126018548734,128.8915972322502 34.031328877536,128.63181230167538 33.2349778017815,128.41304490452967 32.838783236729796,128.2626417144893 32.78727794326551,128.18060340321244 32.89821242149628,128.0256417487144 34.08679611663683,127.30096118859001 34.40771371431765,127.25538341261927 34.89107108367898,127.00926264072768 36.388686539576156,125.90170284201304 37.2048473435716,125.19066271773045 37.941769234559615,124.05115237542122 38.108170951891225,122.8158912173567 38.08439927798463,121.94070452365486 37.981388691070606,121.43017124667313 37.48614548475598,120.19028107619306 37.422754354352946,119.6979624540545 37.52576494126697,119.10534970107983 37.070141191463335,118.84550938861139 37.105798702308675,118.27567899136557 36.990902278441354,118.12524258599296 36.673946626411634,117.99304048934209 36.824500561124296,117.33658305835706 37.35540127828426,116.6345279141533 37.462373810849385,115.69539839485515 37.549536615173565,115.58142505795331 37.866492267217836,114.56477036707292 38.42908854957204,113.59368453759089 38.51228940823057,113.34749049788297 38.591528321238,112.60434121697108 38.547946919090464,112.35814186795687 38.31419212570472,111.89765435352092 38.29438239746378,111.25934718394274 37.910073669365374,110.80796746705528 37.90611172369972,110.1559667008878 37.43067824564059,109.6908975542101 37.33162960439222,109.52219483547378 37.303895984834526,109.23494283253967 37.37521100655431,108.81546048524979 37.29597209353233,108.63307565929063 37.070141191463335,108.47348834162403 35.719117724642274,108.41877256200314 35.44574347474554,108.34125842915091 35.28330370307958,108.16343139403398 35.12878782270127,107.79865583078572 34.78013660546276,107.64818506567826 34.46318095341849,107.06453621438777 34.26112172525609,106.93686203798279 34.15018724703987,106.98245999894061 33.90454661671538,106.87302481649385 33.274597258277936,106.21184836719476 33.06857608444989,105.76497888525773 33.02103273665125,104.15986074942339 32.200909986990155,103.10191125451456 32.086013563137385,102.8784619023645 32.05431799792859,102.54100571437812 32.17713831308356,101.04066367046107 32.446550617329194,100.2061056565035 33.05272830184549,99.37609299813994 33.310254769123276,98.64639912503117 34.32847480131022,97.83460103960897 34.69297380116768,97.0182277895583 35.18425506181666,96.4572477965994 35.624031029015896,95.55419240701303 36.04795921363984,95.27597478682947 36.76507137635781,95.1482677725653 37.12957037621527,94.8563646891198 37.52180299560132,94.40026239840154 38.36173547351791,94.0034497122324 39.023380397164146,93.46523850826998 40.23969771186239,93.04561182733596 41.38470000484085,93.0 42.06219271107693,93.16876353432235 43.15965165627131,93.62031696120175 43.63112318867934,94.04449945983652 44.25711060146568,94.43675074872954 45.005918329406995,95.22580421652674 45.358531492282054,95.70470287448188 46.13903478543216,97.17329421843897 47.00670088290644,98.44117063005615 47.30384680668067,98.72392965063045 47.945682002056856,99.15718605598522 47.28799902409082,98.66008099201645 46.93142391553556,98.276987172394 46.65408772000228,97.90757224219851 46.598620480901445,97.69321900395516 46.49560989400197,97.620247460065" stroke="#ff1b00" stroke-linecap="round" stroke-linejoin="round" stroke-width="0.5"><title>2023-04-05 21.2km</title><desc>1680651232000</desc></polyline><polyline fill="none" points="177.02911777974805,114.49428091770096 177.24774010793772,114.97868032442057 175.82669497461757,117.74152633201447 174.29633867711527,117.32889615472232 173.01583646901418,117.47241980089166 172.31312184256967,117.23919381831365 171.82902954437304,116.43187079815834 171.1887784403516,114.0457617972861 170.50167969457107,113.68694570401567 169.9551238740096,114.24311034665152 168.5028469794779,116.25246519551729 166.8163318761508,119.85848381400865 166.51963014499051,120.07376624448807 166.238544294436,119.91230444553366 165.70760435442207,120.70167187687184 165.97307432448724,120.97077362671553 164.59887683280976,124.57669863603951 163.20906346058473,126.37066453033185 161.61624364071758,127.24970135530748 162.16279946122086,128.03903692269523 160.75737020850647,130.2814488123404 160.5387478803168,131.19634491813486 160.7886019696598,134.3715368600533 158.3525245981291,135.89632683935633 155.60412961494876,138.69473164684314 152.37164233345538,143.233078643505 152.37164233345538,145.08067363139708 152.01247707993025,145.72643055890512 149.91994908131892,146.39012278908922 149.2328503355966,146.94618738722056 149.42024090257473,147.0 149.90433320082957,146.39012278908922 151.51276890118606,146.04930816266278 152.13740412465995,145.65467990240722 152.35602645284962,145.13448679630528 152.16863588587148,143.64565002609743 151.18483540887246,143.37658183930034 151.05990836420096,144.29141205004998 150.74759075249312,144.721918791809 147.98357988864882,145.85199413965165 147.4994875904522,144.36316324444488 147.1247064563213,144.0223448187753 146.45322359108832,143.57389854858047 145.0634102189215,143.2868923551723 144.3138479507179,142.71287860936718 144.22015266725793,142.372057090397 142.7522598921205,141.81597850368416 143.01772986206925,142.49762298750284 143.54866980202496,142.60525083031098 144.65739732363727,143.52008492180903 146.5469188746065,144.18378520531405 146.93731588928495,144.7398565505864 146.6249982775189,145.08067363139708 146.2970647853217,144.25553644215688 145.98474717355566,144.12997175903 146.10967421822716,143.59183642061544 146.84362060582498,143.73533933328872 147.56195111275883,144.5425411066244 147.9523481274373,145.88786943245213 150.70074311073404,144.84748306618712 151.07552424480673,144.48872776651115 151.1692195282667,143.44833339472825 151.88755003525876,141.88773067496368 153.2773634074838,140.27329997249763 155.76028842077358,136.1833446994424 156.54108245007228,135.30435107198718 158.86784865747904,134.03069970403158 159.5080997615587,133.3490234750352 159.64864268683596,132.47001614354667 159.18016626918688,131.33985761496297 160.24204614915652,128.8821870382526 160.02342382090865,127.78788506850833 160.22643026855076,127.41115663657547 160.56997964141192,127.39321716796258 160.44505259674042,127.14206442143768 160.9135290143313,126.1553895578254 162.7718188041472,125.41986481155618 164.02108925109496,123.67970904929098 165.02050560864154,120.82725274303812 165.25474381743697,120.8093126245949 165.89499492151663,119.51761944429018 164.9580420862767,119.40997793155839 164.69257211632794,118.99735154214432 169.2836410087766,110.36786325488356 169.7365015457617,110.29609864047961 170.51729557517683,110.76256812734937 169.29925688938238,110.02698108421464 171.87587718613213,105.75692919343419 171.42301664914703,105.0751469128736 171.17316255980404,103.87305087101413 168.94009163585724,102.45564382866723 170.79838142567314,99.01076036680024 170.34552088868804,98.47249142582587 168.128065845347,97.21652436174918 169.61157450109022,94.20216798273032 170.4079844109947,93.16148571390659 170.92330847040284,93.0 172.48489652900025,93.37679977588414 173.59362405072898,93.23325709624623 174.34318631887436,93.68182759346382 173.65608757303562,95.06341776585032 173.0002205884084,94.9378190934367 171.23562608211068,96.08614658056467 170.84522906743223,97.23446680950292 170.7359179033665,98.27512574783759 170.92330847040284,98.27512574783759 173.34376996132778,95.52992636038107 174.26510691596195,93.96891213048366 174.2026433935971,93.66388479489251 173.60923993127653,93.25119993742555 172.1413471561391,93.3588569470885 170.70468614221318,93.0 170.26744148571743,93.21531425329158 169.15871396410512,94.90193374254159 168.97132339706877,95.78112279970082 167.65958942781435,95.78112279970082 167.50343062187312,96.30145717631967 167.9719070395222,97.07298471590912 169.06501868052874,97.86245136482466 170.6890702616074,98.54426071007038 173.28130643896293,95.22490164573537 172.12573127553333,95.02753243976622 171.3605531268404,95.42227063719474 170.79838142567314,96.13997425339767 170.3142891274765,97.61125780317525 169.84581270994386,97.5036033133365 170.01758739637444,97.18063946090115 169.5803427399951,96.44499743178312 170.32990500814049,95.22490164573537 170.70468614221318,94.90193374254159 171.78218190261396,94.66867878875928 173.53116052836413,94.54307984340994 173.999636945955,94.05862595519284 173.92155754298437,93.46651389304316 173.07829999132082,93.26914277680044 173.45308112545172,93.46651389304316 173.60923993127653,94.30982442887034 173.9527893041377,94.61485067990725 173.64047169248806,95.00958977403934 172.98460470780265,94.88399106438737 171.23562608211068,96.01437632524176 170.59537497808924,98.61602996599686 170.75153378391406,99.17224073816033 171.2668578433222,99.08252943851403 172.56297593197087,99.69256540293281 173.85909402067773,100.51790491816064 173.81224637891864,100.84086283834768 170.033203276922,106.83342232278665 169.31487276998814,108.43020871907356 168.83078047184972,109.00433073547902 168.48723109887214,108.96844816263183 168.95570751652122,109.21962602398708 168.31545641238336,110.24227516113024 169.1274822029518,110.40374555143353 169.0494028000394,110.56521579828404 169.39295217290055,110.17051049714792 169.87704447109718,110.3499221039092 169.0806345611927,111.40844697854482 169.377336292353,110.92403805536742 169.17432984471088,110.61903918204189 169.377336292353,110.1525693267613 170.01758739637444,110.42168669703824 170.32990500814049,110.83433255746786 170.1112826798926,110.99580242174852 170.3142891274765,111.46227011254814 171.34493724623462,112.21579231439682 172.7972141408245,114.69162898005743 173.999636945955,114.99662101842114 174.73358333355282,116.10894058595295 176.56064136215718,116.19864348020928 176.93542249622988,116.57539515274402 175.6861520492821,117.7953475904651 174.10894811007893,117.22125334567681 173.0939158719848,117.45447935133416 172.37558536493452,117.32889615472232 171.67287073860643,115.89365345900296 171.57917545503005,114.53016239956196 170.860844948038,113.68694570401567 170.39236853038892,113.68694570401567 168.4247675765655,116.27040576371655 166.66017307020957,119.9840652627754 166.30100781668443,119.93024465253984 165.70760435442207,120.55815078067826 165.9886902049766,121.00665382988518 164.6301085939631,124.5587588877097 163.33399050525622,126.29890623448591 161.63185952132335,127.24970135530748 162.10033593897242,128.12873392943584 160.80421785026556,130.24557043984532 160.5855955220759,131.12458852722193 160.80421785026556,134.42535319464514 158.52429928461788,135.69900179776596 155.65097725664964,138.4435945131263 154.12062095914735,140.9728883702337 152.46533761697356,143.0716374128824 152.3247946916963,143.57389854858047 151.9968611993827,143.64565002609743 151.27853069239063,143.21514073607977 151.8719341547112,141.81597850368416 153.19928400451317,140.39886731903243 156.01014251011657,135.95014272266417 157.3999558823416,134.6406183738727 159.02400746342028,133.9948220715014 159.52371564210625,133.49253447253432 159.69549032865325,132.48795511118078 159.22701391100418,131.1604667262145 160.24204614915652,128.64897569541063 160.05465558206197,127.62643012184708 160.9135290143313,126.19126873761707 162.70935528184054,125.50956311068148 163.58384459465742,124.43318059963349 165.06735325040063,120.77343238242611 165.25474381743697,120.82725274303812 165.91061080206418,119.78672294718854 165.95745844382327,119.1588141539396 166.61332542845048,118.62060489025316 167.05057008488802,117.66976462939056 166.72263659257442,117.52624113905767" stroke="#ff4a00" stroke-linecap="round" stroke-linejoin="round" stroke-width="0.5"><title>2023-01-01 20.1km</title><desc>1672559967000</desc></polyline><polyline fill="none" points="59.328295832383446,164.314932832669 57.02181661617942,163.3080026402895 55.3150219960371,163.65247918380192 54.20791197218932,163.3345008516626 53.53903299954254,162.46005849612993 52.54724693659227,158.56478066919954 51.55546087352559,158.0878039894742 50.863517108606175,158.6442767000408 48.64929706102703,161.8240986301971 45.99684596224688,167.36219856195385 45.120383860194124,167.38869637306198 44.636023224680685,168.13063402374974 44.843606354203075,169.08455084721209 42.260349631891586,175.39091568344156 40.761138141388074,177.00722904040595 38.50078850938007,178.14659162511816 39.07740831351839,179.33894264083938 37.163030563970096,182.78348249787814 36.840123473783024,184.32026294770185 37.439808069961146,187.49978078179993 37.278354524751194,188.69209026329918 33.933959661168046,190.67926096732845 29.413260397384875,195.1569650528254 24.731107588275336,201.8866283959942 24.800301964743994,204.483067594585 24.385135705815628,205.22490275505697 23.485608811490238,205.88725384543068 21.386712724692188,206.20518178856582 20.717833751928993,207.0 21.225259179482237,206.31115768602467 23.393349642748944,205.86075983315823 24.47739487455692,205.0924323409854 24.754172380431555,204.32410265071667 24.638848419650458,202.5224933778809 23.485608811490238,201.8866283959942 22.97818338382058,201.99260599754052 22.586081917164847,203.76772460632492 21.202194387326017,204.40358513439423 22.72447066998575,203.63525347341783 22.908989007468335,202.1780666995619 24.1314229919808,199.47562666310114 25.722893651225604,197.83295374421868 29.528584358165972,191.6330976819445 31.558286068378948,189.46046467928682 34.34912592021283,188.13567983082612 35.22558802226558,187.15533483491163 35.3639767752029,185.8040426222724 34.71816259471234,183.97581292199902 36.263503669644706,180.3193161758536 36.078985332278535,178.7295194499602 37.32448410906363,176.45079439284746 39.90774083137512,175.52340075097163 41.47614669834729,173.48312346247258 43.36745965562295,168.68708591605537 44.659088016836904,166.91173537200666 44.24392175790854,166.30228397075552 45.07425427576527,165.5338432752178 46.412012221175246,162.85753264723462 50.28689730446786,157.6108264621289 51.00190586165991,155.808903709898 50.35609168105293,155.46441710050567 50.35609168105293,154.93443683820078 49.687212708289735,154.98743491145433 49.59495353978127,154.2454609326378 50.63286918704398,153.31799057481112 51.32481295184698,153.58298243262107 51.20948899106588,155.01393394422485 52.63950610521715,155.8884005570435 54.23097676434554,158.56478066919954 54.20791197218932,158.82976734722615 53.146931532770395,159.06825513378135 52.916283611091785,159.57172865403118 53.400644246605225,162.27457035754924 54.069523219252005,163.1225150876271 55.56873470987193,163.67897736118175 57.16020536911674,163.28150442638434 59.166842287173495,164.26193660093122 56.97568703175057,163.28150442638434 55.33808678819332,163.67897736118175 54.023393634939566,163.25500620974344 53.30838507786393,161.77110190675012 52.708700481569394,158.82976734722615 51.76304400304798,157.90231282950845 50.840452316449955,158.53828198695555 48.856880190433,161.45312134598498 46.15829950745683,167.07072246656753 45.85845720930956,167.49468759150477 45.14344865223393,167.2297094668611 44.866671146359295,167.70666990304017 44.589893640368246,168.47510437876917 44.912800730671734,168.84607195912395 42.813904643873684,174.38402703401516 40.83033251785673,177.00722904040595 38.52385330153629,177.98761108960025 38.385464548598975,178.5175458418671 39.10047310567461,179.25945273789694 39.00821393704973,179.76288839257904 36.88625305797905,183.2339190582279 37.34754890121985,187.71174729880295 37.11690097965766,188.79807307201554 34.464449880993925,190.25533245119732 30.059074577875435,194.28262633437407 24.7080427960027,201.78065075262566 24.569654043065384,205.01295006118016 23.485608811490238,205.86075983315823 21.0638056343887,206.44362749901484 20.78702812839765,206.89402437437093 21.363647932419553,206.28466371560353 23.18576651334297,205.9137478551129 24.523524458752945,205.06593825027812 24.500459666596726,202.31053855118807 23.462544019217603,201.8601339890447 22.955118591780774,201.91312280026614 22.678341085789725,203.58226500204182 21.133000010973774,204.32410265071667 22.632211501477286,203.66174770519137 22.83979463088326,202.25754981831415 24.154487784137018,199.4226373709098 27.56807702430524,195.13046998195932 29.80536186415702,191.23566612935974 31.90425795095507,189.19550823248574 34.39525550440885,188.02969676052453 35.156393645796925,187.18183069265797 35.410106359631754,185.56557858473388 34.741227386984974,183.97581292199902 36.286568461800925,180.39880576508585 36.286568461800925,178.27907533285907 37.30141931702383,176.47729130700463 39.97693520784378,175.47040673182346 41.130174816004,173.98656994863995 42.02970171032939,172.42323303726153 43.27520048711449,168.6605882330041 43.41358924016822,168.39561125915498 43.59810757741798,168.7665789493767 43.80569070682395,168.60759285921813 44.52069926389959,167.38869637306198 44.7513471855782,166.59376090046135 44.17472738143988,166.32878188652103 45.46635574253742,165.00388289336115 46.34281784470659,162.85753264723462 47.8420293352101,160.71116523942328 50.171573343803175,157.95531031687278 51.00190586165991,155.94139844190795 49.664147916133516,155.11993004905526 49.641083123977296,154.13946448249044 50.563674810458906,153.23849296639673 51.27868336753454,153.4504865363415 50.863517108606175,154.2454609326378 51.16335940675344,155.01393394422485 52.80095965031069,156.1798887947807 54.23097676434554,158.53828198695555 54.3001711408142,158.80326869120472 53.216125909239054,158.96226058810134 52.939348403248005,159.3862385196262 53.46983862307388,162.03608541958965 54.20791197218932,163.20200976880733 55.176633243099786,163.67897736118175 57.114075784687884,163.3080026402895 59.166842287173495,164.26193660093122 56.88342786312569,163.3345008516626 55.038244490046054,163.59948282127152 53.838875297573395,163.09601685541566 52.77789485803805,159.01525786618004 51.809173587244004,157.98180905659683 51.117229822441004,158.32629243523115 48.94913935905788,161.21463567827595 45.99684596224688,167.25620729115326 45.3279669896001,167.28270511273877 44.405375303002074,168.63409054742078 44.72828239342198,169.00505790807074 42.44486796925776,174.91396889922908 40.66887897264678,177.0602227562049 38.47772371722385,177.98761108960025 38.93901956058107,179.57741220860044 36.86318826582283,183.41939271634328 37.163030563970096,188.71858596938546 33.58798777870834,190.83823398844106 29.459389981580898,194.86551912958384 24.7080427960027,201.70116749269073 24.754172380431555,204.16513761278475 24.200617368565872,205.35737310387776 21.409777516848408,206.1786878077255 20.671704167616554,206.86753046140075 21.548166269785725,206.20518178856582 24.29287653719075,205.27789090242004 24.684978003962897,204.50956174271414 24.54658925102558,202.39002163076657 23.393349642748944,201.83363957953406 22.93205379950814,201.99260599754052 22.539952332735993,203.74123038494145 21.0638056343887,204.32410265071667 22.72447066998575,203.55577076238114 22.793665046570823,202.20456107507925 23.99303423904348,199.66108910331968 27.383558686939068,195.3424304756336 29.851491448353045,191.1296842826414 32.61926650791429,188.71858596938546 34.049283621949144,188.1886713502172 35.087199269328266,187.26131825029734 35.410106359631754,185.9895145050541 34.879616139805876,183.2339190582279 36.19430929317605,180.53128836143878 36.286568461800925,178.33206879755016 37.32448410906363,176.45079439284746 39.74628728616517,175.6823827456974 41.79905378865078,172.87368697929196 43.36745965562295,168.60759285921813 43.482783616520464,168.39561125915498 43.55197799310554,168.8725696238689 43.736496330355294,168.71358359639999 43.89794987544883,168.15713175898418 43.55197799310554,167.38869637306198 44.72828239342198,166.54076511863968 43.0676173575921,166.5672630108602 43.0676173575921,165.5603412669152 49.5257591631962,153.37098896724638 50.1023789672181,153.0 51.301748159807175,153.50348490275792 50.93271148507483,154.32495824273792" stroke="#ff2800" stroke-linecap="round" stroke-linejoin="round" stroke-width="0.5"><title>2022-05-22 20.9km</title><desc>1653205192000</desc></polyline><polyline fill="none" points="169.30910820129793,156.59388488977856 169.37192269664956,156.46398697473342 168.85684383532498,156.05985938991944 168.3920165702002,156.0165599395841 167.99000380036887,155.6124311180174 167.01009767397773,155.3526334285998 165.8543109606835,153.4041360427218 164.97490802663378,153.0 164.4598291653674,154.4722044923692 162.92715548037086,156.37738830060698 162.16081863787258,157.6763630272617 161.9472493539215,158.4124435831618 161.26885280484566,159.07635620019573 161.44473339163233,159.4083113783272 160.94221742934315,160.47633596882224 160.8417142368271,160.28871059212543 160.75377394346287,160.4330378263403 159.78643071604893,162.92987642915978 158.99496807542164,164.02674002497224 157.41204279428348,164.73392403380421 156.83414943766547,165.9606636925164 156.78389784140745,166.9997762945277 156.0803754942608,168.54399943897442 156.44469956686953,169.64082092764147 156.21856738388306,170.65104396895913 154.74870819417993,171.38705921944347 153.5803585818503,172.44056479952997 151.16828196292045,176.26487060103682 150.67832889966667,176.6112178866897 149.14565521467011,176.53906226980325 148.768768243026,176.76996011855954 145.51497738726903,180.47870687044633 143.86923761072103,182.83089829894016 141.14308851538226,190.4932964559266 139.14558756526094,193.8553896954254 139.3465939501766,195.2550366391515 139.09533596906113,196.55366616032552 138.36668782366905,197.6069905293698 136.7711996434955,198.3861571020243 136.30637237837072,198.96331485152768 135.84154511324596,201.97892707611027 136.34406107553514,202.36849924281705 140.33906297566136,203.71035099074652 141.8466108625289,203.8979206851509 147.90192820806988,205.94674323234358 148.64313925238093,205.94674323234358 151.64567212708062,207.0 153.49241828848608,203.73920788246323 155.8291175130871,204.8790505539655 155.8039917149581,204.50391343957745 154.57282760739326,203.99891965179995 153.73111337056616,203.3929248064378 153.99493425077526,202.6859276489413 156.0552496960736,200.10319471982075 154.48488731397083,201.80578355806938 153.50498118752148,203.29192542158125 151.8718043100671,202.52721353192464 150.94214977987576,201.63263983519573 154.79895979037974,196.9721109954262 155.4773563395138,195.65905594741344 155.99243520083837,193.65337769073085 156.6457059517852,192.54230667982483 157.7889297659858,191.44565688948205 156.50751406222116,192.80203832108236 155.30147575266892,196.09193253978447 154.6482050017221,197.24626385937154 153.8190536639886,198.0398613596626 153.2788490044768,197.9100002450432 152.62557825352997,196.91439453761268 152.28637997899204,194.73558160380344 151.6079834299162,193.36478862883814 151.67079792520963,193.10505798648228 152.78889594128123,192.32586329327023 153.22859740821877,191.7198201075953 156.78389784140745,189.12246373685775 160.5527675585472,184.40381502399396 162.97740707657067,185.25520326130209 166.50758171163034,185.99114503328747 169.2211679079337,186.85695414317888 169.83674996171612,186.8136638093565 170.590523905179,185.78912217041943 171.54530423349934,183.75444778351812 177.16092011204455,178.32851106437738 181.69612667168258,173.04668785877584 182.5755296056741,172.29624941521615 182.92729077924741,171.6179652014107 184.15845488681225,170.65104396895913 183.68106472265208,171.01183622122335 182.75141019246075,170.95410952066595 180.3518964725663,169.10684307249903 177.851879560214,168.34195247804746 174.69859189685667,167.01420836200123 160.61558205384063,159.20625179444323 160.5778933566762,158.78769891105185" stroke="#4dd2ff" stroke-linecap="round" stroke-linejoin="round" stroke-width="0.5"><title>2022-05-07 16.0km</title><desc>1651926428000</desc></polyline><polyline fill="none" points="31.311049696232658,248.4583006185494 30.81037681334419,248.29067715905694 30.063919060718035,246.99158630686725 28.989748148305807,246.46775481927762 28.461765835498227,245.3467466862494 27.032572333468124,244.69718511423707 25.76723541127285,243.30375726513012 25.348490818287246,242.16176130235544 25.32118138836813,239.07097619596607 25.17553109509754,238.52615043731203 23.445933863375103,236.37825220679952 23.036292413744377,235.48764741300693 23.336696143465815,231.3174212571539 23.79185330972541,229.8714248928227 25.339387674990576,227.6604790233905 26.022123424394522,225.84767834754894 28.24329039567965,224.18155078341806 29.190017301472835,222.11719264365092 30.20956935387221,220.98544613198465 30.9469239632308,219.3297209852317 31.575040852651,218.56472525616846 32.066610592242796,218.31321859688614 34.16033355696709,217.75780592917 35.81710564214154,216.09155034516152 37.264505430852296,215.5466056891455 38.59356435626978,214.3623893073236 40.314058444753755,213.56591769933584 41.533879650291055,213.1991195373921 43.126929732214194,213.02095996904973 44.255719504493754,213.0 45.60298471659189,213.2410393920145 48.270205710839946,214.22615117001988 49.79043064612779,215.48372727807873 51.30155243808986,216.47929770966584 53.367965972895036,218.86862833455234 55.698370664118556,223.10222137295204 56.96370758628473,224.90459051127254 55.5436172275804,222.94503655532026 53.07666538649937,218.54376639083785 51.34706815474783,216.58409404954728 48.26110256751417,214.22615117001988 45.557468999992125,213.2305594299396 42.24392482964322,213.12575975165237 40.48701816788525,213.54495783877792 38.83934922609478,214.26807061565341 37.246299144171644,215.5570854206453 35.88993078871863,216.08107066682715 34.051095837086905,217.8311624871858 31.9937854456075,218.36561586708558 31.329255982884206,218.80575190753734 30.300600787159055,220.91209177163546 29.180914158176165,222.1800670931989 28.325218685611617,224.1291564073399 26.04943285434274,225.82672093189467 25.28476881503593,227.79669977893354 23.83736902635428,229.81903334749222 23.41862443339778,231.09737961282372 23.036292413744377,235.32000331560266 23.318489856814267,236.2001318504117 24.966158798662946,238.11752926922054 25.248356241732836,238.68331200304965 25.366697104967898,242.28748623488354 25.721719694614876,243.23041844677937 26.97795347351348,244.58193990093423 28.398043832188705,245.31531637979788 29.108089011569973,246.53061473530397 30.136744207295123,247.0439693124208 30.555488800251624,247.9763824538095 30.956027106556576,248.30115363307414 33.85082668391988,248.4478241601537 34.888585022999905,248.74116460182995 35.18898875272134,249.14974457053904 35.28002018597908,249.5792756500232 35.17988560939557,250.9097632490084 35.52580505571677,251.45452497802762 36.41791310158442,252.2507101319352 36.5635633947968,252.76403684454272 36.49073824819061,253.9059179117612 37.41925886736135,255.12111720179382 37.4010525807098,256.3782051717353 37.965447466878686,257.50957152581395 38.04737575678155,258.1381031419369 37.810694030311424,260.0341508111742 36.37239738498465,262.6319950043762 35.47118619582034,265.1669264160155 35.28912332927575,267.0 35.43477362248814,265.1774012127498 35.64414591898094,264.9364806245503 36.33598481171066,262.6110449040425 37.774281457066536,259.981774261767 38.02916947013,257.9390685356557 37.35553686408093,256.3363024809805 37.428362010687124,255.1315929968041 36.45432567491662,254.01067702310684 36.45432567491662,252.50213577295654 36.263159665075364,252.1354731793108 35.32553590257885,251.3707156645396 35.1343698927667,251.0250015418933 35.16167932274402,249.1078390056282 34.77024415976484,248.67830600450543" stroke="#4dd2ff" stroke-linecap="round" stroke-linejoin="round" stroke-width="0.5"><title>2022-02-26 19.6km</title><desc>1645834127000</desc></polyline><polyline fill="none" points="178.56177892466076,230.58849174168427 176.8009777618572,227.55409425939433 172.7902640022803,226.2616607901291 167.75241623073816,218.3946111605037 165.0623033430893,216.37163796689129 164.4753696222324,214.9667912410223 165.60032592061907,213.8429113639868 163.49714675405994,213.33716469543288 161.78525673458353,216.14686272357358 164.81774762598798,219.01274042431032 162.27436816855334,224.0139434193261 157.48107611434534,229.2960651619942 152.44322834303603,238.6801392842899 150.48678260669112,240.75922459358117 151.31827204464935,241.7144774601329 149.41073745139875,246.09738182782894 148.77489258698188,245.2545182237518 148.38360343989916,245.76023653597804 144.95982340094633,255.59355886781123 141.63386564911343,260.1449248478166 136.10690644360147,262.1677424933878 135.17759471875615,265.25814446323784 138.35681904060766,266.8876223840052 138.5035524708219,264.9210105179809 142.80773309106007,263.1229594388278 145.20437911828049,260.5382510641357 147.50320285838097,256.94211554399226 151.66065004840493,245.98500008595875 150.8291606104467,245.31070916965837 151.31827204464935,243.6249783844687 152.58996177325025,242.27639016223839 154.1551183622796,242.55734630528605 160.90485615306534,229.1274875655654 165.4046813470777,223.1710471168626 167.06766022299416,223.05866084911395 168.63281681225635,224.800645508687 169.65995082375593,230.47610693832394 171.5674854167737,234.0162175896112 173.8173980137799,234.8029058558168 177.73028948670253,234.18479373824084 182.27902582404204,236.20770362683106 185.40933900210075,231.7123385562445 180.6160469481256,230.86945365346037 178.07266749069095,234.35336983687012 174.4043317346368,235.14005763700698 172.3500637114048,234.69052188441856 169.75777311064303,231.4875693707727 168.68172795558348,224.8568384734681 166.62745993235148,223.0024677066831 165.45359249040484,223.22724024247145 160.3668335757684,230.53229934273986 154.30185179272667,243.11925817554584 152.44322834303603,242.83830230985768 151.66065004840493,244.2430802519666 151.8562946219463,246.26595439884113 147.8944920054637,257.44782347406726 145.5956682653632,261.15633456909563 143.73704481567256,263.29152696882375 139.38395305210724,264.7524434707011 137.6231518893037,266.7752447461244 134.83521671476774,264.9771995227784 135.76452843961306,262.1677424933878 141.09584307135083,260.2011143239797 145.3511125484947,254.24499899736838 148.62815915676765,245.0859453532612 149.50855973828584,245.2545182237518 151.26936090108939,242.10781640990172 151.22044975776225,240.75922459358117 150.2422268895898,240.81541598308831 152.39431719947606,238.51156446692767 154.30185179272667,233.90383346297313 161.5407010174822,224.7444525382598 164.5731919091195,219.29370804980863 161.6385233043693,215.75350583461113 163.59496904094703,213.1685823726002 165.2579479168635,213.50574696820695 165.2579479168635,216.54021934093907 168.2415276649408,218.22603033552878 173.27937543625012,226.317853610788 177.0455334787257,227.32932343200082 178.75742349843495,230.41991452814545 184.92022756836377,231.1504154264112 184.8713164248038,232.72379879228538 182.23011468048207,236.3762791264453 177.6813783433754,234.35336983687012 174.99126545572653,235.02767373225652 172.1055079945363,234.69052188441856 170.0512399713043,232.61141441034852 168.48608338204212,224.96922438644106 167.60568280052394,223.56439888000023 166.04052621126175,223.05866084911395 159.82881099823862,231.26280009676702 154.00838493206538,243.40021390258335 152.58996177325025,242.66972872370388 151.8562946219463,244.74879946245346 151.12262747087516,244.58022644219454 151.02480518398806,245.8164274317678 151.75847233529203,246.49071774928598 147.94340314902365,257.3354439730174 145.64457940869033,260.87538760440657 143.34575566835701,263.62866187893087 138.60137475747615,265.3705224005971 138.55246361414902,266.831433567917 135.03086128854193,265.25814446323784 134.59066099789925,264.3591201659292 135.71561729628593,262.28012104076333 140.60673163761385,260.5944405012997 144.715267683845,255.48117900075158 148.6770703003276,245.02975438541034 149.50855973828584,245.14213631581515 151.4160943313036,242.3325814018608 151.4160943313036,241.15256420325022 150.34004917624407,240.70303319848608 152.68778406013735,238.06203137658304 157.23652039724402,229.5208352127811 163.30150218028575,221.93479694915004 164.67101419577375,218.6755790907191 161.98090130835772,216.87738193920814 161.73634559102356,215.30395477148704 163.64388018427417,213.056194129691 165.6492370639462,213.89910541067366 164.76883648242801,215.02298517676536 165.30685906019062,216.65260689583374 168.29043880826794,218.33841755765025 173.0348197191488,226.20546796394046 177.19226690917276,227.55409425939433 179.44217950617895,230.8132612821064 184.92022756836377,230.92564601911 184.57784956414253,233.51048884465126 182.76813725824468,236.3200872989255 177.4857337696012,234.35336983687012 174.69779859506525,235.14005763700698 171.95877456432208,234.521945885499 169.9534176841844,232.2180688988883 168.3393499518279,224.800645508687 166.67637107591145,223.11485398578225 165.60032592061907,223.33962647733279 159.77989985467866,231.59995397471357 154.1551183622796,243.2878316284041 152.7856063467916,242.72591992467642 152.05193919572048,243.73736059194198 151.75847233529203,246.49071774928598 146.67171342042275,259.6392193136271 143.83486710255966,263.29152696882375 138.89484161813743,265.03338852204615 138.60137475747615,266.8876223840052 135.07977243186906,265.14576650375966 135.81343958317302,262.1677424933878 141.19366535847075,260.2573037946131 144.61744539719075,255.48117900075158 148.5303368701134,245.31070916965837 148.8727148741018,244.86118144821376 149.0194483040832,245.98500008595875 151.66065004840493,242.05162514792755 151.4160943313036,240.98399011814035 150.34004917624407,240.5344589802553 163.4482356107328,221.65383062732872 164.7199253393337,218.50699834915577 161.98090130835772,216.87738193920814 161.68743444769643,215.75350583461113 163.05694646341726,213.50574696820695 164.08408047491685,213.056194129691 165.6492370639462,213.8429113639868 165.55141477729194,216.7649944287259 168.8284613857977,218.95654688269133 173.37719772313721,226.48643203894608 176.60533318831585,227.16074525326258 178.75742349843495,230.58849174168427 184.8713164248038,231.1504154264112 185.21369442879222,232.1056844171253 184.23547156061977,234.07240964483935 182.76813725824468,236.43247094855178 177.4857337696012,234.35336983687012 174.69779859506525,235.19624958123313 171.90986342076212,234.63432989036664 170.0512399713043,232.49903000623453 167.99697194783948,224.2387155558099 166.72528221900575,223.11485398578225 165.2579479168635,223.56439888000023 160.02445557177998,230.98183837917168 154.44858522270806,242.8944934940082 152.44322834303603,242.72591992467642 147.8455808623694,257.8411515535554 145.69349055201747,261.212523945258 143.39466681191698,263.74104013777105 139.0904861916788,265.03338852204615 138.60137475747615,266.831433567917 134.7863055714406,265.08957751560956 136.0090841569472,262.1115532114636 141.8295102226548,259.5830297819921 145.0087345445063,254.86308933439432 148.6770703003276,244.91737243288662 149.06835944764316,246.09738182782894 150.7313383235596,243.00687584566185 151.66065004840493,241.99543388054008 152.05193919572048,242.50115508784074 151.31827204464935,242.16400766617153 151.36718318797648,241.04018148541218 150.2422268895898,240.70303319848608 158.8994992733933,227.55409425939433 161.19832301372662,225.19399614573922 164.62210305244662,219.23751453572186 161.6385233043693,215.97828123322688 163.83952475781552,213.0 165.6492370639462,214.12388154136715 165.11121448664926,216.59641312109306 166.72528221900575,216.98976942762965 169.21975053311326,219.34990155813284 173.62175344023854,226.82358874601778 176.84988890541717,227.04835977306357 178.65960121154785,230.53229934273986 185.21369442879222,231.31899242359214 183.35507097910158,235.4210173023166 182.27902582404204,236.48866276518675 177.6813783433754,234.35336983687012 173.915220300667,235.19624958123313 171.61639656010084,234.5781378908432 169.85559539753012,231.76853083865717 168.43717223848216,225.02541733451653 165.8448816377204,223.1710471168626 160.46465586242266,230.41991452814545 154.05729607539251,243.40021390258335 152.7856063467916,242.7821111198864 151.26936090108939,244.86118144821376 150.92698289710097,245.53547289717244 151.95411690883338,245.92880920681637 147.94340314902365,257.44782347406726 144.9109122576192,262.0553639238351 143.39466681191698,263.74104013777105 139.0904861916788,264.9210105179809 137.8677076061722,267.0 134.8841278583277,265.25814446323784 135.81343958317302,262.1677424933878 141.53604336222634,259.9763563864399 144.5685342536308,255.53736893704627 148.62815915676765,245.0859453532612 149.0194483040832,246.09738182782894 150.43787146313116,243.4564050314366 151.66065004840493,242.7821111198864 151.22044975776225,240.98399011814035 150.38896031980403,240.81541598308831 153.12798435078003,237.3877310755779 157.28543154080398,229.85799012234202 161.68743444769643,224.6320665811072 164.7199253393337,219.01274042431032 161.83416787791066,216.82118818658637 161.58961216080934,215.69731197116198 163.59496904094703,213.056194129691 165.1601256299764,213.44955288275378" stroke="#ff0000" stroke-linecap="round" stroke-linejoin="round" stroke-width="0.5"><title>2022-01-27 21.8km</title><desc>1643277543000</desc></polyline></svg>