<?xml version="1.0" encoding="utf-8" ?>
<svg baseProfile="full" height="300mm" version="1.1" viewBox="0,0,200,300" width="200mm" xmlns="http://www.w3.org/2000/svg" xmlns:ev="http://www.w3.org/2001/xml-events" xmlns:xlink="http://www.w3.org/1999/xlink"><defs /><rect fill="#222222" height="300" width="200" x="0" y="0" /><text fill="#FFFFFF" style="font-size:12px; font-family:Arial; font-weight:bold;" x="10" y="20">Over 15km Runs</text><text fill="#FFFFFF" style="font-size:4px; font-family:Arial" x="10" y="280">ATHLETE</text><text fill="#FFFFFF" style="font-size:9px; font-family:Arial" x="10" y="290">Jason</text><text fill="#FFFFFF" style="font-size:4px; font-family:Arial" x="120" y="280">STATISTICS</text><text fill="#FFFFFF" style="font-size:3px; font-family:Arial" x="120" y="285">Number: 5</text><text fill="#FFFFFF" style="font-size:3px; font-family:Arial" x="120" y="290">Weekly: 1.0</text><text fill="#FFFFFF" style="font-size:3px; font-family:Arial" x="141" y="285">Total: 98.5 km</text><text fill="#FFFFFF" style="font-size:3px; font-family:Arial" x="141" y="290">Avg: 19.7 km</text><text fill="#FFFFFF" style="font-size:3px; font-family:Arial" x="167" y="285">Min: 16.0 km</text><text fill="#FFFFFF" style="font-size:3px; font-family:Arial" x="167" y="290">Max: 21.8 km</text><polyline fill="none" points="71.56032579671592,62.75472516572336 72.7054903729586,62.65904122359643 72.9969868104672,63.30490709922742 71.10225996607915,66.9887017760193 69.06178490282036,66.43852820628672 67.35444862523582,66.62989306784584 66.41749579005409,66.31892509106547 65.77203939249739,65.24249439753476 64.91837125376333,62.061015729705105 64.00223959272262,61.58259427201119 63.27349849860184,62.32414712886384 61.33712930593174,65.00328692734183 59.08844250149559,69.81131175199698 58.69284019328188,70.09835499263136 58.31805905920919,69.88307259403518 57.61013913922943,70.93556250249094 57.96409909927752,71.29436483561585 56.13183577696327,76.10226484804298 54.278751280740835,78.4942193737661 52.154991520917974,79.6662684737239 52.88373261492234,80.71871589691727 51.00982694455888,83.70859841644415 50.71833050705027,84.92845989084162 51.05146929284092,89.1620491467329 47.803366130799986,91.19510245247511 44.13883948652074,94.92630886245752 39.82885644456837,100.9774381913303 39.82885644456837,103.44089817519125 39.349969439790584,104.3019074118638 36.55993210838642,105.18683038544259 35.64380044734571,105.92824984963227 35.8936545366887,106.0 36.539110934361815,105.18683038544259 38.68369186820928,104.73241088354553 39.516538832802325,104.20623986986175 39.808035270427354,103.51264906172582 39.558181181084365,101.52753336813475 38.246447211829945,101.16877578571439 38.07987781893462,102.38854940005695 37.66345433657989,102.96255838907382 33.97810651815962,104.46932551953068 33.33265012060292,102.48421765925013 32.83294194168411,102.02979309170041 31.937631454784423,101.43186473145033 30.084546958561987,101.04918980688672 29.0851306009572,100.28383814582776 28.960203556227498,99.8294094538578 27.00301318941638,99.08797133824555 27.35697314934805,99.99683064999408 28.06489306932781,100.14033444040979 29.543196431477554,101.36011322906415 32.06255849939771,102.24504694039933 32.58308785234112,102.98647540078673 32.16666436998639,103.44089817519125 31.729419713723473,102.34071525619947 31.312996231368743,102.17329567868728 31.47956562426407,101.45578189415392 32.458160807727836,101.64711911104678 33.41593481693417,102.72338814217073 33.93646416987758,104.51715924325981 37.600990814273246,103.12997742157313 38.100698992959224,102.65163702200516 38.22562603757251,101.26444452629949 39.18340004701167,99.18364089993702 41.03648454323411,97.03106662997743 44.34705122758169,91.57779293257045 45.3881099333521,90.4058014293114 48.49046487652231,88.70759960537544 49.34413301537279,87.79869796671846 49.531523582409136,86.62668819139071 48.90688835887704,85.1198101532791 50.32272819883656,81.84291605099861 50.03123176121153,80.38384675800626 50.30190702469554,79.88154218209093 50.75997285521589,79.85762289061677 50.593403462320566,79.52275256191206 51.218038685736246,78.20718607709568 53.69575840549078,77.22648641539854 55.36145233467687,74.90627873237827 56.69400747807231,71.1030036573793 57.006325089838356,71.07908349944046 57.85999322857242,69.35682592571538 56.610722781624645,69.21330390874937 56.25676282169297,68.6631353895209 62.378188011585735,57.15715100649686 62.98200206097681,57.06146485397767 64.02306076686364,57.68342416979431 62.399009185726754,56.70264144560497 65.83450291480403,51.00923892456922 65.23068886541296,50.10019588381692 64.8975500796223,48.49740116133762 61.92012218106538,46.607525104875094 64.39784190081991,42.014347155723954 63.79402785154525,41.296655234429636 60.83742112701293,39.62203248232254 62.815432668081485,35.60289064362587 63.877312547992915,34.21531428520393 64.56441129383165,34.0 66.64652870525606,34.502399701174 68.12483206752222,34.311009461656795 69.124248425127,34.90910345793236 68.20811676396988,36.75122368779557 67.33362745121121,36.583758791253786 64.98083477606997,38.11486210740986 64.46030542312656,39.64595574598934 64.31455720448866,41.03350099711679 64.56441129383165,41.03350099711679 67.79169328173157,37.373235147155356 69.02014255453832,35.29188284064003 68.93685785809066,34.885179726508795 68.14565324166324,34.33493324989104 66.1884628747357,34.47847592945618 64.27291485620663,34.0 63.68992198095657,34.28708567105059 62.21161861869041,36.535911656712415 61.96176452934742,37.70816373292473 60.212785903713666,37.70816373292473 60.004574162419885,38.401942901764414 60.62920938595198,39.43064628787397 62.08669157396071,40.483268486423185 64.2520936820656,41.39234761342232 67.7084085852839,36.96653552763746 66.1676417007111,36.70337658634526 65.14740416908171,37.22969418291177 64.39784190081991,38.18663233786356 63.75238550326321,40.14834373757185 63.12775027984753,40.004804417782 63.35678319516592,39.574185947858496 62.77379031991586,38.59332990903931 63.77320667740423,36.96653552763746 64.27291485620663,36.535911656712415 65.70957587007433,36.22490505166934 68.04154737107456,36.057439791213255 68.66618259460665,35.4115012735856 68.56207672390155,34.62201852405269 67.43773332168348,34.35885703572421 67.93744150060229,34.62201852405269 68.14565324166324,35.746432571831974 68.6037190721836,36.15313423988118 68.18729558994528,36.679453032047604 67.31280627695378,36.51198808585468 64.98083477606997,38.019168433660525 64.1271666373359,41.48803995466733 64.33537837851327,42.2296543175471 65.02247712435201,42.11003925134719 66.75063457584474,42.92342053723405 68.47879202745389,44.02387322419963 68.41632850514725,44.454483784444164 63.37760436919052,52.44456309704401 62.41983035998419,54.57361162541201 61.77437396242749,55.339107647305354 61.31630813179072,55.29126421683759 61.940943355322815,55.626168031973066 61.087275216472335,56.989700214820914 62.169976270524785,57.20499406856834 62.06587040005252,57.42028773103084 62.52393623045646,56.89401399619237 63.169392628013156,57.133229471888626 62.10751274821814,58.54459597138339 62.50311505643185,57.89871740715171 62.232439792947844,57.492052242712816 62.50311505643185,56.870092435667175 63.35678319516592,57.228915596046136 63.77320667740423,57.77911007661896 63.481710239779204,57.99440322900773 63.75238550326321,58.616360150059336 65.12658299494069,59.62105641920061 67.0629521877272,62.92217197340506 68.66618259460665,63.32882802456152 69.644777777954,64.81192078125605 72.08085514954291,64.93152464026934 72.58056332822889,65.43386020364414 70.9148693990428,67.06046345394861 68.81193081336096,66.29500446088787 67.45855449594092,66.60597246843099 66.50078048650175,66.43852820628672 65.56382765143644,64.52487127867062 65.43890060670674,62.70688319939654 64.48112659738399,61.58259427201119 63.856491373851895,61.58259427201119 61.23302343534306,65.02720768495055 58.88023076020181,69.97875368369569 58.40134375554044,69.90699287003372 57.61013913922943,70.7442010408995 57.98492027318571,71.34220510651357 56.17347812524531,76.07834518361778 54.44532067363616,78.39854164597637 52.175812695058994,79.6662684737239 52.80044791859109,80.83831190591445 51.07229046698194,83.66076058647013 50.78079402935691,84.83278470295772 51.07229046698194,89.233804259522 48.03239904611837,90.93200239702128 44.20130300882738,94.59145935083507 42.16082794545218,97.96385116029705 39.95378348918166,100.76218321715714 39.76639292226173,101.43186473145033 39.32914826576598,101.52753336813475 38.37137425655965,100.95352098143485 39.162578872870654,99.08797133824555 40.93237867264543,97.19848975869536 44.680190013488755,91.26685696354252 46.53327450971119,89.52082449849695 48.69867661781609,88.65976276199217 49.364954189397395,87.99004596336454 49.593987104832195,86.6506068148883 48.9693518813001,84.88062230159994 50.32272819883656,81.53196759388084 50.07287410937715,80.1685734957864 51.218038685736246,78.25502498348942 53.612473709043115,77.34608414756076 54.77845945954323,75.91090746616828 56.75647100049537,71.0312431765633 57.006325089838356,71.1030036573793 57.88081440271344,69.71563059625623 57.943277925020084,68.87841887191462 58.81776723789517,68.16080652031815 59.400760113145225,66.89301950584922 58.96351545676589,66.70165485206235 60.650030560093,63.95077125348325" stroke="#ff4a00" stroke-linecap="round" stroke-linejoin="round" stroke-width="0.5"><title>2023-01-01 20.1km</title></polyline><polyline fill="none" points="176.73978238075506,46.542749197542435 174.80233983916696,49.086577110225335 171.72703421744518,47.74400352037628 169.45130805741064,48.20330557838315 167.97516135894693,47.77933446885436 167.08332272875123,46.61341132814414 165.7609413113678,41.41970755890361 164.43855989398435,40.78373865262256 163.51596820750274,41.525702266721055 160.56367481057532,45.76546484025312 157.02707334572915,53.149598082585726 155.8584572095424,53.18492849741597 155.212643028819,54.17417869833298 155.48942053481005,55.44606779629248 152.04507823847234,63.85455424457905 150.04612958442885,66.00963872051216 147.03233007516246,67.52878883347148 147.80115648068022,69.11859018777614 145.24865281465463,73.71130999716115 144.81811002758332,75.7603505969455 145.61768948927056,79.99970770906657 145.4024180956185,81.5894536843698 140.9432249441743,84.2390146231046 134.91562592575792,90.20928673711023 128.67275551368948,99.18217119463952 128.76501468231436,102.64409012612305 128.21145967033226,103.6332036734093 127.01209047797602,104.51633846058394 124.21356236224528,104.94024238476413 123.32172373193316,106.0 123.99829096859321,105.08154358135653 126.88907825294882,104.48101311083883 128.33447189535946,103.4565764546569 128.70350856985897,102.43213686760282 128.5497432887787,100.02999117047875 127.01209047797602,99.18217119463952 126.33552324108314,99.32347466336796 125.81272128550336,101.69029947509989 123.96753791242372,102.53811351250624 125.9972396226367,101.51367129787104 126.24326407257468,99.57075559938676 127.87317605200224,95.96750221744878 129.9951369309565,93.77727165896795 135.0693912068382,85.51079690927872 137.77566015382763,82.61395290569635 141.4967799561564,80.84757310774876 142.66539609234314,79.54044644653914 142.8499144295929,77.73872349635349 141.98882885556668,75.301083895989 144.04928362218197,70.42575490110903 143.8032591723604,68.30602593327058 145.46392420807388,65.26772585712024 148.90826650441159,64.03120100128581 150.99947432707995,61.310831283277366 153.52122493681964,54.91611455474049 155.2433960851049,52.54898049597978 154.6898410731228,51.736378627683735 155.7969510969706,50.71179103362374 157.58062835759483,47.143376862979494 162.74714180198498,40.14776861615246 163.7004865448689,37.74520494652097 162.83940097060986,37.285889467340894 162.83940097060986,36.57924911758164 161.94756234029774,36.64991321525304 161.8245501156198,35.660614576830994 163.2084376453422,34.42398743308149 164.1310293317074,34.77730991013232 163.97726405062713,36.68524525896646 165.88395353616215,37.85120074270526 168.00591441511642,41.41970755890361 167.97516135894693,41.77302312961547 166.56052077305503,42.0910068450321 166.25299021077808,42.76230487204157 166.89880439138506,46.366093810036546 167.79064302169718,47.49668678350281 169.78959167574067,48.238636481546564 171.91155255481135,47.70867256849306 174.5870684455149,49.01591546786949 171.6655281049898,47.70867256849306 169.48206111358013,48.238636481546564 167.7291369092418,47.67334161297185 166.77579216635786,45.69480254233349 165.97621270478703,41.77302312961547 164.7153373999754,40.53641710599186 163.48521515133325,41.3843759825977 160.84045231656637,45.270828461274505 157.2423447392648,52.7609632887179 156.84255500836298,53.32625012198696 155.88921026571188,52.97294595578569 155.52017359109595,53.60889320404385 155.15113691648003,54.63347250499646 155.58167970355134,55.128095945488894 152.7831515878206,62.51203604534385 150.13838875305373,66.00963872051216 147.06308313133195,67.31681478611426 146.8785647940822,68.0233944558131 147.8319095368497,69.01260365053895 147.70889731205534,69.68385119008599 144.8796161399223,74.31189207761781 145.49467726435978,80.28232973173726 145.18714670219924,81.73076409602072 141.65054523723666,83.67377660155762 135.77671149978414,89.04350177914603 128.64200245740358,99.04086767017725 128.4574841200374,103.35060008158325 127.01209047797602,104.48101311083883 123.78301957517397,105.25816999867675 123.41398290055804,105.8586991658085 124.18280930595938,105.04621828746167 126.61230074707419,104.55166380680748 128.39597800769843,103.42125100034173 128.36522495152894,99.74738473488833 126.98133742169011,99.14684531872626 126.30477018491365,99.21749706700211 125.93573351029772,101.44302000271273 123.87527874391526,102.43213686760282 125.87422739795875,101.54899694022606 126.15100490383338,99.67673309109523 127.90392910817172,95.89684982787003 132.4553814283572,90.17395997594576 135.43842788145412,84.98088817246025 138.23695599718485,82.26067764332402 141.55828606861178,80.70626234734664 142.57313692360185,79.57577425686759 142.9114205420483,77.42077144628274 142.01958191185258,75.301083895989 144.08003667835146,70.53174102009507 144.08003667835146,67.70543377712602 145.4331711519044,65.30305507601588 149.00052567303646,63.960542309097946 150.53817848395556,61.982093264814466 151.73754767642822,59.89764404966263 153.39821271214169,54.88078431066242 153.58273104939144,54.5274816788733 153.8287554990966,55.02210526581621 154.10553300508764,54.81012381229084 155.05887774785515,53.18492849741597 155.3664083100157,52.12501453392906 154.59758190449793,51.771709182008635 156.31975305266678,50.0051771911385 157.48836918885354,47.143376862979494 159.48731784289703,44.28155365254497 162.59337652102113,40.60708042248734 163.7004865448689,37.9218645892106 161.91680928412825,36.82657339872094 161.88605622795876,35.51928597665392 163.1161784766009,34.31799062187201 164.06952321936842,34.60064871510258 163.51596820750274,35.660614576830994 163.91575793828815,36.68524525896646 166.0992249296978,38.23985172636458 168.00591441511642,41.3843759825977 168.0981735837413,41.73769158826326 166.6527799416799,41.949680784135126 166.28374326706398,42.51498469279613 166.99106356000993,46.048113892786205 167.97516135894693,47.602679691743106 169.26678972004447,48.238636481546564 171.85004644223955,47.74400352037628 174.5870684455149,49.01591546786949 171.542515880079,47.77933446885436 169.08227138279472,48.13264376169536 167.48311245942023,47.46135580720147 166.0684718734119,42.02034382155398 164.77684351231437,40.64241207545274 163.85425182583276,41.10172324694577 160.96346454147715,44.952847571024904 157.02707334572915,53.008276388194645 156.13523471541703,53.04360681696562 154.90511246665847,54.84545406323741 155.3356552538462,55.34007721074158 152.2911026882939,63.2186251989624 149.92311735951807,66.08029700827319 147.00157701899298,67.31681478611426 147.61663814331405,69.43654961144784 144.8488630836364,74.55919028844801 145.24865281465463,81.62478129248484 140.48192910093348,84.45097865123535 134.9771320380969,89.82069217276876 128.64200245740358,98.9348899902252 128.70350856985897,102.2201834837033 127.96543522062711,103.80983080517035 124.24431541841477,104.90491707692854 123.26021761936136,105.82337394851493 124.42883375566453,104.94024238476413 128.0884474455379,103.70385453655035 128.61124940111768,102.67941565695219 128.42673106398433,99.85336217432632 126.88907825294882,99.11151943934965 126.27401712862775,99.32347466336796 125.75121517293155,101.65497384656919 123.78301957517397,102.43213686760282 125.9972396226367,101.40769434982212 126.0894987914944,99.6060814334196 127.68865771463607,96.2147854710638 132.20935697853565,90.45657396750175 135.4999339937931,84.83957904350245 139.19030073983595,81.62478129248484 141.09699022525456,80.91822846693685 142.4808777550934,79.68175766704371 142.9114205420483,77.98601934005274 142.20410024910234,74.31189207761781 143.95702445344068,70.70838448189897 144.08003667835146,67.77609173007659 145.46392420807388,65.26772585712024 148.69299511087593,64.24317699423409 151.43001711415127,60.49824930570321 153.52122493681964,54.81012381229084 153.67499021801632,54.5274816788733 153.7672493867576,55.163426165119745 154.01327383646276,54.95144479518058 154.228545229882,54.2095090119692 153.7672493867576,53.18492849741597 155.3356552538462,52.054353491490474 153.12143520615064,52.08968401447055 153.12143520615064,50.74712168920087 161.7322909469949,34.4946519563091 162.50111735227983,34.0 164.10027627565432,34.67131320366752 163.6082273760112,35.76661099030753 164.65383128752,37.109229510620935" stroke="#ff2800" stroke-linecap="round" stroke-linejoin="round" stroke-width="0.5"><title>2022-05-22 20.9km</title></polyline><polyline fill="none" points="63.551180449605454,119.00353180192178 62.41214426839724,118.79184651971445 62.49589692882728,118.61864929963485 61.80912511370843,118.07981251989258 61.18935542687541,118.02207991945033 60.65333840041421,117.48324149068503 59.34679689857876,117.1368445714761 57.8057479475392,114.5388480569527 56.633210702158976,114.0 55.94643888709834,115.96293932315893 53.9028739737696,118.50318440081901 52.88109151716344,120.23515070301073 52.59633247187594,121.21659144421574 51.691803739755414,122.1018082669325 51.926311188784894,122.54441517109808 51.256289905752055,123.96844795843936 51.122285649122205,123.71828078950057 51.00503192457836,123.91071710178221 49.7152409547125,127.23983523888455 48.65995743393432,128.70232003330602 46.54939039237797,129.64523204507714 45.7788659168873,131.2808849233552 45.71186378854327,132.6663683927036 44.77383399230894,134.72533258529438 45.25959942251211,136.1877612368553 44.9580898451386,137.5347252919455 42.9982775922399,138.5160789592628 41.44047810911434,139.9207530660351 38.22437595052179,145.01982746804424 37.57110519957496,145.48162384891475 35.52754028624622,145.38541635974252 35.02502432401525,145.69328015808424 30.686636516300496,150.63827582726663 28.4923168142559,153.77453106525354 24.85745135380421,163.99106194122578 22.194116753642447,168.47385292724357 22.46212526690215,170.34004885220202 22.127114625356626,172.07155488042918 21.15558376489207,173.47598737248336 19.02826619130792,174.5148761360324 18.408496504474897,175.28441980203206 17.788726817641873,179.30523610147065 18.45874810073292,179.82466565708455 23.785417300881818,181.61380132098566 25.79548115003854,181.86389424686786 33.86923761072103,184.59565764311992 34.857519003155176,184.59565764311992 38.86089616938261,186.0 41.3232243846287,181.65227717661764 44.438823350763414,183.17206740529218 44.40532228664961,182.67188458610326 42.763770143152215,181.99855953572842 41.64148449408822,181.19056640859344 41.99324566766154,180.24790353192657 44.740332928078715,176.80425962642767 42.64651641860837,179.074378077421 41.3399749166565,181.0559005621035 39.16240574675612,180.03628470923286 37.92286637314828,178.84351978024642 43.06527972052572,172.62948132723977 43.969808452704456,170.8787412632082 44.656580267706886,168.20450358765083 45.527607935713604,166.72307557309978 47.05190635466715,165.26087585263303 45.34335208288394,167.06938442810497 43.73530100355856,171.45591005304595 42.86427333561005,172.99501847915235 41.75873821863206,174.0531484795356 41.0384653393412,173.88000032672426 40.16743767133448,172.5525260501454 39.715173305303324,169.64744213840459 38.8106445731828,167.8197181717842 38.894397233612835,167.47341064864304 40.38519458833616,166.43448439102212 40.971463210938964,165.62642681013676 45.71186378854327,162.1632849824673 50.737023411435075,155.87175336532528 53.96987610205542,157.00693768174096 58.67677561548771,157.98819337772147 62.2948905438534,159.14260552423366 63.1156666156603,159.08488507915172 64.12069854018046,157.7188295605447 65.39373897801852,155.005930378029 72.88122681604,147.7713480858365 78.92816889553796,140.7289171450393 80.10070614085998,139.72833255361184 80.56972103897715,138.82395360186638 82.21127318241633,137.5347252919455 81.57475296355551,138.0157816282881 80.33521358988946,137.93881269422127 77.13586196338292,135.47579076333204 73.80250608024653,134.45593663740146 69.59812252910342,132.68561114932527 50.820776071748696,122.27500239259098 50.77052447554888,121.71693188141217 54.237884615315124,115.27013946612715" stroke="#4dd2ff" stroke-linecap="round" stroke-linejoin="round" stroke-width="0.5"><title>2022-05-07 16.0km</title></polyline><polyline fill="none" points="141.64331442757975,161.37551439764502 138.4147329282714,161.27773415806587 137.74716908443952,161.05423621207592 136.75189208087977,159.3221150758327 135.31966419774108,158.62367309237015 134.6156877806643,157.12899558167555 132.71009644458536,156.26291348565428 131.022980548325,154.405009686845 130.4646544243442,152.88234840314544 130.4282418510993,148.76130159462627 130.23404146009125,148.03486724974937 127.92791181779467,145.17100294239935 127.38172321830643,143.98352988400438 127.78226152458228,138.42322834287188 128.38913774624234,136.4952331904351 130.45251689990982,133.54730536452553 131.36283123248722,131.13023779673676 134.32438719418133,128.9087343778956 135.5866897352971,126.15625685820123 136.9460924717714,124.64726150932256 137.929231950955,122.43962798031862 138.7667211368098,121.41963367488643 139.42214745626552,121.08429146251001 142.21377807593672,120.34374123890302 144.42280752281658,118.12206712688203 146.35267390776426,117.39547425218916 148.12475247500697,115.81651907642663 150.4187445929274,114.75455693245749 152.04517286701594,114.26549271652766 154.16923964291345,114.02794662539964 155.67429267260013,114.0 157.47064628876979,114.32138585601933 161.0269409477478,115.63486822669802 163.05390752811218,117.31163637078134 165.0687365841004,118.63906361289264 167.8239546305267,121.82483777940797 170.9311608854332,127.46962849727424 172.61827678169357,129.8727873483731 170.724822970049,127.26004874042701 167.43555384862702,121.39168852112198 165.12942420627223,118.77879206606303 161.01480342331342,115.63486822669802 157.40995866659796,114.3074125732528 152.99189977283822,114.16767966886982 150.64935755712213,114.72661045170389 148.45246563473484,115.69076082087122 146.32839885883732,117.40944722753193 144.5199077182333,118.1080942224362 142.06812778278254,120.44154998291924 139.3250472607906,121.15415448944259 138.43900797714014,121.74100254339282 137.06746771617327,124.5494556955091 135.57455221086275,126.24008945759851 134.43362491409061,128.8388752097817 131.3992438057321,131.10229457585956 130.37969175330363,133.7289330385829 128.44982536841417,136.425377796666 127.89149924449157,138.12983948376495 127.38172321830643,143.7600044208084 127.75798647571355,144.93350913388713 129.95487839815905,147.4900390256371 130.33114165562438,148.2444160040759 130.48892947327113,153.04998164651624 130.96229292609496,154.30722459571552 132.63727129797917,156.10925320125534 134.53072510956554,157.08708850639232 135.47745201538783,158.70748631373863 136.8489922763547,159.3919590832229 137.4073184002773,160.63517660507932 137.94136947538937,161.068204844094 141.8011022452265,161.26376554687158 143.18478003062773,161.65488613577327 143.58531833690358,162.1996594273951 143.70669358124724,162.7723675333691 143.57318081252743,164.54635099868756 144.0344067409169,165.27269997070835 145.2238841354265,166.3342801759136 145.41808452637633,167.01871579272847 145.3209843308432,168.54122388234828 146.55901182309026,170.1614896023966 146.53473677422153,171.8376068956568 147.28726328909397,173.3460953677568 147.39650100900326,174.18413752257766 147.08092537370976,176.71220108156558 145.16319651325466,180.17599333917315 143.9615815943689,183.55590188803035 143.7188311056816,186.0 143.91303149663145,183.56986828366644 144.19219455862185,183.2486408327386 145.1146464155754,180.14805987205182 147.0323752760305,176.64236568236083 147.37222596013453,173.9187580475409 146.4740491521079,171.78173664130736 146.57114934752462,170.17545732908184 145.27243423322216,168.68090269748063 145.27243423322216,166.6695143639372 145.01754622004228,166.18063090575743 143.76738120341906,165.160954219391 143.5124931902974,164.70000205586257 143.5489057636005,162.14378534084244 143.02699221298099,161.57107467266906 141.92247748951195,161.1939224700036" stroke="#4dd2ff" stroke-linecap="round" stroke-linejoin="round" stroke-width="0.5"><title>2022-02-26 19.6km</title></polyline><polyline fill="none" points="82.31396208051592,218.50024632638087 74.74903856613673,217.4513223222457 72.40130368224345,213.40545901254518 67.05368533614092,211.6822143868776 60.33655497431755,201.192814880691 56.7497377905529,198.49551728920778 55.967159496154636,196.62238832144067 57.46710122725926,195.12388181872666 54.66286233859137,194.44955292728264 52.380342312855646,198.19581696478417 56.42366350139491,202.01698723243317 53.03249089140445,208.6852578924154 46.6414348189719,215.72808688267833 39.92430445738137,228.24018571246415 37.315710142022,231.01229945814703 38.42436272604391,232.2859699468827 35.88098326837644,238.12984243716346 35.03319011605345,237.00602429831633 34.51147125312127,237.68031538132345 29.94643120118417,250.7914118237677 25.511820865329355,256.8598997971276 18.142541924724355,259.5569899912225 16.903459624852985,263.6775259510032 21.14242538716644,265.85016317875125 21.33806996094063,263.22801402403275 27.076977454591542,260.83061258512316 30.272505490807816,257.38433475221973 33.3376038109418,252.5894873920479 38.880866731051356,237.98000011459226 37.772214147029445,237.0809455595445 38.42436272604391,234.83330451260554 40.119949030922726,233.03518688300392 42.20682448311709,233.40979507373413 51.206474870676175,215.503316754126 57.206241796026006,207.56139615585562 59.423546963837,207.411547798838 61.51042241626419,209.73419401160209 62.87993443151936,217.30147591780405 65.423313888954,222.02162345283432 68.42319735162891,223.07054114108905 73.64038598211482,222.2463916509878 79.70536776538938,224.94360483577475 83.87911866954528,218.94978474173695 77.48806259734556,217.82593820465263 74.0968899873551,222.4711597824935 69.20577564602718,223.52007684938144 66.46675161505118,222.9206958459108 63.01036414736882,218.650092494383 61.57563727372326,209.80911796464352 58.83661324298009,207.3366236089496 57.271456653717905,207.63632032333408 50.48911143396981,217.37639912369195 42.40246905665845,234.1590109007666 39.92430445738137,233.78440307982964 38.880866731051356,235.65744033595547 39.14172616251744,238.35460586519912 33.859322673873976,253.2637646321673 30.794224353739992,258.2084460921469 28.31605975399725,261.0553692918038 22.51193740265444,263.0032579609542 20.16420251899399,265.70032632816583 16.44695561961271,263.30293269711547 17.68603791948408,259.5569899912225 24.79445742839016,256.9348190986784 30.468150064582005,248.99333199649118 34.83754554227926,236.78126047109254 36.01141298445873,237.00602429831633 38.35914786788635,232.81042187992716 38.29393301019445,231.01229945814703 36.98963585263118,231.08722131082322 39.85908959922381,228.0154192892369 42.40246905665845,221.87177795066964 52.054268023232,209.65927005099365 56.097589212004095,202.39161073311698 52.18469773908146,197.67134111281484 54.793292054440826,194.2247764968779 57.01059722225182,194.6743292909814 57.01059722225182,198.72029245458543 60.988703553099185,200.9680404473911 67.70583391468972,211.75713814777555 72.72737797163427,213.1057645760593 75.00989799760282,217.22655270423274 83.22697009099647,218.200553901901 83.16175523283891,220.29839838971384 79.64015290723182,225.16837216867134 73.57517112442292,222.4711597824935 69.98835394065827,223.3702316430281 66.1406773258932,222.9206958459108 63.401653294917196,220.14855254715076 61.31477784272283,209.95896584866568 60.14091040054336,208.08586517337244 58.05403494811617,207.411547798838 49.77174799749628,218.3504001291003 42.0111799093429,234.5336185367778 40.119949030922726,233.55963829829125 39.14172616251744,236.33173261664342 38.16350329434499,236.10696858965093 38.03307357872836,237.7552365757292 39.011296446900815,238.6542903324007 33.924537532031536,253.11392529739533 30.85943921166472,257.83385013928637 27.794340891065076,261.50488250527997 21.468499676557258,263.82736320083495 21.403284818632528,265.77524475724204 16.707815051311627,263.6775259510032 16.120881330454722,262.4788268879638 17.62082306155935,259.7068280543899 24.142308849841356,257.4592540017911 29.62035691179335,250.6415720010409 34.90276040043682,236.70633918052772 36.01141298445873,236.8561817544396 38.55479244166054,233.110108535795 38.55479244166054,231.5367522710585 37.12006556824781,230.93737759802025 40.250378746539354,227.41604183544405 46.315360529581085,216.02778028370813 54.40200290712528,205.91306259890553 56.228018927620724,201.5674387876643 52.641201744321734,199.16984258563025 52.315127454698086,197.07193969533546 54.858506912132725,194.07492550631287 57.53231608518399,195.19880721421214 56.35844864323735,196.69731356902048 57.07581208017655,198.87014252785593 61.053918410791084,201.1178900769446 67.37975962553173,211.6072906186455 72.92302254540846,213.40545901254518 75.92290600785054,217.75101504282793 83.22697009099647,217.90086135885213 82.77046608552337,221.34731845953502 80.35751634417102,225.09344973193947 73.314311692724,222.4711597824935 69.59706479334272,223.52007684938144 65.945032752119,222.6959278473514 63.271223578834906,219.62409186526202 61.119133268948644,209.73419401160209 58.90182810090482,207.4864719811012 57.46710122725926,207.78616863646312 49.70653313933872,218.79993863304844 42.20682448311709,234.3837755045388 40.38080846215598,233.63455989956856 39.40258559398353,234.98314745596144 39.011296446900815,238.6542903324007 32.22895122691989,256.185625751561 28.44648946984671,261.0553692918038 21.859788823872805,263.3778513627476 21.468499676557258,265.85016317875125 16.773029909003526,263.52768867171835 17.751252777175978,259.5569899912225 24.92488714423962,257.0097383928369 29.489927196176723,250.6415720010409 34.70711582666263,237.0809455595445 35.163619831902906,236.4815752643044 35.359264405211434,237.98000011459226 38.880866731051356,232.73550019721733 38.55479244166054,231.31198682420654 37.12006556824781,230.71261197369313 54.59764748066664,205.53844083641889 56.293233785778284,201.34266446559923 52.641201744321734,199.16984258563025 52.249912596773356,197.67134111281484 54.07592861773446,194.6743292909814 55.44544063298963,194.07492550631287 57.53231608518399,195.12388181872666 57.401886369567364,199.01999257167336 61.77128184749745,201.9420625102939 67.83626363077201,211.98190938530024 72.14044425077736,212.88099367107498 75.00989799760282,217.4513223222457 83.16175523283891,218.200553901901 83.61825923831202,219.4742458895198 82.31396208051592,222.09654619311914 80.35751634417102,225.24329459812725 73.314311692724,222.4711597824935 69.59706479334272,223.59499944164418 65.87981789419428,222.84577318723314 63.401653294917196,219.99870667501818 60.66262926347554,208.98495407449082 58.96704295859672,207.4864719811012 57.01059722225182,208.08586517337244 50.032607428962365,217.97578450560104 42.598113630199805,233.859324658697 39.92430445738137,233.63455989956856 33.79410781641491,253.788202071446 30.92465406935662,258.2833652604022 27.859555749222636,261.65472018375294 22.120648255338892,263.3778513627476 21.468499676557258,265.77524475724204 16.38174076192081,263.45277002081275 18.012112209107727,259.48207094869576 25.772680296795443,256.11070637602825 30.011646059108898,249.8174524459173 34.90276040043682,236.55649657722097 35.424479263368994,238.12984243716346 37.641784431179985,234.0091677942546 38.880866731051356,232.66057850740617 39.40258559398353,233.33487345051253 38.42436272604391,232.88534355489537 38.48957758373581,231.38690864725504 36.98963585263118,230.93737759802025 48.53266569762491,213.40545901254518 51.59776401799172,210.2586615277105 56.162804069928825,202.31668604764855 52.18469773908146,197.9710416443413 55.11936634359881,194.0 57.53231608518399,195.49850872188108 56.81495264871046,198.79521749482956 58.96704295859672,199.31969257019227 62.293000710662454,202.466535410902 68.16233792016283,212.43145166139584 72.46651854040101,212.73114636412356 74.87946828198619,217.37639912369195 83.61825923831202,218.42532323143678 81.14009463856928,223.89468973642215 79.70536776538938,225.318217020249 73.57517112442292,222.4711597824935 68.55362706747837,223.59499944164418 65.48852874687873,222.77085052116308 63.14079386321828,219.02470778493444 61.24956298456527,210.03388977935538 57.79317551665008,207.56139615585562 50.61954114958644,217.22655270423274 42.07639476726763,234.5336185367778 40.38080846215598,233.70948149322066 38.35914786788635,236.4815752643044 37.90264386264607,237.38063052960206 39.27215587813407,237.90507894248003 33.924537532031536,253.2637646321673 29.88121634349227,259.4071518985438 27.859555749222636,261.65472018375294 22.120648255338892,263.22801402403275 20.490276808151975,266.0 16.51217047777027,263.6775259510032 17.751252777175978,259.5569899912225 25.381391149479896,256.6351418486447 29.424712338019162,250.7164919161005 34.83754554227926,236.78126047109254 35.359264405211434,238.12984243716346 37.25049528386444,234.60854004195426 38.880866731051356,233.70948149322066 38.29393301019445,231.31198682420654 37.18528042617254,231.08722131082322 40.83731246762909,226.5169747674954 46.380575387505814,216.4773201631615 52.249912596773356,209.50942210818175 56.293233785778284,202.01698723243317 52.445557170547545,199.09491758211516 52.1194828809239,197.59641596162692 54.793292054440826,194.07492550631287 56.88016750640236,194.5994038436911 57.141026937868446,196.02298607554985" stroke="#ff0000" stroke-linecap="round" stroke-linejoin="round" stroke-width="0.5"><title>2022-01-27 21.8km</title></polyline></svg>