<?xml version="1.0" encoding="utf-8" ?>
<svg baseProfile="full" height="300mm" version="1.1" viewBox="0,0,200,300" width="200mm" xmlns="http://www.w3.org/2000/svg" xmlns:ev="http://www.w3.org/2001/xml-events" xmlns:xlink="http://www.w3.org/1999/xlink"><defs /><rect fill="#222222" height="300" width="200" x="0" y="0" /><text fill="#FFFFFF" style="font-size:12px; font-family:Arial; font-weight:bold;" x="10" y="20">Over 15km Runs</text><text fill="#FFFFFF" style="font-size:4px; font-family:Arial" x="10" y="280">ATHLETE</text><text fill="#FFFFFF" style="font-size:9px; font-family:Arial" x="10" y="290">Jason</text><text fill="#FFFFFF" style="font-size:4px; font-family:Arial" x="120" y="280">STATISTICS</text><text fill="#FFFFFF" style="font-size:3px; font-family:Arial" x="120" y="285">Number: 9</text><text fill="#FFFFFF" style="font-size:3px; font-family:Arial" x="120" y="290">Weekly: 1.0</text><text fill="#FFFFFF" style="font-size:3px; font-family:Arial" x="141" y="285">Total: 173.9 km</text><text fill="#FFFFFF" style="font-size:3px; font-family:Arial" x="141" y="290">Avg: 19.3 km</text><text fill="#FFFFFF" style="font-size:3px; font-family:Arial" x="167" y="285">Min: 16.0 km</text><text fill="#FFFFFF" style="font-size:3px; font-family:Arial" x="167" y="290">Max: 21.8 km</text><polyline fill="none" points="65.01712534972467,37.472788590879645 66.45903459179681,37.88693206431344 65.9063027157681,39.43306228029542 65.47372994304169,40.730700685991906 64.68067985994276,42.138769592071185 64.20004344591871,42.52529707134818 62.78216602455359,41.779850740131224 61.36428860318847,41.69702324739774 59.94641118182335,41.890287359041395 58.67272468470037,41.1448393354367 58.19208827067632,39.79198414369603 57.92773824301548,38.328684426727705 57.49516547040548,36.865377053734846 56.34163807681762,36.119915637071244 55.40439706936013,37.196692601108225 54.56328334484715,38.41151291699498 53.72216962033417,39.54349982572603 53.097342282067984,40.84113771907869 52.4725149438018,42.111160465865396 51.87171942635905,43.29835042741615 51.246892088092864,44.56836201690021 50.574001108529046,45.83836783980951 49.58869645965751,46.00402034810395 49.252250969875604,47.16358515934553 48.867741838796064,48.35075367643731 48.459200886893086,49.64835071080597 48.002596293459646,51.00115823119995 47.570023520849645,52.46439165310585 46.7769734376343,53.76196960514062 45.86376425111666,54.94911011864315 44.85442778165452,55.94299132528249 43.48461400170345,56.467538316210266 42.73962755990215,57.489021739020245 43.36445489816833,58.40007137475186 42.66753209778108,59.78044395730831 41.82641837338451,61.0779879745387 41.225622855708934,62.45834734354867 41.15352739370428,63.97673478318029 41.417877421481535,65.49511398203322 41.63416380761191,66.95827159524197 41.20159103511833,68.33860195169109 39.90387271728832,69.02876457609818 38.582122578751296,69.69131909386488 37.38053154363297,70.60232899387483 36.395226894994266,71.76179184921784 35.241699501289986,72.7280072249414 34.160267569706775,73.77703728363849 33.19899474165868,74.85366930672899 32.38191283773631,76.17874918653979 31.612894575460814,77.58663968308247 30.65162174741272,78.77367910719477 29.71438073995523,79.93310810188996 28.873267015442252,81.20295339342556 28.440694242948666,82.52800320577808 28.584885167190805,84.01867674474488 28.032153291045688,85.31610836132313 26.686371331801638,85.95101951344986 25.17236662749201,86.22706739118439 24.307221082272008,86.917185894039 25.48478029668331,86.06143869721564 26.926689538755454,85.84060028617387 28.12828057387378,85.01245469236164 28.416662422125228,83.60460155829787 28.15231239446439,82.22434651129879 27.02281682146713,81.7826634584053 26.47008494543843,82.52800320577808 26.01348035200499,83.93586175647215 24.643666572053917,84.40514636595617 25.89332124858629,83.93586175647215 26.494116766029038,82.61081861070124 26.90265771804843,81.2305586618022 27.527485056198202,79.8778973063454 28.344566960120574,78.63565152592491 29.40196707099676,77.58663968308247 30.19501715397928,76.26156647069729 31.108226340729743,75.04691051336704 31.97337188583333,73.72182527335826 32.766421969165094,72.34152147505665 33.53544023144059,70.85078572449856 34.59284034231678,69.60849986490211 35.93862230156083,68.61466720578028 37.38053154363297,67.81407721841242 38.75034532358404,67.09630493735312 39.47129994467832,65.77118204187718 39.32710902043618,64.28041128220502 38.774377144291066,62.955275049229385 39.303077199612744,61.46448928434984 40.048063641414046,60.08412501143175 40.40854095190298,58.62093144567916 40.40854095190298,57.3509836566227 41.58610016631428,57.65466734804795 40.79305008321535,57.15773022681242 41.273686497239396,55.74973692270578 42.47527753224131,54.94911011864315 43.94121859513689,54.424560280458536 44.97458688518964,53.347849636134924 45.83973243040964,52.050269763101824 46.48859158938285,50.642250751145184 47.01729164482094,49.20661622597254 47.54599170014262,47.74336576228961 48.002596293459646,47.38445410213899 48.62742363172583,46.00402034810395 49.15612368716393,44.67879753472516 50.261587439337745,43.684876304265345 50.81431931548286,42.33203339847387 50.79028749477584,41.310494623408886 51.751560322823934,40.012858907692134 52.592674047336914,38.65999824064784 53.57797869609203,37.472788590879645 54.515219703433104,36.28557390140486 55.284237965825014,35.04313452739734 55.69277891772799,33.690249820647296 56.55792446306441,33.27610013267258 57.68742003594525,34.35288804577431 58.50450193975121,35.62294025544543 59.22545656084549,36.89298669769778 60.25882485101465,37.914541607373394 61.67670227237977,38.135417854064144 62.44572053477168,39.54349982572603 62.87829330738168,40.50982648888021 62.20540232770145,41.64180490517174 60.7394612650387,41.917896506842226 59.32158384367358,41.69702324739774 58.432406477746554,40.64787288248772 58.02386552572716,39.046530527528375 57.783547318773344,37.472788590879645 56.84630631143227,36.20274478153442 55.64471527643036,36.837767407036154 54.803601551800966,38.080198808718706 53.89039236516692,39.29501528709079 53.169437744189054,40.67548215307761 52.520578585215844,42.02833307129913 51.89575124706607,43.325959436333505 51.2709239089163,44.67879753472516 50.525937467115,45.9211941062822 49.46853735623881,46.30771635854035 49.39644189411774,47.46727991072112 48.74758273526095,48.847706443368224 48.24291450052988,50.28334281060961 47.76227808650583,51.691363629186526 47.18551438965369,53.18220147682587 46.27230520301964,54.47977609920781 45.214905092143454,55.66691356652882 43.84509131219238,56.35710745246615 42.64350027719047,57.26816077448893 43.36445489816833,58.427678893116536 42.691563918604515,59.78044395730831 41.87448201479856,60.995166195731144 41.225622855708934,62.32031171320705 41.08143193158321,63.783485930383904 41.297718317830004,65.21904564969009 41.56206834560726,66.70981140778167 41.345781959360465,68.17296266843914 40.07209546212107,68.89073218739941 38.726313502993435,69.58089344977634 37.54875428858213,70.49190370939323 36.467322357115336,71.62376080884133 35.33782678400166,72.67279500773293 34.1842993904138,73.72182527335826 33.2230265623657,74.9364869830315 32.357881017262116,76.20635495067108 31.564830933930352,77.61424530830118 30.65162174741272,78.8288901206397 29.71438073995523,80.015924274805 28.825203374028206,81.2305586618022 28.392630601418205,82.63842374028172 28.488757884246297,84.26712156253052 27.74377144256141,85.50934234273154 26.32589402119629,86.00622911087703 24.787857496296056,86.30988170136698 24.54753928934224,86.55832448494039 25.989448531414382,85.97862431351678 27.47942141490057,85.64736653352156 28.392630601418205,84.54317110136617 28.344566960120574,83.05250035651261 27.67167598044034,82.11392581340624 26.590244048973545,81.83787387813209 26.422021304024383,83.3561561522074 25.31655755173415,84.26712156253052 25.148334806901403,84.26712156253052 26.39798948331736,83.46657635990414 26.590244048973545,81.92068948730594 27.287166849244386,80.51282079773955 27.911994187510572,79.10494502444635 29.01745793968439,78.02832935936749 29.93066712631844,76.78607536759228 30.699685388826765,75.43339252629085 31.70902185817249,74.16352105056285 32.52610376197845,72.81082553052693 33.2230265623657,71.43051723798271 34.11220392829273,70.16062759459601 35.265731321880594,69.05637104561902 36.539417819236405,68.06253642521915 37.98132706119213,67.53801117438707 39.20694991701748,66.62699129630346 39.51936358597595,65.1362250969105 39.0146953513613,63.81109291760367 38.87050442723557,62.29270457892562 39.567427227506414,60.88473711928236 40.26435002766084,59.55958480175468 40.26435002766084,58.06878094145213 40.86514554533642,57.15773022681242 41.77835473185405,57.65466734804795 40.769018262508325,56.79883064579917 41.44190924207214,55.47365897329291 42.811723022023216,54.81107078291825 44.20556862279773,54.31412861021818 45.16684145084582,53.099377360369544 46.03198699594941,51.801796334795654 46.680846155039035,50.338559446827276 47.18551438965369,48.930531818652526 47.69018262438476,47.46727991072112 48.17081903840881,47.191193786711665 48.795646376674995,45.61749767616857 49.44450553553179,44.45792645541951 50.42981018428691,43.381177445931826 50.67012839124072,42.22159695401206 50.982542060432024,41.00679318702896 51.91978306765668,39.70915606225026 52.7849286129931,38.41151291699498 53.79426508245524,37.25191182093113 54.755537910503335,36.009476739767706 55.452460710774176,34.65659670755849 55.71681073855143,33.3589301193424 56.7742108493112,33.524590019049356 57.83161096018739,34.54615723231109 58.600629222695716,35.8162085643271 59.39367930567823,37.05864450414083 60.45107941655442,37.96976068537333 61.86895683791954,38.35629392624833 62.5658796383068,39.70915606225026 62.80619784526061,40.70309142084443 62.10927504498977,41.64180490517174 60.715429444331676,41.94550565208192 59.32158384367358,41.72463241437799 58.432406477746554,40.620263609220274 58.02386552572716,39.212187058408745 57.75951549806632,37.80410341868992 57.11065633909311,36.36840299674077 55.7889062006725,36.53406111386721 54.947792476043105,37.748884307889966 54.05861511011608,39.074139956210274 53.31362866843119,40.39938932497171 52.592674047336914,41.83506905505783 51.94381488848012,43.105087288684445 51.31898755021393,44.43031755826087 50.59803292923607,45.755541548889596 49.58869645965751,46.03162908999366 49.32434643199667,47.30162826902233 48.867741838796064,48.43357919895789 48.36307360394858,49.81400096270954 47.88243718992453,51.24963237057091 47.40180077590048,52.63004023747635 46.63278251350857,53.95522538089426 45.719573326874524,55.169972914183745 44.5179822917562,56.08103010247578 43.05204122909345,56.55036143533653 42.90785030485131,57.79270528064808 43.076073049684055,58.897006289160345 42.379150249413215,60.16694705985719 41.53803652501665,61.40927484421991 41.0574001109926,62.73441840012674 41.105463752290234,64.19759045157116 41.36981377995107,65.66075485068723 41.56206834560726,67.12391159753315 40.93724100745749,68.39381502429023 39.63952268951107,69.11158397659892 38.341804371681064,69.82935108753736 37.21230879880022,70.76796683881548 36.13087686721701,71.8446104407194 34.97734947351273,72.92124989969307 33.89591754192952,74.02549119509058 32.958676534704864,75.2677574432455 32.06949916877784,76.59283536209841 31.27644908556249,77.94551259820582 30.243080795393325,79.21536690980429 29.377935250173323,80.48521545846597 28.392630601418205,81.61703213377041 28.536821525660343,83.1629206839134 28.512789705069736,84.59838097641477 27.43135777337011,85.59215686531388 25.989448531414382,86.0890434863395 24.571571110049263,86.50311499653617 24.595602930756286,86.39269598710234 25.989448531414382,86.00622911087703 27.38329413207248,85.61976170080015 28.32053513941355,84.51556615970912 28.368598780827597,83.05250035651261 27.74377144256141,82.05871544813272 26.662339511094615,81.69984780828236 26.47008494543843,83.05250035651261 25.532843937980942,84.18430664777406 24.187061978853308,84.59838097641477 22.98547094373498,85.31610836132313 21.663720805197954,85.7853906560922 21.20711621188093,84.48796121537453 20.846638901391998,83.10771052568452 19.52488876285497,82.11392581340624 18.299265907146037,82.00350507203257 16.881388485664502,81.50661119620781 15.94414747832343,80.45761011654395 14.694492801907472,79.79508109256858 13.613060870440677,79.29818329508998 14.045633643050678,80.31958336586831 15.24722467805259,80.98211114798323 16.448815713170916,81.92068948730594 17.650406748172827,82.72123911249219 18.755870500346646,82.58321347847232 19.78923879051581,82.22434651129879 20.870670721982606,83.27334096789127 21.44743441895116,84.59838097641477 21.880007191561162,85.7853906560922 23.249820971512236,85.04005958494963 24.595602930756286,84.29472652863478 25.96541671070736,83.88065175066004 26.422021304024383,82.55560834350763 26.926689538755454,81.17534812222584 27.503453235607594,79.8778973063454 28.32053513941355,78.66325704767951 29.40196707099676,77.61424530830118 30.19501715397928,76.26156647069729 31.084194519906305,75.07451638911152 31.949340065242723,73.83224928297568 32.694326507044025,72.47955216135597 33.343185665784404,71.12684849981451 34.28042667324189,69.93977663342957 35.3618586048251,68.91833867056994 36.63554510183167,68.06253642521915 38.02939070260618,67.56561779102776 39.08679081348237,66.65459800284589 39.51936358597595,65.35707984986948 39.13485445489641,64.03194871669984 38.87050442723557,62.541168689203914 39.495331765385345,61.02277345806942 40.28838184848428,59.366332897683606 40.14419092424214,57.930743145087035 41.0574001109926,57.29576840455411 40.93724100745749,57.240553141688 41.08143193158321,56.05342235244461 42.09076840116177,55.1147572316404 43.5567094637081,54.617815598408924 44.758300498942845,53.6791456603969 45.64747786486987,52.35395920902374 46.36843248573132,50.9459417257458 46.921164361876436,49.510308759170584 47.44986441731453,48.07466842443682 47.97856447275262,47.16358515934553 48.55532816960476,46.22489020662033 49.08402822504286,44.92727729055332 50.04530105309095,43.9333569429582 50.18949197733309,42.66334247018676 50.81431931548286,41.22766699170461 51.72752850211691,39.957640233042184" stroke="#ff1900" stroke-linecap="round" stroke-linejoin="round" stroke-width="0.5"><title>2023-12-24 21.3km</title><desc>9223370333471178807</desc></polyline><polyline fill="none" points="119.2201789926039,39.74047322766273 119.94768271513749,38.79681699036155 120.81599360983819,39.09339501624345 120.39357209345326,40.2797038994031 120.1354256112827,41.250316425808705 119.78340768103953,42.30180943693267 119.10283968248405,43.29937598769902 118.75082175224088,43.649871478352 118.14065733982716,43.13760868640384 117.20194285910111,42.70622874799301 116.23976051621139,42.40965464510373 115.20717458764557,42.76015127761639 114.22152438282501,42.787112538382644 113.2593420400517,42.38269334702636 112.60224190365989,41.573853168054484 112.27369183534756,40.57628031511558 112.0624810771551,39.49781907800934 111.9216739051044,38.446315271809 111.40538094064686,37.55657811983838 110.58400577004068,37.09822754675406 109.85650204750709,37.799233994213864 109.31674122111872,38.60808535164688 108.70657680858858,39.44389590440551 108.19028384436388,40.17185785021866 107.69745874183718,40.899817855795845 107.25156936363783,41.95131221631891 106.85261570930015,42.81407379650045 106.40672633086797,43.542026759823784 106.07817626255564,44.404783315374516 105.65575474628713,45.240576129668625 105.20986536797136,46.04940545040881 104.67010454158299,46.75038892435259 103.9426008190494,46.77734979122761 103.59058288880624,47.64009612746304 103.68445433687884,48.260193373513175 103.26203282049391,49.06901375268353 102.95695061434526,49.931752850767225 102.65186840808019,50.87537061909097 102.34678620181512,51.7111436346604 102.01823613361921,52.70867582180654 101.64275034132879,53.65228399756597 101.10298951494042,54.48804851685418 100.53976082650479,55.29685045569204 99.92959641397465,56.07869005363318 99.08475338143762,56.61788847259595 98.09910317661706,56.94140701313154 97.27772800601088,57.50756353716133 97.58281021215953,58.31635653608828 97.794020970352,59.017308531474555 97.30119586805813,59.90697578169056 96.76143504155334,60.90447804122232 96.15127062925603,61.7671797608491 95.75231697480194,62.60291945384233 95.58804194070399,63.60041186964372 95.68191338889301,64.54398242448224 95.84618842287455,65.54146775323898 96.05739918106701,66.56590835400857 96.12780276709236,67.64426273127901 95.75231697480194,68.58781931985868 94.83707035612315,69.07307572520222 93.96875946142245,69.5044140284881 93.05351284286007,69.93575165086077 92.25560553418472,70.4749227212742 91.57503753562924,71.20280197853572 90.89446953719016,71.93067929669633 90.14349795260932,72.63159636288765 89.41599423007574,73.33251163110253 88.73542623152025,74.06038327561691 88.07832609501202,74.84216917844606 87.5150974066928,75.70482688918128 86.92840085620992,76.59443980079959 86.45904361596331,77.5649233100703 85.87234706536401,78.34669918569853 85.21524692885578,79.12847282469738 84.58161465451121,79.93720182176912 84.08878955198452,80.8537584580481 83.36128582956735,81.55465263497899 83.29088224342559,82.52511852738098 83.33781796740368,83.49558097313275 83.31435010547284,84.46603997240891 82.7980571410153,85.30171023783623 81.92974624631461,85.81389397606836 80.92062817956321,85.94867901076213 79.93497797485907,86.19129190573585 79.20747425232548,86.81130165877403 79.5829600446159,86.2721628228901 80.56861024932005,85.97563600976719 81.53079259209335,85.8678079979436 82.4695070728194,85.57128074602224 83.17354293342214,84.87039687152719 83.33781796740368,83.95385370776057 83.24394651933108,83.01035018105176 82.98580003727693,82.25554501402075 82.18789272860158,81.98597123485524 81.62466404016595,81.77031202000217 81.41345328197349,82.65990518423496 81.2257103859447,83.68428160401527 80.28699590521865,84.25038271487574 79.62989576871041,84.38516852070461 80.732885283418,84.03472528711427 81.41345328197349,83.27992294964497 81.43692114413716,82.20163027945091 81.85934266040567,81.28507816427737 82.39910348667763,80.42243807099294 82.77458927908447,79.45196471080999 83.4786251395708,78.67019199731294 84.20612886210438,77.94233263275237 84.79282541258726,77.13359773150296 85.23871479090303,76.21702861628728 85.82541134138592,75.46220468336833 86.48251147777773,74.65346244117245 87.04574016632978,73.81775960957748 87.5150974066928,72.928137657349 87.93751892296132,72.03851280847448 88.45381188741885,71.14888506304123 89.08744416187983,70.36708859229111 89.81494788441341,69.6661657167133 90.58938733104151,68.99219971743878 91.50463394960389,68.45302572101355 92.49028415430803,68.10256205269252 93.38206291105598,67.67122153611854 94.01569518551696,66.8624562319892 94.22690594370943,65.89193470677128 94.10956663358957,64.84053249721183 93.56980580720119,64.00479964941042 93.56980580720119,62.95339017713559 93.96875946142245,61.98285476511228 94.43811670178548,61.09319427513401 94.88400608021766,60.230490427115 95.02481325226836,59.28690497385105 94.8605382181704,58.50507455790648 95.37683118251152,57.83108102402184 95.8696562849218,58.01979938108707 95.49417049263138,57.37276447121985 95.9165920088999,56.456129058642546 96.59716000745539,55.86301038810052 97.6532137983013,55.51253056831774 98.63886400300544,55.16205029885168 99.34289986360818,54.40716819127556 99.9530642760219,53.46356262319023 100.51629296445753,52.51995379553409 100.98565020470414,51.495460520585766 101.36113599711098,50.44400290088379 101.76008965144865,49.41950183993322 102.13557544362266,48.39499693637481 102.41718978784047,48.17931120385765 102.8396113042254,47.55921377422055 103.26203282049391,46.53470189316431 103.40283999254461,45.860678823140915 103.21509709651582,45.591069129441166 103.9895365430275,44.86312162701506 104.48236164543778,43.91948308821884 104.9047831618227,42.92191880239989 105.46801185025834,41.97827355697518 106.12511198665015,41.08854791088379 106.66487281315494,40.11793480964843 107.29850508761592,39.22820310332463 108.00254094821867,38.4732769583934 108.70657680858858,37.637463435239624 109.29327335907146,36.69379993175971 109.76263059943449,35.696209254005225 109.73916273738723,34.96823537864839 109.12899832497351,34.509880461584544 108.56576963653788,33.99760052643251 108.9412554288283,33.16177330588107 109.809566323529,33.24265992292203 110.37279501184821,33.94367626673193 110.8656201143749,34.61772874655435 111.64005956088658,35.23785555877839 112.20328824932221,35.96582871544524 112.69611335173249,36.774685502576176 113.3062777640298,37.61050166611676 113.68176355643664,38.55416200228501 114.47967086511198,39.1742798765481 115.53572465584148,39.22820310332463 116.35709982644767,39.95616562408395 116.73258561873809,40.92677930020727 117.62436437536962,41.1424707598635 118.58654671814293,41.08854791088379 119.61913264694158,41.250316425808705 119.57219692284707,42.03219623025507 119.05590395838954,42.92191880239989 118.53961099404842,43.6768326513411 118.11718947766349,43.568987943493994 117.22541072103195,43.05672499988577 116.33363196440041,42.76015127761639 115.39491748367436,42.86799630476162 114.40926727897022,43.110647460242035 113.44708493619692,42.84103505194071 112.78998479968868,42.086118892912054 112.39103114546742,41.16943218038068 112.1563525252277,40.17185785021866 111.99207749112975,39.14731825905619 111.75739887089003,38.203659972321475 111.1472344584763,37.4217692076345 110.25545570184477,37.55657811983838 109.71569487545639,38.36543019590317 109.12899832497351,39.20124149124604 108.54230177449062,40.064011758513516 107.97907308617141,40.87285640867776 107.46278012171388,41.81650547325262 107.0638264673762,42.73319001408527 106.57100136508234,43.542026759823784 106.19551557279192,44.485666602733545 105.74962619435973,45.456264182779705 105.28026895399671,46.37293650812353 104.69357240363024,46.966075785137946 103.96606868109666,47.10087998671224 103.59058288880624,47.99058604819584 103.68445433687884,48.69156454046606 103.21509709651582,49.58126542082755 102.86307916627266,50.551844894333044 102.55799696000759,51.52242091920925 102.22944689181168,52.4660331926425 101.90089682349935,53.46356262319023 101.33766813506372,54.40716819127556 100.70403586060274,55.24293040094199 100.09387144818902,56.07869005363318 99.29596413963009,56.72572802868672 98.35724965890404,57.07620629196754 97.41853517806157,57.48060372925829 97.34813159215264,58.37027598413988 97.91136028047185,58.99034887255402 97.46547090215608,59.93393535015639 96.99611366179306,60.823599615338026 96.40941711142659,61.65934219490737 95.8696562849218,62.54900084109977 95.63497766468208,63.57345266305492 95.70538125070743,64.62485974901938 95.84618842287455,65.62234478237224 96.01046345708892,66.61982617390458 96.15127062925603,67.61730392364552 95.9165920088999,68.58781931985868 95.09521683841012,69.10003438909189 94.25037380575668,69.612248497986 93.33512718707789,70.04358595007216 92.49028415430803,70.60971532267286 91.76278043177444,71.36455266125267 91.01180884731002,72.14634627776104 90.23736940068193,72.87422108228202 89.439462092123,73.52121928066481 88.68849050754216,74.2760485757608 87.96098678489216,75.16566613918985 87.42122595850378,76.02832282855525 86.83452940813731,76.94489257675014 86.34170430572703,77.86145925035817 85.73153989331331,78.7241074287449 85.05097189475782,79.53283762244973 84.4408074823441,80.36852297472069 83.87757879390847,81.23116323820432 83.26741438137833,81.9590138423373 83.36128582956735,83.03730746993097 83.45515727752354,84.06168247485766 83.24394651933108,85.08605363976676 82.49297493486665,85.75997994354111 81.5542604541406,86.05650699077523 80.45127093920019,86.21824888081755 79.48908859665971,86.6226031872211 79.32481356244534,86.75738782304688 80.19312445702963,86.16433492806391 81.15530679980293,85.97563600976719 82.16442486667074,85.75997994354111 82.91539645113517,85.1130107237841 83.29088224342559,84.19646837381879 83.22047865740024,83.1720938741928 82.93886431318242,82.36337445129175 82.16442486667074,82.03988601191668 81.5542604541406,81.9590138423373 81.41345328197349,83.03730746993097 81.03796748968307,84.00776809663512 80.02884942304809,84.46603997240891 79.88804225088097,84.4929971175734 80.94409604161046,84.00776809663512 81.38998541992623,83.06426475607441 81.5073247300461,81.98597123485524 82.00014983245637,81.01550342771225 82.44603921077214,79.99111700311187 83.00926789920777,79.07455747321364 83.8071752077667,78.3736569347675 84.4877432063222,77.5649233100703 85.02750403271057,76.67531355816755 85.52032913512085,75.8126589115418 86.22436499560717,75.03087578545092 86.76412582211196,74.16821594690555 87.35082237247843,73.22467862992198 87.84364747488871,72.2541797044978 88.33647257729899,71.28367733184132 89.01704057573806,70.50188124689157 89.7680121603189,69.74704152485356 90.61285519297235,69.07307572520222 91.5515696736984,68.53390188835328 92.53721987851895,68.1295208123338 93.45246649708133,67.59034511348 94.03916304756422,66.78157956994255 94.20343808177859,65.7301807840995 94.01569518551696,64.7596552366158 93.49940222105943,63.843044609355275 93.59327366924845,62.791634514549514 94.06263090961147,61.848057907423936 94.60239173599984,60.90447804122232 95.04828111431561,59.960894915944664 94.95440966624301,59.017308531474555 94.97787752817385,58.23547734390013 95.82272056094371,58.07371888778289 96.76143504155334,58.55899396870518 97.67668166034855,59.12514714032295 97.5124066262506,60.01481403943035 96.9726457997458,60.95839697847259 96.38594924926292,61.82109852787107 95.8696562849218,62.710756647371454 95.68191338889301,63.681289473490324 95.7757848368492,64.67877795198001 95.96352773299441,65.70322178766946 96.12780276709236,66.70070288394345 96.24514207721222,67.77905672910856 95.8696562849218,68.77653024651227 94.88400608021766,69.28874496195931 93.96875946142245,69.80095871709636 93.0300449806964,70.25925442081643 92.16173408622853,70.85234183751163 91.48116608767305,71.58022008926491 90.70672664104495,72.30809640191728 89.93228719453327,73.06292904837755 89.22825133393053,73.7638432100357 88.50074761139695,74.51867183478316 87.93751892296132,75.3813305668009 87.32735451043118,76.21702861628728 86.76412582211196,77.13359773150296 86.24783285777085,78.07712155024637 85.61420058319345,78.93976904769079 84.91016472270712,79.72154098993633 84.32346817222424,80.61114082412678 83.59596444957424,81.41986543289386 83.29088224342559,82.36337445129175 83.45515727752354,83.46862372945179 83.4316894155927,84.46603997240891 82.96233217522968,85.35562436078908 82.14095700450707,85.8947650049231 81.10837107582483,86.08346397907007 80.07578514702618,86.2721628228901 79.27787783846725,86.83825857259217 79.5829600446159,86.48781848486396 80.61554597341456,86.11042096468736 81.64813190221321,86.00259300603648 82.563378520892,85.62519481577328 83.19701079535298,84.81648265291005 83.24394651933108,83.76515326305525 83.12660720921122,82.65990518423496 83.31435010547284,81.60856749719824 84.08878955198452,80.79984344690456 84.62855037848931,79.85632902971702 85.35605410102289,79.07455747321364 85.96621851343662,78.29278367996449 86.5059793399414,77.45709197921678 86.99880444223527,76.51356601939187 87.60896885476541,75.67786887698458 88.24260112922639,74.81521108114976 88.92316912778188,73.97950874417438 89.72107643634081,73.22467862992198 90.58938733104151,72.49680475905188 91.45769822562579,71.68805373946088 92.34947698237374,70.63667383493157 93.45246649708133,69.93575165086077 94.48505242587999,69.39657951655681 95.47070263070054,68.8574063181004 96.05739918106701,67.99472698743921 96.05739918106701,66.91637399350293 95.9165920088999,65.99977060215315 95.70538125070743,65.05620507526328 95.61150980275124,64.1126362895302 95.75231697480194,63.169064244953915 96.03393131913617,62.2254889413598 96.62062786961906,61.389748093730304 97.18385655793827,60.500085672334535 97.6532137983013,59.610420353594236 97.84095669433009,58.72075213750941 97.16038869589102,57.99283962382469 97.9817638664972,57.23796533877612 99.06128551927395,56.91444714940735 100.0,56.32132947386708 100.68056799855549,55.40469053326524" stroke="#4dd2ff" stroke-linecap="round" stroke-linejoin="round" stroke-width="0.5"><title>2023-12-17 16.0km</title><desc>9223370334074632807</desc></polyline><polyline fill="none" points="164.8533329560305,69.57230570992397 163.93475091364235,69.13712202964234 162.92146969155874,69.24591811079881 162.46691362938145,68.82161278696003 162.27751527004875,67.64660490337701 162.04076732101385,67.1678943963343 161.69038035639096,66.92853836304857 161.36840314563597,67.2114136192613 160.55399020080222,68.32114799768169 159.31343094765907,70.8452081113428 159.0956228345167,70.74729306391237 158.89675455732504,71.03015851917735 158.07287169451592,73.61943164372497 157.23951891378965,74.70734338159673 156.28305719955824,75.1642631097493 156.27358728158288,75.49063318462868 156.47245555877453,75.74084958764433 156.31146695342613,76.20864394806995 155.65804261394078,77.14422671376087 155.58228327025427,77.72080283581454 155.7622117116116,79.53754183986894 154.31331426324323,80.39694686615985 152.46668026043335,82.22452009479457 151.9174250185606,83.24707761315221 150.67686576541746,84.86792063307075 150.68633568345103,85.9339654696305 150.32647880079458,86.48873982764053 149.32266749674454,86.73893127200427 149.01016020396492,87.0 149.3037276607938,86.7062976375164 149.88139265659265,86.673663993417 150.4779974882258,86.33644910532166 150.62951617565705,85.96659933265619 150.58216658583842,85.16162789215014 149.9760918361717,84.9223109252489 149.66358454345027,85.83606382260041 147.96846922807163,86.49961772833922 147.66543185326736,85.56411434694019 147.4381538220914,85.30304221936967 146.9646579239634,85.04196947362652 146.11236530728638,84.91143286894658 145.5441702294629,84.25874752757954 144.86233613616787,83.87801262758148 144.73922720266273,84.05206303072919 144.95703531580511,84.41104111946333 145.71462875284487,84.83528644486069 146.14077506115427,85.28128618082701 147.42868390417425,85.52060236861871 147.60861234547338,85.73816208863718 146.746849810821,85.40094433964987 146.92677825212013,85.06372555938287 147.64649201725842,85.41182234763255 147.88323996640975,86.52137352649879 148.20521717710653,86.49961772833922 149.55941544583766,85.85781975164718 149.80563331284793,85.61850429572223 149.8719227386173,85.05284751702857 150.35488855472067,83.97591601317254 151.71855674136896,82.26803337388992 152.83600706100697,80.37518985953648 153.83034844708163,79.57017759613518 154.54059229436098,79.30909127537598 154.8530995871406,78.99361114620115 155.00461827451363,78.31913335904392 154.71105081768474,77.35092416086991 155.36447515711188,76.0019443591882 155.26030605955748,75.46887520966266 155.78115154750412,74.50064097759605 156.8512522773235,74.17426797162625 157.5236164527014,73.27129761991091 158.25280013581505,71.32390264668356 158.30961964360904,71.23686743123835 158.35696923342766,71.43269656929624 158.83993504953105,70.46442688271054 158.3190895615844,70.46442688271054 158.07287169451592,70.29035502580518 160.2130731541547,65.97110903145222 160.89490724750794,64.90487112270057 161.21688445826294,64.97015129112697 161.4915120791411,65.34007151512924 161.56727142288582,65.26391157052421 160.95172675530193,64.92663118313067 160.94225683732657,64.71991043550224 162.81730059394613,61.48848833961529 163.96316066751024,59.92170412114501 164.44612648361363,59.57352682489727 164.663934596756,58.81188515361282 166.4821588456398,55.972003365604905 167.42915064195404,54.764215361916285 167.8931766221649,53.991659335071745 168.06363514548866,52.7076809964492 170.49740406195633,49.05152510510379 171.63379421754507,45.25378230895876 171.57697470975108,44.92732266162784 171.0655991397798,44.720564384464524 171.1224186475156,44.88379463552701 171.64326413546223,45.01437866219203 172.00312101806048,43.849998959827644 173.3857290406595,41.260026132185885 173.461488384346,40.68325918504706 174.12438264180673,39.74736676779867 174.4274200165528,38.430574433550646 174.91038583265617,37.70143471479969 175.26077279733727,36.341086512227776 174.89144599676365,34.43657079411787 174.47476960642962,33.63122280892276 173.66982657951303,33.0 173.461488384346,33.0 172.55237625993323,33.64210592908785 172.3156283108401,35.16573213216907 171.82319257681957,36.66757161350688 170.64892274932936,37.70143471479969 170.44058455416234,37.70143471479969 169.7587504608091,37.17906299261085 168.6413001412293,36.776399765498354 168.14886440715054,37.26612511840358 167.45756039582193,36.994055746770755 167.23975228267955,37.05935245727596 166.11283204506617,36.308437948828214 165.47834754158976,37.0375868914125 165.1184906589915,38.1802732832366 164.663934596756,38.561166112165665 164.2661980423727,38.387043839582475 163.88740132382372,37.84290996308118 162.70366157841636,37.52731108271837 162.3438046958181,37.77761371723318 162.0028876491706,38.51763556984224 161.93659822340123,39.30118269925151 161.5767413408612,39.08353127812006 161.5483315869351,39.59501143544185 161.83242912584683,39.73648425103602 161.5199218330672,39.660306603691424 161.3589332277188,39.79089682401536 160.88543732953258,40.5526700229093 160.76232839602744,41.02061380386294 160.33618208765984,41.52120262407698 160.25095282599796,41.9456131023253 159.97632520506158,42.10884746616648 158.83046513155568,44.63350815165177 158.2906798076583,47.82189778931934 158.48954808490817,48.10482210434566 160.07102438469883,48.648905283036584 160.65815929841483,49.12769625724468 162.8267705119215,50.32466458800627 163.32867616397562,50.128797932986345 163.20556723047048,49.20386735670763 163.42337534361286,47.64779015733802 163.63171353877988,47.60426320635452 164.21884845249588,47.941596626675164 165.96131335769314,49.160341020600754 165.20371992065338,52.642393562491634 164.14308910880936,54.579237651581934 163.868461487873,54.77509639404889 163.4139054256375,54.52483238356217 162.8551802658476,54.66628602455603" stroke="#4dd2ff" stroke-linecap="round" stroke-linejoin="round" stroke-width="0.5"><title>2023-06-22 16.9km</title><desc>1687415245000</desc></polyline><polyline fill="none" points="42.24840415666404,177.0 41.9908776893717,176.79498755899112 41.84428570031014,175.6560129076097 41.84032375465904,175.42365861374128 41.95125823286071,175.3780988105682 41.83636180900794,175.28242307696928 41.70957954818732,173.9702786410453 41.776932624241454,172.42117103107375 41.55506366780901,172.30726399938067 41.55110172217246,171.91542165472492 41.654112309086486,170.90390620779 41.63826452648209,170.38902718335157 41.689769819931826,170.27967160368644 41.70957954818732,168.68942981268992 41.737313167745015,168.61196677270345 41.90767683071317,168.59374015608046 41.975029906767304,168.0833919557117 41.931448504619766,167.26773440334728 42.0067254719761,165.18979275548554 41.927486558954115,164.62927924402175 41.24999385274714,162.61046252827873 40.52891974433442,162.47374487054185 37.05429340884439,161.53949665206528 36.84827223503089,161.179464217621 36.52339269169897,160.81031410786818 36.479811289551435,160.63257410801816 35.72307967027882,160.4548334203464 35.750813289836515,159.8805895747828 35.69930799640133,159.7028459770263 35.53686822470627,159.49775635563856 34.677126018548734,158.8915972322502 34.031328877536,158.63181230167538 33.2349778017815,158.41304490452967 32.838783236729796,158.2626417144893 32.78727794326551,158.18060340321244 32.89821242149628,158.0256417487144 34.08679611663683,157.30096118859 34.40771371431765,157.25538341261927 34.89107108367898,157.00926264072768 36.388686539576156,155.90170284201304 37.2048473435716,155.19066271773045 37.941769234559615,154.05115237542122 38.108170951891225,152.8158912173567 38.08439927798463,151.94070452365486 37.981388691070606,151.43017124667313 37.48614548475598,150.19028107619306 37.422754354352946,149.6979624540545 37.52576494126697,149.10534970107983 37.070141191463335,148.8455093886114 37.105798702308675,148.27567899136557 36.990902278441354,148.12524258599296 36.673946626411634,147.9930404893421 36.824500561124296,147.33658305835706 37.35540127828426,146.6345279141533 37.462373810849385,145.69539839485515 37.549536615173565,145.5814250579533 37.866492267217836,144.56477036707292 38.42908854957204,143.5936845375909 38.51228940823057,143.34749049788297 38.591528321238,142.60434121697108 38.547946919090464,142.35814186795687 38.31419212570472,141.89765435352092 38.29438239746378,141.25934718394274 37.910073669365374,140.80796746705528 37.90611172369972,140.1559667008878 37.43067824564059,139.6908975542101 37.33162960439222,139.52219483547378 37.303895984834526,139.23494283253967 37.37521100655431,138.8154604852498 37.29597209353233,138.63307565929063 37.070141191463335,138.47348834162403 35.719117724642274,138.41877256200314 35.44574347474554,138.3412584291509 35.28330370307958,138.16343139403398 35.12878782270127,137.79865583078572 34.78013660546276,137.64818506567826 34.46318095341849,137.06453621438777 34.26112172525609,136.9368620379828 34.15018724703987,136.9824599989406 33.90454661671538,136.87302481649385 33.274597258277936,136.21184836719476 33.06857608444989,135.76497888525773 33.02103273665125,134.1598607494234 32.200909986990155,133.10191125451456 32.086013563137385,132.8784619023645 32.05431799792859,132.54100571437812 32.17713831308356,131.04066367046107 32.446550617329194,130.2061056565035 33.05272830184549,129.37609299813994 33.310254769123276,128.64639912503117 34.32847480131022,127.83460103960897 34.69297380116768,127.0182277895583 35.18425506181666,126.4572477965994 35.624031029015896,125.55419240701303 36.04795921363984,125.27597478682947 36.76507137635781,125.1482677725653 37.12957037621527,124.8563646891198 37.52180299560132,124.40026239840154 38.36173547351791,124.0034497122324 39.023380397164146,123.46523850826998 40.23969771186239,123.04561182733596 41.38470000484085,123.0 42.06219271107693,123.16876353432235 43.15965165627131,123.62031696120175 43.63112318867934,124.04449945983652 44.25711060146568,124.43675074872954 45.005918329406995,125.22580421652674 45.358531492282054,125.70470287448188 46.13903478543216,127.17329421843897 47.00670088290644,128.44117063005615 47.30384680668067,128.72392965063045 47.945682002056856,129.15718605598522 47.28799902409082,128.66008099201645 46.93142391553556,128.276987172394 46.65408772000228,127.90757224219851 46.598620480901445,127.69321900395516 46.49560989400197,127.620247460065" stroke="#ff1b00" stroke-linecap="round" stroke-linejoin="round" stroke-width="0.5"><title>2023-04-05 21.2km</title><desc>1680651232000</desc></polyline><polyline fill="none" points="117.02911777974805,144.49428091770096 117.24774010793772,144.97868032442057 115.82669497461757,147.74152633201447 114.29633867711527,147.32889615472232 113.01583646901418,147.47241980089166 112.31312184256967,147.23919381831365 111.82902954437304,146.43187079815834 111.1887784403516,144.0457617972861 110.50167969457107,143.68694570401567 109.95512387400959,144.24311034665152 108.50284697947791,146.2524651955173 106.8163318761508,149.85848381400865 106.51963014499051,150.07376624448807 106.238544294436,149.91230444553366 105.70760435442207,150.70167187687184 105.97307432448724,150.97077362671553 104.59887683280976,154.5766986360395 103.20906346058473,156.37066453033185 101.61624364071758,157.24970135530748 102.16279946122086,158.03903692269523 100.75737020850647,160.2814488123404 100.5387478803168,161.19634491813486 100.7886019696598,164.3715368600533 98.3525245981291,165.89632683935633 95.60412961494876,168.69473164684314 92.37164233345538,173.233078643505 92.37164233345538,175.08067363139708 92.01247707993025,175.72643055890512 89.91994908131892,176.39012278908922 89.2328503355966,176.94618738722056 89.42024090257473,177.0 89.90433320082957,176.39012278908922 91.51276890118606,176.04930816266278 92.13740412465995,175.65467990240722 92.35602645284962,175.13448679630528 92.16863588587148,173.64565002609743 91.18483540887246,173.37658183930034 91.05990836420096,174.29141205004998 90.74759075249312,174.721918791809 87.98357988864882,175.85199413965165 87.49948759045219,174.36316324444488 87.12470645632129,174.0223448187753 86.45322359108832,173.57389854858047 85.06341021892149,173.2868923551723 84.3138479507179,172.71287860936718 84.22015266725793,172.372057090397 82.75225989212049,171.81597850368416 83.01772986206925,172.49762298750284 83.54866980202496,172.60525083031098 84.65739732363727,173.52008492180903 86.54691887460649,174.18378520531405 86.93731588928495,174.7398565505864 86.6249982775189,175.08067363139708 86.29706478532171,174.25553644215688 85.98474717355566,174.12997175903 86.10967421822716,173.59183642061544 86.84362060582498,173.73533933328872 87.56195111275883,174.5425411066244 87.95234812743729,175.88786943245213 90.70074311073404,174.84748306618712 91.07552424480673,174.48872776651115 91.1692195282667,173.44833339472825 91.88755003525876,171.88773067496368 93.27736340748379,170.27329997249763 95.76028842077358,166.1833446994424 96.54108245007228,165.30435107198718 98.86784865747904,164.03069970403158 99.5080997615587,163.3490234750352 99.64864268683596,162.47001614354667 99.18016626918688,161.33985761496297 100.24204614915652,158.8821870382526 100.02342382090865,157.78788506850833 100.22643026855076,157.41115663657547 100.56997964141192,157.39321716796258 100.44505259674042,157.14206442143768 100.91352901433129,156.1553895578254 102.77181880414719,155.41986481155618 104.02108925109496,153.67970904929098 105.02050560864154,150.82725274303812 105.25474381743697,150.8093126245949 105.89499492151663,149.51761944429018 104.95804208627669,149.4099779315584 104.69257211632794,148.99735154214432 109.28364100877661,140.36786325488356 109.73650154576171,140.2960986404796 110.51729557517683,140.76256812734937 109.29925688938238,140.02698108421464 111.87587718613213,135.7569291934342 111.42301664914703,135.0751469128736 111.17316255980404,133.87305087101413 108.94009163585724,132.45564382866723 110.79838142567314,129.01076036680024 110.34552088868804,128.47249142582587 108.12806584534701,127.21652436174918 109.61157450109022,124.20216798273032 110.40798441099469,123.16148571390659 110.92330847040284,123.0 112.48489652900025,123.37679977588414 113.59362405072898,123.23325709624623 114.34318631887436,123.68182759346382 113.65608757303562,125.06341776585032 113.00022058840841,124.9378190934367 111.23562608211068,126.08614658056467 110.84522906743223,127.23446680950292 110.7359179033665,128.2751257478376 110.92330847040284,128.2751257478376 113.34376996132778,125.52992636038107 114.26510691596195,123.96891213048366 114.2026433935971,123.66388479489251 113.60923993127653,123.25119993742555 112.14134715613909,123.3588569470885 110.70468614221318,123.0 110.26744148571743,123.21531425329158 109.15871396410512,124.90193374254159 108.97132339706877,125.78112279970082 107.65958942781435,125.78112279970082 107.50343062187312,126.30145717631967 107.9719070395222,127.07298471590912 109.06501868052874,127.86245136482466 110.68907026160741,128.54426071007038 113.28130643896293,125.22490164573537 112.12573127553333,125.02753243976622 111.36055312684039,125.42227063719474 110.79838142567314,126.13997425339767 110.31428912747651,127.61125780317525 109.84581270994386,127.5036033133365 110.01758739637444,127.18063946090115 109.5803427399951,126.44499743178312 110.32990500814049,125.22490164573537 110.70468614221318,124.90193374254159 111.78218190261396,124.66867878875928 113.53116052836413,124.54307984340994 113.99963694595499,124.05862595519284 113.92155754298437,123.46651389304316 113.07829999132082,123.26914277680044 113.45308112545172,123.46651389304316 113.60923993127653,124.30982442887034 113.9527893041377,124.61485067990725 113.64047169248806,125.00958977403934 112.98460470780265,124.88399106438737 111.23562608211068,126.01437632524176 110.59537497808924,128.61602996599686 110.75153378391406,129.17224073816033 111.26685784332221,129.08252943851403 112.56297593197087,129.69256540293281 113.85909402067773,130.51790491816064 113.81224637891864,130.84086283834768 110.033203276922,136.83342232278665 109.31487276998814,138.43020871907356 108.83078047184972,139.00433073547902 108.48723109887214,138.96844816263183 108.95570751652122,139.21962602398708 108.31545641238336,140.24227516113024 109.1274822029518,140.40374555143353 109.04940280003939,140.56521579828404 109.39295217290055,140.17051049714792 109.87704447109718,140.3499221039092 109.08063456119271,141.40844697854482 109.377336292353,140.92403805536742 109.17432984471088,140.6190391820419 109.377336292353,140.1525693267613 110.01758739637444,140.42168669703824 110.32990500814049,140.83433255746786 110.11128267989261,140.99580242174852 110.31428912747651,141.46227011254814 111.34493724623462,142.21579231439682 112.79721414082451,144.69162898005743 113.99963694595499,144.99662101842114 114.73358333355282,146.10894058595295 116.56064136215718,146.19864348020928 116.93542249622988,146.57539515274402 115.6861520492821,147.7953475904651 114.10894811007893,147.2212533456768 113.09391587198479,147.45447935133416 112.37558536493452,147.32889615472232 111.67287073860643,145.89365345900296 111.57917545503005,144.53016239956196 110.860844948038,143.68694570401567 110.39236853038892,143.68694570401567 108.4247675765655,146.27040576371655 106.66017307020957,149.9840652627754 106.30100781668443,149.93024465253984 105.70760435442207,150.55815078067826 105.98869020497659,151.00665382988518 104.63010859396309,154.5587588877097 103.33399050525622,156.2989062344859 101.63185952132335,157.24970135530748 102.10033593897242,158.12873392943584 100.80421785026556,160.24557043984532 100.58559552207589,161.12458852722193 100.80421785026556,164.42535319464514 98.52429928461788,165.69900179776596 95.65097725664964,168.4435945131263 94.12062095914735,170.9728883702337 92.46533761697356,173.0716374128824 92.3247946916963,173.57389854858047 91.99686119938269,173.64565002609743 91.27853069239063,173.21514073607977 91.8719341547112,171.81597850368416 93.19928400451317,170.39886731903243 96.01014251011657,165.95014272266417 97.3999558823416,164.6406183738727 99.02400746342028,163.9948220715014 99.52371564210625,163.49253447253432 99.69549032865325,162.48795511118078 99.22701391100418,161.1604667262145 100.24204614915652,158.64897569541063 100.05465558206197,157.62643012184708 100.91352901433129,156.19126873761707 102.70935528184054,155.50956311068148 103.58384459465742,154.4331805996335 105.06735325040063,150.7734323824261 105.25474381743697,150.82725274303812 105.91061080206418,149.78672294718854 105.95745844382327,149.1588141539396 106.61332542845048,148.62060489025316 107.05057008488802,147.66976462939056 106.72263659257442,147.52624113905767" stroke="#ff4a00" stroke-linecap="round" stroke-linejoin="round" stroke-width="0.5"><title>2023-01-01 20.1km</title><desc>1672559967000</desc></polyline><polyline fill="none" points="179.32829583238345,134.314932832669 177.02181661617942,133.3080026402895 175.3150219960371,133.65247918380192 174.20791197218932,133.3345008516626 173.53903299954254,132.46005849612993 172.54724693659227,128.56478066919954 171.5554608735256,128.0878039894742 170.86351710860617,128.6442767000408 168.64929706102703,131.8240986301971 165.99684596224688,137.36219856195385 165.12038386019412,137.38869637306198 164.63602322468068,138.13063402374974 164.84360635420308,139.08455084721209 162.2603496318916,145.39091568344156 160.76113814138807,147.00722904040595 158.50078850938007,148.14659162511816 159.0774083135184,149.33894264083938 157.1630305639701,152.78348249787814 156.84012347378302,154.32026294770185 157.43980806996115,157.49978078179993 157.2783545247512,158.69209026329918 153.93395966116805,160.67926096732845 149.41326039738487,165.1569650528254 144.73110758827534,171.8866283959942 144.800301964744,174.483067594585 144.38513570581563,175.22490275505697 143.48560881149024,175.88725384543068 141.3867127246922,176.20518178856582 140.717833751929,177.0 141.22525917948224,176.31115768602467 143.39334964274894,175.86075983315823 144.47739487455692,175.0924323409854 144.75417238043156,174.32410265071667 144.63884841965046,172.5224933778809 143.48560881149024,171.8866283959942 142.97818338382058,171.99260599754052 142.58608191716485,173.76772460632492 141.20219438732602,174.40358513439423 142.72447066998575,173.63525347341783 142.90898900746834,172.1780666995619 144.1314229919808,169.47562666310114 145.7228936512256,167.83295374421868 149.52858435816597,161.6330976819445 151.55828606837895,159.46046467928682 154.34912592021283,158.13567983082612 155.22558802226558,157.15533483491163 155.3639767752029,155.8040426222724 154.71816259471234,153.97581292199902 156.2635036696447,150.3193161758536 156.07898533227853,148.7295194499602 157.32448410906363,146.45079439284746 159.90774083137512,145.52340075097163 161.4761466983473,143.48312346247258 163.36745965562295,138.68708591605537 164.6590880168369,136.91173537200666 164.24392175790854,136.30228397075552 165.07425427576527,135.5338432752178 166.41201222117525,132.85753264723462 170.28689730446786,127.6108264621289 171.0019058616599,125.808903709898 170.35609168105293,125.46441710050567 170.35609168105293,124.93443683820078 169.68721270828974,124.98743491145433 169.59495353978127,124.2454609326378 170.63286918704398,123.31799057481112 171.32481295184698,123.58298243262107 171.20948899106588,125.01393394422485 172.63950610521715,125.8884005570435 174.23097676434554,128.56478066919954 174.20791197218932,128.82976734722615 173.1469315327704,129.06825513378135 172.91628361109179,129.57172865403118 173.40064424660522,132.27457035754924 174.069523219252,133.1225150876271 175.56873470987193,133.67897736118175 177.16020536911674,133.28150442638434 179.1668422871735,134.26193660093122 176.97568703175057,133.28150442638434 175.33808678819332,133.67897736118175 174.02339363493957,133.25500620974344 173.30838507786393,131.77110190675012 172.7087004815694,128.82976734722615 171.76304400304798,127.90231282950845 170.84045231644996,128.53828198695555 168.856880190433,131.45312134598498 166.15829950745683,137.07072246656753 165.85845720930956,137.49468759150477 165.14344865223393,137.2297094668611 164.8666711463593,137.70666990304017 164.58989364036825,138.47510437876917 164.91280073067173,138.84607195912395 162.81390464387368,144.38402703401516 160.83033251785673,147.00722904040595 158.5238533015363,147.98761108960025 158.38546454859897,148.5175458418671 159.1004731056746,149.25945273789694 159.00821393704973,149.76288839257904 156.88625305797905,153.2339190582279 157.34754890121985,157.71174729880295 157.11690097965766,158.79807307201554 154.46444988099393,160.25533245119732 150.05907457787544,164.28262633437407 144.7080427960027,171.78065075262566 144.56965404306538,175.01295006118016 143.48560881149024,175.86075983315823 141.0638056343887,176.44362749901484 140.78702812839765,176.89402437437093 141.36364793241955,176.28466371560353 143.18576651334297,175.9137478551129 144.52352445875295,175.06593825027812 144.50045966659673,172.31053855118807 143.4625440192176,171.8601339890447 142.95511859178077,171.91312280026614 142.67834108578973,173.58226500204182 141.13300001097377,174.32410265071667 142.6322115014773,173.66174770519137 142.83979463088326,172.25754981831415 144.15448778413702,169.4226373709098 147.56807702430524,165.13046998195932 149.80536186415702,161.23566612935974 151.90425795095507,159.19550823248574 154.39525550440885,158.02969676052453 155.15639364579692,157.18183069265797 155.41010635963175,155.56557858473388 154.74122738698497,153.97581292199902 156.28656846180093,150.39880576508585 156.28656846180093,148.27907533285907 157.30141931702383,146.47729130700463 159.97693520784378,145.47040673182346 161.130174816004,143.98656994863995 162.0297017103294,142.42323303726153 163.2752004871145,138.6605882330041 163.41358924016822,138.39561125915498 163.59810757741798,138.7665789493767 163.80569070682395,138.60759285921813 164.5206992638996,137.38869637306198 164.7513471855782,136.59376090046135 164.17472738143988,136.32878188652103 165.46635574253742,135.00388289336115 166.3428178447066,132.85753264723462 167.8420293352101,130.71116523942328 170.17157334380317,127.95531031687278 171.0019058616599,125.94139844190795 169.66414791613352,125.11993004905526 169.6410831239773,124.13946448249044 170.5636748104589,123.23849296639673 171.27868336753454,123.45048653634149 170.86351710860617,124.2454609326378 171.16335940675344,125.01393394422485 172.8009596503107,126.17988879478071 174.23097676434554,128.53828198695555 174.3001711408142,128.80326869120472 173.21612590923905,128.96226058810134 172.939348403248,129.3862385196262 173.46983862307388,132.03608541958965 174.20791197218932,133.20200976880733 175.1766332430998,133.67897736118175 177.11407578468788,133.3080026402895 179.1668422871735,134.26193660093122 176.8834278631257,133.3345008516626 175.03824449004605,133.59948282127152 173.8388752975734,133.09601685541566 172.77789485803805,129.01525786618004 171.809173587244,127.98180905659683 171.117229822441,128.32629243523115 168.94913935905788,131.21463567827595 165.99684596224688,137.25620729115326 165.3279669896001,137.28270511273877 164.40537530300207,138.63409054742078 164.72828239342198,139.00505790807074 162.44486796925776,144.91396889922908 160.66887897264678,147.0602227562049 158.47772371722385,147.98761108960025 158.93901956058107,149.57741220860044 156.86318826582283,153.41939271634328 157.1630305639701,158.71858596938546 153.58798777870834,160.83823398844106 149.4593899815809,164.86551912958384 144.7080427960027,171.70116749269073 144.75417238043156,174.16513761278475 144.20061736856587,175.35737310387776 141.4097775168484,176.1786878077255 140.67170416761655,176.86753046140075 141.54816626978572,176.20518178856582 144.29287653719075,175.27789090242004 144.6849780039629,174.50956174271414 144.54658925102558,172.39002163076657 143.39334964274894,171.83363957953406 142.93205379950814,171.99260599754052 142.539952332736,173.74123038494145 141.0638056343887,174.32410265071667 142.72447066998575,173.55577076238114 142.79366504657082,172.20456107507925 143.99303423904348,169.66108910331968 147.38355868693907,165.3424304756336 149.85149144835304,161.1296842826414 152.6192665079143,158.71858596938546 154.04928362194914,158.1886713502172 155.08719926932827,157.26131825029734 155.41010635963175,155.9895145050541 154.87961613980588,153.2339190582279 156.19430929317605,150.53128836143878 156.28656846180093,148.33206879755016 157.32448410906363,146.45079439284746 159.74628728616517,145.6823827456974 161.79905378865078,142.87368697929196 163.36745965562295,138.60759285921813 163.48278361652046,138.39561125915498 163.55197799310554,138.8725696238689 163.7364963303553,138.71358359639999 163.89794987544883,138.15713175898418 163.55197799310554,137.38869637306198 164.72828239342198,136.54076511863968 163.0676173575921,136.5672630108602 163.0676173575921,135.5603412669152 169.5257591631962,123.37098896724638 170.1023789672181,123.0 171.30174815980718,123.50348490275792 170.93271148507483,124.32495824273792" stroke="#ff2800" stroke-linecap="round" stroke-linejoin="round" stroke-width="0.5"><title>2022-05-22 20.9km</title><desc>1653205192000</desc></polyline><polyline fill="none" points="49.30910820129793,216.59388488977856 49.37192269664956,216.46398697473342 48.85684383532498,216.05985938991944 48.39201657020021,216.0165599395841 47.99000380036887,215.6124311180174 47.010097673977725,215.3526334285998 45.854310960683506,213.4041360427218 44.974908026633784,213.0 44.45982916536741,214.4722044923692 42.92715548037086,216.37738830060698 42.16081863787258,217.6763630272617 41.94724935392151,218.4124435831618 41.268852804845665,219.07635620019573 41.444733391632326,219.4083113783272 40.942217429343145,220.47633596882224 40.8417142368271,220.28871059212543 40.753773943462875,220.4330378263403 39.786430716048926,222.92987642915978 38.99496807542164,224.02674002497224 37.41204279428348,224.73392403380421 36.834149437665474,225.9606636925164 36.78389784140745,226.9997762945277 36.08037549426081,228.54399943897442 36.44469956686953,229.64082092764147 36.218567383883055,230.65104396895913 34.748708194179926,231.38705921944347 33.580358581850305,232.44056479952997 31.168281962920446,236.26487060103682 30.678328899666667,236.6112178866897 29.145655214670114,236.53906226980325 28.76876824302599,236.76996011855954 25.514977387269028,240.47870687044633 23.86923761072103,242.83089829894016 21.14308851538226,250.4932964559266 19.14558756526094,253.8553896954254 19.34659395017661,255.2550366391515 19.095335969061125,256.5536661603255 18.366687823669054,257.6069905293698 16.771199643495493,258.3861571020243 16.306372378370725,258.9633148515277 15.841545113245957,261.97892707611027 16.344061075535137,262.36849924281705 20.339062975661363,263.7103509907465 21.846610862528905,263.8979206851509 27.901928208069876,265.9467432323436 28.643139252380934,265.9467432323436 31.645672127080616,267.0 33.49241828848608,263.73920788246323 35.82911751308711,264.8790505539655 35.8039917149581,264.50391343957745 34.572827607393265,263.99891965179995 33.73111337056616,263.3929248064378 33.99493425077526,262.6859276489413 36.05524969607359,260.10319471982075 34.48488731397083,261.8057835580694 33.50498118752148,263.29192542158125 31.87180431006709,262.52721353192464 30.942149779875763,261.63263983519573 34.79895979037974,256.9721109954262 35.47735633951379,255.65905594741344 35.99243520083837,253.65337769073085 36.6457059517852,252.54230667982483 37.78892976598581,251.44565688948205 36.50751406222116,252.80203832108236 35.30147575266892,256.09193253978447 34.64820500172209,257.24626385937154 33.8190536639886,258.0398613596626 33.2788490044768,257.9100002450432 32.625578253529966,256.9143945376127 32.286379978992045,254.73558160380344 31.607983429916203,253.36478862883814 31.670797925209627,253.10505798648228 32.788895941281226,252.32586329327023 33.228597408218775,251.7198201075953 36.78389784140745,249.12246373685775 40.5527675585472,244.40381502399396 42.97740707657067,245.25520326130209 46.50758171163034,245.99114503328747 49.221167907933705,246.85695414317888 49.83674996171612,246.8136638093565 50.590523905179,245.78912217041943 51.54530423349934,243.75444778351812 57.16092011204455,238.32851106437738 61.69612667168258,233.04668785877584 62.57552960567409,232.29624941521615 62.927290779247414,231.6179652014107 64.15845488681225,230.65104396895913 63.68106472265208,231.01183622122335 62.75141019246075,230.95410952066595 60.351896472566295,229.10684307249903 57.851879560214,228.34195247804746 54.69859189685667,227.01420836200123 40.615582053840626,219.20625179444323 40.57789335667621,218.78769891105185" stroke="#4dd2ff" stroke-linecap="round" stroke-linejoin="round" stroke-width="0.5"><title>2022-05-07 16.0km</title><desc>1651926428000</desc></polyline><polyline fill="none" points="91.31104969623266,248.4583006185494 90.81037681334419,248.29067715905694 90.06391906071804,246.99158630686725 88.98974814830581,246.46775481927762 88.46176583549823,245.3467466862494 87.03257233346812,244.69718511423707 85.76723541127285,243.30375726513012 85.34849081828725,242.16176130235544 85.32118138836813,239.07097619596607 85.17553109509754,238.52615043731203 83.4459338633751,236.37825220679952 83.03629241374438,235.48764741300693 83.33669614346582,231.3174212571539 83.79185330972541,229.8714248928227 85.33938767499058,227.6604790233905 86.02212342439452,225.84767834754894 88.24329039567965,224.18155078341806 89.19001730147284,222.11719264365092 90.20956935387221,220.98544613198465 90.9469239632308,219.3297209852317 91.575040852651,218.56472525616846 92.0666105922428,218.31321859688614 94.16033355696709,217.75780592917 95.81710564214154,216.09155034516152 97.2645054308523,215.5466056891455 98.59356435626978,214.3623893073236 100.31405844475375,213.56591769933584 101.53387965029106,213.1991195373921 103.1269297322142,213.02095996904973 104.25571950449375,213.0 105.60298471659189,213.2410393920145 108.27020571083995,214.22615117001988 109.79043064612779,215.48372727807873 111.30155243808986,216.47929770966584 113.36796597289504,218.86862833455234 115.69837066411856,223.10222137295204 116.96370758628473,224.90459051127254 115.5436172275804,222.94503655532026 113.07666538649937,218.54376639083785 111.34706815474783,216.58409404954728 108.26110256751417,214.22615117001988 105.55746899999212,213.2305594299396 102.24392482964322,213.12575975165237 100.48701816788525,213.54495783877792 98.83934922609478,214.26807061565341 97.24629914417164,215.5570854206453 95.88993078871863,216.08107066682715 94.0510958370869,217.8311624871858 91.9937854456075,218.36561586708558 91.3292559828842,218.80575190753734 90.30060078715906,220.91209177163546 89.18091415817617,222.1800670931989 88.32521868561162,224.1291564073399 86.04943285434274,225.82672093189467 85.28476881503593,227.79669977893354 83.83736902635428,229.81903334749222 83.41862443339778,231.09737961282372 83.03629241374438,235.32000331560266 83.31848985681427,236.2001318504117 84.96615879866295,238.11752926922054 85.24835624173284,238.68331200304965 85.3666971049679,242.28748623488354 85.72171969461488,243.23041844677937 86.97795347351348,244.58193990093423 88.3980438321887,245.31531637979788 89.10808901156997,246.53061473530397 90.13674420729512,247.0439693124208 90.55548880025162,247.9763824538095 90.95602710655658,248.30115363307414 93.85082668391988,248.4478241601537 94.8885850229999,248.74116460182995 95.18898875272134,249.14974457053904 95.28002018597908,249.5792756500232 95.17988560939557,250.9097632490084 95.52580505571677,251.45452497802762 96.41791310158442,252.2507101319352 96.5635633947968,252.76403684454272 96.49073824819061,253.9059179117612 97.41925886736135,255.12111720179382 97.4010525807098,256.3782051717353 97.96544746687869,257.50957152581395 98.04737575678155,258.1381031419369 97.81069403031142,260.0341508111742 96.37239738498465,262.6319950043762 95.47118619582034,265.1669264160155 95.28912332927575,267.0 95.43477362248814,265.1774012127498 95.64414591898094,264.9364806245503 96.33598481171066,262.6110449040425 97.77428145706654,259.981774261767 98.02916947013,257.9390685356557 97.35553686408093,256.3363024809805 97.42836201068712,255.1315929968041 96.45432567491662,254.01067702310684 96.45432567491662,252.50213577295654 96.26315966507536,252.1354731793108 95.32553590257885,251.3707156645396 95.1343698927667,251.0250015418933 95.16167932274402,249.1078390056282 94.77024415976484,248.67830600450543" stroke="#4dd2ff" stroke-linecap="round" stroke-linejoin="round" stroke-width="0.5"><title>2022-02-26 19.6km</title><desc>1645834127000</desc></polyline><polyline fill="none" points="178.56177892466076,230.58849174168427 176.8009777618572,227.55409425939433 172.7902640022803,226.2616607901291 167.75241623073816,218.3946111605037 165.0623033430893,216.37163796689129 164.4753696222324,214.9667912410223 165.60032592061907,213.8429113639868 163.49714675405994,213.33716469543288 161.78525673458353,216.14686272357358 164.81774762598798,219.01274042431032 162.27436816855334,224.0139434193261 157.48107611434534,229.2960651619942 152.44322834303603,238.6801392842899 150.48678260669112,240.75922459358117 151.31827204464935,241.7144774601329 149.41073745139875,246.09738182782894 148.77489258698188,245.2545182237518 148.38360343989916,245.76023653597804 144.95982340094633,255.59355886781123 141.63386564911343,260.1449248478166 136.10690644360147,262.1677424933878 135.17759471875615,265.25814446323784 138.35681904060766,266.8876223840052 138.5035524708219,264.9210105179809 142.80773309106007,263.1229594388278 145.20437911828049,260.5382510641357 147.50320285838097,256.94211554399226 151.66065004840493,245.98500008595875 150.8291606104467,245.31070916965837 151.31827204464935,243.6249783844687 152.58996177325025,242.27639016223839 154.1551183622796,242.55734630528605 160.90485615306534,229.1274875655654 165.4046813470777,223.1710471168626 167.06766022299416,223.05866084911395 168.63281681225635,224.800645508687 169.65995082375593,230.47610693832394 171.5674854167737,234.0162175896112 173.8173980137799,234.8029058558168 177.73028948670253,234.18479373824084 182.27902582404204,236.20770362683106 185.40933900210075,231.7123385562445 180.6160469481256,230.86945365346037 178.07266749069095,234.35336983687012 174.4043317346368,235.14005763700698 172.3500637114048,234.69052188441856 169.75777311064303,231.4875693707727 168.68172795558348,224.8568384734681 166.62745993235148,223.0024677066831 165.45359249040484,223.22724024247145 160.3668335757684,230.53229934273986 154.30185179272667,243.11925817554584 152.44322834303603,242.83830230985768 151.66065004840493,244.2430802519666 151.8562946219463,246.26595439884113 147.8944920054637,257.44782347406726 145.5956682653632,261.15633456909563 143.73704481567256,263.29152696882375 139.38395305210724,264.7524434707011 137.6231518893037,266.7752447461244 134.83521671476774,264.9771995227784 135.76452843961306,262.1677424933878 141.09584307135083,260.2011143239797 145.3511125484947,254.24499899736838 148.62815915676765,245.0859453532612 149.50855973828584,245.2545182237518 151.26936090108939,242.10781640990172 151.22044975776225,240.75922459358117 150.2422268895898,240.81541598308831 152.39431719947606,238.51156446692767 154.30185179272667,233.90383346297313 161.5407010174822,224.7444525382598 164.5731919091195,219.29370804980863 161.6385233043693,215.75350583461113 163.59496904094703,213.1685823726002 165.2579479168635,213.50574696820695 165.2579479168635,216.54021934093907 168.2415276649408,218.22603033552878 173.27937543625012,226.317853610788 177.0455334787257,227.32932343200082 178.75742349843495,230.41991452814545 184.92022756836377,231.1504154264112 184.8713164248038,232.72379879228538 182.23011468048207,236.3762791264453 177.6813783433754,234.35336983687012 174.99126545572653,235.02767373225652 172.1055079945363,234.69052188441856 170.0512399713043,232.61141441034852 168.48608338204212,224.96922438644106 167.60568280052394,223.56439888000023 166.04052621126175,223.05866084911395 159.82881099823862,231.26280009676702 154.00838493206538,243.40021390258335 152.58996177325025,242.66972872370388 151.8562946219463,244.74879946245346 151.12262747087516,244.58022644219454 151.02480518398806,245.8164274317678 151.75847233529203,246.49071774928598 147.94340314902365,257.3354439730174 145.64457940869033,260.87538760440657 143.34575566835701,263.62866187893087 138.60137475747615,265.3705224005971 138.55246361414902,266.831433567917 135.03086128854193,265.25814446323784 134.59066099789925,264.3591201659292 135.71561729628593,262.28012104076333 140.60673163761385,260.5944405012997 144.715267683845,255.48117900075158 148.6770703003276,245.02975438541034 149.50855973828584,245.14213631581515 151.4160943313036,242.3325814018608 151.4160943313036,241.15256420325022 150.34004917624407,240.70303319848608 152.68778406013735,238.06203137658304 157.23652039724402,229.5208352127811 163.30150218028575,221.93479694915004 164.67101419577375,218.6755790907191 161.98090130835772,216.87738193920814 161.73634559102356,215.30395477148704 163.64388018427417,213.056194129691 165.6492370639462,213.89910541067366 164.76883648242801,215.02298517676536 165.30685906019062,216.65260689583374 168.29043880826794,218.33841755765025 173.0348197191488,226.20546796394046 177.19226690917276,227.55409425939433 179.44217950617895,230.8132612821064 184.92022756836377,230.92564601911 184.57784956414253,233.51048884465126 182.76813725824468,236.3200872989255 177.4857337696012,234.35336983687012 174.69779859506525,235.14005763700698 171.95877456432208,234.521945885499 169.9534176841844,232.2180688988883 168.3393499518279,224.800645508687 166.67637107591145,223.11485398578225 165.60032592061907,223.33962647733279 159.77989985467866,231.59995397471357 154.1551183622796,243.2878316284041 152.7856063467916,242.72591992467642 152.05193919572048,243.73736059194198 151.75847233529203,246.49071774928598 146.67171342042275,259.6392193136271 143.83486710255966,263.29152696882375 138.89484161813743,265.03338852204615 138.60137475747615,266.8876223840052 135.07977243186906,265.14576650375966 135.81343958317302,262.1677424933878 141.19366535847075,260.2573037946131 144.61744539719075,255.48117900075158 148.5303368701134,245.31070916965837 148.8727148741018,244.86118144821376 149.0194483040832,245.98500008595875 151.66065004840493,242.05162514792755 151.4160943313036,240.98399011814035 150.34004917624407,240.5344589802553 163.4482356107328,221.65383062732872 164.7199253393337,218.50699834915577 161.98090130835772,216.87738193920814 161.68743444769643,215.75350583461113 163.05694646341726,213.50574696820695 164.08408047491685,213.056194129691 165.6492370639462,213.8429113639868 165.55141477729194,216.7649944287259 168.8284613857977,218.95654688269133 173.37719772313721,226.48643203894608 176.60533318831585,227.16074525326258 178.75742349843495,230.58849174168427 184.8713164248038,231.1504154264112 185.21369442879222,232.1056844171253 184.23547156061977,234.07240964483935 182.76813725824468,236.43247094855178 177.4857337696012,234.35336983687012 174.69779859506525,235.19624958123313 171.90986342076212,234.63432989036664 170.0512399713043,232.49903000623453 167.99697194783948,224.2387155558099 166.72528221900575,223.11485398578225 165.2579479168635,223.56439888000023 160.02445557177998,230.98183837917168 154.44858522270806,242.8944934940082 152.44322834303603,242.72591992467642 147.8455808623694,257.8411515535554 145.69349055201747,261.212523945258 143.39466681191698,263.74104013777105 139.0904861916788,265.03338852204615 138.60137475747615,266.831433567917 134.7863055714406,265.08957751560956 136.0090841569472,262.1115532114636 141.8295102226548,259.5830297819921 145.0087345445063,254.86308933439432 148.6770703003276,244.91737243288662 149.06835944764316,246.09738182782894 150.7313383235596,243.00687584566185 151.66065004840493,241.99543388054008 152.05193919572048,242.50115508784074 151.31827204464935,242.16400766617153 151.36718318797648,241.04018148541218 150.2422268895898,240.70303319848608 158.8994992733933,227.55409425939433 161.19832301372662,225.19399614573922 164.62210305244662,219.23751453572186 161.6385233043693,215.97828123322688 163.83952475781552,213.0 165.6492370639462,214.12388154136715 165.11121448664926,216.59641312109306 166.72528221900575,216.98976942762965 169.21975053311326,219.34990155813284 173.62175344023854,226.82358874601778 176.84988890541717,227.04835977306357 178.65960121154785,230.53229934273986 185.21369442879222,231.31899242359214 183.35507097910158,235.4210173023166 182.27902582404204,236.48866276518675 177.6813783433754,234.35336983687012 173.915220300667,235.19624958123313 171.61639656010084,234.5781378908432 169.85559539753012,231.76853083865717 168.43717223848216,225.02541733451653 165.8448816377204,223.1710471168626 160.46465586242266,230.41991452814545 154.05729607539251,243.40021390258335 152.7856063467916,242.7821111198864 151.26936090108939,244.86118144821376 150.92698289710097,245.53547289717244 151.95411690883338,245.92880920681637 147.94340314902365,257.44782347406726 144.9109122576192,262.0553639238351 143.39466681191698,263.74104013777105 139.0904861916788,264.9210105179809 137.8677076061722,267.0 134.8841278583277,265.25814446323784 135.81343958317302,262.1677424933878 141.53604336222634,259.9763563864399 144.5685342536308,255.53736893704627 148.62815915676765,245.0859453532612 149.0194483040832,246.09738182782894 150.43787146313116,243.4564050314366 151.66065004840493,242.7821111198864 151.22044975776225,240.98399011814035 150.38896031980403,240.81541598308831 153.12798435078003,237.3877310755779 157.28543154080398,229.85799012234202 161.68743444769643,224.6320665811072 164.7199253393337,219.01274042431032 161.83416787791066,216.82118818658637 161.58961216080934,215.69731197116198 163.59496904094703,213.056194129691 165.1601256299764,213.44955288275378" stroke="#ff0000" stroke-linecap="round" stroke-linejoin="round" stroke-width="0.5"><title>2022-01-27 21.8km</title><desc>1643277543000</desc></polyline></svg>