<?xml version="1.0" encoding="utf-8" ?>
<svg baseProfile="full" height="200mm" version="1.1" viewBox="0,0,200,200" width="200mm" xmlns="http://www.w3.org/2000/svg" xmlns:ev="http://www.w3.org/2001/xml-events" xmlns:xlink="http://www.w3.org/1999/xlink"><defs /><rect fill="#1a1a1a" height="200" width="200" x="0" y="0" /><text alignment-baseline="middle" fill="#e1ed5e" style="dominant-baseline: central; font-size:9.0px; font-family:Arial;" text-anchor="middle" x="100.0" y="100.0">2024</text><line stroke="#e1ed5e" stroke-width="0.3" x1="100.0" x2="100.0" y1="15.0" y2="10.0" /><path d="M 100.0 14.0 a86.0,86.0 0 0,1 42.35913384403234,11.155469271406648" fill="none" id="id61" stroke="none" /><text fill="#e1ed5e" style="font-size:6.75px; font-family:Arial;" text-anchor="middle"><textPath startOffset="22.145653131862478" xlink:href="#id61">January</textPath></text><path d="M 100.0 79.0 l 0.0 -47.39998917631934 a68.39998917631934,68.39998917631934 0 0,0 1.1741767694191128,0.010078895381265237 l -0.813683844570258 47.39300467913251" fill="#39ff8d" stroke="none" /><path d="M 102.15924093988457 79.11130261209362 l 2.412404580423349 -23.337825958578062 a44.46217842257039,44.46217842257039 0 0,0 0.7585334412107949,0.08499525423702183 l -2.8126739232349403 23.292974943834068" fill="#dcff1b" stroke="none" /><path d="M 104.64783097203109 79.52079915486377 l 5.772618795960178 -25.43522353464931 a47.08205751126722,47.08205751126722 0 0,0 0.7866466722130097,0.18564647271442988 l -6.208397621913073 25.332380918288653" fill="#bdff1f" stroke="none" /><path d="M 107.06938296918511 80.22567764915836 l 10.433566536819031 -29.184542536078794 a51.9934966358819,51.9934966358819 0 0,0 0.8378649192865336,0.30767560400042465 l -10.933020607759689 29.00113608306965" fill="#86ff25" stroke="none" /><line stroke="#e1ed5e" stroke-width="0.3" x1="143.13028292997686" x2="145.6673583964461" y1="26.7553504044142" y2="22.446841604673864" /><path d="M 143.63769802327073 25.89364864446614 a86.0,86.0 0 0,1 29.32050498858742,28.57503671076993" fill="none" id="id62" stroke="none" /><text fill="#e1ed5e" style="font-size:6.75px; font-family:Arial;" text-anchor="middle"><textPath startOffset="20.669276256404974" xlink:href="#id62">February</textPath></text><path d="M 111.27062007382361 82.28071324371311 l 12.863785810848945 -20.224007912686062 a44.968468483401004,44.968468483401004 0 0,0 0.6477908481727023,0.419890201398552 l -13.209062291278656 20.00020386958362" fill="#d6ff1c" stroke="none" /><path d="M 111.5731344415666 82.4767994020092 l 1.4093741353410996 -2.1339720726391933 a23.557376049816,23.557376049816 0 0,0 0.3355285056759416,0.22575855278021392 l -1.4457989291140423 2.1094638458018604" fill="#ff0c01" stroke="none" /><path d="M 112.7482090630111 83.31218511350987 l 38.24462718903332 -50.063444659470385 a84.0,84.0 0 0,0 1.138360221459096,0.8851957935168366 l -39.09839735512764 49.399547814332756" fill="#4dd2ff" stroke="none" /><path d="M 113.86319453409587 84.22622945171908 l 25.95396367684956 -29.5308463608559 a60.315125808366716,60.315125808366716 0 0,0 0.7718468436312456,0.6901902070188769 l -26.457075547304182 29.080960623953636" fill="#30ff2f" stroke="none" /><path d="M 115.16444852881244 85.47280134310134 l 11.264814119826964 -10.791437106389706 a36.599716406890785,36.599716406890785 0 0,0 0.4307336379462071,0.45742419688562264 l -11.44840359150943 10.596471449559589" fill="#ffc111" stroke="none" /><path d="M 116.57777611688842 87.10902102172516 l 18.852636871757664 -14.659924460633446 a44.881693872291294,44.881693872291294 0 0,0 0.4677271408066799,0.6122698415588721 l -19.101515989918653 14.334133705833693" fill="#d7ff1c" stroke="none" /><path d="M 117.01052211995028 87.68569379921539 l 27.7226564953511 -20.06906539232798 a55.22445133060235,55.22445133060235 0 0,0 0.5493120988061836,0.7726762592096954 l -28.063083692687243 19.59021190640878" fill="#64ff29" stroke="none" /><path d="M 117.21940702142032 87.97951657250589 l 2.131462811709518 -1.487926580317336 a23.59943440504189,23.59943440504189 0 0,0 0.22903842557624102,0.3341739078120138 l -2.156690974101084 1.4511179374352736" fill="#ff0d01" stroke="none" /><line stroke="#e1ed5e" stroke-width="0.3" x1="172.87174338648825" x2="177.1583165268699" y1="56.24261187166439" y2="53.66864786411523" /><path d="M 173.72905801456457 55.72781907015455 a86.0,86.0 0 0,1 12.242430191666344,42.057860355516425" fill="none" id="id63" stroke="none" /><text fill="#e1ed5e" style="font-size:6.75px; font-family:Arial;" text-anchor="middle"><textPath startOffset="22.145653131862474" xlink:href="#id63">March</textPath></text><path d="M 118.00360718960297 89.18935116829356 l 2.546963197606262 -1.5293782199659647 a23.970861704904316,23.970861704904316 0 0,0 0.20880479984145608,0.35459619922025015 l -2.5728417075774854 1.485430852452158" fill="#ff1302" stroke="none" /><path d="M 118.18653347947321 89.5 l 16.551042907364085 -9.555749077935703 a40.1114981558714,40.1114981558714 0 0,0 0.33916494054711277,0.5992719517898268 l -16.712641212932574 9.270220356046758" fill="#ffed16" stroke="none" /><path d="M 118.53625476483649 90.13048839642627 l 34.40257097213372 -18.3174313101451 a59.975186712761,59.975186712761 0 0,0 0.47606569936849413,0.9129187501544397 l -34.71194474047716 17.724166316886162" fill="#33ff2f" stroke="none" /><path d="M 118.70294669586156 90.45014215332178 l 4.922983312903368 -2.5137103572133395 a26.52761290785513,26.52761290785513 0 0,0 0.2036058547987398,0.40734809975250375 l -4.965409080913846 2.4288304012970854" fill="#ff3705" stroke="none" /><path d="M 119.16976305983485 91.42560881287824 l 25.127188822449142 -11.239071955342595 a48.52621217197131,48.52621217197131 0 0,0 0.33359718436611147,0.7633356424050947 l -25.316419888832222 10.806074243161651" fill="#adff20" stroke="none" /><path d="M 119.4528033332814 92.08871423366111 l 24.42333186140036 -9.93275644704081 a47.36586410206054,47.36586410206054 0 0,0 0.2998514635763052,0.7558215656857614 l -24.59024199994279 9.512033864141483" fill="#baff1f" stroke="none" /><path d="M 119.58574465831526 92.42381321644754 l 33.81107791409609 -13.078851281852222 a57.25252185111932,57.25252185111932 0 0,0 0.346703050176459,0.9196710313933163 l -34.03061164808699 12.496511970264748" fill="#4fff2b" stroke="none" /><path d="M 119.71291397450082 92.76114493625339 l 2.379517954235694 -0.8737919525533362 a23.53488028728715,23.53488028728715 0 0,0 0.13600900331911053,0.3804413887282778 l -2.3941671275987475 0.8328156074441415" fill="#ff0c01" stroke="none" /><path d="M 119.83427380445688 93.10060997987247 l 24.691136984203496 -8.58885915228899 a47.142317171791795,47.142317171791795 0 0,0 0.2593154711524471,0.766620113122613 l -24.834937876928308 8.163737364692215" fill="#bcff1f" stroke="none" /><path d="M 120.35273937422433 94.82641323984039 l 23.223081956036776 -5.903216620068982 a44.96162561263863,44.96162561263863 0 0,0 0.18372706217471402,0.7496691106865195 l -23.32099654472778 5.503691684774368" fill="#d6ff1c" stroke="none" /><path d="M 120.43855184770803 95.1765574152323 l 23.869495677750297 -5.633135986681975 a45.52519204725198,45.52519204725198 0 0,0 0.17297218337485773,0.7621473554593279 l -23.962678722682824 5.2225542972836205" fill="#cfff1d" stroke="none" /><path d="M 120.51834098615036 95.52812308129327 l 25.133094053349332 -5.477640871097796 a46.723082362096974,46.723082362096974 0 0,0 0.16406985955822295,0.7851336719438623 l -25.22342162373192 5.045390747868529" fill="#c1ff1e" stroke="none" /><path d="M 120.592083275326 95.88100663000786 l 25.70518333652739 -5.141756582951292 a47.21438748326591,47.21438748326591 0 0,0 0.1521510789818822,0.7961187381594114 l -25.789660707791427 4.699735279758566" fill="#bcff1f" stroke="none" /><path d="M 120.65975698304385 96.23510406497455 l 26.456672096075135 -4.821286974022253 a47.89238380071795,47.89238380071795 0 0,0 0.14045053319519885,0.810081352193141 l -26.535537446762568 4.366412588908519" fill="#b4ff20" stroke="none" /><path d="M 120.7213421655516 96.59031103205396 l 27.25251290685288 -4.484390628025219 a48.619001050778486,48.619001050778486 0 0,0 0.1284433158107289,0.8246982265226178 l -27.325477714801874 4.01590421957116" fill="#acff21" stroke="none" /><path d="M 120.77682067341334 96.94652285012252 l 28.271049419121425 -4.1548706975561736 a49.57472984599884,49.57472984599884 0 0,0 0.11651355991400031,0.8430340783727788 l -28.33820749559064 3.668948310983309" fill="#a1ff22" stroke="none" /><path d="M 120.82617615685814 97.30363454192243 l 23.96248452119811 -3.102423366922315 a45.16248528558858,45.16248528558858 0 0,0 0.09294420920817985,0.7697113833126417 l -24.012210816665956 2.6906183066862606" fill="#d4ff1c" stroke="none" /><path d="M 120.86939407059847 97.66154086499901 l 23.83806111538011 -2.6711044694156656 a44.98724571156784,44.98724571156784 0 0,0 0.07940807463653562,0.7682010889102292 l -23.880401582498312 2.261498858222505" fill="#d6ff1c" stroke="none" /><path d="M 120.9064616781168 98.02013634271609 l 24.715891559451 -2.340620627695578 a45.82647378306744,45.82647378306744 0 0,0 0.06744429948436056,0.7838049931366118 l -24.752429481633097 1.9159945871833044" fill="#ccff1d" stroke="none" /><path d="M 120.93736805541906 98.37931529534042 l 27.453581399887113 -2.1250808289348364 a48.53570591449825,48.53570591449825 0 0,0 0.05717052887533145,0.8312469426409844 l -27.48601588992751 1.653490462139518" fill="#adff20" stroke="none" /><path d="M 120.96210409425399 98.7389718711861 l 29.47247493714558 -1.7729909056071904 a50.525756140563786,50.525756140563786 0 0,0 0.04465132026065129,0.8662236843605629 l -29.4985678468628 1.266795427869897" fill="#96ff23" stroke="none" /><path d="M 120.98066250479742 99.09900007780936 l 30.955872416158698 -1.3293783564710997 a51.98440388098743,51.98440388098743 0 0,0 0.030634441395689622,0.89188833612802 l -30.974131544551238 0.7977837557789598" fill="#86ff25" stroke="none" /><path d="M 120.99303781780057 99.45929381324524 l 23.920489214349885 -0.6161069503448652 a44.928422263661524,44.928422263661524 0 0,0 0.01324012449250883,0.7711708745514694 l -23.92754077044106 0.2053891598243294" fill="#d6ff1c" stroke="none" /><line stroke="#e1ed5e" stroke-width="0.3" x1="184.99686870605535" x2="189.99668451229388" y1="99.2704041080226" y2="99.22748670261217" /><path d="M 185.99683186730306 99.26182062694052 a86.0,86.0 0 0,1 -10.086455211305974,41.156179273409016" fill="none" id="id64" stroke="none" /><text fill="#e1ed5e" style="font-size:6.75px; font-family:Arial;" text-anchor="middle"><textPath startOffset="21.40746469413373" xlink:href="#id64">April</textPath></text><path d="M 120.99922638620191 99.81974689727618 l 24.420905492279974 -0.2096241025908104 a45.42180516111078,45.42180516111078 0 0,0 0.0,0.7797544106292715 l -24.420905492279974 -0.20962410259080744" fill="#d0ff1d" stroke="none" /><path d="M 120.99922638620191 100.18025310272382 l 25.802784104751595 0.22148586849135385 a46.80373468214171,46.80373468214171 0 0,0 -0.013792767310391045,0.8033595481115872 l -25.795179905842534 -0.664392332572012" fill="#c0ff1e" stroke="none" /><path d="M 120.99303781780057 100.54070618675476 l 26.426517852316124 0.6806533585632983 a47.43528200706976,47.43528200706976 0 0,0 -0.02795364105858937,0.8138397593229519 l -26.410939524260687 -1.1341993824503611" fill="#b9ff1f" stroke="none" /><path d="M 120.98066250479742 100.90099992219065 l 29.137735598466847 1.2512997385581686 a50.16459131964441,50.16459131964441 0 0,0 -0.044332146688248183,0.8600318023238477 l -29.111961862322026 -1.751303334258747" fill="#9aff22" stroke="none" /><path d="M 120.96210409425399 101.26102812881392 l 30.409837148260152 1.829380288552138 a51.46481294253825,51.46481294253825 0 0,0 -0.06062074340853504,0.8814123047357397 l -30.37395244368655 -2.3511360174422213" fill="#8cff24" stroke="none" /><path d="M 120.93736805541906 101.62068470465957 l 23.866341728715444 1.847405791096859 a44.93773539140247,44.93773539140247 0 0,0 -0.06613631452932245,0.7686042252949425 l -23.831111791488382 -2.256831063767459" fill="#d6ff1c" stroke="none" /><path d="M 120.9064616781168 101.97986365728391 l 25.81378091576082 2.444591891209375 a46.92927524404537,46.92927524404537 0 0,0 -0.08283599789838755,0.8013631369073453 l -25.768012525380765 -2.887359550399652" fill="#bfff1e" stroke="none" /><path d="M 120.86939407059847 102.33845913500097 l 23.939195528548353 2.6824367913573632 a45.08901304939032,45.08901304939032 0 0,0 -0.0927930036478786,0.7684591843647494 l -23.88962043864081 -3.092989652645521" fill="#d4ff1c" stroke="none" /><path d="M 120.82617615685814 102.69636545807757 l 26.985829614754024 3.493855918760594 a48.21106446241296,48.21106446241296 0 0,0 -0.11330859018715793,0.8198445139831929 l -26.921876508011653 -3.9565887409438725" fill="#b0ff20" stroke="none" /><path d="M 120.77682067341334 103.0534771498775 l 24.60860025009102 3.616616793072489 a45.872939578922185,45.872939578922185 0 0,0 -0.12118867805095301,0.7781182479788853 l -24.5428900799018 -4.038523222982825" fill="#cbff1d" stroke="none" /><path d="M 120.7213421655516 103.40968896794604 l 30.832347543706884 5.07345105523269 a52.246976824418866,52.246976824418866 0 0,0 -0.15322093348623045,0.8837376274700073 l -30.74071179272842 -5.601981715623285" fill="#83ff25" stroke="none" /><path d="M 120.16314734710363 105.8691983318838 l 25.24388367559525 7.3481266296630565 a47.291607558164785,47.291607558164785 0 0,0 -0.23358378899414345,0.7775244645513822 l -25.114023566597474 -7.780388697805162" fill="#bbff1f" stroke="none" /><path d="M 120.05942366710727 106.21446072829308 l 26.837203920635506 8.314234376307637 a49.09558697628418,49.09558697628418 0 0,0 -0.2563146967727344,0.8029021369882858 l -26.690524508085517 -8.773705546987307" fill="#a6ff21" stroke="none" /><path d="M 119.83427380445688 106.89939002012753 l 12.541743016783805 4.3626692591870135 a34.27886293942748,34.27886293942748 0 0,0 -0.1980989036864712,0.5541178906164365 l -12.465003943053391 -4.577322106184372" fill="#ffa20f" stroke="none" /><path d="M 119.16976305983485 108.57439118712176 l 21.8302305792523 9.764384468776505 a44.914476184884464,44.914476184884464 0 0,0 -0.32085091336334676,0.7011171500695759 l -21.6593952010339 -10.13769060106077" fill="#d6ff1c" stroke="none" /><path d="M 119.0197475246899 108.90220220490707 l 22.06702764928451 10.328483169410985 a45.36454953113422,45.36454953113422 0 0,0 -0.3361745171594969,0.7024754455701533 l -21.886473874165098 -10.705771117046242" fill="#d1ff1c" stroke="none" /><line stroke="#e1ed5e" stroke-width="0.3" x1="174.33088141563837" x2="178.70328620479359" y1="141.23008692659167" y2="143.65538615756765" /><path d="M 175.20536237346943 141.71514677278685 a86.0,86.0 0 0,1 -30.301960400862466,31.631185727798858" fill="none" id="id65" stroke="none" /><text fill="#e1ed5e" style="font-size:6.75px; font-family:Arial;" text-anchor="middle"><textPath startOffset="22.145653131862474" xlink:href="#id65">May</textPath></text><path d="M 118.00360718960297 110.81064883170644 l 13.801415487174543 8.287353453172567 a37.09842528657485,37.09842528657485 0 0,0 -0.3325291479614796,0.5431613726594267 l -13.657118374757658 -8.523051941956552" fill="#ffc712" stroke="none" /><path d="M 117.81537515405839 111.11811171558189 l 20.917504240752486 13.054069698154272 a45.656656694413535,45.656656694413535 0 0,0 -0.4206550157085427,0.6613395536348127 l -20.690331533418053 -13.411222926467758" fill="#ceff1d" stroke="none" /><path d="M 117.62189284568427 111.42229804090321 l 24.03297490818177 15.577883977318063 a49.64008296335884,49.64008296335884 0 0,0 -0.4696319683222378,0.7110826569665101 l -23.762018500938808 -15.988146512623633" fill="#a0ff22" stroke="none" /><path d="M 116.57777611688842 112.89097897827486 l 22.63802743999495 17.603467062224922 a49.676860689148,49.676860689148 0 0,0 -0.5292562550716654,0.6686979888452781 l -22.33250475428172 -17.989484994984885" fill="#a0ff22" stroke="none" /><path d="M 116.35404254752997 113.17365903436017 l 20.398236923369925 16.431375750037862 a47.19309410170674,47.19309410170674 0 0,0 -0.5136253222340876,0.6265393788163882 l -20.11316478189721 -16.779117410552743" fill="#bcff1f" stroke="none" /><path d="M 115.16444852881244 114.52719865689866 l 21.949000340159436 21.026645819398137 a51.39536889637519,51.39536889637519 0 0,0 -0.6157977701929177,0.6318627610405568 l -21.584815768815712 -21.40033127250643" fill="#8dff24" stroke="none" /><path d="M 114.91283532996324 114.78537596483092 l 18.30829474064072 18.151814529288224 a46.7814279475721,46.7814279475721 0 0,0 -0.5703058829731587,0.5654315030067308 l -17.993996937537595 -18.463426042523615" fill="#c1ff1e" stroke="none" /><path d="M 114.39649973595853 115.28858382429668 l 1.172548136175744 1.245205487217837 a22.710381781078897,22.710381781078897 0 0,0 -0.2861186143508169,0.2648271179402259 l -1.1509997505109597 -1.2651503512904425" fill="#ff0000" stroke="none" /><path d="M 113.59037401385872 116.0094264158162 l 16.028651413279587 18.881711061372656 a45.76765388028491,45.76765388028491 0 0,0 -0.6033172028218,0.5033086683138294 l -15.702159876295891 -19.154081913598354" fill="#ccff1d" stroke="none" /><path d="M 113.31354834802062 116.24036423190432 l 10.305521081584116 12.571060065243804 a37.25531654342487,37.25531654342487 0 0,0 -0.49806673427322606,0.4012073048363034 l -10.088203576955637 -12.74611566387351" fill="#ffc912" stroke="none" /><line stroke="#e1ed5e" stroke-width="0.3" x1="143.1302829299769" x2="145.66735839644613" y1="173.24464959558577" y2="177.55315839532614" /><path d="M 143.63769802327073 174.10635135553383 a86.0,86.0 0 0,1 -40.68552437913181,11.842963189579606" fill="none" id="id66" stroke="none" /><text fill="#e1ed5e" style="font-size:6.75px; font-family:Arial;" text-anchor="middle"><textPath startOffset="21.407464694133747" xlink:href="#id66">June</textPath></text><line stroke="#e1ed5e" stroke-width="0.3" x1="101.45913802915013" x2="101.54496967792366" y1="184.9874750549273" y2="189.98673829345242" /><path d="M 101.47630435890484 185.9873277026323 a86.0,86.0 0 0,1 -42.54439059252881,-10.42667462771756" fill="none" id="id67" stroke="none" /><text fill="#e1ed5e" style="font-size:6.75px; font-family:Arial;" text-anchor="middle"><textPath startOffset="22.145653131862474" xlink:href="#id67">July</textPath></text><line stroke="#e1ed5e" stroke-width="0.3" x1="58.13341422392154" x2="55.67067388415222" y1="173.97424548756322" y2="178.32567169271397" /><path d="M 57.64086615596768 174.84453072859336 a86.0,86.0 0 0,1 -31.369924170532247,-30.572349798747897" fill="none" id="id68" stroke="none" /><text fill="#e1ed5e" style="font-size:6.75px; font-family:Arial;" text-anchor="middle"><textPath startOffset="22.145653131862474" xlink:href="#id68">August</textPath></text><line stroke="#e1ed5e" stroke-width="0.3" x1="26.387840678322732" x2="22.057713659400548" y1="142.50000000000003" y2="145.00000000000006" /><path d="M 25.521815274538298 143.00000000000003 a86.0,86.0 0 0,1 -11.493303480769221,-40.785679425670985" fill="none" id="id69" stroke="none" /><text fill="#e1ed5e" style="font-size:6.75px; font-family:Arial;" text-anchor="middle"><textPath startOffset="21.40746469413373" xlink:href="#id69">September</textPath></text><line stroke="#e1ed5e" stroke-width="0.3" x1="15.003131293944662" x2="10.003315487706104" y1="100.72959589197737" y2="100.7725132973878" /><path d="M 14.003168132696942 100.73817937305945 a86.0,86.0 0 0,1 10.791469493833604,-42.45332614584628" fill="none" id="id70" stroke="none" /><text fill="#e1ed5e" style="font-size:6.75px; font-family:Arial;" text-anchor="middle"><textPath startOffset="22.145653131862435" xlink:href="#id70">October</textPath></text><line stroke="#e1ed5e" stroke-width="0.3" x1="26.387840678322718" x2="22.05771365940052" y1="57.49999999999999" y2="54.99999999999999" /><path d="M 25.521815274538284 56.99999999999999 a86.0,86.0 0 0,1 29.574782752854787,-30.34633250058573" fill="none" id="id71" stroke="none" /><text fill="#e1ed5e" style="font-size:6.75px; font-family:Arial;" text-anchor="middle"><textPath startOffset="21.40746469413373" xlink:href="#id71">November</textPath></text><line stroke="#e1ed5e" stroke-width="0.3" x1="56.869717070023135" x2="54.33264160355391" y1="26.7553504044142" y2="22.446841604673864" /><path d="M 56.362301976729285 25.89364864446614 a86.0,86.0 0 0,1 42.16139366436587,-11.88097634709845" fill="none" id="id72" stroke="none" /><text fill="#e1ed5e" style="font-size:6.75px; font-family:Arial;" text-anchor="middle"><textPath startOffset="22.145653131862474" xlink:href="#id72">December</textPath></text></svg>