<?xml version="1.0" encoding="utf-8" ?>
<svg baseProfile="full" height="200mm" version="1.1" viewBox="0,0,200,200" width="200mm" xmlns="http://www.w3.org/2000/svg" xmlns:ev="http://www.w3.org/2001/xml-events" xmlns:xlink="http://www.w3.org/1999/xlink"><defs /><rect fill="#1a1a1a" height="200" width="200" x="0" y="0" /><text alignment-baseline="middle" fill="#e1ed5e" style="dominant-baseline: central; font-size:9.0px; font-family:Arial;" text-anchor="middle" x="100.0" y="100.0">2023</text><line stroke="#e1ed5e" stroke-width="0.3" x1="100.0" x2="100.0" y1="15.0" y2="10.0" /><path d="M 100.0 14.0 a86.0,86.0 0 0,1 42.46469731375804,11.215312516191453" fill="none" id="id49" stroke="none" /><text fill="#e1ed5e" style="font-size:6.75px; font-family:Arial;" text-anchor="middle"><textPath startOffset="22.20632615414155" xlink:href="#id49">January</textPath></text><path d="M 100.0 79.0 l 0.0 -30.10224699533387 a51.10224699533387,51.10224699533387 0 0,0 0.8796411778941148,0.007571349330765693 l -0.5181606986215864 30.097787022611666" fill="#8fff24" stroke="none" /><path d="M 108.76106565485865 80.91482961587045 l 3.297865451936016 -7.184094553523666 a28.904880207380852,28.904880207380852 0 0,0 0.45039555255381,0.21146675106902824 l -3.4210392157894236 7.126262819814635" fill="#ff5c08" stroke="none" /><line stroke="#e1ed5e" stroke-width="0.3" x1="143.23703022742887" x2="145.7803849466894" y1="26.81831364943548" y2="22.513508569990506" /><path d="M 143.74570117128098 25.957352633546492 a86.0,86.0 0 0,1 28.547481713284135,27.462654790039103" fill="none" id="id50" stroke="none" /><text fill="#e1ed5e" style="font-size:6.75px; font-family:Arial;" text-anchor="middle"><textPath startOffset="19.985693538727396" xlink:href="#id50">February</textPath></text><path d="M 111.60114157652 82.49532879139004 l 1.7189978932334489 -2.593752755353493 a24.111672719429997,24.111672719429997 0 0,0 0.3439878074641466,0.23226210312827708 l -1.7633903951041374 2.5637787399265455" fill="#ff1802" stroke="none" /><path d="M 112.48926042617603 83.11751280151076 l 5.983761600885516 -8.088611749502276 a31.061363870292052,31.061363870292052 0 0,0 0.42709944224082047,0.3216824451957604 l -6.122107196884719 7.984412714800668" fill="#ff790b" stroke="none" /><path d="M 113.89432698308785 84.25364557470407 l 5.465722290452959 -6.194269105691197 a29.260937592675226,29.260937592675226 0 0,0 0.3748033669080513,0.3365021634747998 l -5.571536644957001 6.0992679334471" fill="#ff6108" stroke="none" /><path d="M 115.68641384162765 86.03803664274999 l 5.030664500783709 -4.47762975857282 a27.73474227972402,27.73474227972402 0 0,0 0.31433782495932266,0.35934247271587133 l -5.10699418932088 4.390371729654" fill="#ff4b07" stroke="none" /><path d="M 117.2510076193507 88.02491185347247 l 4.229043704977731 -2.935664528129855 a26.1481003176251,26.1481003176251 0 0,0 0.25348159494800443,0.371952962600223 l -4.2789497655944695 2.8624335422592257" fill="#ff3505" stroke="none" /><line stroke="#e1ed5e" stroke-width="0.3" x1="172.23445277983987" x2="176.4835382374775" y1="55.19839476539836" y2="52.563006222186495" /><path d="M 173.08426987136738 54.67131705675599 a86.0,86.0 0 0,1 12.851231095245387,41.99856678651699" fill="none" id="id51" stroke="none" /><text fill="#e1ed5e" style="font-size:6.75px; font-family:Arial;" text-anchor="middle"><textPath startOffset="22.20632615414155" xlink:href="#id51">March</textPath></text><path d="M 118.89224826269711 90.83032412892265 l 1.3700773417293708 -0.6649904747849235 a22.522932780484712,22.522932780484712 0 0,0 0.1662855322984317,0.3502397391183607 l -1.3813210678695587 0.6413083200260223" fill="#ff0000" stroke="none" /><path d="M 119.04729006885535 91.15688171328212 l 1.9804232922426406 -0.9194545453848584 a23.183454390979133,23.183454390979133 0 0,0 0.1649311605142001,0.36340394973924617 l -1.9959567697201877 0.8852285868035493" fill="#ff0a01" stroke="none" /><path d="M 119.196687751892 91.48605970444005 l 1.89098744066481 -0.8386735450175313 a23.06862437766365,23.06862437766365 0 0,0 0.15786550639142255,0.3643753542514943 l -1.905143656898913 0.8059990461794342" fill="#ff0801" stroke="none" /><path d="M 119.34039704204932 91.81776055985345 l 2.037050898797197 -0.8618043450445254 a23.211850603776867,23.211850603776867 0 0,0 0.15251104716946345,0.3693175977886048 l -2.0515836328528576 0.8266121768026174" fill="#ff0a01" stroke="none" /><path d="M 119.47837535516314 92.15188598940014 l 7.020414525976084 -2.8286246977434417 a28.56883992413766,28.56883992413766 0 0,0 0.17985642430324716,0.4577149819737695 l -7.068064500161031 2.7073607108738877" fill="#ff5708" stroke="none" /><path d="M 120.08093135843002 93.85539295169968 l 7.4372696838655905 -2.2757460251168173 a28.77766033723389,28.77766033723389 0 0,0 0.14086541798048116,0.474928161479772 l -7.475340998957774 2.147388476890516" fill="#ff5a08" stroke="none" /><path d="M 120.37134235888165 94.90015583598534 l 14.80729350606262 -3.7069176906165886 a36.264245141496204,36.264245141496204 0 0,0 0.14638183387141987,0.6068472050212093 l -14.86890814019486 3.451485253935973" fill="#ffbe11" stroke="none" /><path d="M 120.53481517161879 95.60439243477599 l 7.899915048233748 -1.691026973480468 a29.07887554021898,29.07887554021898 0 0,0 0.10055849598718462,0.49035893905646954 l -7.927852840135929 1.5547923782605866" fill="#ff5e08" stroke="none" /><path d="M 120.78858239683441 97.02765380044208 l 16.224238204930188 -2.319737433202269 a37.389236928219574,37.389236928219574 0 0,0 0.08561067160396647,0.6378989426466469 l -16.261764875591993 2.0401201484909577" fill="#ffcd13" stroke="none" /><path d="M 120.91429891909075 98.10471618934814 l 2.215077524367114 -0.2007335071337078 a23.22415430666187,23.22415430666187 0 0,0 0.03265262589332837,0.39844474196712054 l -2.2182046340799375 0.16257484795881846" fill="#ff0b01" stroke="none" /><path d="M 120.94382443527127 98.46500227214037 l 5.234396887191837 -0.3836351547630293 a26.248436596226885,26.248436596226885 0 0,0 0.029147525165813443,0.45089931331513144 l -5.240225003362066 0.2934767771948626" fill="#ff3605" stroke="none" /><path d="M 120.98425023603335 99.18683210126433 l 1.497497321405165 -0.05803003378783165 a22.498621270514022,22.498621270514022 0 0,0 0.011665326796194274,0.3871154050864577 l -1.4982743426570044 0.03224448127637488" fill="#ff0000" stroke="none" /><line stroke="#e1ed5e" stroke-width="0.3" x1="184.98032266829074" x2="189.97916517819016" y1="98.17113171792111" y2="98.06355123074" /><path d="M 185.9800911702706 98.14961562048488 a86.0,86.0 0 0,1 -9.607161424134198,41.387399972396054" fill="none" id="id52" stroke="none" /><text fill="#e1ed5e" style="font-size:6.75px; font-family:Arial;" text-anchor="middle"><textPath startOffset="21.466115282336823" xlink:href="#id52">April</textPath></text><path d="M 120.99513854157772 99.54816195383933 l 6.113099360346692 -0.13156049746921608 a27.114514858430347,27.114514858430347 0 0,0 0.006025868945280493,0.46671019055254365 l -6.114458236409688 0.026314048856209724" fill="#ff4306" stroke="none" /><path d="M 120.99980553446 99.90962569577887 l 10.331467498331067 -0.04446227776789264 a31.331563171331602,31.331563171331602 0 0,0 -0.00232107608332134,0.539336339023756 l -10.330702124958243 -0.13338353945954806" fill="#ff7d0b" stroke="none" /><path d="M 120.9904718944345 100.63252640178507 l 8.225226660015586 0.24785879275566683 a29.22896029822586,29.22896029822586 0 0,0 -0.01948300491200104,0.5027697859925457 l -8.21974152225238 -0.3894058257622187" fill="#ff6008" stroke="none" /><path d="M 120.9764740272857 100.99374915477107 l 31.677824222623062 1.5007198543124936 a52.713352196835515,52.713352196835515 0 0,0 -0.05073948594518665,0.9059876064100088 l -31.647298385790346 -2.0457791770579257" fill="#7dff26" stroke="none" /><path d="M 120.89721153311464 102.0752229133903 l 6.81763801583796 0.6770338044024667 a27.85117237320027,27.85117237320027 0 0,0 -0.0514818291440534,0.4766577995594695 l -6.8049738851928545 -0.7942879258467277" fill="#ff4d07" stroke="none" /><path d="M 120.64145759157962 103.86396538481128 l 8.367679741820172 1.5663828356176392 a29.513026456518578,29.513026456518578 0 0,0 -0.09777253469861884,0.498540048006216 l -8.339477274145889 -1.7101866106918002" fill="#ff6409" stroke="none" /><path d="M 120.13307415673323 105.97154293290107 l 9.7533617508346 2.8928825266232674 a31.17333941021755,31.17333941021755 0 0,0 -0.1570145105324038,0.5131325052186748 l -9.702120467796064 -3.0603420043939993" fill="#ff7b0b" stroke="none" /><path d="M 119.79798401119884 107.00284435728193 l 11.131482209331745 3.937372478617466 a32.80731968789036,32.80731968789036 0 0,0 -0.19290038299523984,0.5307790065849942 l -11.062057565331278 -4.1283992822085915" fill="#ff910d" stroke="none" /><path d="M 119.12269723197855 108.67885076344098 l 7.2829489767726745 3.3053719629814706 a28.99792658205476,28.99792658205476 0 0,0 -0.21020097546684408,0.4527542007989297 l -7.224973384465999 -3.430246231059231" fill="#ff5d08" stroke="none" /><line stroke="#e1ed5e" stroke-width="0.3" x1="174.80103733775053" x2="179.2010983576182" y1="140.37084112569926" y2="142.7455964860345" /><path d="M 175.68104954172406 140.8457921977663 a86.0,86.0 0 0,1 -30.038265399797805,32.042727171017184" fill="none" id="id53" stroke="none" /><text fill="#e1ed5e" style="font-size:6.75px; font-family:Arial;" text-anchor="middle"><textPath startOffset="22.206326154141568" xlink:href="#id53">May</textPath></text><path d="M 118.12598468904814 110.60418214915192 l 9.05906855355569 5.299795552712866 a31.495454061572403,31.495454061572403 0 0,0 -0.277788591465293,0.46558965766575877 l -8.966499086392169 -5.454947304264729" fill="#ff7f0b" stroke="none" /><path d="M 117.14729908036423 112.12312394758627 l 1.9408921500983454 1.3722088822422085 a23.37697697818422,23.37697697818422 0 0,0 -0.23512809195061068,0.32657235483532454 l -1.9169842657721319 -1.405414842528664" fill="#ff0d01" stroke="none" /><path d="M 116.0416608686014 113.55231037782055 l 6.451359648747487 5.450235423559109 a29.44541931994533,29.44541931994533 0 0,0 -0.3304301724559249,0.3843649409708858 l -6.3565869667207835 -5.560477463691523" fill="#ff6309" stroke="none" /><path d="M 115.56566222782051 114.09645910891815 l 7.487425394426498 6.780706426673309 a31.101461215182262,31.101461215182262 0 0,0 -0.3627816495828873,0.3937278303762456 l -7.369597336847889 -6.908585511850889" fill="#ff7a0b" stroke="none" /><path d="M 115.32070863581623 114.36230785411682 l 1.5874058820829542 1.488104271796734 a23.175847365559278,23.175847365559278 0 0,0 -0.27534390875943454,0.28869698752382655 l -1.5615554219445553 -1.515208375903068" fill="#ff0a01" stroke="none" /><path d="M 114.29624159901734 115.38237550388516 l 5.699178099411122 6.132163966415218 a29.371622657514408,29.371622657514408 0 0,0 -0.3732999676276125,0.34100066957102015 l -5.592778582316646 -6.229357402572822" fill="#ff6209" stroke="none" /><path d="M 113.75828350139079 115.86535959552629 l 1.0392689953263679 1.1984326624514885 a22.58629155298679,22.58629155298679 0 0,0 -0.29591755058680397,0.2521873564042325 l -1.0184859681625167 -1.216144409078668" fill="#ff0100" stroke="none" /><path d="M 113.20401910651253 116.32954008644616 l 4.898014576832028 6.057422723428739 a28.789924059011735,28.789924059011735 0 0,0 -0.3880367757209399,0.30827988282093455 l -4.793020308393737 -6.140836520254799" fill="#ff5a08" stroke="none" /><path d="M 112.04921762599082 117.19931262002967 l 4.5231670664122765 6.456466039756673 a28.883209627633143,28.883209627633143 0 0,0 -0.40965072083736126,0.28176150118663995 l -4.411359460952032 -6.533368330308408" fill="#ff5b08" stroke="none" /><line stroke="#e1ed5e" stroke-width="0.3" x1="143.8653032363475" x2="146.44561519142675" y1="172.8068346515853" y2="177.08958963109032" /><path d="M 144.38136562736335 173.6633856474863 a86.0,86.0 0 0,1 -40.68145358897372,12.25698825130547" fill="none" id="id54" stroke="none" /><text fill="#e1ed5e" style="font-size:6.75px; font-family:Arial;" text-anchor="middle"><textPath startOffset="21.466115282336833" xlink:href="#id54">June</textPath></text><path d="M 109.2508944713604 118.85261126421891 l 4.411833378062334 8.990977023531395 a31.015085700754355,31.015085700754355 0 0,0 -0.4813058824172842,0.23105607247060309 l -4.256414827644817 -9.065587372501557" fill="#ff790b" stroke="none" /><path d="M 107.93186726928326 119.44442032107085 l 5.774058810252479 14.154703130234887 a36.28709834629632,36.28709834629632 0 0,0 -0.5803843593389039,0.2309469143490391 l -5.529553374871709 -14.251996888989996" fill="#ffbf11" stroke="none" /><path d="M 105.53697534728816 120.25689768951611 l 2.4355419552400868 8.91037454771873 a30.23724196913605,30.23724196913605 0 0,0 -0.5032478595825879,0.1329123336643805 l -2.2818036528460017 -8.950978230686694" fill="#ff6e0a" stroke="none" /><path d="M 105.18746579009965 120.34920634021253 l 2.315211800940982 9.082030526072739 a30.372485484637117,30.372485484637117 0 0,0 -0.5077219649317314,0.1247857061661848 l -2.1585365512660397 -9.120537490552953" fill="#ff700a" stroke="none" /><path d="M 103.7750983002368 120.6578951692458 l 4.551266792493013 24.905203734878224 a46.31764606933753,46.31764606933753 0 0,0 -0.7855274898375297,0.13657402305591954 l -4.121890331183433 -24.97985633645515" fill="#c5ff1e" stroke="none" /><path d="M 101.62511606390274 120.93702456842531 l 0.6028874638805395 7.767241936522994 a28.79060463600777,28.79060463600777 0 0,0 -0.49442686530643676,0.034098571413077546 l -0.4690978377951724 -7.776468852452357" fill="#ff5a08" stroke="none" /><line stroke="#e1ed5e" stroke-width="0.3" x1="102.19456741930631" x2="102.32365962044197" y1="184.97166512339345" y2="189.96999836594603" /><path d="M 102.22038585953345 185.97133177190398 a86.0,86.0 0 0,1 -42.740103519485714,-10.115201625700543" fill="none" id="id55" stroke="none" /><text fill="#e1ed5e" style="font-size:6.75px; font-family:Arial;" text-anchor="middle"><textPath startOffset="22.20632615414155" xlink:href="#id55">July</textPath></text><path d="M 100.54218724476979 120.99299961872073 l 0.1938376228277807 7.505217397441865 a28.50772010712224,28.50772010712224 0 0,0 -0.49065900933196605,0.008447139813615483 l -0.0646189236031467 -7.50744201453464" fill="#ff5608" stroke="none" /><path d="M 100.18074693466247 120.99922214144158 l 0.13757023288022274 15.982942591510543 a36.98353463575865,36.98353463575865 0 0,0 -0.6366343350853454,0.0 l 0.13757023288021175 -15.982942591510543" fill="#ffc812" stroke="none" /><path d="M 99.81925306533755 120.99922214144158 l -0.0176678195770677 2.0526515082904795 a23.052727543132743,23.052727543132743 0 0,0 -0.3967707139052254,-0.006830767662594543 l 0.05299822337496106 -2.0520432633487253" fill="#ff0801" stroke="none" /><path d="M 98.73552117531835 120.96189622390904 l -0.4716052065907424 7.818034755701984 a28.832246096251552,28.832246096251552 0 0,0 -0.49514198250926816,-0.03414789008226908 l 0.6061099498789406 -7.80875852110343" fill="#ff5b08" stroke="none" /><path d="M 97.65516085044442 120.86867818915974 l -1.103789474911664 9.823542627595105 a30.885359930781675,30.885359930781675 0 0,0 -0.5278051765878563,-0.06390985647235342 l 1.2727220745509096 -9.803087242397401" fill="#ff770b" stroke="none" /><path d="M 96.58105272829116 120.7198165907248 l -1.7269970259940148 10.466105145119194 a31.607632895065827,31.607632895065827 0 0,0 -0.5360519507100744,-0.09319950278327051 l 1.9068979481761392 -10.434827063814916" fill="#ff810b" stroke="none" /><path d="M 96.22490169976321 120.6578951692458 l -1.7748700949838014 9.712351161532634 a30.87319243907421,30.87319243907421 0 0,0 -0.5219515789253155,-0.10003326235626189 l 1.9417892884808121 -9.680360700827904" fill="#ff770a" stroke="none" /><path d="M 95.51606077576429 120.51570834832081 l -1.9939750741810036 9.123185893022793 a30.338546858858997,30.338546858858997 0 0,0 -0.5092250697356312,-0.11589796797733716 l 2.1507202933094973 -9.087511191467769" fill="#ff6f0a" stroke="none" /><path d="M 94.46302465271185 120.25689768951611 l -2.835128218895935 10.372251755638207 a31.752746556109276,31.752746556109276 0 0,0 -0.5259900406639989,-0.148650039464153 l 3.013249427664548 -10.321912922835534" fill="#ff830c" stroke="none" /><path d="M 93.42475214034765 119.94407469862007 l -3.364452727448157 10.205074842570244 a31.745375502870687,31.745375502870687 0 0,0 -0.5174953749478939,-0.17556252812861414 l 3.5396178353332766 -10.145649327543508" fill="#ff830c" stroke="none" /><path d="M 92.7421414339146 119.70592522655815 l -2.725180392815564 7.399179876643794 a28.885079011672417,28.885079011672417 0 0,0 -0.4650907328351704,-0.17585751892621335 l 2.8521413464110172 -7.351174107610947" fill="#ff5b08" stroke="none" /><path d="M 92.06813273071674 119.44442032107085 l -2.9653592666526216 7.269371766603736 a28.85093124803791,28.85093124803791 0 0,0 -0.45821947577605443,-0.19153577803709126 l 3.090050201926138 -7.217250945546671" fill="#ff5b08" stroke="none" /><path d="M 91.7346041902142 119.30500536409082 l -0.7493071160136738 1.7501131496774962 a22.90377445901105,22.90377445901105 0 0,0 -0.3610936283657423,-0.158292835111985 l 0.7793214190371596 -1.7369557612710589" fill="#ff0601" stroke="none" /><path d="M 91.40352486487194 119.15986991738527 l -6.340971059010551 14.132790327524999 a36.490115442210026,36.490115442210026 0 0,0 -0.5708652743289284,-0.2620562482708346 l 6.583304329106898 -14.02154700892009" fill="#ffc112" stroke="none" /><path d="M 91.07499286063937 119.00905698771935 l -3.3238652728966165 7.079383064394885 a28.820853209516798,28.820853209516798 0 0,0 -0.44725480754314717,-0.21470948725060787 l 3.4452327484400054 -7.021119300644715" fill="#ff5b08" stroke="none" /><path d="M 90.7491055286396 118.85261126421891 l -3.4543935067242417 7.0397882212937235 a28.84164859579696,28.84164859579696 0 0,0 -0.4438126685580374,-0.22253688541486558 l 3.57506008296504 -6.979283494969556" fill="#ff5b08" stroke="none" /><path d="M 90.42595943632237 118.69057910512821 l -3.575514333564428 6.980170289495331 a28.842644963268324,28.842644963268324 0 0,0 -0.43993150366348543,-0.2301513702698148 l 3.695136739754409 -6.917589500280799" fill="#ff5b08" stroke="none" /><path d="M 90.10565033884886 118.52300852407294 l -3.70138315297019 6.929283282005038 a28.855902497317928,28.855902497317928 0 0,0 -0.43610500931387797,-0.23779922281283744 l 3.8201109741527084 -6.864543407432434" fill="#ff5b08" stroke="none" /><line stroke="#e1ed5e" stroke-width="0.3" x1="58.666819895761336" x2="56.23545636021788" y1="174.27360380694188" y2="178.64263932499728" /><path d="M 58.180547188652646 175.14741091055294 a86.0,86.0 0 0,1 -31.652253787137756,-30.449443065178592" fill="none" id="id56" stroke="none" /><text fill="#e1ed5e" style="font-size:6.75px; font-family:Arial;" text-anchor="middle"><textPath startOffset="22.20632615414155" xlink:href="#id56">August</textPath></text><path d="M 89.7882731507175 118.34994917583269 l -3.672088720931149 6.598555013540102 a28.55150076747033,28.55150076747033 0 0,0 -0.4273904510716379,-0.24268345232407412 l 3.7851279389239942 -6.534368395421395" fill="#ff5708" stroke="none" /><path d="M 89.4739219176387 118.17145234162733 l -3.878221274147914 6.6950779295050635 a28.737226165325612,28.737226165325612 0 0,0 -0.4259022895320559,-0.25163057979035675 l 3.992891434708352 -6.627328777420957" fill="#ff5908" stroke="none" /><path d="M 88.8546689885994 117.79835938074946 l -4.238752514897359 6.769008521059449 a28.986645055386155,28.986645055386155 0 0,0 -0.4206075355229869,-0.2684516295275442 l 4.35464185246727 -6.695042462708101" fill="#ff5d08" stroke="none" /><path d="M 88.54995079064634 117.60387380957326 l -4.468162126568214 6.86957416502329 a29.194847283388143,29.194847283388143 0 0,0 -0.4189117215670352,-0.27763184649663614 l 4.585748546875211 -6.791644297435336" fill="#ff6008" stroke="none" /><path d="M 88.24862548938628 117.40417183066458 l -4.758259926522894 7.0471393198619925 a29.503129431091743,29.503129431091743 0 0,0 -0.4184430468157362,-0.2878089431672718 l 4.878859857961521 -6.96418958732962" fill="#ff6409" stroke="none" /><path d="M 87.95078237400918 117.19931262002967 l -4.818206768217538 6.877612061364178 a29.397420087617345,29.397420087617345 0 0,0 -0.4119455887396174,-0.2939122397319655 l 4.935879684806042 -6.793655559787993" fill="#ff6309" stroke="none" /><path d="M 87.65650970185807 116.9893568818739 l -6.131137038088051 8.438786171155577 a31.430913355133466,31.430913355133466 0 0,0 -0.43496646735588834,-0.32177779397029027 l 6.275488475862503 -8.33199842844552" fill="#ff7e0b" stroke="none" /><path d="M 87.36589467227662 116.77436683061367 l -5.320213570082734 7.063675007200363 a29.84308639778214,29.84308639778214 0 0,0 -0.4076725781243092,-0.31258594885518654 l 5.44101487670053 -6.97104971651781" fill="#ff6909" stroke="none" /><path d="M 87.07902340077011 116.55440617244103 l -6.5818874395103775 8.432740142988642 a31.697305669445768,31.697305669445768 0 0,0 -0.42722308908496337,-0.33941186011767865 l 6.726068021312699 -8.318194368865832" fill="#ff820c" stroke="none" /><path d="M 86.79598089348748 116.32954008644616 l -5.733047530627937 7.090116177029427 a30.11798121253896,30.11798121253896 0 0,0 -0.40032515354045134,-0.32944034736609173 l 5.8542428127130774 -6.9903807108061535" fill="#ff6c0a" stroke="none" /><path d="M 86.51685102203217 116.09983520530335 l -6.475220503566787 7.731872072004579 a31.085153757263996,31.085153757263996 0 0,0 -0.4072666173587499,-0.3470814467737041 l 6.607352597502593 -7.619266235007924" fill="#ff7a0b" stroke="none" /><path d="M 86.24171649860922 115.8653595955263 l -7.5781654718394424 8.738758746538423 a32.56695709116193,32.56695709116193 0 0,0 -0.42035822676773676,-0.37091726090956145 l 7.727466051513766 -8.607018343856572" fill="#ff8e0d" stroke="none" /><path d="M 85.97065885151581 115.62618273729859 l -6.617058239708646 7.370222175273458 a30.90482885569401,30.90482885569401 0 0,0 -0.39278632120164203,-0.3588009915439101 l 6.742944110377143 -7.255228417142972" fill="#ff770b" stroke="none" /><path d="M 85.70375840098266 115.38237550388516 l -6.4324731787263 6.921169957049336 a30.44877265941961,30.44877265941961 0 0,0 -0.38084768878143604,-0.36011526105701536 l 6.5506567018985535 -6.809420059246389" fill="#ff710a" stroke="none" /><path d="M 85.44109423537348 115.13401014063109 l -7.270309043140738 7.5575000321623715 a31.48681077920777,31.48681077920777 0 0,0 -0.3873628125877468,-0.37911604118186704 l 7.39932180810428 -7.4312338880579345" fill="#ff7f0b" stroke="none" /><path d="M 85.18274418774928 114.88116024355367 l -8.57750032524966 8.614493698869667 a33.15660369994528,33.15660369994528 0 0,0 -0.4009728738533094,-0.4061834042441328 l 8.724513824158503 -8.46556980064487" fill="#ff960d" stroke="none" /><path d="M 84.9287848128048 114.62390073753433 l -6.121587312275658 5.939898282849017 a29.529725835711663,29.529725835711663 0 0,0 -0.3508320540755047,-0.3678460060900978 l 6.2229259177301195 -5.833645160176419" fill="#ff6409" stroke="none" /><path d="M 84.67929136418377 114.36230785411682 l -8.5758740615122 8.03940250528832 a32.754897216094825,32.754897216094825 0 0,0 -0.3820680823244345,-0.41465944400046456 l 8.712988551832364 -7.890591806486511" fill="#ff900d" stroke="none" /><path d="M 84.43433777217949 114.09645910891817 l -5.938838299833486 5.378286514431309 a29.01222604417042,29.01222604417042 0 0,0 -0.33203960865325516,-0.3730500202496591 l 6.030536758135079 -5.275262324440786" fill="#ff5d08" stroke="none" /><path d="M 84.19399662182784 113.82643327865904 l -1.5421494128897384 1.349008060601144 a23.048913751050303,23.048913751050303 0 0,0 -0.25864996055676587,-0.3008683380292192 l 1.565141883017283 -1.3222626234103947" fill="#ff0801" stroke="none" /><path d="M 83.95833913139862 113.55231037782056 l -5.9496156456753795 5.026352228699119 a28.788590569429996,28.788590569429996 0 0,0 -0.3165428914242191,-0.38129630430704237 l 6.035254536993135 -4.923194667278316" fill="#ff5a08" stroke="none" /><path d="M 83.72743513129214 113.27417163493432 l -6.485149233480256 5.290191478598507 a29.369186726363907,29.369186726363907 0 0,0 -0.3161831931593817,-0.3944871488547661 l 6.5752503386945 -5.177776496165481" fill="#ff6209" stroke="none" /><path d="M 83.50135304334701 112.99209946851258 l -6.673100179698398 5.254829776391479 a29.493733100771493,29.493733100771493 0 0,0 -0.310657747460974,-0.4015670156790924 l 6.762564744377441 -5.139184766599134" fill="#ff6409" stroke="none" /><path d="M 83.28015986056508 112.70617746262583 l -6.960206705263205 5.289382005815127 a29.74196999442527,29.74196999442527 0 0,0 -0.3062555198851099,-0.4102793164478866 l 7.0502234918434 -5.168789809857932" fill="#ff6709" stroke="none" /><path d="M 83.06392112726016 112.41649034213515 l -14.454540231368298 10.597178988795877 a38.92300019028124,38.92300019028124 0 0,0 -0.3914916276931178,-0.5437476300403558 l 14.634811651437023 -10.346797753304383" fill="#ffe015" stroke="none" /><line stroke="#e1ed5e" stroke-width="0.3" x1="26.63291911575756" x2="22.317208475507996" y1="142.92168965132927" y2="145.44649492493687" /><path d="M 25.769776987707644 143.4266507060508 a86.0,86.0 0 0,1 -11.730757126820373,-40.83630448921669" fill="none" id="id57" stroke="none" /><text fill="#e1ed5e" style="font-size:6.75px; font-family:Arial;" text-anchor="middle"><textPath startOffset="21.46611528233685" xlink:href="#id57">September</textPath></text><path d="M 81.87401531095188 110.60418214915194 l -6.517706153700392 3.8130310950911963 a28.551138962972164,28.551138962972164 0 0,0 -0.2445173976222205,-0.426336693187129 l 6.5823755474749905 -3.70027455604576" fill="#ff5708" stroke="none" /><path d="M 81.51974371655577 109.97397251340807 l -10.30039434726562 5.559222151530891 a32.704831252062256,32.704831252062256 0 0,0 -0.26311424804591793,-0.4977130001095764 l 10.394561103536423 -5.3810941363351885" fill="#ff900d" stroke="none" /><path d="M 81.35079622478065 109.6543875284942 l -6.984260636905909 3.6156374074423043 a28.864650691946174,28.864650691946174 0 0,0 -0.22462379105869526,-0.4432040498233916 l 7.045463097750871 -3.494879145916228" fill="#ff5b08" stroke="none" /><path d="M 81.18737489456691 109.33194174019688 l -7.300506806390225 3.621392751374662 a29.14934875249912,29.14934875249912 0 0,0 -0.21910141773256145,-0.4514138162253458 l 7.361761480737505 -3.495189979184032" fill="#ff5f08" stroke="none" /><path d="M 81.02952815118164 109.00673069616217 l -7.015007035988817 3.330559182099076 a28.765497291251673,28.765497291251673 0 0,0 -0.20851613556922446,-0.44912520554984187 l 7.071297788397868 -3.209313909270407" fill="#ff5a08" stroke="none" /><path d="M 80.45479744820244 107.68017299344265 l -14.382369732461145 5.651468042258596 a36.452884848916874,36.452884848916874 0 0,0 -0.2244555493468597,-0.58598261171138 l 14.477519561401513 -5.403061863714059" fill="#ffc111" stroke="none" /><path d="M 79.86692584326677 105.97154293290107 l -11.175128843947984 3.3145838113360706 a32.65632748858788,32.65632748858788 0 0,0 -0.15520675883903767,-0.5402950887325538 l 11.230528239673127 -3.121731247098921" fill="#ff8f0d" stroke="none" /><path d="M 79.76711848015287 105.62410040840567 l -11.839317946301541 3.2909555088197946 a33.28819911926272,33.28819911926272 0 0,0 -0.1487061902140986,-0.5533910538472693 l 11.894212212857415 -3.0866735217969863" fill="#ff970e" stroke="none" /><path d="M 79.4281124754447 104.21870165774334 l -11.019409127486075 2.2597634513599423 a32.24872918933626,32.24872918933626 0 0,0 -0.10683553576912883,-0.5447520952104761 l 11.056674596230868 -2.0697476290815113" fill="#ff890c" stroke="none" /><path d="M 79.35854240842038 103.8639653848113 l -1.7913264869415118 0.3353262969792016 a22.82244185319148,22.82244185319148 0 0,0 -0.06896024429009516,-0.38676567228725595 l 1.7968331735707956 -0.304441873958732" fill="#ff0500" stroke="none" /><path d="M 79.23777060512086 103.15116336523772 l -1.8218537947862612 0.276509753637813 a22.84271780081323,22.84271780081323 0 0,0 -0.05565568255422073,-0.38925571415690097 l 1.826343528357081 -0.24510856750051144" fill="#ff0500" stroke="none" /><path d="M 79.18660465613746 102.79330883721812 l -17.07964028150014 2.292211787006166 a38.232769569106765,38.232769569106765 0 0,0 -0.0819246156153732,-0.653019792802821 l 17.11656640636236 -1.9978742399159364" fill="#ffd814" stroke="none" /><path d="M 79.10278846688536 102.07522291339032 l -1.8753820093685636 0.1862370829253672 a22.884606572237246,22.884606572237246 0 0,0 -0.03555331087902549,-0.39232782294043855 l 1.8783099165246644 -0.15392787143636247" fill="#ff0600" stroke="none" /><path d="M 79.0095281055655 100.63252640178507 l -22.071046502334205 0.6650884123979166 a43.081065108017434,43.081065108017434 0 0,0 -0.015956277327298672,-0.741425508411716 l 22.079224842346513 -0.2850730881960718" fill="#ebff1a" stroke="none" /><line stroke="#e1ed5e" stroke-width="0.3" x1="15.007084014347285" x2="10.007500721073583" y1="101.09737516637583" y2="101.16192664675087" /><path d="M 14.007167355692545 101.11028546245083 a86.0,86.0 0 0,1 10.666146001902534,-42.60595125391555" fill="none" id="id58" stroke="none" /><text fill="#e1ed5e" style="font-size:6.75px; font-family:Arial;" text-anchor="middle"><textPath startOffset="22.20632615414155" xlink:href="#id58">October</textPath></text><path d="M 79.08570108090925 98.10471618934814 l -16.772043471767248 -1.51990667182123 a37.84077072196807,37.84077072196807 0 0,0 0.06437052840897459,-0.6482024364616807 l 16.743395817676042 1.808384638987341" fill="#ffd313" stroke="none" /><path d="M 79.3925641242962 95.95851677861259 l -14.949039946551904 -2.9317715451960025 a36.23381369575017,36.23381369575017 0 0,0 0.1253011934414424,-0.6110131190335738 l 14.896359457195468 3.188660320392979" fill="#ffbe11" stroke="none" /><path d="M 79.62865764111835 94.90015583598534 l -15.120174562016619 -3.785245598474959 a36.58678167636374,36.58678167636374 0 0,0 0.15820066577495492,-0.6096116993439527 l 15.052777564371356 4.044953723367776" fill="#ffc312" stroke="none" /><path d="M 79.91906864156998 93.8553929516997 l -14.592941557030205 -4.465325335078119 a36.26083463100854,36.26083463100854 0 0,0 0.1877698533385802,-0.5952817478228334 l 14.51391621992342 4.7158572493273665" fill="#ffbe11" stroke="none" /><path d="M 80.2630227832202 92.82701384747504 l -14.395883783473147 -5.231878919352533 a36.317115490001065,36.317115490001065 0 0,0 0.218586512228219,-0.5857031783950797 l 14.303692682743302 5.478905234776954" fill="#ffbf11" stroke="none" /><path d="M 80.38941819471856 92.48833698450439 l -14.303158213244478 -5.478700510878036 a36.316543153107304,36.316543153107304 0 0,0 0.22863244051622347,-0.5818446229813763 l 14.206732222846565 5.724094138755176" fill="#ffbf11" stroke="none" /><path d="M 80.803312248108 91.48605970444005 l -14.466032560432511 -6.415843145701514 a36.82495312188124,36.82495312188124 0 0,0 0.26197917496867845,-0.577236385387894 l 14.35345106850048 6.663901539931478" fill="#ffc612" stroke="none" /><path d="M 81.26839172434947 90.50648371742162 l -27.30505782567554 -13.8386948547157 a51.611691527019865,51.611691527019865 0 0,0 0.4084464890686082,-0.788988610974214 l 27.062801903446815 14.306656187950248" fill="#89ff24" stroke="none" /><path d="M 81.43458229118936 90.18545643968196 l -27.42797860250498 -14.499705580984836 a52.024755795247025,52.024755795247025 0 0,0 0.4253442481038469,-0.7880982931405821 l 27.17432625518266 14.969684857457892" fill="#85ff25" stroke="none" /><line stroke="#e1ed5e" stroke-width="0.3" x1="26.266209847984243" x2="21.928928074336255" y1="57.711370442889674" y2="55.22380399835377" /><path d="M 25.398753493254645 57.213857153982495 a86.0,86.0 0 0,1 29.58750427330803,-30.492523968695096" fill="none" id="id59" stroke="none" /><text fill="#e1ed5e" style="font-size:6.75px; font-family:Arial;" text-anchor="middle"><textPath startOffset="21.46611528233685" xlink:href="#id59">November</textPath></text><path d="M 81.96595687620814 89.24020034530311 l -28.346415530177207 -16.91255532327713 a54.00838985731326,54.00838985731326 0 0,0 0.48320586734228954,-0.7942633954825956 l 28.0510938645487 17.397986491966797" fill="#6fff27" stroke="none" /><path d="M 82.54541684631803 88.32363383020206 l -28.080976923342998 -18.784967024172854 a54.7848523908065,54.7848523908065 0 0,0 0.5310883618436962,-0.7793066381438193 l 27.753464095830562 19.26555168558709" fill="#67ff28" stroke="none" /><path d="M 82.7489923806493 88.02491185347247 l -24.914488217259404 -17.294827010141457 a51.328909713978774,51.328909713978774 0 0,0 0.510080747453976,-0.7214730435442329 l 24.61309485000155 17.721126554017477" fill="#8cff24" stroke="none" /><path d="M 82.95767976084542 87.72973835380427 l -24.553517855305135 -17.67823184820509 a51.255497357499856,51.255497357499856 0 0,0 0.5216769571193518,-0.7115667832384458 l 24.24557828567215 18.098261075115037" fill="#8dff24" stroke="none" /><path d="M 83.17141714833178 87.43820079747576 l -25.020114041819266 -18.67641805539403 a52.22202264500956,52.22202264500956 0 0,0 0.5439148953630958,-0.7157282453104539 l 24.694923206232062 19.104331076585513" fill="#82ff25" stroke="none" /><path d="M 83.39014120810768 87.1503855733568 l -24.96719389053938 -19.314963409879944 a52.56625702063499,52.56625702063499 0 0,0 0.5598204229101684,-0.7109150864418735 l 24.63101938703524 19.741870890274868" fill="#7fff26" stroke="none" /><path d="M 83.6137871275137 86.86637796730984 l -24.033535250272976 -19.26298471420549 a51.800542149868534,51.800542149868534 0 0,0 0.5636429520240641,-0.6909596132886648 l 23.698393806172522 19.67382849710224" fill="#87ff25" stroke="none" /><path d="M 83.84228863543731 86.58626213691792 l -26.660317978366884 -22.132745698908366 a55.65012246558703,55.65012246558703 0 0,0 0.6182182347315812,-0.7317753938531208 l 26.275389130148177 22.588380042390604" fill="#5eff2a" stroke="none" /><path d="M 84.07557802195018 86.31012108654704 l -27.576668577319833 -23.70706165538103 a57.36615764904751,57.36615764904751 0 0,0 0.6501720131309254,-0.7432590046054939 l 27.164504700611065 24.178236216189468" fill="#4dff2c" stroke="none" /><path d="M 88.09926311788651 82.69761687909137 l -20.083522010609826 -29.19926687624238 a56.43931492651452,56.43931492651452 0 0,0 0.8051882763283178,-0.5436667184599052 l 19.57792903987497 29.54064550700095" fill="#56ff2a" stroke="none" /><path d="M 88.39885842347998 82.49532879139004 l -16.700099110796927 -25.19836019218631 a51.22996306126754,51.22996306126754 0 0,0 0.7392556226389051,-0.4808324206972911 l 16.263876462373734 25.482091537043136" fill="#8dff24" stroke="none" /><path d="M 88.70189139769569 82.29822771554957 l -16.598536749332062 -26.006434185969074 a51.85200222494592,51.85200222494592 0 0,0 0.7564981139464434,-0.4737190495519946 l 16.148419483013377 26.288297576844" fill="#86ff25" stroke="none" /><path d="M 89.00827224532344 82.1063720568725 l -16.021936060284894 -26.082392976785663 a51.61035214621575,51.61035214621575 0 0,0 0.7609772762063696,-0.45848029428148457 l 15.570596717860875 26.354319880525765" fill="#89ff24" stroke="none" /><line stroke="#e1ed5e" stroke-width="0.3" x1="56.762969772571076" x2="54.21961505331055" y1="26.818313649435495" y2="22.513508569990535" /><path d="M 56.25429882871897 25.957352633546506 a86.0,86.0 0 0,1 42.265352541879196,-11.944610805530505" fill="none" id="id60" stroke="none" /><text fill="#e1ed5e" style="font-size:6.75px; font-family:Arial;" text-anchor="middle"><textPath startOffset="22.20632615414155" xlink:href="#id60">December</textPath></text><path d="M 89.3179101791058 81.91981866633112 l -16.161158942459885 -27.353887595139042 a52.771342825429215,52.771342825429215 0 0,0 0.786049927047002,-0.4553308537577302 l 15.687912282947561 27.62802260628682" fill="#7cff26" stroke="none" /><path d="M 89.63071344664047 81.73862282372117 l -18.535908505263457 -32.64363606674016 a58.53913797323104,58.53913797323104 0 0,0 0.8805287396300744,-0.490013290275901 l 17.971255676561334 32.95786475457624" fill="#41ff2d" stroke="none" /><path d="M 89.94658935756843 81.56283822128135 l -15.00745258892264 -27.52248377287947 a52.34821759266664,52.34821759266664 0 0,0 0.7948327849921843,-0.4245721469403098 l 14.53147475740215 27.776734646321525" fill="#81ff25" stroke="none" /><path d="M 90.26544431104013 81.39251694778311 l -14.561470963312862 -27.83407202369638 a52.412927307650286,52.412927307650286 0 0,0 0.8030147464766177,-0.4113353424072895 l 14.080195729247482 28.080599891416174" fill="#80ff25" stroke="none" /><path d="M 92.23578459929587 80.48803036053334 l -12.071771480209886 -30.337133433350306 a53.650717168590795,53.650717168590795 0 0,0 0.8610092807455235,-0.33405822434750954 l 11.547779034464687 30.540434361588368" fill="#73ff27" stroke="none" /><path d="M 92.57280143429618 80.3572730644239 l -10.745144027157973 -28.41770394877007 a51.38131033850105,51.38131033850105 0 0,0 0.8299737424659124,-0.30568633378674026 l 10.254387958919493 28.598453550363136" fill="#8cff24" stroke="none" /><path d="M 94.63758080256005 79.69619591428918 l -12.9430477825955 -49.00644592934321 a71.68682499948275,71.68682499948275 0 0,0 1.195774171224418,-0.3048294612676593 l 12.097564722686082 49.22197838677973" fill="#3effb2" stroke="none" /><path d="M 94.98787191387505 79.60689891045804 l -8.261940203817865 -33.61577734588013 a55.61618324569088,55.61618324569088 0 0,0 0.9316407565421535,-0.22048926696791274 l 7.682075760313177 33.75301252498891" fill="#5fff29" stroke="none" /><path d="M 95.33964822691252 79.52364482259891 l -6.750701012798315 -29.66079780345043 a51.419317719195575,51.419317719195575 0 0,0 0.8647193415045571,-0.18899415547818318 l 6.239138947140236 29.77260545702448" fill="#8bff24" stroke="none" /><path d="M 95.692805502759 79.44645832069477 l -6.758996092493232 -32.25331662786706 a53.95391420872161,53.95391420872161 0 0,0 0.9106228350618708,-0.18266237401855617 l 6.202806847964225 32.36488295796283" fill="#70ff27" stroke="none" /><path d="M 96.04723909329186 79.375362276772 l -5.925833609006836 -30.919697466770906 a52.48242677110953,52.48242677110953 0 0,0 0.8887146198174607,-0.16240691625075185 l 5.392723868086482 31.017119864372393" fill="#80ff26" stroke="none" /><path d="M 96.40284397218896 79.31037775812273 l -5.461631891888128 -31.413455461401785 a52.88470804238237,52.88470804238237 0 0,0 0.8982109905042751,-0.14821250960195073 l 4.920091695244968 31.50281423394336" fill="#7bff26" stroke="none" /><path d="M 96.75951476605007 79.25152402106235 l -5.637256213054794 -36.09474096603522 a57.53230054372166,57.53230054372166 0 0,0 0.9797778715112657,-0.14439378940776268 l 5.015109361114879 36.18642923960395" fill="#4bff2c" stroke="none" /><path d="M 97.11714578562143 79.19881850522333 l -8.648562643135705 -62.403544484330034 a84.0,84.0 0 0,0 1.433941085968569,-0.1861667073434532 l 7.573106828659279 62.54316951483762" fill="#4dd2ff" stroke="none" /></svg>