<?xml version="1.0" encoding="utf-8" ?>
<svg baseProfile="full" height="200mm" version="1.1" viewBox="0,0,200,200" width="200mm" xmlns="http://www.w3.org/2000/svg" xmlns:ev="http://www.w3.org/2001/xml-events" xmlns:xlink="http://www.w3.org/1999/xlink"><defs /><rect fill="#1a1a1a" height="200" width="200" x="0" y="0" /><text alignment-baseline="middle" fill="#e1ed5e" style="dominant-baseline: central; font-size:9.0px; font-family:Arial;" text-anchor="middle" x="100.0" y="100.0">2023</text><line stroke="#e1ed5e" stroke-width="0.3" x1="100.0" x2="100.0" y1="15.0" y2="10.0" /><path d="M 100.0 14.0 a86.0,86.0 0 0,1 42.46469731375804,11.215312516191453" fill="none" id="id49" stroke="none" /><text fill="#e1ed5e" style="font-size:6.75px; font-family:Arial;" text-anchor="middle"><textPath startOffset="22.20632615414155" xlink:href="#id49">January</textPath></text><path d="M 100.0 79.0 l 0.0 -59.79946708047055 a80.79946708047055,80.79946708047055 0 0,0 1.3908300040577797,0.011971312945628497 l -1.0293495247852513 59.79060714413348" fill="#49f1ff" stroke="none" /><path d="M 108.76106565485865 80.91482961587045 l 6.551357995283153 -14.271526833960896 a36.70339994252284,36.70339994252284 0 0,0 0.571912008598979,0.26852035654001966 l -6.79604821518173 14.156641494780875" fill="#ffb510" stroke="none" /><line stroke="#e1ed5e" stroke-width="0.3" x1="143.23703022742887" x2="145.7803849466894" y1="26.81831364943548" y2="22.513508569990506" /><path d="M 143.74570117128098 25.957352633546492 a86.0,86.0 0 0,1 28.547481713284135,27.462654790039103" fill="none" id="id50" stroke="none" /><text fill="#e1ed5e" style="font-size:6.75px; font-family:Arial;" text-anchor="middle"><textPath startOffset="19.985693538727396" xlink:href="#id50">February</textPath></text><path d="M 111.60114157652 82.49532879139004 l 3.414866602607642 -5.15260646597856 a27.181477760766363,27.181477760766363 0 0,0 0.3877830064865993,0.26183281700579303 l -3.503054303500783 5.093061736674097" fill="#ff3004" stroke="none" /><path d="M 112.48926042617603 83.11751280151076 l 11.887011455490464 -16.0683909116833 a40.98735169635107,40.98735169635107 0 0,0 0.5635835928371066,0.42447947781170114 l -12.161841202085954 15.861394844365751" fill="#ffed16" stroke="none" /><path d="M 113.89432698308785 84.25364557470407 l 10.857903073800445 -12.305194078394685 a37.41072394707207,37.41072394707207 0 0,0 0.4791939851353315,0.4302250912321946 l -11.068108046531766 12.116469978393193" fill="#ffbe11" stroke="none" /><path d="M 115.68641384162765 86.03803664274999 l 9.993641214030927 -8.895012833686996 a34.37886833877342,34.37886833877342 0 0,0 0.38964049455304667,0.445426441444155 l -10.145273572161821 8.721670836039893" fill="#ff960d" stroke="none" /><path d="M 117.2510076193507 88.02491185347247 l 8.401185461566639 -5.831829575261222 a31.226932744206845,31.226932744206845 0 0,0 0.3027161675680207,0.4441986226929305 l -8.500326094803393 5.686352929297885" fill="#ff6a09" stroke="none" /><line stroke="#e1ed5e" stroke-width="0.3" x1="172.23445277983987" x2="176.4835382374775" y1="55.19839476539836" y2="52.563006222186495" /><path d="M 173.08426987136738 54.67131705675599 a86.0,86.0 0 0,1 12.851231095245387,41.99856678651699" fill="none" id="id51" stroke="none" /><text fill="#e1ed5e" style="font-size:6.75px; font-family:Arial;" text-anchor="middle"><textPath startOffset="22.20632615414155" xlink:href="#id51">March</textPath></text><path d="M 118.89224826269711 90.83032412892265 l 2.7217202392613387 -1.3210334767332013 a24.025374440867544,24.025374440867544 0 0,0 0.17737797366381958,0.3736032495591052 l -2.7440564067669144 1.2739878115335557" fill="#ff0100" stroke="none" /><path d="M 119.04729006885535 91.15688171328212 l 3.93419991166169 -1.8265377939146439 a25.337530317763488,25.337530317763488 0 0,0 0.18025563444499124,0.3971693967097484 l -3.965057863070028 1.7585463883628327" fill="#ff1402" stroke="none" /><path d="M 119.196687751892 91.48605970444005 l 3.7565315713855836 -1.666062704698139 a25.109415333451064,25.109415333451064 0 0,0 0.17183125018264572,0.39661021643028527 l -3.78465353141091 1.601153343681251" fill="#ff1101" stroke="none" /><path d="M 119.34039704204932 91.81776055985345 l 4.046693198110704 -1.7120130789334453 a25.393940671205588,25.393940671205588 0 0,0 0.16684824272023482,0.4040362540309478 l -4.075563127717136 1.6421022544491943" fill="#ff1502" stroke="none" /><path d="M 119.47837535516314 92.15188598940014 l 13.946369100035609 -5.619190139591066 a36.0358408111853,36.0358408111853 0 0,0 0.22686526622261682,0.5773473571590666 l -14.041027916139926 5.378293777536215" fill="#ffac0f" stroke="none" /><path d="M 120.08093135843002 93.85539295169968 l 14.774470613367882 -4.520871798493308 a36.450671950555524,36.450671950555524 0 0,0 0.1784244820396663,0.6015586538764328 l -14.85010099251925 4.265883757870345" fill="#ffb210" stroke="none" /><path d="M 120.37134235888165 94.90015583598534 l 29.415354299096443 -7.363958658780581 a51.323109267843904,51.323109267843904 0 0,0 0.2071674406925292,0.8588427882799216 l -29.53775454004979 6.856530638841254" fill="#95ff23" stroke="none" /><path d="M 120.53481517161879 95.60439243477599 l 15.693536430639075 -3.3593011129205035 a37.049049494193255,37.049049494193255 0 0,0 0.12812038380706867,0.6247604924714508 l -15.749036110361141 3.0886649642856407" fill="#ffba11" stroke="none" /><path d="M 120.78858239683441 97.02765380044208 l 32.23017865051156 -4.608262708548538 a53.5579560328177,53.5579560328177 0 0,0 0.12263241944487495,0.9137539658602732 l -32.30472706901428 4.0527904006236" fill="#7cff26" stroke="none" /><path d="M 120.91429891909075 98.10471618934814 l 4.400351094043379 -0.3987661370810708 a25.41838253017225,25.41838253017225 0 0,0 0.035737660222708224,0.43608997489096396 l -4.406563238085582 0.32296224498233805" fill="#ff1602" stroke="none" /><path d="M 120.94382443527127 98.46500227214037 l 4.422109394900864 -0.32410164124982294 a25.43397038491816,25.43397038491816 0 0,0 0.02824310275178524,0.4369082988769508 l -4.427033088657065 0.24793427811983687" fill="#ff1602" stroke="none" /><path d="M 120.98425023603335 99.18683210126433 l 2.974845757804789 -0.11527927120231049 a23.9770785332433,23.9770785332433 0 0,0 0.01243189319671175,0.4125540119807629 l -2.9763893454571457 0.06405511179654849" fill="#ff0000" stroke="none" /><line stroke="#e1ed5e" stroke-width="0.3" x1="184.98032266829074" x2="189.97916517819016" y1="98.17113171792111" y2="98.06355123074" /><path d="M 185.9800911702706 98.14961562048488 a86.0,86.0 0 0,1 -9.607161424134198,41.387399972396054" fill="none" id="id52" stroke="none" /><text fill="#e1ed5e" style="font-size:6.75px; font-family:Arial;" text-anchor="middle"><textPath startOffset="21.466115282336823" xlink:href="#id52">April</textPath></text><path d="M 120.99513854157772 99.54816195383933 l 12.143946729802694 -0.26135084330150554 a33.14675868038795,33.14675868038795 0 0,0 0.007366461277722419,0.5705405440847555 l -12.146646198198132 0.05227404115628727" fill="#ff850c" stroke="none" /><path d="M 120.99980553446 99.90962569577887 l 20.52392469755389 -0.08832631385012475 a41.524114756271,41.524114756271 0 0,0 -0.0030761513274913674,0.7147892338273562 l -20.522404248936894 -0.26497239818091606" fill="#fff417" stroke="none" /><path d="M 120.9904718944345 100.63252640178507 l 16.33978257374788 0.4923826357645392 a37.34719961392034,37.34719961392034 0 0,0 -0.02489433993215487,0.6424122981360834 l -16.32888610096452 -0.7735721809146288" fill="#ffbd11" stroke="none" /><path d="M 120.9764740272857 100.99374915477107 l 62.92942208185712 2.9812474643131925 a84.0,84.0 0 0,0 -0.0808545964498828,1.4437131346583068 l -62.86878113451971 -4.064032315306923" fill="#4dd2ff" stroke="none" /><path d="M 120.89721153311464 102.0752229133903 l 13.543544445631005 1.3449580924974405 a34.61016195426626,34.61016195426626 0 0,0 -0.06397556341621298,0.5923342622155404 l -13.51838658071374 -1.5778886765977722" fill="#ff990e" stroke="none" /><path d="M 120.64145759157962 103.86396538481128 l 16.622772025572033 3.1116899289428686 a37.911509809240115,37.911509809240115 0 0,0 -0.12559553706774296,0.6404089376646136 l -16.566746555528628 -3.397362593675427" fill="#ffc512" stroke="none" /><path d="M 120.13307415673323 105.97154293290107 l 19.375491637995093 5.746841205750922 a41.209796140934586,41.209796140934586 0 0,0 -0.20756634010433186,0.6783388091690196 l -19.273698525384628 -6.079506987471999" fill="#fff016" stroke="none" /><path d="M 119.79798401119884 107.00284435728193 l 22.113189890341413 7.821767456599942 a44.45577142776216,44.45577142776216 0 0,0 -0.26139091569645995,0.7192355370654326 l -21.975274713639728 -8.201250790671507" fill="#e6ff1a" stroke="none" /><path d="M 119.12269723197855 108.67885076344098 l 14.46790559032929 6.566270016974472 a36.88824074926168,36.88824074926168 0 0,0 -0.2673965039124241,0.5759482807176295 l -14.352734469577035 -6.814338364970932" fill="#ffb711" stroke="none" /><line stroke="#e1ed5e" stroke-width="0.3" x1="174.80103733775053" x2="179.2010983576182" y1="140.37084112569926" y2="142.7455964860345" /><path d="M 175.68104954172406 140.8457921977663 a86.0,86.0 0 0,1 -30.038265399797805,32.042727171017184" fill="none" id="id53" stroke="none" /><text fill="#e1ed5e" style="font-size:6.75px; font-family:Arial;" text-anchor="middle"><textPath startOffset="22.206326154141568" xlink:href="#id53">May</textPath></text><path d="M 118.12598468904814 110.60418214915192 l 17.996246985550684 10.528282149063607 a41.849691378416935,41.849691378416935 0 0,0 -0.3691125328290398,0.6186538363346912 l -17.812353577023416 -10.836498079284402" fill="#fff817" stroke="none" /><path d="M 116.0416608686014 113.55231037782055 l 12.81591600119925 10.827137716412274 a37.777205192759375,37.777205192759375 0 0,0 -0.42392768434073425,0.4931236701433042 l -12.627645807287736 -11.046138485717105" fill="#ffc312" stroke="none" /><path d="M 115.56566222782051 114.09645910891815 l 14.874107187443219 13.470178183277785 a41.06700687478835,41.06700687478835 0 0,0 -0.47902432604018025,0.5198862974632114 l -14.640036453407316 -13.724215735542332" fill="#ffee16" stroke="none" /><path d="M 115.32070863581623 114.36230785411682 l 3.153453155961392 2.9561860424376403 a25.322418619748206,25.322418619748206 0 0,0 -0.3008465499460239,0.31543640484974966 l -3.1021000546364035 -3.0100295638698973" fill="#ff1402" stroke="none" /><path d="M 114.29624159901734 115.38237550388516 l 11.32167353468007 12.181819426919741 a37.63060480487569,37.63060480487569 0 0,0 -0.47826787505979595,0.4368863642452562 l -11.11030611015341 -12.374898557751582" fill="#ffc112" stroke="none" /><path d="M 113.75828350139079 115.86535959552629 l 2.0645545856894425 2.3807403665758655 a24.151239491110616,24.151239491110616 0 0,0 -0.31642094130763404,0.26966079078808614 l -2.0232681678047615 -2.4159255475868986" fill="#ff0300" stroke="none" /><path d="M 113.20401910651253 116.32954008644616 l 9.73012617604041 12.033342587293248 a36.47503438525524,36.47503438525524 0 0,0 -0.49161834217254646,0.3905713437495615 l -9.521550341150512 -12.199047845047934" fill="#ffb210" stroke="none" /><path d="M 112.04921762599082 117.19931262002967 l 8.985474743108606 12.826060076526952 a36.66035036152516,36.66035036152516 0 0,0 -0.5199539505949172,0.3576290684124348 l -8.763363907890806 -12.97882993430448" fill="#ffb410" stroke="none" /><line stroke="#e1ed5e" stroke-width="0.3" x1="143.8653032363475" x2="146.44561519142675" y1="172.8068346515853" y2="177.08958963109032" /><path d="M 144.38136562736335 173.6633856474863 a86.0,86.0 0 0,1 -40.68145358897372,12.25698825130547" fill="none" id="id54" stroke="none" /><text fill="#e1ed5e" style="font-size:6.75px; font-family:Arial;" text-anchor="middle"><textPath startOffset="21.466115282336833" xlink:href="#id54">June</textPath></text><path d="M 109.2508944713604 118.85261126421891 l 8.764305365538165 17.860980099700676 a40.895418031856096,40.895418031856096 0 0,0 -0.6346332701627027,0.3046625362784126 l -8.45555942737523 -18.00919691247865" fill="#ffec16" stroke="none" /><path d="M 107.93186726928326 119.44442032107085 l 11.47042743347088 28.11895417646135 a51.368508186680074,51.368508186680074 0 0,0 -0.8215999645274613,0.3269315817763083 l -10.984706392901552 -28.31223260264373" fill="#94ff23" stroke="none" /><path d="M 105.53697534728816 120.25689768951611 l 4.838313598252669 17.70085965753863 a39.35019648643892,39.35019648643892 0 0,0 -0.6549176071074208,0.17296969249057273 l -4.532905548333751 -17.781520699332784" fill="#ffd814" stroke="none" /><path d="M 105.18746579009965 120.34920634021253 l 4.5992723365849715 18.041861976346844 a39.61886381065251,39.61886381065251 0 0,0 -0.6622891429969348,0.16277455793385312 l -4.288029908844826 -18.118357792594725" fill="#ffdb14" stroke="none" /><path d="M 103.7750983002368 120.6578951692458 l 9.04129611235708 49.47530697981187 a71.29464222099551,71.29464222099551 0 0,0 -1.2091266740733222,0.21022217096001578 l -8.188320466811708 -49.62360772929289" fill="#3dffaa" stroke="none" /><path d="M 101.62511606390274 120.93702456842531 l 1.1976630533641277 15.429975329122621 a36.47638638205722,36.47638638205722 0 0,0 -0.626416346742197,0.04320133882787594 l -0.9318839458430003 -15.448305012466783" fill="#ffb210" stroke="none" /><line stroke="#e1ed5e" stroke-width="0.3" x1="102.19456741930631" x2="102.32365962044197" y1="184.97166512339345" y2="189.96999836594603" /><path d="M 102.22038585953345 185.97133177190398 a86.0,86.0 0 0,1 -42.740103519485714,-10.115201625700543" fill="none" id="id55" stroke="none" /><text fill="#e1ed5e" style="font-size:6.75px; font-family:Arial;" text-anchor="middle"><textPath startOffset="22.20632615414155" xlink:href="#id55">July</textPath></text><path d="M 100.54218724476979 120.99299961872073 l 0.3850671528621536 14.909451801377779 a35.91442354668193,35.91442354668193 0 0,0 -0.6181390659066088,0.010641824596433886 l -0.12836839706287684 -14.913871103253372" fill="#ffaa0f" stroke="none" /><path d="M 100.18074693466247 120.99922214144158 l 0.2732894528986076 31.750834065584506 a52.75201018810222,52.75201018810222 0 0,0 -0.9080727751221043,0.0 l 0.27328945289858575 -31.750834065584506" fill="#85ff25" stroke="none" /><path d="M 99.81925306533755 120.99922214144158 l -0.03509791795098633 4.077684510286616 a25.077835556919368,25.077835556919368 0 0,0 -0.43162574573874357,-0.0074308286448775485 l 0.10528335358239782 -4.076476204362579" fill="#ff1101" stroke="none" /><path d="M 98.73552117531835 120.96189622390904 l -0.9368649466889679 15.530877548112754 a36.55910901506919,36.55910901506919 0 0,0 -0.6278369592179373,-0.04329931258163687 l 1.2040646666858352 -15.512449891014832" fill="#ffb310" stroke="none" /><path d="M 97.65516085044442 120.86867818915974 l -2.192727419284729 19.5149091050755 a40.63771195721746,40.63771195721746 0 0,0 -0.694464781494381,-0.0840900136624983 l 2.528319623830499 -19.474273562687653" fill="#ffe815" stroke="none" /><path d="M 96.58105272829116 120.7198165907248 l -3.4307572394847465 20.79138843632882 a42.0725396748134,42.0725396748134 0 0,0 -0.7135322989508466,-0.12405673628075287 l 3.788138509907643 -20.729253121527062" fill="#fffb17" stroke="none" /><path d="M 96.22490169976321 120.6578951692458 l -3.52585924344942 19.29402225847356 a40.61354068787915,40.61354068787915 0 0,0 -0.6866248681479646,-0.13159329016151336 l 3.8574517261690797 -19.23047176996358" fill="#ffe815" stroke="none" /><path d="M 95.51606077576429 120.51570834832081 l -3.9611211357826166 18.12361896317564 a39.55144320463299,39.55144320463299 0 0,0 -0.6638612758126531,-0.151092665028203 l 4.272502560988133 -18.05274956456975" fill="#ffda14" stroke="none" /><path d="M 94.46302465271185 120.25689768951611 l -5.632109676764685 20.604944458391596 a42.360814486917604,42.360814486917604 0 0,0 -0.7017146216048179,-0.1983115613034245 l 5.985955466474117 -20.50494410374965" fill="#fffe18" stroke="none" /><path d="M 93.42475214034765 119.94407469862007 l -6.683636611912128 20.27284000415693 a42.34617155824992,42.34617155824992 0 0,0 -0.6903036294581785,-0.23418847052737146 l 7.031609974307532 -20.154788546731435" fill="#fffe18" stroke="none" /><path d="M 92.7421414339146 119.70592522655815 l -5.413693376902365 14.698803498769616 a36.66406397696838,36.66406397696838 0 0,0 -0.5903434218363419,-0.22321736845989332 l 5.66590701949899 -14.603437880203089" fill="#ffb410" stroke="none" /><path d="M 92.06813273071674 119.44442032107085 l -5.89081950843899 14.440933851885056 a36.596227909194106,36.596227909194106 0 0,0 -0.5812326896405594,-0.24295531140912158 l 6.138523657577012 -14.337393497455961" fill="#ffb410" stroke="none" /><path d="M 91.7346041902142 119.30500536409082 l -1.4885322754865336 3.4766784585037995 a24.781933558246294,24.781933558246294 0 0,0 -0.3907040877686102,-0.1712731903430134 l 1.548157037912887 -3.4505407148663343" fill="#ff0c01" stroke="none" /><path d="M 91.40352486487194 119.15986991738527 l -12.596624104516033 28.075423408658743 a51.77181077554484,51.77181077554484 0 0,0 -0.8099379408018885,-0.371802783674755 l 13.078030041085341 -27.854433554649916" fill="#90ff24" stroke="none" /><path d="M 91.07499286063937 119.00905698771935 l -6.603007808596845 14.063512752883359 a36.53647653333611,36.53647653333611 0 0,0 -0.5669892789581272,-0.27218930978164424 l 6.844109755555214 -13.947769166602152" fill="#ffb310" stroke="none" /><path d="M 90.7491055286396 118.85261126421891 l -6.862308013762822 13.984855816842952 a36.57778750316102,36.57778750316102 0 0,0 -0.5628556712979448,-0.2822275182808537 l 7.102017592743527 -13.864660457652796" fill="#ffb310" stroke="none" /><path d="M 90.42595943632237 118.69057910512821 l -7.102919981982732 13.866422114849337 a36.57976683194047,36.57976683194047 0 0,0 -0.5579443857014325,-0.29189013251881146 l 7.340555270210659 -13.742102563385808" fill="#ffb310" stroke="none" /><path d="M 90.10565033884886 118.52300852407294 l -7.352964050908192 13.765332786544002 a36.60610351940072,36.60610351940072 0 0,0 -0.5532353430206125,-0.3016680198420015 l 7.588822205797445 -13.636724114942236" fill="#ffb410" stroke="none" /><line stroke="#e1ed5e" stroke-width="0.3" x1="58.666819895761336" x2="56.23545636021788" y1="174.27360380694188" y2="178.64263932499728" /><path d="M 58.180547188652646 175.14741091055294 a86.0,86.0 0 0,1 -31.652253787137756,-30.449443065178592" fill="none" id="id56" stroke="none" /><text fill="#e1ed5e" style="font-size:6.75px; font-family:Arial;" text-anchor="middle"><textPath startOffset="22.20632615414155" xlink:href="#id56">August</textPath></text><path d="M 89.7882731507175 118.34994917583269 l -7.294769344558489 13.108326211396454 a36.00139579688149,36.00139579688149 0 0,0 -0.5389087219670173,-0.3060064369865594 l 7.519326833446713 -12.980816608615262" fill="#ffac0f" stroke="none" /><path d="M 89.4739219176387 118.17145234162733 l -7.70426092942955 13.300073323718424 a36.370347650102815,36.370347650102815 0 0,0 -0.539029558599018,-0.3184681643844561 l 7.93205835905695 -13.165486587040219" fill="#ffb010" stroke="none" /><path d="M 88.8546689885994 117.79835938074946 l -8.420472448988857 13.446939767827446 a36.865829489306876,36.865829489306876 0 0,0 -0.5349375775250942,-0.3414224716720043 l 8.650691828560875 -13.300002867331639" fill="#ffb711" stroke="none" /><path d="M 88.54995079064634 117.60387380957326 l -8.87620495703655 13.64671794108388 a37.279432576193216,37.279432576193216 0 0,0 -0.5349160119916525,-0.354513164669455 l 9.109795667768164 -13.491906755323107" fill="#ffbd11" stroke="none" /><path d="M 88.24862548938628 117.40417183066458 l -9.452497279705884 13.999459104660863 a37.8918489232505,37.8918489232505 0 0,0 -0.5374203014618909,-0.3696425838054257 l 9.692074465790666 -13.834675731490337" fill="#ffc512" stroke="none" /><path d="M 87.95078237400918 117.19931262002967 l -9.57158437599649 13.662685583556142 a37.68185255965095,37.68185255965095 0 0,0 -0.5280352116348926,-0.3767391032970862 l 9.80534691548027 -13.495902218414836" fill="#ffc212" stroke="none" /><path d="M 87.65650970185807 116.9893568818739 l -12.179779387626196 16.764028144456166 a41.72147836326748,41.72147836326748 0 0,0 -0.5773756508915338,-0.42712870342721854 l 12.466540008936294 -16.551889492289177" fill="#fff617" stroke="none" /><path d="M 87.36589467227662 116.77436683061367 l -10.56884345858137 14.032307991017987 a38.56718872235354,38.56718872235354 0 0,0 -0.5268484984387247,-0.4039649626303353 l 10.80882068551358 -13.848303686560284" fill="#ffce13" stroke="none" /><path d="M 87.07902340077011 116.55440617244103 l -13.07521532619721 16.752017437667654 a42.25067867288816,42.25067867288816 0 0,0 -0.5694637155222624,-0.45241641637139335 l 13.36163653443683 -16.52446710729113" fill="#fffd17" stroke="none" /><path d="M 86.79598089348748 116.32954008644616 l -11.388956682592518 14.084834563702321 a39.113279631387364,39.113279631387364 0 0,0 -0.519889748366895,-0.4278338689920804 l 11.629716559504102 -13.88670557585306" fill="#ffd513" stroke="none" /><path d="M 86.51685102203217 116.09983520530335 l -12.863316662103394 15.359711502995703 a41.03461137643566,41.03461137643566 0 0,0 -0.5376208688048247,-0.4581721678311411 l 13.125803007485276 -15.13601494494161" fill="#ffed16" stroke="none" /><line stroke="#e1ed5e" stroke-width="0.3" x1="26.63291911575756" x2="22.317208475507996" y1="142.92168965132927" y2="145.44649492493687" /><path d="M 25.769776987707644 143.4266507060508 a86.0,86.0 0 0,1 -11.730757126820373,-40.83630448921669" fill="none" id="id57" stroke="none" /><text fill="#e1ed5e" style="font-size:6.75px; font-family:Arial;" text-anchor="middle"><textPath startOffset="21.46611528233685" xlink:href="#id57">September</textPath></text><line stroke="#e1ed5e" stroke-width="0.3" x1="15.007084014347285" x2="10.007500721073583" y1="101.09737516637583" y2="101.16192664675087" /><path d="M 14.007167355692545 101.11028546245083 a86.0,86.0 0 0,1 10.666146001902534,-42.60595125391555" fill="none" id="id58" stroke="none" /><text fill="#e1ed5e" style="font-size:6.75px; font-family:Arial;" text-anchor="middle"><textPath startOffset="22.20632615414155" xlink:href="#id58">October</textPath></text><line stroke="#e1ed5e" stroke-width="0.3" x1="26.266209847984243" x2="21.928928074336255" y1="57.711370442889674" y2="55.22380399835377" /><path d="M 25.398753493254645 57.213857153982495 a86.0,86.0 0 0,1 29.58750427330803,-30.492523968695096" fill="none" id="id59" stroke="none" /><text fill="#e1ed5e" style="font-size:6.75px; font-family:Arial;" text-anchor="middle"><textPath startOffset="21.46611528233685" xlink:href="#id59">November</textPath></text><line stroke="#e1ed5e" stroke-width="0.3" x1="56.762969772571076" x2="54.21961505331055" y1="26.818313649435495" y2="22.513508569990535" /><path d="M 56.25429882871897 25.957352633546506 a86.0,86.0 0 0,1 42.265352541879196,-11.944610805530505" fill="none" id="id60" stroke="none" /><text fill="#e1ed5e" style="font-size:6.75px; font-family:Arial;" text-anchor="middle"><textPath startOffset="22.20632615414155" xlink:href="#id60">December</textPath></text></svg>